G04 EAGLE Gerber RS-274X export*
G75*
%MOMM*%
%FSLAX34Y34*%
%LPD*%
%INLayer 3*%
%IPPOS*%
%AMOC8*
5,1,8,0,0,1.08239X$1,22.5*%
G01*
%ADD10C,0.000000*%
%ADD11C,1.524000*%
%ADD12C,0.127000*%
%ADD13C,0.403200*%


D10*
X0Y0D02*
X492000Y0D01*
X492000Y203200D01*
X0Y203200D01*
X0Y0D01*
D11*
X101600Y177800D03*
X127000Y177800D03*
X152400Y177800D03*
X177800Y177800D03*
X203200Y177800D03*
X228600Y177800D03*
X254000Y177800D03*
X279400Y177800D03*
X304800Y177800D03*
X330200Y177800D03*
X355600Y177800D03*
X381000Y177800D03*
X101600Y25400D03*
X127000Y25400D03*
X152400Y25400D03*
X177800Y25400D03*
X203200Y25400D03*
X228600Y25400D03*
X254000Y25400D03*
X279400Y25400D03*
X304800Y25400D03*
X330200Y25400D03*
X355600Y25400D03*
X381000Y25400D03*
D12*
X272499Y143220D02*
X166034Y143220D01*
X159697Y136883D01*
D13*
X55767Y145755D03*
X70977Y144488D03*
X159697Y136883D03*
X272499Y143220D03*
X422057Y143220D03*
D12*
X347278Y121674D02*
X288976Y179976D01*
X288976Y182511D01*
X283906Y187581D01*
X162232Y187581D01*
X153360Y178709D01*
X152400Y177800D01*
D13*
X347278Y121674D03*
D12*
X195185Y120407D02*
X148290Y120407D01*
X111535Y83651D01*
X318127Y102662D02*
X318127Y114069D01*
X328266Y124209D01*
X328266Y126744D01*
X324464Y130546D01*
X205325Y130546D01*
X195185Y120407D01*
D13*
X111535Y83651D03*
X195185Y120407D03*
X318127Y102662D03*
X418254Y125476D03*
D12*
X196453Y107732D02*
X183778Y107732D01*
X196453Y107732D02*
X214197Y125476D01*
X323197Y125476D01*
D13*
X98860Y110267D03*
X183778Y107732D03*
X323197Y125476D03*
X382766Y135616D03*
X101395Y122941D03*
X181244Y112802D03*
X309255Y149558D03*
X400510Y115337D03*
X272499Y149558D03*
X371359Y112802D03*
X68442Y115337D03*
X128011Y106465D03*
X96325Y102662D03*
X179976Y88721D03*
X290243Y92523D03*
X405580Y95058D03*
X101395Y78581D03*
X193918Y93790D03*
X334604Y107732D03*
X444871Y109000D03*
D12*
X334604Y95058D02*
X311790Y95058D01*
X300383Y106465D01*
X201523Y106465D01*
D13*
X171104Y134348D03*
X201523Y106465D03*
X334604Y95058D03*
X456278Y89988D03*
D12*
X422057Y81116D02*
X415720Y81116D01*
X406847Y89988D01*
X310522Y89988D01*
X306720Y93790D01*
D13*
X107732Y79849D03*
X209127Y79849D03*
X306720Y93790D03*
X422057Y81116D03*
X202790Y79849D03*
X224336Y54500D03*
X239546Y59570D03*
X363755Y54500D03*
X86186Y81116D03*
X96325Y96325D03*
X188848Y77314D03*
X224336Y84918D03*
X405580Y84918D03*
X68442Y89988D03*
X124209Y87453D03*
X262360Y136883D03*
X371359Y95058D03*
D12*
X93790Y78581D02*
X93790Y65907D01*
X93790Y78581D02*
X178709Y163499D01*
X214197Y163499D01*
X228139Y177441D01*
X228600Y177800D01*
D13*
X93790Y65907D03*
X126744Y65907D03*
X259825Y77314D03*
D12*
X93790Y59570D02*
X88721Y64639D01*
X88721Y77314D01*
X178709Y167302D01*
X192651Y167302D01*
X202790Y177441D01*
X203200Y177800D01*
X150825Y67174D02*
X294046Y67174D01*
X150825Y67174D02*
X144488Y60837D01*
D13*
X93790Y59570D03*
X144488Y60837D03*
X294046Y67174D03*
X414452Y68442D03*
D12*
X278836Y88721D02*
X278836Y96325D01*
X278836Y88721D02*
X329534Y38023D01*
X329534Y26616D01*
X330200Y25400D01*
D13*
X278836Y96325D03*
X166034Y7605D03*
M02*
