G04 EAGLE Gerber RS-274X export*
G75*
%MOMM*%
%FSLAX34Y34*%
%LPD*%
%INSolder paste top*%
%IPPOS*%
%AMOC8*
5,1,8,0,0,1.08239X$1,22.5*%
G01*
%ADD10C,0.000000*%
%ADD11R,0.800000X0.800000*%
%ADD12R,0.800000X0.800000*%


D10*
X0Y0D02*
X492000Y0D01*
X492000Y203200D01*
X0Y203200D01*
X0Y0D01*
D11*
X63620Y142240D03*
X78620Y142240D03*
X50800Y129420D03*
X50800Y114420D03*
X132080Y129420D03*
X132080Y114420D03*
X132080Y73780D03*
X132080Y88780D03*
D12*
G36*
X72743Y125953D02*
X67087Y120297D01*
X61431Y125953D01*
X67087Y131609D01*
X72743Y125953D01*
G37*
G36*
X83349Y115347D02*
X77693Y109691D01*
X72037Y115347D01*
X77693Y121003D01*
X83349Y115347D01*
G37*
G36*
X115793Y120297D02*
X110137Y125953D01*
X115793Y131609D01*
X121449Y125953D01*
X115793Y120297D01*
G37*
G36*
X105187Y109691D02*
X99531Y115347D01*
X105187Y121003D01*
X110843Y115347D01*
X105187Y109691D01*
G37*
G36*
X67087Y82903D02*
X72743Y77247D01*
X67087Y71591D01*
X61431Y77247D01*
X67087Y82903D01*
G37*
G36*
X77693Y93509D02*
X83349Y87853D01*
X77693Y82197D01*
X72037Y87853D01*
X77693Y93509D01*
G37*
G36*
X110137Y77247D02*
X115793Y82903D01*
X121449Y77247D01*
X115793Y71591D01*
X110137Y77247D01*
G37*
G36*
X99531Y87853D02*
X105187Y93509D01*
X110843Y87853D01*
X105187Y82197D01*
X99531Y87853D01*
G37*
D11*
X119260Y142240D03*
X104260Y142240D03*
X91440Y129420D03*
X91440Y114420D03*
X91440Y73780D03*
X91440Y88780D03*
X63620Y101600D03*
X78620Y101600D03*
X119260Y101600D03*
X104260Y101600D03*
X119260Y60960D03*
X104260Y60960D03*
X63620Y60960D03*
X78620Y60960D03*
X50800Y73780D03*
X50800Y88780D03*
X175380Y142240D03*
X190380Y142240D03*
X231020Y142240D03*
X216020Y142240D03*
X203200Y129420D03*
X203200Y114420D03*
X203200Y72510D03*
X203200Y87510D03*
X175380Y101600D03*
X190380Y101600D03*
X231020Y101600D03*
X216020Y101600D03*
X231020Y60960D03*
X216020Y60960D03*
X175380Y60960D03*
X190380Y60960D03*
X162560Y73780D03*
X162560Y88780D03*
X162560Y129420D03*
X162560Y114420D03*
X243840Y128150D03*
X243840Y113150D03*
X243840Y73780D03*
X243840Y88780D03*
D12*
G36*
X184503Y125953D02*
X178847Y120297D01*
X173191Y125953D01*
X178847Y131609D01*
X184503Y125953D01*
G37*
G36*
X195109Y115347D02*
X189453Y109691D01*
X183797Y115347D01*
X189453Y121003D01*
X195109Y115347D01*
G37*
G36*
X227553Y120297D02*
X221897Y125953D01*
X227553Y131609D01*
X233209Y125953D01*
X227553Y120297D01*
G37*
G36*
X216947Y109691D02*
X211291Y115347D01*
X216947Y121003D01*
X222603Y115347D01*
X216947Y109691D01*
G37*
G36*
X178847Y82903D02*
X184503Y77247D01*
X178847Y71591D01*
X173191Y77247D01*
X178847Y82903D01*
G37*
G36*
X189453Y93509D02*
X195109Y87853D01*
X189453Y82197D01*
X183797Y87853D01*
X189453Y93509D01*
G37*
G36*
X221897Y77247D02*
X227553Y82903D01*
X233209Y77247D01*
X227553Y71591D01*
X221897Y77247D01*
G37*
G36*
X211291Y87853D02*
X216947Y93509D01*
X222603Y87853D01*
X216947Y82197D01*
X211291Y87853D01*
G37*
D11*
X287140Y142240D03*
X302140Y142240D03*
X342780Y142240D03*
X327780Y142240D03*
X314960Y129420D03*
X314960Y114420D03*
X314960Y88780D03*
X314960Y73780D03*
X287140Y101600D03*
X302140Y101600D03*
X342780Y101600D03*
X327780Y101600D03*
X342780Y60960D03*
X327780Y60960D03*
X287140Y60960D03*
X302140Y60960D03*
X274320Y73780D03*
X274320Y88780D03*
X274320Y128150D03*
X274320Y113150D03*
X355600Y128150D03*
X355600Y113150D03*
X355600Y73780D03*
X355600Y88780D03*
D12*
G36*
X296263Y125953D02*
X290607Y120297D01*
X284951Y125953D01*
X290607Y131609D01*
X296263Y125953D01*
G37*
G36*
X306869Y115347D02*
X301213Y109691D01*
X295557Y115347D01*
X301213Y121003D01*
X306869Y115347D01*
G37*
G36*
X339313Y120297D02*
X333657Y125953D01*
X339313Y131609D01*
X344969Y125953D01*
X339313Y120297D01*
G37*
G36*
X328707Y109691D02*
X323051Y115347D01*
X328707Y121003D01*
X334363Y115347D01*
X328707Y109691D01*
G37*
G36*
X290607Y82903D02*
X296263Y77247D01*
X290607Y71591D01*
X284951Y77247D01*
X290607Y82903D01*
G37*
G36*
X301213Y93509D02*
X306869Y87853D01*
X301213Y82197D01*
X295557Y87853D01*
X301213Y93509D01*
G37*
G36*
X333657Y77247D02*
X339313Y82903D01*
X344969Y77247D01*
X339313Y71591D01*
X333657Y77247D01*
G37*
G36*
X323051Y87853D02*
X328707Y93509D01*
X334363Y87853D01*
X328707Y82197D01*
X323051Y87853D01*
G37*
D11*
X398900Y142240D03*
X413900Y142240D03*
X454540Y142240D03*
X439540Y142240D03*
X426720Y129420D03*
X426720Y114420D03*
X426720Y88780D03*
X426720Y73780D03*
X398900Y101600D03*
X413900Y101600D03*
X454540Y101600D03*
X439540Y101600D03*
X454540Y60960D03*
X439540Y60960D03*
X398900Y60960D03*
X413900Y60960D03*
X386080Y73780D03*
X386080Y88780D03*
X386080Y128150D03*
X386080Y113150D03*
X467360Y128150D03*
X467360Y113150D03*
X467360Y73780D03*
X467360Y88780D03*
D12*
G36*
X408023Y125953D02*
X402367Y120297D01*
X396711Y125953D01*
X402367Y131609D01*
X408023Y125953D01*
G37*
G36*
X418629Y115347D02*
X412973Y109691D01*
X407317Y115347D01*
X412973Y121003D01*
X418629Y115347D01*
G37*
G36*
X451073Y120297D02*
X445417Y125953D01*
X451073Y131609D01*
X456729Y125953D01*
X451073Y120297D01*
G37*
G36*
X440467Y109691D02*
X434811Y115347D01*
X440467Y121003D01*
X446123Y115347D01*
X440467Y109691D01*
G37*
G36*
X402367Y82903D02*
X408023Y77247D01*
X402367Y71591D01*
X396711Y77247D01*
X402367Y82903D01*
G37*
G36*
X412973Y93509D02*
X418629Y87853D01*
X412973Y82197D01*
X407317Y87853D01*
X412973Y93509D01*
G37*
G36*
X445417Y77247D02*
X451073Y82903D01*
X456729Y77247D01*
X451073Y71591D01*
X445417Y77247D01*
G37*
G36*
X434811Y87853D02*
X440467Y93509D01*
X446123Y87853D01*
X440467Y82197D01*
X434811Y87853D01*
G37*
D11*
X20320Y129420D03*
X20320Y114420D03*
X20320Y88780D03*
X20320Y73780D03*
M02*
