G04 EAGLE Gerber RS-274X export*
G75*
%MOMM*%
%FSLAX34Y34*%
%LPD*%
%INBottom layer*%
%IPPOS*%
%AMOC8*
5,1,8,0,0,1.08239X$1,22.5*%
G01*
%ADD10C,0.000000*%
%ADD11C,0.050800*%
%ADD12C,1.524000*%
%ADD13C,0.127000*%
%ADD14C,0.403200*%

G36*
X162887Y2552D02*
X162887Y2552D01*
X162959Y2554D01*
X163008Y2572D01*
X163059Y2580D01*
X163122Y2614D01*
X163190Y2639D01*
X163230Y2671D01*
X163276Y2696D01*
X163326Y2748D01*
X163382Y2792D01*
X163410Y2836D01*
X163446Y2874D01*
X163476Y2939D01*
X163515Y2999D01*
X163527Y3050D01*
X163549Y3097D01*
X163557Y3168D01*
X163575Y3238D01*
X163571Y3290D01*
X163576Y3341D01*
X163561Y3412D01*
X163556Y3483D01*
X163535Y3531D01*
X163524Y3582D01*
X163487Y3643D01*
X163459Y3709D01*
X163414Y3765D01*
X163398Y3793D01*
X163380Y3808D01*
X163354Y3840D01*
X161478Y5717D01*
X161478Y9492D01*
X164147Y12161D01*
X167990Y12161D01*
X168035Y12169D01*
X168081Y12167D01*
X168156Y12189D01*
X168233Y12201D01*
X168273Y12223D01*
X168318Y12235D01*
X168382Y12280D01*
X168450Y12316D01*
X168482Y12349D01*
X168520Y12376D01*
X168566Y12438D01*
X168620Y12495D01*
X168639Y12536D01*
X168666Y12573D01*
X168690Y12647D01*
X168723Y12718D01*
X168728Y12763D01*
X168743Y12807D01*
X168742Y12885D01*
X168750Y12962D01*
X168741Y13007D01*
X168740Y13053D01*
X168702Y13184D01*
X168698Y13202D01*
X168696Y13207D01*
X168693Y13214D01*
X167639Y15759D01*
X167639Y35041D01*
X169186Y38776D01*
X172044Y41634D01*
X175779Y43181D01*
X179821Y43181D01*
X183556Y41634D01*
X186414Y38776D01*
X187961Y35041D01*
X187961Y15759D01*
X186414Y12024D01*
X183556Y9166D01*
X179821Y7619D01*
X175779Y7619D01*
X172044Y9166D01*
X171891Y9320D01*
X171832Y9362D01*
X171780Y9411D01*
X171733Y9433D01*
X171691Y9464D01*
X171622Y9485D01*
X171557Y9515D01*
X171506Y9521D01*
X171456Y9536D01*
X171384Y9534D01*
X171313Y9542D01*
X171262Y9531D01*
X171210Y9530D01*
X171143Y9505D01*
X171072Y9490D01*
X171028Y9463D01*
X170979Y9445D01*
X170923Y9400D01*
X170861Y9363D01*
X170828Y9324D01*
X170787Y9291D01*
X170748Y9231D01*
X170701Y9177D01*
X170682Y9128D01*
X170654Y9084D01*
X170636Y9015D01*
X170610Y8948D01*
X170602Y8877D01*
X170594Y8846D01*
X170596Y8823D01*
X170591Y8782D01*
X170591Y7854D01*
X170593Y7841D01*
X170592Y7830D01*
X170604Y7775D01*
X170606Y7764D01*
X170613Y7673D01*
X170626Y7644D01*
X170631Y7612D01*
X170674Y7531D01*
X170709Y7447D01*
X170735Y7415D01*
X170746Y7394D01*
X170769Y7372D01*
X170814Y7316D01*
X172197Y5934D01*
X172270Y5880D01*
X172340Y5821D01*
X172370Y5809D01*
X172396Y5790D01*
X172483Y5763D01*
X172568Y5729D01*
X172609Y5725D01*
X172631Y5718D01*
X172664Y5719D01*
X172735Y5711D01*
X232845Y5711D01*
X232935Y5725D01*
X233026Y5732D01*
X233056Y5745D01*
X233088Y5750D01*
X233169Y5793D01*
X233252Y5829D01*
X233285Y5854D01*
X233305Y5865D01*
X233327Y5889D01*
X233383Y5934D01*
X238230Y10780D01*
X239182Y10780D01*
X239272Y10795D01*
X239363Y10802D01*
X239393Y10815D01*
X239425Y10820D01*
X239506Y10863D01*
X239590Y10899D01*
X239622Y10924D01*
X239642Y10935D01*
X239665Y10959D01*
X239721Y11003D01*
X243666Y14949D01*
X243709Y15008D01*
X243752Y15054D01*
X243769Y15091D01*
X243804Y15138D01*
X243806Y15144D01*
X243810Y15149D01*
X243836Y15235D01*
X243856Y15277D01*
X243859Y15307D01*
X243880Y15371D01*
X243880Y15378D01*
X243882Y15384D01*
X243879Y15489D01*
X243883Y15521D01*
X243879Y15541D01*
X243878Y15617D01*
X243876Y15625D01*
X243876Y15630D01*
X243869Y15647D01*
X243839Y15751D01*
X243839Y35041D01*
X245386Y38776D01*
X248244Y41634D01*
X251979Y43181D01*
X256021Y43181D01*
X259756Y41634D01*
X262614Y38776D01*
X264161Y35041D01*
X264161Y15759D01*
X262614Y12024D01*
X259756Y9166D01*
X256021Y7619D01*
X251979Y7619D01*
X248244Y9166D01*
X248093Y9317D01*
X248077Y9329D01*
X248065Y9344D01*
X247978Y9400D01*
X247894Y9461D01*
X247875Y9467D01*
X247858Y9477D01*
X247758Y9503D01*
X247659Y9533D01*
X247639Y9533D01*
X247619Y9537D01*
X247516Y9529D01*
X247413Y9527D01*
X247394Y9520D01*
X247374Y9518D01*
X247279Y9478D01*
X247182Y9442D01*
X247166Y9430D01*
X247148Y9422D01*
X247017Y9317D01*
X242129Y4429D01*
X241176Y4429D01*
X241087Y4414D01*
X240995Y4407D01*
X240966Y4394D01*
X240934Y4389D01*
X240853Y4347D01*
X240769Y4311D01*
X240737Y4285D01*
X240716Y4274D01*
X240694Y4251D01*
X240638Y4206D01*
X240273Y3840D01*
X240231Y3782D01*
X240181Y3730D01*
X240159Y3683D01*
X240129Y3641D01*
X240108Y3572D01*
X240078Y3507D01*
X240072Y3455D01*
X240057Y3405D01*
X240058Y3334D01*
X240051Y3263D01*
X240062Y3212D01*
X240063Y3160D01*
X240088Y3092D01*
X240103Y3022D01*
X240130Y2977D01*
X240147Y2929D01*
X240192Y2873D01*
X240229Y2811D01*
X240269Y2777D01*
X240301Y2737D01*
X240361Y2698D01*
X240416Y2651D01*
X240464Y2632D01*
X240508Y2604D01*
X240577Y2586D01*
X240644Y2559D01*
X240715Y2551D01*
X240747Y2543D01*
X240770Y2545D01*
X240811Y2541D01*
X488698Y2541D01*
X488718Y2544D01*
X488737Y2542D01*
X488839Y2564D01*
X488941Y2580D01*
X488958Y2590D01*
X488978Y2594D01*
X489067Y2647D01*
X489158Y2696D01*
X489172Y2710D01*
X489189Y2720D01*
X489256Y2799D01*
X489328Y2874D01*
X489336Y2892D01*
X489349Y2907D01*
X489388Y3003D01*
X489431Y3097D01*
X489433Y3117D01*
X489441Y3135D01*
X489459Y3302D01*
X489459Y199898D01*
X489456Y199918D01*
X489458Y199937D01*
X489436Y200039D01*
X489420Y200141D01*
X489410Y200158D01*
X489406Y200178D01*
X489353Y200267D01*
X489304Y200358D01*
X489290Y200372D01*
X489280Y200389D01*
X489201Y200456D01*
X489126Y200528D01*
X489108Y200536D01*
X489093Y200549D01*
X488997Y200588D01*
X488903Y200631D01*
X488883Y200633D01*
X488865Y200641D01*
X488698Y200659D01*
X3302Y200659D01*
X3282Y200656D01*
X3263Y200658D01*
X3161Y200636D01*
X3059Y200620D01*
X3042Y200610D01*
X3022Y200606D01*
X2933Y200553D01*
X2842Y200504D01*
X2828Y200490D01*
X2811Y200480D01*
X2744Y200401D01*
X2672Y200326D01*
X2664Y200308D01*
X2651Y200293D01*
X2612Y200197D01*
X2569Y200103D01*
X2567Y200083D01*
X2559Y200065D01*
X2541Y199898D01*
X2541Y3302D01*
X2544Y3282D01*
X2542Y3263D01*
X2564Y3161D01*
X2580Y3059D01*
X2590Y3042D01*
X2594Y3022D01*
X2647Y2933D01*
X2696Y2842D01*
X2710Y2828D01*
X2720Y2811D01*
X2799Y2744D01*
X2874Y2672D01*
X2892Y2664D01*
X2907Y2651D01*
X3003Y2612D01*
X3097Y2569D01*
X3117Y2567D01*
X3135Y2559D01*
X3302Y2541D01*
X162816Y2541D01*
X162887Y2552D01*
G37*
%LPC*%
G36*
X99579Y7619D02*
X99579Y7619D01*
X95844Y9166D01*
X92986Y12024D01*
X91439Y15759D01*
X91439Y35041D01*
X92986Y38776D01*
X95461Y41251D01*
X95514Y41325D01*
X95574Y41394D01*
X95586Y41424D01*
X95605Y41451D01*
X95632Y41538D01*
X95666Y41622D01*
X95670Y41663D01*
X95677Y41686D01*
X95676Y41718D01*
X95684Y41789D01*
X95684Y54252D01*
X95681Y54271D01*
X95683Y54291D01*
X95661Y54392D01*
X95645Y54494D01*
X95635Y54512D01*
X95631Y54531D01*
X95578Y54620D01*
X95530Y54712D01*
X95515Y54725D01*
X95505Y54743D01*
X95426Y54810D01*
X95351Y54881D01*
X95333Y54889D01*
X95318Y54902D01*
X95222Y54941D01*
X95128Y54985D01*
X95108Y54987D01*
X95090Y54994D01*
X94923Y55013D01*
X91903Y55013D01*
X89234Y57682D01*
X89234Y59320D01*
X89219Y59410D01*
X89212Y59501D01*
X89199Y59531D01*
X89194Y59563D01*
X89151Y59643D01*
X89115Y59727D01*
X89090Y59759D01*
X89079Y59780D01*
X89055Y59802D01*
X89011Y59858D01*
X85545Y63324D01*
X85545Y75798D01*
X85542Y75818D01*
X85544Y75837D01*
X85522Y75939D01*
X85505Y76041D01*
X85496Y76058D01*
X85492Y76078D01*
X85438Y76167D01*
X85390Y76258D01*
X85376Y76272D01*
X85365Y76289D01*
X85287Y76356D01*
X85212Y76428D01*
X85194Y76436D01*
X85179Y76449D01*
X85082Y76488D01*
X84989Y76531D01*
X84969Y76533D01*
X84950Y76541D01*
X84784Y76559D01*
X84298Y76559D01*
X81629Y79229D01*
X81629Y83003D01*
X84138Y85513D01*
X84180Y85571D01*
X84230Y85623D01*
X84252Y85670D01*
X84282Y85713D01*
X84303Y85781D01*
X84333Y85846D01*
X84339Y85898D01*
X84354Y85948D01*
X84352Y86019D01*
X84360Y86091D01*
X84349Y86141D01*
X84348Y86193D01*
X84323Y86261D01*
X84308Y86331D01*
X84281Y86376D01*
X84263Y86425D01*
X84219Y86481D01*
X84182Y86542D01*
X84142Y86576D01*
X84110Y86617D01*
X84049Y86655D01*
X83995Y86702D01*
X83947Y86721D01*
X83903Y86750D01*
X83833Y86767D01*
X83767Y86794D01*
X83695Y86802D01*
X83664Y86810D01*
X83641Y86808D01*
X83600Y86812D01*
X72025Y86812D01*
X71935Y86798D01*
X71844Y86790D01*
X71815Y86778D01*
X71783Y86773D01*
X71702Y86730D01*
X71618Y86694D01*
X71586Y86668D01*
X71565Y86658D01*
X71543Y86634D01*
X71487Y86589D01*
X70329Y85431D01*
X66554Y85431D01*
X63885Y88101D01*
X63885Y91876D01*
X66554Y94545D01*
X70329Y94545D01*
X71487Y93387D01*
X71561Y93334D01*
X71631Y93274D01*
X71661Y93262D01*
X71687Y93243D01*
X71774Y93216D01*
X71859Y93182D01*
X71900Y93178D01*
X71922Y93171D01*
X71954Y93172D01*
X72025Y93164D01*
X91205Y93164D01*
X91275Y93175D01*
X91347Y93177D01*
X91396Y93195D01*
X91447Y93204D01*
X91511Y93237D01*
X91578Y93262D01*
X91619Y93294D01*
X91665Y93319D01*
X91714Y93371D01*
X91770Y93415D01*
X91798Y93459D01*
X91834Y93497D01*
X91864Y93562D01*
X91903Y93622D01*
X91916Y93673D01*
X91938Y93720D01*
X91946Y93791D01*
X91963Y93861D01*
X91959Y93913D01*
X91965Y93965D01*
X91950Y94035D01*
X91944Y94106D01*
X91924Y94154D01*
X91913Y94205D01*
X91876Y94267D01*
X91848Y94332D01*
X91803Y94388D01*
X91786Y94416D01*
X91769Y94431D01*
X91769Y98213D01*
X92511Y98956D01*
X92523Y98972D01*
X92539Y98984D01*
X92595Y99071D01*
X92655Y99155D01*
X92661Y99174D01*
X92672Y99191D01*
X92697Y99292D01*
X92727Y99390D01*
X92727Y99410D01*
X92732Y99430D01*
X92724Y99533D01*
X92721Y99636D01*
X92714Y99655D01*
X92712Y99675D01*
X92672Y99769D01*
X92636Y99867D01*
X92624Y99883D01*
X92616Y99901D01*
X92511Y100032D01*
X91769Y100775D01*
X91769Y104550D01*
X94413Y107194D01*
X94424Y107210D01*
X94440Y107223D01*
X94496Y107310D01*
X94556Y107394D01*
X94562Y107413D01*
X94573Y107429D01*
X94598Y107530D01*
X94628Y107629D01*
X94628Y107649D01*
X94633Y107668D01*
X94625Y107771D01*
X94622Y107875D01*
X94615Y107893D01*
X94614Y107913D01*
X94573Y108008D01*
X94538Y108106D01*
X94525Y108121D01*
X94517Y108139D01*
X94413Y108270D01*
X94303Y108380D01*
X94303Y111400D01*
X94300Y111419D01*
X94302Y111439D01*
X94280Y111541D01*
X94264Y111643D01*
X94254Y111660D01*
X94250Y111680D01*
X94197Y111769D01*
X94149Y111860D01*
X94134Y111874D01*
X94124Y111891D01*
X94045Y111958D01*
X93970Y112029D01*
X93952Y112038D01*
X93937Y112051D01*
X93841Y112089D01*
X93747Y112133D01*
X93727Y112135D01*
X93709Y112143D01*
X93542Y112161D01*
X72025Y112161D01*
X71935Y112146D01*
X71844Y112139D01*
X71815Y112127D01*
X71783Y112121D01*
X71702Y112079D01*
X71618Y112043D01*
X71586Y112017D01*
X71565Y112006D01*
X71543Y111983D01*
X71487Y111938D01*
X70329Y110780D01*
X66554Y110780D01*
X63885Y113449D01*
X63885Y117224D01*
X66554Y119894D01*
X70329Y119894D01*
X71487Y118736D01*
X71561Y118682D01*
X71631Y118623D01*
X71661Y118611D01*
X71687Y118592D01*
X71774Y118565D01*
X71859Y118531D01*
X71900Y118526D01*
X71922Y118520D01*
X71954Y118520D01*
X72025Y118513D01*
X97542Y118513D01*
X97613Y118524D01*
X97684Y118526D01*
X97733Y118544D01*
X97785Y118552D01*
X97848Y118586D01*
X97915Y118610D01*
X97956Y118643D01*
X98002Y118667D01*
X98051Y118719D01*
X98107Y118764D01*
X98136Y118808D01*
X98171Y118846D01*
X98202Y118911D01*
X98240Y118971D01*
X98253Y119022D01*
X98275Y119069D01*
X98283Y119140D01*
X98300Y119210D01*
X98296Y119262D01*
X98302Y119313D01*
X98287Y119383D01*
X98281Y119455D01*
X98261Y119503D01*
X98250Y119554D01*
X98213Y119615D01*
X98185Y119681D01*
X98140Y119737D01*
X98124Y119765D01*
X98106Y119780D01*
X98080Y119812D01*
X96838Y121054D01*
X96838Y124829D01*
X99508Y127498D01*
X103282Y127498D01*
X104440Y126340D01*
X104514Y126287D01*
X104584Y126228D01*
X104614Y126215D01*
X104640Y126197D01*
X104727Y126170D01*
X104812Y126136D01*
X104853Y126131D01*
X104875Y126124D01*
X104907Y126125D01*
X104979Y126117D01*
X172420Y126117D01*
X180955Y117582D01*
X181029Y117529D01*
X181098Y117469D01*
X181129Y117457D01*
X181155Y117438D01*
X181242Y117411D01*
X181327Y117377D01*
X181368Y117373D01*
X181390Y117366D01*
X181422Y117367D01*
X181493Y117359D01*
X183131Y117359D01*
X185800Y114689D01*
X185800Y112470D01*
X185815Y112380D01*
X185822Y112289D01*
X185835Y112259D01*
X185840Y112227D01*
X185883Y112146D01*
X185918Y112063D01*
X185944Y112030D01*
X185955Y112010D01*
X185978Y111988D01*
X186023Y111932D01*
X188335Y109620D01*
X188335Y105845D01*
X185666Y103175D01*
X181891Y103175D01*
X179222Y105845D01*
X179222Y108064D01*
X179207Y108154D01*
X179200Y108245D01*
X179187Y108275D01*
X179182Y108307D01*
X179139Y108388D01*
X179104Y108472D01*
X179078Y108504D01*
X179067Y108524D01*
X179044Y108547D01*
X178999Y108603D01*
X176687Y110914D01*
X176687Y112552D01*
X176672Y112642D01*
X176665Y112733D01*
X176652Y112763D01*
X176647Y112795D01*
X176604Y112876D01*
X176569Y112959D01*
X176543Y112992D01*
X176532Y113012D01*
X176509Y113034D01*
X176464Y113090D01*
X170012Y119543D01*
X169938Y119596D01*
X169868Y119655D01*
X169838Y119667D01*
X169812Y119686D01*
X169725Y119713D01*
X169640Y119747D01*
X169599Y119752D01*
X169577Y119759D01*
X169545Y119758D01*
X169473Y119766D01*
X121039Y119766D01*
X120968Y119754D01*
X120897Y119752D01*
X120848Y119734D01*
X120796Y119726D01*
X120733Y119692D01*
X120666Y119668D01*
X120625Y119635D01*
X120579Y119611D01*
X120530Y119559D01*
X120474Y119514D01*
X120446Y119470D01*
X120410Y119433D01*
X120380Y119368D01*
X120341Y119307D01*
X120328Y119257D01*
X120306Y119209D01*
X120298Y119138D01*
X120281Y119069D01*
X120285Y119017D01*
X120279Y118965D01*
X120294Y118895D01*
X120300Y118823D01*
X120320Y118776D01*
X120331Y118725D01*
X120368Y118663D01*
X120396Y118597D01*
X120441Y118541D01*
X120457Y118514D01*
X120475Y118498D01*
X120501Y118466D01*
X122538Y116429D01*
X127723Y111244D01*
X127797Y111191D01*
X127866Y111132D01*
X127896Y111120D01*
X127922Y111101D01*
X128009Y111074D01*
X128094Y111040D01*
X128135Y111035D01*
X128157Y111029D01*
X128190Y111029D01*
X128261Y111021D01*
X129899Y111021D01*
X132568Y108352D01*
X132568Y104567D01*
X132552Y104545D01*
X132502Y104493D01*
X132480Y104445D01*
X132450Y104403D01*
X132429Y104335D01*
X132399Y104270D01*
X132393Y104218D01*
X132378Y104168D01*
X132379Y104096D01*
X132372Y104025D01*
X132383Y103974D01*
X132384Y103922D01*
X132409Y103855D01*
X132424Y103785D01*
X132451Y103740D01*
X132468Y103691D01*
X132513Y103635D01*
X132550Y103574D01*
X132590Y103540D01*
X132622Y103499D01*
X132682Y103460D01*
X132737Y103414D01*
X132785Y103394D01*
X132829Y103366D01*
X132898Y103349D01*
X132965Y103322D01*
X133036Y103314D01*
X133067Y103306D01*
X133091Y103308D01*
X133132Y103303D01*
X173687Y103303D01*
X184642Y92348D01*
X196934Y80056D01*
X196992Y80015D01*
X197044Y79965D01*
X197091Y79943D01*
X197133Y79913D01*
X197202Y79892D01*
X197267Y79862D01*
X197319Y79856D01*
X197369Y79841D01*
X197440Y79842D01*
X197511Y79835D01*
X197562Y79846D01*
X197614Y79847D01*
X197682Y79872D01*
X197752Y79887D01*
X197797Y79914D01*
X197845Y79931D01*
X197901Y79976D01*
X197963Y80013D01*
X197997Y80053D01*
X198037Y80085D01*
X198076Y80145D01*
X198123Y80200D01*
X198142Y80248D01*
X198170Y80292D01*
X198188Y80361D01*
X198215Y80428D01*
X198223Y80499D01*
X198231Y80531D01*
X198229Y80554D01*
X198233Y80595D01*
X198233Y81736D01*
X200903Y84405D01*
X204677Y84405D01*
X205420Y83662D01*
X205436Y83651D01*
X205449Y83635D01*
X205536Y83579D01*
X205620Y83519D01*
X205639Y83513D01*
X205656Y83502D01*
X205756Y83477D01*
X205855Y83447D01*
X205875Y83447D01*
X205894Y83442D01*
X205997Y83450D01*
X206101Y83453D01*
X206120Y83460D01*
X206140Y83461D01*
X206234Y83502D01*
X206332Y83537D01*
X206348Y83550D01*
X206366Y83558D01*
X206497Y83662D01*
X207240Y84405D01*
X211015Y84405D01*
X213684Y81736D01*
X213684Y80098D01*
X213699Y80008D01*
X213706Y79917D01*
X213718Y79888D01*
X213724Y79856D01*
X213766Y79775D01*
X213802Y79691D01*
X213828Y79659D01*
X213839Y79638D01*
X213862Y79616D01*
X213907Y79560D01*
X217824Y75643D01*
X217898Y75590D01*
X217968Y75530D01*
X217998Y75518D01*
X218024Y75499D01*
X218111Y75472D01*
X218196Y75438D01*
X218237Y75434D01*
X218259Y75427D01*
X218291Y75428D01*
X218363Y75420D01*
X254507Y75420D01*
X254526Y75423D01*
X254546Y75421D01*
X254647Y75443D01*
X254749Y75459D01*
X254767Y75469D01*
X254787Y75473D01*
X254876Y75526D01*
X254967Y75574D01*
X254981Y75589D01*
X254998Y75599D01*
X255065Y75678D01*
X255136Y75753D01*
X255145Y75771D01*
X255158Y75786D01*
X255196Y75882D01*
X255240Y75976D01*
X255242Y75996D01*
X255249Y76014D01*
X255268Y76181D01*
X255268Y79201D01*
X256426Y80359D01*
X256479Y80433D01*
X256539Y80503D01*
X256551Y80533D01*
X256570Y80559D01*
X256596Y80646D01*
X256630Y80731D01*
X256635Y80772D01*
X256642Y80794D01*
X256641Y80826D01*
X256649Y80897D01*
X256649Y127648D01*
X256634Y127738D01*
X256627Y127829D01*
X256614Y127859D01*
X256609Y127891D01*
X256566Y127971D01*
X256531Y128055D01*
X256505Y128087D01*
X256494Y128108D01*
X256471Y128130D01*
X256426Y128186D01*
X227498Y157114D01*
X227498Y159258D01*
X227495Y159278D01*
X227497Y159297D01*
X227475Y159399D01*
X227458Y159501D01*
X227449Y159518D01*
X227445Y159538D01*
X227391Y159627D01*
X227343Y159718D01*
X227329Y159732D01*
X227318Y159749D01*
X227240Y159816D01*
X227165Y159888D01*
X227147Y159896D01*
X227132Y159909D01*
X227035Y159948D01*
X226942Y159991D01*
X226922Y159993D01*
X226903Y160001D01*
X226737Y160019D01*
X226579Y160019D01*
X222844Y161566D01*
X219986Y164424D01*
X218439Y168159D01*
X218439Y187441D01*
X219986Y191176D01*
X222844Y194034D01*
X226579Y195581D01*
X230621Y195581D01*
X234356Y194034D01*
X237214Y191176D01*
X238761Y187441D01*
X238761Y168159D01*
X237214Y164424D01*
X234356Y161566D01*
X234319Y161551D01*
X234220Y161489D01*
X234120Y161430D01*
X234116Y161425D01*
X234110Y161421D01*
X234036Y161331D01*
X233960Y161243D01*
X233957Y161237D01*
X233953Y161232D01*
X233912Y161123D01*
X233868Y161015D01*
X233867Y161007D01*
X233865Y161002D01*
X233864Y160984D01*
X233849Y160848D01*
X233849Y160060D01*
X233864Y159970D01*
X233871Y159879D01*
X233884Y159850D01*
X233889Y159818D01*
X233932Y159737D01*
X233968Y159653D01*
X233993Y159621D01*
X234004Y159600D01*
X234028Y159578D01*
X234072Y159522D01*
X256503Y137091D01*
X256561Y137049D01*
X256614Y137000D01*
X256661Y136978D01*
X256703Y136948D01*
X256771Y136927D01*
X256837Y136896D01*
X256888Y136891D01*
X256938Y136875D01*
X257010Y136877D01*
X257081Y136869D01*
X257132Y136880D01*
X257184Y136882D01*
X257251Y136906D01*
X257321Y136921D01*
X257366Y136948D01*
X257415Y136966D01*
X257471Y137011D01*
X257533Y137048D01*
X257566Y137087D01*
X257607Y137120D01*
X257646Y137180D01*
X257692Y137235D01*
X257712Y137283D01*
X257740Y137327D01*
X257758Y137396D01*
X257784Y137463D01*
X257792Y137534D01*
X257800Y137565D01*
X257798Y137589D01*
X257803Y137629D01*
X257803Y138771D01*
X258961Y139929D01*
X259014Y140003D01*
X259073Y140072D01*
X259086Y140102D01*
X259104Y140128D01*
X259131Y140215D01*
X259165Y140300D01*
X259170Y140341D01*
X259177Y140364D01*
X259176Y140396D01*
X259184Y140467D01*
X259184Y150462D01*
X259169Y150552D01*
X259162Y150643D01*
X259149Y150673D01*
X259144Y150704D01*
X259101Y150785D01*
X259066Y150869D01*
X259040Y150901D01*
X259029Y150922D01*
X259006Y150944D01*
X258961Y151000D01*
X252847Y157114D01*
X252847Y159258D01*
X252843Y159278D01*
X252846Y159297D01*
X252824Y159399D01*
X252807Y159501D01*
X252798Y159518D01*
X252793Y159538D01*
X252740Y159627D01*
X252692Y159718D01*
X252677Y159732D01*
X252667Y159749D01*
X252588Y159816D01*
X252513Y159888D01*
X252495Y159896D01*
X252480Y159909D01*
X252384Y159948D01*
X252290Y159991D01*
X252271Y159993D01*
X252252Y160001D01*
X252085Y160019D01*
X251979Y160019D01*
X248244Y161566D01*
X245386Y164424D01*
X243839Y168159D01*
X243839Y187441D01*
X245386Y191176D01*
X248244Y194034D01*
X251979Y195581D01*
X256021Y195581D01*
X259756Y194034D01*
X262614Y191176D01*
X264161Y187441D01*
X264161Y168159D01*
X262614Y164424D01*
X259756Y161566D01*
X259668Y161530D01*
X259568Y161468D01*
X259468Y161408D01*
X259464Y161404D01*
X259459Y161400D01*
X259384Y161310D01*
X259309Y161221D01*
X259306Y161216D01*
X259302Y161211D01*
X259260Y161102D01*
X259217Y160993D01*
X259216Y160986D01*
X259214Y160981D01*
X259213Y160963D01*
X259198Y160827D01*
X259198Y160060D01*
X259213Y159970D01*
X259220Y159879D01*
X259233Y159850D01*
X259238Y159818D01*
X259281Y159737D01*
X259316Y159653D01*
X259342Y159621D01*
X259353Y159600D01*
X259376Y159578D01*
X259421Y159522D01*
X265535Y153408D01*
X265535Y140467D01*
X265550Y140377D01*
X265557Y140286D01*
X265570Y140256D01*
X265575Y140224D01*
X265618Y140144D01*
X265653Y140060D01*
X265679Y140028D01*
X265690Y140007D01*
X265713Y139985D01*
X265758Y139929D01*
X266916Y138771D01*
X266916Y137133D01*
X266931Y137043D01*
X266938Y136952D01*
X266951Y136922D01*
X266956Y136890D01*
X266999Y136810D01*
X267034Y136726D01*
X267060Y136694D01*
X267071Y136673D01*
X267094Y136651D01*
X267139Y136595D01*
X287533Y116201D01*
X287607Y116148D01*
X287677Y116088D01*
X287707Y116076D01*
X287733Y116057D01*
X287820Y116030D01*
X287905Y115996D01*
X287946Y115992D01*
X287968Y115985D01*
X288000Y115986D01*
X288072Y115978D01*
X299750Y115978D01*
X299821Y115989D01*
X299892Y115991D01*
X299941Y116009D01*
X299993Y116017D01*
X300056Y116051D01*
X300123Y116076D01*
X300164Y116108D01*
X300210Y116132D01*
X300259Y116184D01*
X300316Y116229D01*
X300344Y116273D01*
X300380Y116311D01*
X300410Y116376D01*
X300449Y116436D01*
X300461Y116487D01*
X300483Y116534D01*
X300491Y116605D01*
X300509Y116675D01*
X300505Y116727D01*
X300510Y116778D01*
X300495Y116849D01*
X300489Y116920D01*
X300469Y116968D01*
X300458Y117019D01*
X300421Y117080D01*
X300393Y117146D01*
X300348Y117202D01*
X300332Y117230D01*
X300314Y117245D01*
X300288Y117277D01*
X277182Y140383D01*
X277166Y140395D01*
X277154Y140410D01*
X277066Y140466D01*
X276983Y140527D01*
X276964Y140532D01*
X276947Y140543D01*
X276846Y140569D01*
X276748Y140599D01*
X276728Y140598D01*
X276708Y140603D01*
X276605Y140595D01*
X276502Y140593D01*
X276483Y140586D01*
X276463Y140584D01*
X276368Y140544D01*
X276271Y140508D01*
X276255Y140496D01*
X276237Y140488D01*
X276106Y140383D01*
X274387Y138664D01*
X270612Y138664D01*
X267942Y141333D01*
X267942Y145108D01*
X268685Y145851D01*
X268697Y145867D01*
X268712Y145879D01*
X268768Y145967D01*
X268829Y146051D01*
X268835Y146070D01*
X268845Y146086D01*
X268871Y146187D01*
X268901Y146286D01*
X268901Y146306D01*
X268905Y146325D01*
X268897Y146428D01*
X268895Y146531D01*
X268888Y146550D01*
X268886Y146570D01*
X268846Y146665D01*
X268810Y146762D01*
X268798Y146778D01*
X268790Y146796D01*
X268685Y146927D01*
X267942Y147670D01*
X267942Y151445D01*
X269100Y152603D01*
X269153Y152677D01*
X269213Y152747D01*
X269225Y152777D01*
X269244Y152803D01*
X269271Y152890D01*
X269305Y152975D01*
X269309Y153016D01*
X269316Y153038D01*
X269315Y153070D01*
X269323Y153141D01*
X269323Y155943D01*
X273760Y160379D01*
X273787Y160417D01*
X273821Y160448D01*
X273858Y160516D01*
X273903Y160579D01*
X273917Y160623D01*
X273939Y160664D01*
X273953Y160740D01*
X273976Y160814D01*
X273974Y160861D01*
X273983Y160906D01*
X273971Y160983D01*
X273969Y161060D01*
X273953Y161104D01*
X273946Y161150D01*
X273911Y161218D01*
X273885Y161291D01*
X273858Y161325D01*
X273856Y161328D01*
X273853Y161332D01*
X273834Y161369D01*
X273786Y161416D01*
X273751Y161459D01*
X273745Y161466D01*
X273731Y161483D01*
X273722Y161489D01*
X270786Y164424D01*
X269239Y168159D01*
X269239Y187441D01*
X270786Y191176D01*
X273644Y194034D01*
X277379Y195581D01*
X281421Y195581D01*
X285156Y194034D01*
X288014Y191176D01*
X289561Y187441D01*
X289561Y168159D01*
X288014Y164424D01*
X285156Y161566D01*
X281366Y159996D01*
X281365Y159996D01*
X281263Y159980D01*
X281245Y159970D01*
X281226Y159966D01*
X281137Y159913D01*
X281046Y159864D01*
X281032Y159850D01*
X281015Y159840D01*
X280948Y159761D01*
X280876Y159686D01*
X280868Y159668D01*
X280855Y159653D01*
X280816Y159557D01*
X280773Y159463D01*
X280770Y159443D01*
X280763Y159425D01*
X280745Y159258D01*
X280745Y158382D01*
X278661Y156298D01*
X275970Y153607D01*
X275959Y153591D01*
X275943Y153579D01*
X275887Y153491D01*
X275827Y153408D01*
X275821Y153389D01*
X275810Y153372D01*
X275785Y153271D01*
X275754Y153172D01*
X275755Y153153D01*
X275750Y153133D01*
X275758Y153030D01*
X275761Y152927D01*
X275767Y152908D01*
X275769Y152888D01*
X275809Y152793D01*
X275845Y152696D01*
X275858Y152680D01*
X275865Y152662D01*
X275970Y152531D01*
X277056Y151445D01*
X277056Y149807D01*
X277071Y149717D01*
X277078Y149626D01*
X277090Y149597D01*
X277096Y149565D01*
X277138Y149484D01*
X277174Y149400D01*
X277200Y149368D01*
X277211Y149347D01*
X277234Y149325D01*
X277279Y149269D01*
X306545Y120003D01*
X306619Y119950D01*
X306688Y119890D01*
X306718Y119878D01*
X306745Y119859D01*
X306832Y119833D01*
X306916Y119798D01*
X306957Y119794D01*
X306980Y119787D01*
X307012Y119788D01*
X307083Y119780D01*
X316227Y119780D01*
X316297Y119792D01*
X316369Y119793D01*
X316418Y119811D01*
X316469Y119820D01*
X316533Y119853D01*
X316600Y119878D01*
X316641Y119910D01*
X316687Y119935D01*
X316736Y119987D01*
X316792Y120032D01*
X316820Y120075D01*
X316856Y120113D01*
X316886Y120178D01*
X316925Y120238D01*
X316938Y120289D01*
X316960Y120336D01*
X316968Y120407D01*
X316985Y120477D01*
X316981Y120529D01*
X316987Y120581D01*
X316972Y120651D01*
X316966Y120722D01*
X316946Y120770D01*
X316935Y120821D01*
X316898Y120883D01*
X316870Y120949D01*
X316825Y121004D01*
X316809Y121032D01*
X316791Y121047D01*
X316765Y121080D01*
X306079Y131765D01*
X306079Y145974D01*
X306064Y146064D01*
X306057Y146155D01*
X306045Y146185D01*
X306039Y146217D01*
X305997Y146297D01*
X305961Y146381D01*
X305935Y146413D01*
X305924Y146434D01*
X305901Y146456D01*
X305856Y146512D01*
X304698Y147670D01*
X304698Y151445D01*
X305856Y152603D01*
X305909Y152677D01*
X305969Y152747D01*
X305981Y152777D01*
X306000Y152803D01*
X306026Y152890D01*
X306061Y152975D01*
X306065Y153016D01*
X306072Y153038D01*
X306071Y153070D01*
X306079Y153141D01*
X306079Y154264D01*
X306064Y154354D01*
X306057Y154445D01*
X306045Y154475D01*
X306039Y154507D01*
X305997Y154587D01*
X305961Y154671D01*
X305935Y154703D01*
X305924Y154724D01*
X305901Y154746D01*
X305856Y154802D01*
X303544Y157114D01*
X303544Y159258D01*
X303541Y159278D01*
X303543Y159297D01*
X303521Y159399D01*
X303504Y159501D01*
X303495Y159518D01*
X303491Y159538D01*
X303438Y159627D01*
X303389Y159718D01*
X303375Y159732D01*
X303365Y159749D01*
X303286Y159816D01*
X303211Y159888D01*
X303193Y159896D01*
X303178Y159909D01*
X303082Y159948D01*
X302988Y159991D01*
X302968Y159993D01*
X302950Y160001D01*
X302783Y160019D01*
X302779Y160019D01*
X299044Y161566D01*
X296186Y164424D01*
X294639Y168159D01*
X294639Y187441D01*
X296186Y191176D01*
X299044Y194034D01*
X302779Y195581D01*
X306821Y195581D01*
X310556Y194034D01*
X313414Y191176D01*
X314961Y187441D01*
X314961Y168159D01*
X313414Y164424D01*
X310556Y161566D01*
X310366Y161487D01*
X310266Y161426D01*
X310166Y161366D01*
X310162Y161361D01*
X310157Y161358D01*
X310082Y161268D01*
X310006Y161179D01*
X310004Y161173D01*
X310000Y161168D01*
X309958Y161059D01*
X309914Y160951D01*
X309913Y160943D01*
X309911Y160939D01*
X309911Y160920D01*
X309896Y160784D01*
X309896Y160060D01*
X309910Y159970D01*
X309917Y159879D01*
X309930Y159850D01*
X309935Y159818D01*
X309978Y159737D01*
X310014Y159653D01*
X310039Y159621D01*
X310050Y159600D01*
X310074Y159578D01*
X310119Y159522D01*
X312430Y157210D01*
X312430Y153141D01*
X312445Y153051D01*
X312452Y152960D01*
X312465Y152931D01*
X312470Y152899D01*
X312513Y152818D01*
X312549Y152734D01*
X312574Y152702D01*
X312585Y152681D01*
X312609Y152659D01*
X312653Y152603D01*
X313811Y151445D01*
X313811Y147670D01*
X312653Y146512D01*
X312600Y146438D01*
X312541Y146369D01*
X312529Y146339D01*
X312510Y146312D01*
X312483Y146225D01*
X312449Y146141D01*
X312444Y146100D01*
X312438Y146077D01*
X312438Y146045D01*
X312430Y145974D01*
X312430Y134712D01*
X312445Y134622D01*
X312452Y134531D01*
X312465Y134501D01*
X312470Y134469D01*
X312513Y134388D01*
X312549Y134304D01*
X312574Y134272D01*
X312585Y134252D01*
X312609Y134229D01*
X312653Y134173D01*
X318513Y128314D01*
X318529Y128302D01*
X318542Y128286D01*
X318629Y128231D01*
X318713Y128170D01*
X318732Y128164D01*
X318749Y128153D01*
X318849Y128128D01*
X318948Y128098D01*
X318968Y128098D01*
X318987Y128093D01*
X319090Y128101D01*
X319194Y128104D01*
X319213Y128111D01*
X319233Y128113D01*
X319328Y128153D01*
X319425Y128189D01*
X319441Y128201D01*
X319459Y128209D01*
X319590Y128314D01*
X319798Y128522D01*
X319851Y128596D01*
X319910Y128665D01*
X319923Y128695D01*
X319941Y128722D01*
X319968Y128809D01*
X320002Y128893D01*
X320007Y128934D01*
X320014Y128957D01*
X320013Y128989D01*
X320021Y129060D01*
X320021Y154675D01*
X324868Y159522D01*
X324921Y159596D01*
X324980Y159666D01*
X324992Y159696D01*
X325011Y159722D01*
X325038Y159809D01*
X325072Y159894D01*
X325077Y159935D01*
X325084Y159957D01*
X325083Y159989D01*
X325091Y160060D01*
X325091Y160790D01*
X325072Y160904D01*
X325055Y161021D01*
X325052Y161026D01*
X325051Y161033D01*
X324996Y161135D01*
X324943Y161240D01*
X324939Y161244D01*
X324936Y161250D01*
X324851Y161330D01*
X324768Y161412D01*
X324761Y161416D01*
X324757Y161419D01*
X324740Y161427D01*
X324621Y161493D01*
X324444Y161566D01*
X321586Y164424D01*
X320039Y168159D01*
X320039Y187441D01*
X321586Y191176D01*
X324444Y194034D01*
X328179Y195581D01*
X332221Y195581D01*
X335956Y194034D01*
X338814Y191176D01*
X340361Y187441D01*
X340361Y168159D01*
X338814Y164424D01*
X335956Y161566D01*
X332221Y160019D01*
X332203Y160019D01*
X332184Y160016D01*
X332164Y160018D01*
X332063Y159996D01*
X331961Y159980D01*
X331943Y159970D01*
X331923Y159966D01*
X331834Y159913D01*
X331743Y159864D01*
X331729Y159850D01*
X331712Y159840D01*
X331645Y159761D01*
X331574Y159686D01*
X331565Y159668D01*
X331552Y159653D01*
X331514Y159557D01*
X331470Y159463D01*
X331468Y159443D01*
X331461Y159425D01*
X331442Y159258D01*
X331442Y157114D01*
X326595Y152267D01*
X326551Y152206D01*
X326521Y152174D01*
X326515Y152162D01*
X326483Y152124D01*
X326471Y152094D01*
X326452Y152068D01*
X326425Y151981D01*
X326391Y151896D01*
X326386Y151855D01*
X326379Y151833D01*
X326380Y151800D01*
X326372Y151729D01*
X326372Y139553D01*
X326375Y139538D01*
X326373Y139526D01*
X326374Y139522D01*
X326373Y139513D01*
X326395Y139412D01*
X326412Y139310D01*
X326421Y139292D01*
X326426Y139273D01*
X326479Y139184D01*
X326527Y139093D01*
X326542Y139079D01*
X326552Y139062D01*
X326630Y138995D01*
X326705Y138923D01*
X326724Y138915D01*
X326739Y138902D01*
X326835Y138863D01*
X326929Y138820D01*
X326948Y138817D01*
X326967Y138810D01*
X327134Y138792D01*
X379182Y138792D01*
X379272Y138806D01*
X379363Y138813D01*
X379393Y138826D01*
X379425Y138831D01*
X379506Y138874D01*
X379590Y138910D01*
X379622Y138935D01*
X379642Y138946D01*
X379654Y138959D01*
X379655Y138959D01*
X379667Y138972D01*
X379721Y139015D01*
X380879Y140173D01*
X384654Y140173D01*
X387323Y137503D01*
X387323Y133728D01*
X384814Y131219D01*
X384772Y131161D01*
X384722Y131109D01*
X384700Y131062D01*
X384670Y131019D01*
X384649Y130951D01*
X384619Y130886D01*
X384613Y130834D01*
X384598Y130784D01*
X384599Y130712D01*
X384592Y130641D01*
X384603Y130590D01*
X384604Y130538D01*
X384629Y130471D01*
X384644Y130401D01*
X384671Y130356D01*
X384688Y130307D01*
X384733Y130251D01*
X384770Y130190D01*
X384810Y130156D01*
X384842Y130115D01*
X384902Y130077D01*
X384957Y130030D01*
X385005Y130010D01*
X385049Y129982D01*
X385119Y129965D01*
X385185Y129938D01*
X385256Y129930D01*
X385288Y129922D01*
X385311Y129924D01*
X385352Y129919D01*
X390419Y129919D01*
X400222Y120117D01*
X400296Y120063D01*
X400365Y120004D01*
X400395Y119992D01*
X400421Y119973D01*
X400508Y119946D01*
X400593Y119912D01*
X400634Y119907D01*
X400657Y119901D01*
X400689Y119901D01*
X400760Y119894D01*
X402398Y119894D01*
X404751Y117540D01*
X404767Y117529D01*
X404779Y117513D01*
X404867Y117457D01*
X404951Y117397D01*
X404970Y117391D01*
X404986Y117380D01*
X405087Y117355D01*
X405186Y117325D01*
X405206Y117325D01*
X405225Y117320D01*
X405328Y117328D01*
X405431Y117331D01*
X405450Y117338D01*
X405470Y117339D01*
X405565Y117380D01*
X405663Y117415D01*
X405678Y117428D01*
X405696Y117436D01*
X405827Y117540D01*
X413475Y125188D01*
X413528Y125262D01*
X413587Y125331D01*
X413599Y125361D01*
X413618Y125388D01*
X413645Y125474D01*
X413679Y125559D01*
X413684Y125600D01*
X413691Y125623D01*
X413690Y125655D01*
X413698Y125726D01*
X413698Y127364D01*
X416367Y130033D01*
X420142Y130033D01*
X422811Y127364D01*
X422811Y123589D01*
X420142Y120920D01*
X418504Y120920D01*
X418414Y120905D01*
X418323Y120898D01*
X418293Y120885D01*
X418261Y120880D01*
X418181Y120837D01*
X418097Y120801D01*
X418065Y120776D01*
X418044Y120765D01*
X418022Y120741D01*
X417966Y120697D01*
X387930Y90661D01*
X387888Y90603D01*
X387839Y90551D01*
X387817Y90503D01*
X387787Y90461D01*
X387766Y90393D01*
X387735Y90328D01*
X387730Y90276D01*
X387714Y90226D01*
X387716Y90154D01*
X387708Y90083D01*
X387719Y90032D01*
X387721Y89980D01*
X387745Y89913D01*
X387761Y89843D01*
X387787Y89798D01*
X387805Y89749D01*
X387850Y89693D01*
X387887Y89632D01*
X387926Y89598D01*
X387959Y89557D01*
X388019Y89519D01*
X388074Y89472D01*
X388122Y89452D01*
X388166Y89424D01*
X388235Y89407D01*
X388302Y89380D01*
X388373Y89372D01*
X388404Y89364D01*
X388428Y89366D01*
X388469Y89361D01*
X395077Y89361D01*
X395167Y89376D01*
X395258Y89383D01*
X395288Y89396D01*
X395320Y89401D01*
X395401Y89444D01*
X395484Y89480D01*
X395517Y89505D01*
X395537Y89516D01*
X395559Y89540D01*
X395615Y89584D01*
X400800Y94769D01*
X400853Y94843D01*
X400913Y94913D01*
X400925Y94943D01*
X400944Y94969D01*
X400971Y95056D01*
X401005Y95141D01*
X401009Y95182D01*
X401016Y95204D01*
X401015Y95236D01*
X401023Y95308D01*
X401023Y96945D01*
X403693Y99615D01*
X407467Y99615D01*
X410137Y96945D01*
X410137Y93170D01*
X407493Y90526D01*
X407481Y90510D01*
X407466Y90498D01*
X407409Y90411D01*
X407349Y90327D01*
X407343Y90308D01*
X407333Y90291D01*
X407307Y90190D01*
X407277Y90092D01*
X407277Y90072D01*
X407272Y90052D01*
X407281Y89949D01*
X407283Y89846D01*
X407290Y89827D01*
X407292Y89807D01*
X407332Y89712D01*
X407368Y89615D01*
X407380Y89599D01*
X407388Y89581D01*
X407493Y89450D01*
X410137Y86806D01*
X410137Y83031D01*
X407467Y80362D01*
X403693Y80362D01*
X401023Y83031D01*
X401023Y84172D01*
X401012Y84243D01*
X401010Y84315D01*
X400992Y84364D01*
X400984Y84415D01*
X400950Y84478D01*
X400925Y84546D01*
X400893Y84586D01*
X400868Y84632D01*
X400816Y84682D01*
X400772Y84738D01*
X400728Y84766D01*
X400690Y84802D01*
X400625Y84832D01*
X400565Y84871D01*
X400514Y84883D01*
X400467Y84905D01*
X400396Y84913D01*
X400326Y84931D01*
X400274Y84927D01*
X400223Y84932D01*
X400152Y84917D01*
X400081Y84912D01*
X400033Y84891D01*
X399982Y84880D01*
X399921Y84843D01*
X399855Y84815D01*
X399799Y84770D01*
X399771Y84754D01*
X399756Y84736D01*
X399724Y84710D01*
X398023Y83010D01*
X295265Y83010D01*
X290781Y87493D01*
X290765Y87505D01*
X290753Y87521D01*
X290666Y87577D01*
X290582Y87637D01*
X290563Y87643D01*
X290546Y87654D01*
X290445Y87679D01*
X290347Y87709D01*
X290327Y87709D01*
X290307Y87714D01*
X290204Y87706D01*
X290101Y87703D01*
X290082Y87696D01*
X290062Y87695D01*
X289967Y87654D01*
X289870Y87619D01*
X289854Y87606D01*
X289836Y87598D01*
X289705Y87493D01*
X238679Y36467D01*
X238610Y36372D01*
X238541Y36279D01*
X238539Y36273D01*
X238535Y36267D01*
X238501Y36156D01*
X238465Y36045D01*
X238465Y36038D01*
X238463Y36032D01*
X238466Y35916D01*
X238467Y35799D01*
X238469Y35792D01*
X238469Y35787D01*
X238476Y35769D01*
X238514Y35638D01*
X238761Y35041D01*
X238761Y15759D01*
X237214Y12024D01*
X234356Y9166D01*
X230621Y7619D01*
X226579Y7619D01*
X222844Y9166D01*
X219986Y12024D01*
X218439Y15759D01*
X218439Y35041D01*
X219901Y38570D01*
X219928Y38684D01*
X219956Y38797D01*
X219956Y38804D01*
X219957Y38810D01*
X219946Y38926D01*
X219937Y39042D01*
X219935Y39048D01*
X219934Y39055D01*
X219893Y39146D01*
X219893Y40195D01*
X219879Y40285D01*
X219871Y40376D01*
X219859Y40405D01*
X219854Y40437D01*
X219811Y40518D01*
X219775Y40602D01*
X219749Y40634D01*
X219738Y40655D01*
X219715Y40677D01*
X219670Y40733D01*
X216091Y44312D01*
X216091Y51602D01*
X216076Y51692D01*
X216069Y51783D01*
X216056Y51812D01*
X216051Y51844D01*
X216008Y51925D01*
X215973Y52009D01*
X215947Y52041D01*
X215936Y52062D01*
X215913Y52084D01*
X215868Y52140D01*
X193532Y74476D01*
X193515Y74488D01*
X193503Y74504D01*
X193416Y74560D01*
X193332Y74620D01*
X193313Y74626D01*
X193296Y74637D01*
X193196Y74662D01*
X193097Y74692D01*
X193077Y74692D01*
X193058Y74697D01*
X192955Y74689D01*
X192851Y74686D01*
X192832Y74679D01*
X192812Y74677D01*
X192717Y74637D01*
X192620Y74601D01*
X192604Y74589D01*
X192586Y74581D01*
X192455Y74476D01*
X190736Y72757D01*
X189098Y72757D01*
X189008Y72742D01*
X188917Y72735D01*
X188887Y72722D01*
X188855Y72717D01*
X188775Y72674D01*
X188691Y72639D01*
X188659Y72613D01*
X188638Y72602D01*
X188616Y72579D01*
X188560Y72534D01*
X177401Y61375D01*
X177389Y61359D01*
X177374Y61347D01*
X177318Y61259D01*
X177257Y61176D01*
X177252Y61157D01*
X177241Y61140D01*
X177215Y61039D01*
X177185Y60940D01*
X177186Y60921D01*
X177181Y60901D01*
X177189Y60798D01*
X177191Y60695D01*
X177198Y60676D01*
X177200Y60656D01*
X177240Y60561D01*
X177276Y60464D01*
X177288Y60448D01*
X177296Y60430D01*
X177401Y60299D01*
X196217Y41483D01*
X196233Y41471D01*
X196245Y41456D01*
X196333Y41400D01*
X196417Y41339D01*
X196436Y41333D01*
X196452Y41323D01*
X196553Y41297D01*
X196652Y41267D01*
X196672Y41267D01*
X196691Y41263D01*
X196794Y41271D01*
X196898Y41273D01*
X196916Y41280D01*
X196936Y41282D01*
X197031Y41322D01*
X197129Y41358D01*
X197144Y41370D01*
X197162Y41378D01*
X197293Y41483D01*
X197444Y41634D01*
X201179Y43181D01*
X205221Y43181D01*
X208956Y41634D01*
X211814Y38776D01*
X213361Y35041D01*
X213361Y15759D01*
X211814Y12024D01*
X208956Y9166D01*
X205221Y7619D01*
X201179Y7619D01*
X197444Y9166D01*
X194586Y12024D01*
X193039Y15759D01*
X193039Y35056D01*
X193040Y35058D01*
X193045Y35069D01*
X193048Y35091D01*
X193058Y35135D01*
X193086Y35249D01*
X193086Y35255D01*
X193087Y35261D01*
X193076Y35377D01*
X193067Y35494D01*
X193065Y35500D01*
X193064Y35506D01*
X193016Y35614D01*
X192971Y35720D01*
X192966Y35726D01*
X192964Y35731D01*
X192952Y35744D01*
X192866Y35851D01*
X171279Y57438D01*
X135791Y92927D01*
X135717Y92980D01*
X135647Y93039D01*
X135617Y93051D01*
X135591Y93070D01*
X135504Y93097D01*
X135419Y93131D01*
X135378Y93136D01*
X135356Y93142D01*
X135324Y93142D01*
X135252Y93150D01*
X126795Y93150D01*
X126724Y93138D01*
X126652Y93136D01*
X126603Y93118D01*
X126552Y93110D01*
X126488Y93076D01*
X126421Y93052D01*
X126380Y93019D01*
X126334Y92995D01*
X126285Y92943D01*
X126229Y92898D01*
X126201Y92854D01*
X126165Y92816D01*
X126135Y92751D01*
X126096Y92691D01*
X126083Y92640D01*
X126061Y92593D01*
X126054Y92522D01*
X126036Y92452D01*
X126040Y92401D01*
X126034Y92349D01*
X126050Y92279D01*
X126055Y92207D01*
X126075Y92159D01*
X126087Y92108D01*
X126123Y92047D01*
X126151Y91981D01*
X126196Y91925D01*
X126213Y91897D01*
X126229Y91883D01*
X126233Y91877D01*
X126238Y91873D01*
X126256Y91850D01*
X128766Y89341D01*
X128766Y85566D01*
X127046Y83846D01*
X127035Y83830D01*
X127019Y83818D01*
X126963Y83731D01*
X126903Y83647D01*
X126897Y83628D01*
X126886Y83611D01*
X126861Y83510D01*
X126830Y83412D01*
X126831Y83392D01*
X126826Y83372D01*
X126834Y83269D01*
X126837Y83166D01*
X126844Y83147D01*
X126845Y83127D01*
X126885Y83032D01*
X126921Y82935D01*
X126934Y82919D01*
X126941Y82901D01*
X127046Y82770D01*
X144199Y65617D01*
X144273Y65564D01*
X144343Y65504D01*
X144373Y65492D01*
X144399Y65473D01*
X144486Y65446D01*
X144571Y65412D01*
X144612Y65408D01*
X144634Y65401D01*
X144666Y65402D01*
X144738Y65394D01*
X146375Y65394D01*
X149045Y62724D01*
X149045Y58950D01*
X146375Y56280D01*
X142600Y56280D01*
X139931Y58950D01*
X139931Y60587D01*
X139916Y60677D01*
X139909Y60768D01*
X139897Y60798D01*
X139891Y60830D01*
X139849Y60911D01*
X139813Y60995D01*
X139787Y61027D01*
X139776Y61047D01*
X139753Y61070D01*
X139708Y61126D01*
X132600Y68234D01*
X132542Y68276D01*
X132490Y68325D01*
X132442Y68347D01*
X132400Y68377D01*
X132332Y68398D01*
X132267Y68429D01*
X132215Y68434D01*
X132165Y68450D01*
X132093Y68448D01*
X132022Y68456D01*
X131971Y68445D01*
X131919Y68443D01*
X131852Y68419D01*
X131782Y68403D01*
X131737Y68377D01*
X131688Y68359D01*
X131632Y68314D01*
X131571Y68277D01*
X131537Y68238D01*
X131496Y68205D01*
X131458Y68145D01*
X131411Y68090D01*
X131391Y68042D01*
X131363Y67998D01*
X131346Y67929D01*
X131319Y67862D01*
X131311Y67791D01*
X131303Y67760D01*
X131305Y67736D01*
X131300Y67695D01*
X131300Y64019D01*
X128618Y61337D01*
X128615Y61337D01*
X128566Y61319D01*
X128515Y61310D01*
X128451Y61277D01*
X128384Y61252D01*
X128343Y61220D01*
X128297Y61195D01*
X128248Y61143D01*
X128192Y61098D01*
X128164Y61055D01*
X128128Y61017D01*
X128098Y60952D01*
X128059Y60892D01*
X128046Y60841D01*
X128024Y60794D01*
X128016Y60723D01*
X127999Y60653D01*
X128003Y60601D01*
X127997Y60549D01*
X128012Y60479D01*
X128018Y60408D01*
X128038Y60360D01*
X128049Y60309D01*
X128086Y60247D01*
X128114Y60181D01*
X128159Y60126D01*
X128176Y60098D01*
X128193Y60083D01*
X128219Y60050D01*
X146279Y41991D01*
X146373Y41923D01*
X146467Y41853D01*
X146473Y41851D01*
X146478Y41847D01*
X146589Y41813D01*
X146701Y41777D01*
X146707Y41777D01*
X146713Y41775D01*
X146830Y41778D01*
X146947Y41779D01*
X146954Y41781D01*
X146959Y41781D01*
X146977Y41788D01*
X147108Y41826D01*
X150379Y43181D01*
X154421Y43181D01*
X158156Y41634D01*
X161014Y38776D01*
X162561Y35041D01*
X162561Y15759D01*
X161014Y12024D01*
X158156Y9166D01*
X154421Y7619D01*
X150379Y7619D01*
X146644Y9166D01*
X143786Y12024D01*
X142239Y15759D01*
X142239Y35041D01*
X142632Y35990D01*
X142659Y36104D01*
X142688Y36217D01*
X142687Y36224D01*
X142689Y36230D01*
X142678Y36346D01*
X142669Y36463D01*
X142666Y36468D01*
X142666Y36475D01*
X142618Y36582D01*
X142572Y36689D01*
X142568Y36695D01*
X142566Y36699D01*
X142553Y36713D01*
X142467Y36820D01*
X105870Y73417D01*
X105812Y73459D01*
X105760Y73508D01*
X105713Y73530D01*
X105671Y73561D01*
X105602Y73582D01*
X105537Y73612D01*
X105485Y73618D01*
X105435Y73633D01*
X105364Y73631D01*
X105293Y73639D01*
X105242Y73628D01*
X105190Y73627D01*
X105122Y73602D01*
X105052Y73587D01*
X105008Y73560D01*
X104959Y73542D01*
X104903Y73497D01*
X104841Y73461D01*
X104807Y73421D01*
X104767Y73388D01*
X104728Y73328D01*
X104681Y73274D01*
X104662Y73225D01*
X104634Y73181D01*
X104616Y73112D01*
X104589Y73045D01*
X104581Y72974D01*
X104573Y72943D01*
X104575Y72920D01*
X104571Y72879D01*
X104571Y70072D01*
X104585Y69982D01*
X104593Y69891D01*
X104605Y69862D01*
X104610Y69830D01*
X104653Y69749D01*
X104689Y69665D01*
X104715Y69633D01*
X104726Y69612D01*
X104749Y69590D01*
X104794Y69534D01*
X121047Y53280D01*
X121047Y45991D01*
X121062Y45901D01*
X121069Y45810D01*
X121082Y45780D01*
X121087Y45748D01*
X121130Y45668D01*
X121166Y45584D01*
X121191Y45552D01*
X121202Y45531D01*
X121226Y45509D01*
X121270Y45453D01*
X123604Y43120D01*
X123698Y43051D01*
X123792Y42982D01*
X123798Y42980D01*
X123803Y42976D01*
X123915Y42942D01*
X124026Y42906D01*
X124032Y42906D01*
X124038Y42904D01*
X124155Y42907D01*
X124272Y42908D01*
X124279Y42910D01*
X124284Y42910D01*
X124302Y42917D01*
X124433Y42955D01*
X124979Y43181D01*
X129021Y43181D01*
X132756Y41634D01*
X135614Y38776D01*
X137161Y35041D01*
X137161Y15759D01*
X135614Y12024D01*
X132756Y9166D01*
X129021Y7619D01*
X124979Y7619D01*
X121244Y9166D01*
X118386Y12024D01*
X116839Y15759D01*
X116839Y35041D01*
X118361Y38715D01*
X118388Y38829D01*
X118416Y38942D01*
X118416Y38949D01*
X118417Y38955D01*
X118406Y39071D01*
X118397Y39187D01*
X118395Y39193D01*
X118394Y39199D01*
X118347Y39307D01*
X118301Y39414D01*
X118296Y39420D01*
X118294Y39424D01*
X118282Y39438D01*
X118196Y39545D01*
X114696Y43045D01*
X114696Y50334D01*
X114681Y50424D01*
X114674Y50515D01*
X114661Y50545D01*
X114656Y50577D01*
X114613Y50658D01*
X114578Y50741D01*
X114552Y50774D01*
X114541Y50794D01*
X114518Y50816D01*
X114473Y50872D01*
X103335Y62010D01*
X103277Y62052D01*
X103225Y62101D01*
X103178Y62123D01*
X103136Y62154D01*
X103067Y62175D01*
X103002Y62205D01*
X102950Y62211D01*
X102901Y62226D01*
X102829Y62224D01*
X102758Y62232D01*
X102707Y62221D01*
X102655Y62220D01*
X102587Y62195D01*
X102517Y62180D01*
X102473Y62153D01*
X102424Y62135D01*
X102368Y62090D01*
X102306Y62054D01*
X102272Y62014D01*
X102232Y61981D01*
X102193Y61921D01*
X102146Y61867D01*
X102127Y61818D01*
X102099Y61775D01*
X102081Y61705D01*
X102054Y61639D01*
X102046Y61567D01*
X102039Y61536D01*
X102040Y61513D01*
X102036Y61472D01*
X102036Y44724D01*
X102051Y44634D01*
X102058Y44543D01*
X102070Y44513D01*
X102076Y44481D01*
X102118Y44400D01*
X102154Y44316D01*
X102180Y44284D01*
X102191Y44264D01*
X102214Y44241D01*
X102259Y44185D01*
X103040Y43404D01*
X103114Y43351D01*
X103184Y43291D01*
X103214Y43279D01*
X103240Y43260D01*
X103327Y43233D01*
X103412Y43199D01*
X103453Y43195D01*
X103475Y43188D01*
X103507Y43189D01*
X103579Y43181D01*
X103621Y43181D01*
X107356Y41634D01*
X110214Y38776D01*
X111761Y35041D01*
X111761Y15759D01*
X110214Y12024D01*
X107356Y9166D01*
X103621Y7619D01*
X99579Y7619D01*
G37*
%LPD*%
G36*
X264009Y79939D02*
X264009Y79939D01*
X264112Y79942D01*
X264131Y79948D01*
X264151Y79950D01*
X264246Y79990D01*
X264343Y80026D01*
X264359Y80038D01*
X264377Y80046D01*
X264508Y80151D01*
X275999Y91642D01*
X276011Y91658D01*
X276026Y91670D01*
X276082Y91758D01*
X276142Y91842D01*
X276148Y91861D01*
X276159Y91877D01*
X276184Y91978D01*
X276215Y92077D01*
X276214Y92097D01*
X276219Y92116D01*
X276211Y92219D01*
X276208Y92323D01*
X276202Y92341D01*
X276200Y92361D01*
X276160Y92456D01*
X276124Y92554D01*
X276111Y92569D01*
X276104Y92587D01*
X275999Y92718D01*
X274280Y94438D01*
X274280Y98213D01*
X276949Y100882D01*
X280724Y100882D01*
X282443Y99163D01*
X282459Y99151D01*
X282472Y99135D01*
X282559Y99079D01*
X282643Y99019D01*
X282662Y99013D01*
X282679Y99002D01*
X282779Y98977D01*
X282878Y98947D01*
X282898Y98947D01*
X282917Y98942D01*
X283020Y98950D01*
X283124Y98953D01*
X283143Y98960D01*
X283162Y98961D01*
X283257Y99002D01*
X283355Y99038D01*
X283370Y99050D01*
X283389Y99058D01*
X283520Y99163D01*
X285125Y100768D01*
X304233Y100768D01*
X306431Y98570D01*
X306505Y98517D01*
X306575Y98458D01*
X306605Y98445D01*
X306631Y98427D01*
X306718Y98400D01*
X306803Y98366D01*
X306844Y98361D01*
X306866Y98354D01*
X306898Y98355D01*
X306970Y98347D01*
X308607Y98347D01*
X311277Y95678D01*
X311277Y91903D01*
X310035Y90661D01*
X309993Y90603D01*
X309943Y90551D01*
X309922Y90504D01*
X309891Y90461D01*
X309870Y90393D01*
X309840Y90328D01*
X309834Y90276D01*
X309819Y90226D01*
X309821Y90154D01*
X309813Y90083D01*
X309824Y90032D01*
X309825Y89980D01*
X309850Y89913D01*
X309865Y89843D01*
X309892Y89798D01*
X309910Y89749D01*
X309954Y89693D01*
X309991Y89632D01*
X310031Y89598D01*
X310063Y89557D01*
X310124Y89519D01*
X310178Y89472D01*
X310226Y89452D01*
X310270Y89424D01*
X310340Y89407D01*
X310406Y89380D01*
X310478Y89372D01*
X310509Y89364D01*
X310532Y89366D01*
X310573Y89361D01*
X325099Y89361D01*
X325170Y89373D01*
X325241Y89375D01*
X325290Y89393D01*
X325342Y89401D01*
X325405Y89435D01*
X325472Y89459D01*
X325513Y89492D01*
X325559Y89516D01*
X325608Y89568D01*
X325664Y89613D01*
X325692Y89657D01*
X325728Y89695D01*
X325758Y89760D01*
X325797Y89820D01*
X325810Y89871D01*
X325832Y89918D01*
X325840Y89989D01*
X325857Y90059D01*
X325853Y90110D01*
X325859Y90162D01*
X325844Y90232D01*
X325838Y90304D01*
X325818Y90352D01*
X325807Y90403D01*
X325770Y90464D01*
X325742Y90530D01*
X325697Y90586D01*
X325681Y90614D01*
X325663Y90629D01*
X325637Y90661D01*
X318415Y97883D01*
X318341Y97936D01*
X318272Y97995D01*
X318242Y98007D01*
X318216Y98026D01*
X318129Y98053D01*
X318044Y98087D01*
X318003Y98092D01*
X317981Y98099D01*
X317948Y98098D01*
X317877Y98106D01*
X316239Y98106D01*
X313570Y100775D01*
X313570Y104550D01*
X316239Y107219D01*
X320014Y107219D01*
X322684Y104550D01*
X322684Y102912D01*
X322698Y102822D01*
X322705Y102731D01*
X322718Y102701D01*
X322723Y102669D01*
X322766Y102589D01*
X322802Y102505D01*
X322827Y102473D01*
X322838Y102452D01*
X322862Y102430D01*
X322907Y102374D01*
X328747Y96533D01*
X328805Y96491D01*
X328857Y96442D01*
X328905Y96420D01*
X328947Y96390D01*
X329015Y96369D01*
X329081Y96338D01*
X329132Y96333D01*
X329182Y96317D01*
X329254Y96319D01*
X329325Y96311D01*
X329376Y96322D01*
X329428Y96324D01*
X329495Y96348D01*
X329565Y96363D01*
X329610Y96390D01*
X329659Y96408D01*
X329715Y96453D01*
X329776Y96490D01*
X329810Y96529D01*
X329851Y96562D01*
X329890Y96622D01*
X329936Y96677D01*
X329956Y96725D01*
X329984Y96769D01*
X330001Y96838D01*
X330028Y96905D01*
X330031Y96930D01*
X332716Y99615D01*
X336491Y99615D01*
X339160Y96945D01*
X339160Y93925D01*
X339163Y93905D01*
X339161Y93886D01*
X339183Y93784D01*
X339200Y93682D01*
X339209Y93665D01*
X339214Y93645D01*
X339267Y93556D01*
X339315Y93465D01*
X339329Y93451D01*
X339340Y93434D01*
X339418Y93367D01*
X339493Y93296D01*
X339511Y93287D01*
X339527Y93274D01*
X339623Y93235D01*
X339716Y93192D01*
X339736Y93190D01*
X339755Y93182D01*
X339921Y93164D01*
X366041Y93164D01*
X366061Y93167D01*
X366081Y93165D01*
X366182Y93187D01*
X366284Y93204D01*
X366302Y93213D01*
X366321Y93217D01*
X366410Y93270D01*
X366501Y93319D01*
X366515Y93333D01*
X366532Y93343D01*
X366599Y93422D01*
X366671Y93497D01*
X366679Y93515D01*
X366692Y93530D01*
X366731Y93626D01*
X366774Y93720D01*
X366777Y93740D01*
X366784Y93758D01*
X366802Y93925D01*
X366802Y94808D01*
X366788Y94898D01*
X366781Y94989D01*
X366768Y95019D01*
X366763Y95051D01*
X366720Y95131D01*
X366684Y95215D01*
X366659Y95247D01*
X366648Y95268D01*
X366624Y95290D01*
X366579Y95346D01*
X352523Y109403D01*
X352449Y109456D01*
X352379Y109516D01*
X352349Y109528D01*
X352323Y109547D01*
X352236Y109574D01*
X352151Y109608D01*
X352110Y109612D01*
X352088Y109619D01*
X352056Y109618D01*
X351984Y109626D01*
X339921Y109626D01*
X339902Y109623D01*
X339882Y109625D01*
X339781Y109603D01*
X339679Y109586D01*
X339661Y109577D01*
X339642Y109573D01*
X339553Y109520D01*
X339461Y109471D01*
X339448Y109457D01*
X339431Y109447D01*
X339363Y109368D01*
X339292Y109293D01*
X339284Y109275D01*
X339271Y109260D01*
X339232Y109164D01*
X339188Y109070D01*
X339186Y109050D01*
X339179Y109032D01*
X339160Y108865D01*
X339160Y105845D01*
X336491Y103175D01*
X332716Y103175D01*
X330047Y105845D01*
X330047Y108865D01*
X330044Y108885D01*
X330046Y108904D01*
X330024Y109006D01*
X330007Y109108D01*
X329998Y109125D01*
X329993Y109145D01*
X329940Y109234D01*
X329892Y109325D01*
X329878Y109339D01*
X329867Y109356D01*
X329789Y109423D01*
X329714Y109494D01*
X329696Y109503D01*
X329680Y109516D01*
X329584Y109555D01*
X329491Y109598D01*
X329471Y109600D01*
X329452Y109608D01*
X329286Y109626D01*
X285125Y109626D01*
X264300Y130452D01*
X264242Y130494D01*
X264190Y130543D01*
X264142Y130565D01*
X264100Y130595D01*
X264032Y130616D01*
X263967Y130647D01*
X263915Y130652D01*
X263865Y130668D01*
X263793Y130666D01*
X263722Y130674D01*
X263671Y130663D01*
X263619Y130661D01*
X263552Y130637D01*
X263482Y130621D01*
X263437Y130595D01*
X263388Y130577D01*
X263332Y130532D01*
X263271Y130495D01*
X263237Y130456D01*
X263196Y130423D01*
X263157Y130363D01*
X263111Y130308D01*
X263091Y130260D01*
X263063Y130216D01*
X263046Y130147D01*
X263019Y130080D01*
X263011Y130009D01*
X263003Y129978D01*
X263005Y129954D01*
X263000Y129913D01*
X263000Y80897D01*
X263015Y80808D01*
X263022Y80717D01*
X263035Y80687D01*
X263040Y80655D01*
X263083Y80574D01*
X263119Y80490D01*
X263144Y80458D01*
X263155Y80437D01*
X263179Y80415D01*
X263223Y80359D01*
X263431Y80151D01*
X263448Y80139D01*
X263460Y80124D01*
X263547Y80068D01*
X263631Y80008D01*
X263650Y80002D01*
X263667Y79991D01*
X263767Y79966D01*
X263866Y79935D01*
X263886Y79936D01*
X263906Y79931D01*
X264009Y79939D01*
G37*
%LPC*%
G36*
X157810Y132327D02*
X157810Y132327D01*
X155140Y134996D01*
X155140Y136633D01*
X155126Y136724D01*
X155119Y136814D01*
X155106Y136844D01*
X155101Y136876D01*
X155058Y136957D01*
X155022Y137041D01*
X154997Y137073D01*
X154986Y137094D01*
X154962Y137116D01*
X154917Y137172D01*
X140861Y151229D01*
X140787Y151282D01*
X140717Y151341D01*
X140687Y151353D01*
X140661Y151372D01*
X140574Y151399D01*
X140489Y151433D01*
X140448Y151438D01*
X140426Y151445D01*
X140394Y151444D01*
X140322Y151452D01*
X117824Y151452D01*
X107965Y161310D01*
X107871Y161378D01*
X107777Y161448D01*
X107771Y161450D01*
X107766Y161454D01*
X107654Y161488D01*
X107543Y161524D01*
X107536Y161524D01*
X107530Y161526D01*
X107414Y161523D01*
X107297Y161522D01*
X107290Y161520D01*
X107285Y161520D01*
X107267Y161513D01*
X107136Y161475D01*
X103621Y160019D01*
X99579Y160019D01*
X95844Y161566D01*
X92986Y164424D01*
X91439Y168159D01*
X91439Y168761D01*
X91428Y168832D01*
X91426Y168904D01*
X91408Y168953D01*
X91400Y169004D01*
X91366Y169067D01*
X91341Y169135D01*
X91309Y169175D01*
X91284Y169221D01*
X91233Y169271D01*
X91188Y169327D01*
X91144Y169355D01*
X91106Y169391D01*
X91041Y169421D01*
X90981Y169460D01*
X90930Y169472D01*
X90883Y169494D01*
X90812Y169502D01*
X90742Y169520D01*
X90690Y169516D01*
X90639Y169521D01*
X90568Y169506D01*
X90497Y169501D01*
X90449Y169480D01*
X90398Y169469D01*
X90337Y169432D01*
X90271Y169404D01*
X90215Y169360D01*
X90187Y169343D01*
X90172Y169325D01*
X90140Y169299D01*
X71184Y150344D01*
X71143Y150286D01*
X71093Y150234D01*
X71071Y150187D01*
X71041Y150144D01*
X71020Y150076D01*
X70990Y150011D01*
X70984Y149959D01*
X70969Y149909D01*
X70970Y149838D01*
X70962Y149766D01*
X70974Y149716D01*
X70975Y149663D01*
X71000Y149596D01*
X71015Y149526D01*
X71041Y149481D01*
X71059Y149432D01*
X71104Y149376D01*
X71141Y149315D01*
X71180Y149281D01*
X71213Y149240D01*
X71273Y149202D01*
X71328Y149155D01*
X71376Y149136D01*
X71420Y149107D01*
X71489Y149090D01*
X71556Y149063D01*
X71627Y149055D01*
X71658Y149047D01*
X71682Y149049D01*
X71723Y149045D01*
X72864Y149045D01*
X75533Y146375D01*
X75533Y142600D01*
X72864Y139931D01*
X69089Y139931D01*
X66420Y142600D01*
X66420Y143742D01*
X66408Y143812D01*
X66406Y143884D01*
X66388Y143933D01*
X66380Y143984D01*
X66346Y144048D01*
X66322Y144115D01*
X66289Y144156D01*
X66265Y144202D01*
X66213Y144251D01*
X66168Y144307D01*
X66124Y144335D01*
X66087Y144371D01*
X66022Y144401D01*
X65961Y144440D01*
X65911Y144453D01*
X65864Y144475D01*
X65792Y144483D01*
X65723Y144500D01*
X65671Y144496D01*
X65619Y144502D01*
X65549Y144487D01*
X65478Y144481D01*
X65430Y144461D01*
X65379Y144450D01*
X65317Y144413D01*
X65251Y144385D01*
X65195Y144340D01*
X65168Y144323D01*
X65152Y144306D01*
X65120Y144280D01*
X63420Y142580D01*
X59351Y142580D01*
X59261Y142565D01*
X59170Y142558D01*
X59140Y142545D01*
X59108Y142540D01*
X59028Y142497D01*
X58944Y142461D01*
X58912Y142436D01*
X58891Y142425D01*
X58869Y142401D01*
X58813Y142357D01*
X57655Y141199D01*
X53880Y141199D01*
X51211Y143868D01*
X51211Y147643D01*
X53880Y150312D01*
X57655Y150312D01*
X58813Y149154D01*
X58887Y149101D01*
X58956Y149041D01*
X58986Y149029D01*
X59013Y149010D01*
X59099Y148984D01*
X59184Y148950D01*
X59225Y148945D01*
X59248Y148938D01*
X59280Y148939D01*
X59351Y148931D01*
X60474Y148931D01*
X60564Y148946D01*
X60655Y148953D01*
X60684Y148966D01*
X60716Y148971D01*
X60797Y149014D01*
X60881Y149049D01*
X60913Y149075D01*
X60934Y149086D01*
X60956Y149109D01*
X61012Y149154D01*
X91216Y179358D01*
X91269Y179432D01*
X91329Y179502D01*
X91341Y179532D01*
X91360Y179558D01*
X91387Y179645D01*
X91421Y179730D01*
X91425Y179771D01*
X91432Y179793D01*
X91431Y179825D01*
X91439Y179897D01*
X91439Y187441D01*
X92986Y191176D01*
X95844Y194034D01*
X99579Y195581D01*
X103621Y195581D01*
X107356Y194034D01*
X110214Y191176D01*
X111761Y187441D01*
X111761Y168159D01*
X111469Y167454D01*
X111442Y167340D01*
X111413Y167227D01*
X111414Y167220D01*
X111412Y167214D01*
X111423Y167098D01*
X111432Y166981D01*
X111435Y166976D01*
X111436Y166969D01*
X111483Y166862D01*
X111529Y166755D01*
X111533Y166749D01*
X111536Y166745D01*
X111548Y166731D01*
X111634Y166624D01*
X120232Y158026D01*
X120306Y157973D01*
X120375Y157914D01*
X120405Y157901D01*
X120431Y157883D01*
X120518Y157856D01*
X120603Y157822D01*
X120644Y157817D01*
X120666Y157810D01*
X120699Y157811D01*
X120770Y157803D01*
X143268Y157803D01*
X159409Y141663D01*
X159483Y141610D01*
X159552Y141550D01*
X159582Y141538D01*
X159608Y141519D01*
X159695Y141493D01*
X159780Y141458D01*
X159821Y141454D01*
X159843Y141447D01*
X159876Y141448D01*
X159947Y141440D01*
X161585Y141440D01*
X164254Y138771D01*
X164254Y134996D01*
X161585Y132327D01*
X157810Y132327D01*
G37*
%LPD*%
%LPC*%
G36*
X199635Y101908D02*
X199635Y101908D01*
X196966Y104577D01*
X196966Y106215D01*
X196951Y106305D01*
X196944Y106396D01*
X196931Y106426D01*
X196926Y106458D01*
X196883Y106538D01*
X196848Y106622D01*
X196822Y106654D01*
X196811Y106675D01*
X196788Y106697D01*
X196743Y106753D01*
X173886Y129610D01*
X173870Y129622D01*
X173857Y129637D01*
X173770Y129693D01*
X173687Y129753D01*
X173667Y129759D01*
X173650Y129770D01*
X173550Y129795D01*
X173451Y129826D01*
X173431Y129825D01*
X173412Y129830D01*
X173309Y129822D01*
X173206Y129819D01*
X173187Y129812D01*
X173167Y129811D01*
X173121Y129792D01*
X169217Y129792D01*
X166547Y132461D01*
X166547Y136236D01*
X167705Y137394D01*
X167758Y137468D01*
X167818Y137537D01*
X167830Y137567D01*
X167849Y137594D01*
X167876Y137681D01*
X167910Y137765D01*
X167914Y137806D01*
X167921Y137829D01*
X167920Y137861D01*
X167928Y137932D01*
X167928Y155943D01*
X172305Y160319D01*
X172331Y160356D01*
X172365Y160387D01*
X172403Y160456D01*
X172448Y160519D01*
X172462Y160563D01*
X172484Y160603D01*
X172498Y160680D01*
X172521Y160754D01*
X172519Y160800D01*
X172527Y160845D01*
X172516Y160922D01*
X172514Y161000D01*
X172498Y161043D01*
X172492Y161088D01*
X172456Y161158D01*
X172430Y161231D01*
X172401Y161267D01*
X172380Y161308D01*
X172325Y161362D01*
X172276Y161423D01*
X172237Y161448D01*
X172205Y161480D01*
X172085Y161546D01*
X172069Y161556D01*
X172064Y161557D01*
X172058Y161561D01*
X172044Y161566D01*
X169186Y164424D01*
X167639Y168159D01*
X167639Y187441D01*
X169186Y191176D01*
X172044Y194034D01*
X175779Y195581D01*
X179821Y195581D01*
X183556Y194034D01*
X186414Y191176D01*
X187961Y187441D01*
X187961Y168159D01*
X186414Y164424D01*
X183556Y161566D01*
X179819Y160019D01*
X179720Y159957D01*
X179620Y159897D01*
X179616Y159892D01*
X179610Y159889D01*
X179536Y159799D01*
X179460Y159710D01*
X179458Y159704D01*
X179454Y159699D01*
X179412Y159591D01*
X179368Y159482D01*
X179367Y159474D01*
X179365Y159470D01*
X179365Y159452D01*
X179350Y159315D01*
X179350Y158382D01*
X174503Y153535D01*
X174450Y153461D01*
X174390Y153391D01*
X174378Y153361D01*
X174359Y153335D01*
X174332Y153248D01*
X174298Y153163D01*
X174294Y153122D01*
X174287Y153100D01*
X174288Y153068D01*
X174280Y152997D01*
X174280Y138514D01*
X174295Y138424D01*
X174302Y138333D01*
X174314Y138303D01*
X174320Y138271D01*
X174362Y138191D01*
X174398Y138107D01*
X174424Y138075D01*
X174435Y138054D01*
X174458Y138032D01*
X174503Y137976D01*
X189868Y122610D01*
X189884Y122599D01*
X189897Y122583D01*
X189984Y122527D01*
X190068Y122467D01*
X190087Y122461D01*
X190104Y122450D01*
X190204Y122425D01*
X190303Y122394D01*
X190323Y122395D01*
X190342Y122390D01*
X190445Y122398D01*
X190549Y122401D01*
X190568Y122408D01*
X190588Y122409D01*
X190682Y122449D01*
X190780Y122485D01*
X190796Y122498D01*
X190814Y122505D01*
X190945Y122610D01*
X193298Y124963D01*
X197073Y124963D01*
X199742Y122294D01*
X199742Y118519D01*
X197389Y116166D01*
X197377Y116150D01*
X197362Y116137D01*
X197306Y116050D01*
X197245Y115966D01*
X197240Y115947D01*
X197229Y115930D01*
X197204Y115830D01*
X197173Y115731D01*
X197174Y115711D01*
X197169Y115692D01*
X197177Y115589D01*
X197179Y115485D01*
X197186Y115467D01*
X197188Y115447D01*
X197228Y115352D01*
X197264Y115254D01*
X197276Y115239D01*
X197284Y115220D01*
X197389Y115089D01*
X201234Y111244D01*
X201308Y111191D01*
X201377Y111132D01*
X201408Y111120D01*
X201434Y111101D01*
X201521Y111074D01*
X201606Y111040D01*
X201647Y111035D01*
X201669Y111029D01*
X201701Y111029D01*
X201772Y111021D01*
X203410Y111021D01*
X206079Y108352D01*
X206079Y104577D01*
X203410Y101908D01*
X199635Y101908D01*
G37*
%LPD*%
%LPC*%
G36*
X292158Y62617D02*
X292158Y62617D01*
X289489Y65287D01*
X289489Y69062D01*
X292158Y71731D01*
X295933Y71731D01*
X297091Y70573D01*
X297165Y70520D01*
X297234Y70460D01*
X297265Y70448D01*
X297291Y70429D01*
X297378Y70403D01*
X297463Y70368D01*
X297504Y70364D01*
X297526Y70357D01*
X297558Y70358D01*
X297629Y70350D01*
X409601Y70350D01*
X409691Y70365D01*
X409782Y70372D01*
X409812Y70384D01*
X409844Y70390D01*
X409924Y70432D01*
X410008Y70468D01*
X410040Y70494D01*
X410061Y70505D01*
X410083Y70528D01*
X410139Y70573D01*
X412565Y72998D01*
X416340Y72998D01*
X419009Y70329D01*
X419009Y66554D01*
X416340Y63885D01*
X412534Y63885D01*
X412531Y63888D01*
X412500Y63900D01*
X412474Y63919D01*
X412387Y63946D01*
X412302Y63980D01*
X412261Y63985D01*
X412239Y63991D01*
X412207Y63991D01*
X412136Y63998D01*
X297629Y63998D01*
X297539Y63984D01*
X297448Y63977D01*
X297419Y63964D01*
X297387Y63959D01*
X297306Y63916D01*
X297222Y63880D01*
X297190Y63855D01*
X297169Y63844D01*
X297147Y63820D01*
X297091Y63775D01*
X295933Y62617D01*
X292158Y62617D01*
G37*
%LPD*%
%LPC*%
G36*
X16076Y175034D02*
X16076Y175034D01*
X16041Y175048D01*
X15955Y175053D01*
X15871Y175067D01*
X15833Y175061D01*
X15796Y175063D01*
X15663Y175034D01*
X14849Y175441D01*
X14818Y175451D01*
X14749Y175483D01*
X14123Y175691D01*
X14034Y175706D01*
X13947Y175728D01*
X13913Y175725D01*
X13880Y175730D01*
X13791Y175715D01*
X13701Y175708D01*
X13671Y175695D01*
X13638Y175690D01*
X13558Y175647D01*
X13475Y175612D01*
X13442Y175586D01*
X13421Y175574D01*
X13399Y175551D01*
X13344Y175507D01*
X13096Y175259D01*
X7676Y175259D01*
X6039Y176896D01*
X6039Y179212D01*
X7369Y180541D01*
X7422Y180615D01*
X7481Y180684D01*
X7493Y180714D01*
X7512Y180741D01*
X7539Y180828D01*
X7573Y180912D01*
X7578Y180953D01*
X7584Y180976D01*
X7584Y181008D01*
X7592Y181079D01*
X7592Y183445D01*
X7587Y183473D01*
X7587Y183529D01*
X7480Y184493D01*
X7481Y184495D01*
X7509Y184564D01*
X7545Y184628D01*
X7555Y184677D01*
X7573Y184723D01*
X7580Y184788D01*
X8271Y185479D01*
X8288Y185502D01*
X8327Y185542D01*
X8933Y186299D01*
X8935Y186299D01*
X9003Y186328D01*
X9075Y186348D01*
X9116Y186376D01*
X9161Y186395D01*
X9213Y186437D01*
X10189Y186437D01*
X10218Y186441D01*
X10273Y186441D01*
X11237Y186548D01*
X11239Y186547D01*
X11308Y186519D01*
X11372Y186483D01*
X11421Y186474D01*
X11467Y186455D01*
X11533Y186448D01*
X11714Y186266D01*
X11787Y186214D01*
X11856Y186155D01*
X11887Y186142D01*
X11914Y186123D01*
X12000Y186096D01*
X12084Y186062D01*
X12117Y186060D01*
X12149Y186050D01*
X12239Y186053D01*
X12329Y186047D01*
X12371Y186056D01*
X12395Y186057D01*
X12425Y186068D01*
X12493Y186082D01*
X14224Y186659D01*
X15532Y186006D01*
X15553Y185999D01*
X15572Y185987D01*
X15670Y185963D01*
X15767Y185932D01*
X15789Y185933D01*
X15811Y185928D01*
X15912Y185936D01*
X16013Y185938D01*
X16034Y185946D01*
X16056Y185947D01*
X16213Y186006D01*
X17521Y186659D01*
X19828Y185890D01*
X19871Y185851D01*
X19913Y185832D01*
X19951Y185805D01*
X20025Y185783D01*
X20096Y185751D01*
X20142Y185747D01*
X20186Y185734D01*
X20264Y185736D01*
X20341Y185729D01*
X20386Y185739D01*
X20432Y185741D01*
X20505Y185767D01*
X20580Y185785D01*
X20635Y185815D01*
X20663Y185826D01*
X20684Y185842D01*
X20727Y185866D01*
X21756Y186593D01*
X24156Y186179D01*
X24202Y186179D01*
X24247Y186169D01*
X24383Y186177D01*
X24402Y186177D01*
X24407Y186179D01*
X24414Y186179D01*
X26814Y186593D01*
X27453Y186142D01*
X27475Y186131D01*
X27495Y186114D01*
X27586Y186077D01*
X27674Y186034D01*
X27699Y186031D01*
X27723Y186021D01*
X27820Y186015D01*
X27918Y186003D01*
X27943Y186008D01*
X27968Y186006D01*
X28132Y186042D01*
X28648Y186213D01*
X28677Y186229D01*
X28748Y186255D01*
X29564Y186663D01*
X29568Y186662D01*
X29603Y186648D01*
X29688Y186643D01*
X29774Y186629D01*
X29811Y186635D01*
X29848Y186633D01*
X29981Y186662D01*
X30795Y186255D01*
X30826Y186245D01*
X30895Y186213D01*
X31761Y185925D01*
X31763Y185922D01*
X31778Y185887D01*
X31835Y185822D01*
X31885Y185753D01*
X31916Y185731D01*
X31941Y185703D01*
X32055Y185629D01*
X32132Y185399D01*
X32165Y185335D01*
X32190Y185267D01*
X32222Y185227D01*
X32246Y185182D01*
X32299Y185131D01*
X32344Y185075D01*
X32387Y185047D01*
X32424Y185012D01*
X32490Y184981D01*
X32551Y184942D01*
X32600Y184929D01*
X32647Y184908D01*
X32719Y184899D01*
X32789Y184882D01*
X32840Y184886D01*
X32891Y184880D01*
X32962Y184895D01*
X33035Y184901D01*
X33082Y184921D01*
X33132Y184931D01*
X33194Y184969D01*
X33261Y184997D01*
X33315Y185041D01*
X33343Y185057D01*
X33359Y185075D01*
X33392Y185102D01*
X34727Y186437D01*
X37042Y186437D01*
X37126Y186353D01*
X37194Y186304D01*
X37256Y186248D01*
X37293Y186233D01*
X37326Y186209D01*
X37406Y186185D01*
X37482Y186152D01*
X37522Y186149D01*
X37561Y186137D01*
X37644Y186139D01*
X37728Y186132D01*
X37767Y186142D01*
X37807Y186143D01*
X37885Y186172D01*
X37966Y186192D01*
X38012Y186218D01*
X38038Y186228D01*
X38061Y186246D01*
X38112Y186275D01*
X38334Y186437D01*
X42457Y186437D01*
X42550Y186343D01*
X42622Y186291D01*
X42690Y186233D01*
X42722Y186220D01*
X42750Y186200D01*
X42835Y186174D01*
X42917Y186140D01*
X42952Y186138D01*
X42985Y186128D01*
X43074Y186130D01*
X43163Y186124D01*
X43196Y186133D01*
X43231Y186134D01*
X43314Y186165D01*
X43400Y186187D01*
X43438Y186210D01*
X43462Y186218D01*
X43486Y186238D01*
X43545Y186273D01*
X43764Y186437D01*
X46629Y186437D01*
X46648Y186418D01*
X46664Y186406D01*
X46677Y186390D01*
X46764Y186334D01*
X46848Y186274D01*
X46867Y186268D01*
X46884Y186257D01*
X46984Y186232D01*
X47083Y186202D01*
X47103Y186202D01*
X47122Y186197D01*
X47225Y186205D01*
X47329Y186208D01*
X47347Y186215D01*
X47367Y186216D01*
X47462Y186257D01*
X47560Y186292D01*
X47575Y186305D01*
X47594Y186313D01*
X47725Y186418D01*
X47744Y186437D01*
X51301Y186437D01*
X51484Y186254D01*
X51519Y186228D01*
X51549Y186196D01*
X51619Y186157D01*
X51684Y186110D01*
X51726Y186097D01*
X51764Y186076D01*
X51842Y186061D01*
X51919Y186038D01*
X51963Y186039D01*
X52006Y186031D01*
X52085Y186042D01*
X52165Y186044D01*
X52206Y186059D01*
X52249Y186065D01*
X52382Y186124D01*
X52396Y186129D01*
X52398Y186131D01*
X52403Y186133D01*
X52860Y186396D01*
X52872Y186406D01*
X52886Y186413D01*
X52917Y186437D01*
X56804Y186437D01*
X57945Y185296D01*
X57961Y185284D01*
X57974Y185269D01*
X58061Y185213D01*
X58145Y185152D01*
X58164Y185146D01*
X58181Y185136D01*
X58281Y185110D01*
X58380Y185080D01*
X58400Y185080D01*
X58419Y185076D01*
X58522Y185084D01*
X58626Y185086D01*
X58645Y185093D01*
X58664Y185095D01*
X58759Y185135D01*
X58857Y185171D01*
X58872Y185183D01*
X58891Y185191D01*
X59022Y185296D01*
X60163Y186437D01*
X62534Y186437D01*
X62553Y186431D01*
X62570Y186420D01*
X62670Y186395D01*
X62769Y186365D01*
X62789Y186365D01*
X62808Y186360D01*
X62911Y186368D01*
X63015Y186371D01*
X63034Y186378D01*
X63053Y186379D01*
X63148Y186420D01*
X63195Y186437D01*
X65582Y186437D01*
X65893Y186126D01*
X65929Y186100D01*
X65958Y186068D01*
X66028Y186029D01*
X66093Y185982D01*
X66135Y185970D01*
X66173Y185948D01*
X66252Y185934D01*
X66328Y185910D01*
X66372Y185911D01*
X66415Y185903D01*
X66494Y185914D01*
X66574Y185916D01*
X66615Y185931D01*
X66658Y185938D01*
X66791Y185996D01*
X66805Y186001D01*
X66807Y186003D01*
X66812Y186005D01*
X67490Y186396D01*
X67502Y186406D01*
X67517Y186413D01*
X67547Y186437D01*
X71434Y186437D01*
X71661Y186210D01*
X71732Y186159D01*
X71798Y186101D01*
X71832Y186087D01*
X71861Y186066D01*
X71945Y186040D01*
X72025Y186007D01*
X72062Y186004D01*
X72096Y185994D01*
X72184Y185996D01*
X72271Y185990D01*
X72316Y185999D01*
X72342Y186000D01*
X72371Y186011D01*
X72435Y186024D01*
X74394Y186660D01*
X77080Y185787D01*
X78741Y183502D01*
X78741Y178194D01*
X77080Y175909D01*
X74394Y175036D01*
X72435Y175672D01*
X72348Y175685D01*
X72264Y175707D01*
X72228Y175704D01*
X72192Y175709D01*
X72106Y175694D01*
X72019Y175687D01*
X71985Y175673D01*
X71949Y175667D01*
X71873Y175625D01*
X71792Y175591D01*
X71756Y175562D01*
X71733Y175550D01*
X71712Y175527D01*
X71661Y175486D01*
X71434Y175259D01*
X67545Y175259D01*
X67490Y175300D01*
X66412Y175922D01*
X66314Y175959D01*
X66219Y176001D01*
X66200Y176002D01*
X66196Y176004D01*
X66181Y176009D01*
X66130Y176011D01*
X66029Y176022D01*
X66010Y176019D01*
X65974Y176022D01*
X65960Y176019D01*
X65958Y176019D01*
X65952Y176018D01*
X65936Y176018D01*
X65890Y176005D01*
X65794Y175985D01*
X62872Y175036D01*
X60186Y175908D01*
X59560Y176770D01*
X59503Y176826D01*
X59454Y176888D01*
X59416Y176912D01*
X59385Y176943D01*
X59314Y176978D01*
X59247Y177021D01*
X59204Y177032D01*
X59164Y177051D01*
X59085Y177062D01*
X59008Y177081D01*
X58964Y177078D01*
X58920Y177083D01*
X58842Y177068D01*
X58763Y177062D01*
X58722Y177045D01*
X58679Y177036D01*
X58610Y176997D01*
X58537Y176966D01*
X58491Y176929D01*
X58465Y176914D01*
X58447Y176894D01*
X58406Y176861D01*
X56804Y175259D01*
X52914Y175259D01*
X52860Y175300D01*
X52403Y175563D01*
X52362Y175579D01*
X52325Y175603D01*
X52247Y175622D01*
X52173Y175650D01*
X52129Y175652D01*
X52086Y175663D01*
X52007Y175656D01*
X51927Y175659D01*
X51885Y175647D01*
X51841Y175644D01*
X51768Y175612D01*
X51691Y175590D01*
X51655Y175564D01*
X51615Y175547D01*
X51501Y175456D01*
X51490Y175448D01*
X51488Y175445D01*
X51484Y175442D01*
X51301Y175259D01*
X47744Y175259D01*
X47618Y175385D01*
X47523Y175453D01*
X47428Y175524D01*
X47422Y175526D01*
X47418Y175529D01*
X47306Y175564D01*
X47194Y175600D01*
X47188Y175600D01*
X47183Y175601D01*
X47064Y175598D01*
X46948Y175597D01*
X46941Y175595D01*
X46937Y175595D01*
X46921Y175589D01*
X46787Y175550D01*
X46355Y175370D01*
X46300Y175336D01*
X46241Y175311D01*
X46177Y175259D01*
X45015Y175259D01*
X44018Y175259D01*
X43848Y175259D01*
X43815Y175292D01*
X43802Y175301D01*
X43793Y175314D01*
X43657Y175413D01*
X43500Y175504D01*
X43459Y175520D01*
X43422Y175544D01*
X43344Y175563D01*
X43269Y175591D01*
X43226Y175593D01*
X43183Y175604D01*
X43104Y175597D01*
X43024Y175600D01*
X42982Y175588D01*
X42938Y175584D01*
X42865Y175553D01*
X42788Y175531D01*
X42752Y175505D01*
X42712Y175488D01*
X42598Y175397D01*
X42587Y175389D01*
X42585Y175386D01*
X42581Y175383D01*
X42457Y175259D01*
X40141Y175259D01*
X39130Y176271D01*
X39114Y176282D01*
X39101Y176298D01*
X39014Y176354D01*
X38930Y176414D01*
X38911Y176420D01*
X38894Y176431D01*
X38794Y176456D01*
X38695Y176486D01*
X38675Y176486D01*
X38656Y176491D01*
X38553Y176483D01*
X38449Y176480D01*
X38431Y176473D01*
X38411Y176472D01*
X38316Y176431D01*
X38218Y176396D01*
X38203Y176383D01*
X38184Y176375D01*
X38053Y176271D01*
X37042Y175259D01*
X32211Y175259D01*
X32173Y175253D01*
X32134Y175255D01*
X31970Y175220D01*
X31420Y175037D01*
X30112Y175690D01*
X30091Y175697D01*
X30072Y175709D01*
X29974Y175733D01*
X29877Y175764D01*
X29855Y175763D01*
X29834Y175768D01*
X29732Y175760D01*
X29631Y175758D01*
X29610Y175750D01*
X29588Y175749D01*
X29431Y175690D01*
X28123Y175037D01*
X26392Y175614D01*
X26303Y175628D01*
X26216Y175650D01*
X26182Y175647D01*
X26149Y175653D01*
X26060Y175638D01*
X25970Y175631D01*
X25940Y175618D01*
X25907Y175612D01*
X25827Y175570D01*
X25744Y175535D01*
X25711Y175508D01*
X25690Y175497D01*
X25668Y175473D01*
X25613Y175430D01*
X25443Y175259D01*
X23127Y175259D01*
X21490Y176896D01*
X21490Y179875D01*
X21486Y179901D01*
X21488Y179927D01*
X21466Y180022D01*
X21451Y180117D01*
X21438Y180141D01*
X21432Y180167D01*
X21351Y180314D01*
X21011Y180796D01*
X21000Y180806D01*
X20994Y180819D01*
X20915Y180893D01*
X20838Y180971D01*
X20825Y180978D01*
X20815Y180988D01*
X20716Y181033D01*
X20619Y181083D01*
X20605Y181085D01*
X20592Y181091D01*
X20483Y181102D01*
X20375Y181118D01*
X20361Y181116D01*
X20347Y181117D01*
X20240Y181093D01*
X20133Y181074D01*
X20121Y181067D01*
X20107Y181064D01*
X20013Y181008D01*
X19918Y180955D01*
X19908Y180945D01*
X19896Y180937D01*
X19825Y180854D01*
X19752Y180774D01*
X19746Y180761D01*
X19737Y180750D01*
X19666Y180598D01*
X18899Y178295D01*
X18893Y178258D01*
X18879Y178223D01*
X18873Y178137D01*
X18860Y178052D01*
X18866Y178015D01*
X18864Y177977D01*
X18892Y177844D01*
X18485Y177030D01*
X18476Y176999D01*
X18444Y176930D01*
X18155Y176065D01*
X18152Y176062D01*
X18118Y176048D01*
X18053Y175991D01*
X17983Y175940D01*
X17961Y175910D01*
X17933Y175885D01*
X17859Y175770D01*
X16996Y175483D01*
X16967Y175467D01*
X16896Y175441D01*
X16080Y175033D01*
X16076Y175034D01*
G37*
%LPD*%
%LPC*%
G36*
X479920Y187781D02*
X479920Y187781D01*
X479870Y187811D01*
X479826Y187849D01*
X479765Y187873D01*
X479708Y187907D01*
X479651Y187919D01*
X479597Y187941D01*
X479499Y187952D01*
X479468Y187958D01*
X479454Y187957D01*
X479431Y187959D01*
X477719Y187959D01*
X477661Y187950D01*
X477603Y187950D01*
X477541Y187930D01*
X477476Y187920D01*
X477425Y187892D01*
X477369Y187874D01*
X477286Y187819D01*
X477258Y187804D01*
X477249Y187794D01*
X477230Y187781D01*
X476727Y187360D01*
X474421Y187564D01*
X473677Y188451D01*
X473363Y188826D01*
X473322Y188861D01*
X473289Y188903D01*
X473230Y188941D01*
X473176Y188987D01*
X473127Y189007D01*
X473082Y189036D01*
X473014Y189053D01*
X472949Y189079D01*
X472895Y189083D01*
X472844Y189096D01*
X472773Y189090D01*
X472703Y189095D01*
X472652Y189081D01*
X472598Y189077D01*
X472534Y189049D01*
X472466Y189031D01*
X472421Y189001D01*
X472372Y188980D01*
X472285Y188910D01*
X472261Y188894D01*
X472254Y188886D01*
X472241Y188875D01*
X471325Y187959D01*
X468125Y187959D01*
X468104Y187956D01*
X468082Y187958D01*
X467916Y187930D01*
X467282Y187749D01*
X467076Y187863D01*
X466974Y187900D01*
X466873Y187941D01*
X466855Y187943D01*
X466844Y187947D01*
X466815Y187947D01*
X466706Y187959D01*
X466470Y187959D01*
X466003Y188426D01*
X465985Y188439D01*
X465972Y188456D01*
X465835Y188553D01*
X465539Y188717D01*
X465503Y188730D01*
X465472Y188750D01*
X465388Y188771D01*
X465307Y188801D01*
X465270Y188801D01*
X465233Y188810D01*
X465147Y188804D01*
X465061Y188806D01*
X465025Y188794D01*
X464988Y188791D01*
X464909Y188758D01*
X464827Y188732D01*
X464796Y188710D01*
X464762Y188695D01*
X464631Y188590D01*
X464000Y187959D01*
X459873Y187959D01*
X459835Y187953D01*
X459797Y187955D01*
X459633Y187920D01*
X459082Y187737D01*
X458113Y188221D01*
X458092Y188228D01*
X458073Y188240D01*
X457985Y188262D01*
X457971Y188267D01*
X457961Y188268D01*
X457878Y188294D01*
X457856Y188294D01*
X457834Y188299D01*
X457734Y188291D01*
X457632Y188289D01*
X457611Y188281D01*
X457589Y188279D01*
X457500Y188246D01*
X457498Y188246D01*
X457495Y188244D01*
X457432Y188221D01*
X456463Y187737D01*
X455912Y187920D01*
X455874Y187926D01*
X455838Y187941D01*
X455671Y187959D01*
X453099Y187959D01*
X453086Y187970D01*
X453055Y187983D01*
X453028Y188002D01*
X452942Y188029D01*
X452858Y188063D01*
X452825Y188065D01*
X452793Y188075D01*
X452703Y188072D01*
X452613Y188078D01*
X452571Y188069D01*
X452547Y188068D01*
X452517Y188057D01*
X452449Y188043D01*
X451530Y187737D01*
X451246Y187879D01*
X451158Y187906D01*
X451072Y187941D01*
X451033Y187945D01*
X451011Y187952D01*
X450978Y187951D01*
X450905Y187959D01*
X448275Y187959D01*
X448221Y187973D01*
X448123Y188003D01*
X448102Y188003D01*
X448083Y188008D01*
X447980Y188000D01*
X447877Y187997D01*
X447858Y187990D01*
X447838Y187988D01*
X447769Y187959D01*
X445337Y187959D01*
X445249Y188047D01*
X445179Y188098D01*
X445113Y188156D01*
X445079Y188170D01*
X445049Y188191D01*
X444966Y188216D01*
X444885Y188250D01*
X444849Y188252D01*
X444814Y188263D01*
X444727Y188261D01*
X444640Y188267D01*
X444594Y188257D01*
X444569Y188257D01*
X444539Y188246D01*
X444476Y188233D01*
X442990Y187750D01*
X440863Y188441D01*
X440831Y188446D01*
X440802Y188458D01*
X440710Y188465D01*
X440620Y188478D01*
X440588Y188473D01*
X440557Y188475D01*
X440392Y188441D01*
X438265Y187750D01*
X436678Y188266D01*
X436591Y188279D01*
X436506Y188301D01*
X436470Y188298D01*
X436434Y188303D01*
X436348Y188288D01*
X436261Y188281D01*
X436228Y188267D01*
X436192Y188261D01*
X436115Y188219D01*
X436035Y188185D01*
X435999Y188156D01*
X435976Y188144D01*
X435955Y188121D01*
X435904Y188080D01*
X435783Y187959D01*
X433439Y187959D01*
X433427Y187970D01*
X433396Y187983D01*
X433369Y188002D01*
X433282Y188029D01*
X433199Y188063D01*
X433165Y188065D01*
X433134Y188075D01*
X433043Y188072D01*
X432953Y188078D01*
X432912Y188069D01*
X432888Y188068D01*
X432858Y188057D01*
X432789Y188043D01*
X431871Y187737D01*
X430170Y188587D01*
X430150Y188593D01*
X430132Y188605D01*
X430033Y188630D01*
X429935Y188660D01*
X429914Y188660D01*
X429894Y188665D01*
X429792Y188657D01*
X429689Y188654D01*
X429669Y188647D01*
X429648Y188646D01*
X429554Y188606D01*
X429458Y188571D01*
X429441Y188558D01*
X429422Y188549D01*
X429291Y188445D01*
X428777Y187930D01*
X428775Y187930D01*
X428713Y187920D01*
X428659Y187891D01*
X428603Y187873D01*
X427566Y187957D01*
X427543Y187955D01*
X427504Y187959D01*
X423931Y187959D01*
X423887Y187999D01*
X423847Y188016D01*
X423812Y188042D01*
X423735Y188065D01*
X423662Y188097D01*
X423618Y188101D01*
X423577Y188114D01*
X423497Y188112D01*
X423417Y188119D01*
X423374Y188109D01*
X423331Y188108D01*
X423256Y188080D01*
X423177Y188061D01*
X423127Y188033D01*
X423100Y188023D01*
X423078Y188006D01*
X423031Y187979D01*
X423003Y187959D01*
X420609Y187959D01*
X420581Y187979D01*
X420509Y188015D01*
X420442Y188058D01*
X420400Y188069D01*
X420361Y188088D01*
X420281Y188099D01*
X420203Y188118D01*
X420160Y188115D01*
X420117Y188121D01*
X420038Y188105D01*
X419958Y188099D01*
X419918Y188082D01*
X419876Y188074D01*
X419805Y188034D01*
X419732Y188003D01*
X419687Y187967D01*
X419662Y187953D01*
X419645Y187935D01*
X419631Y187930D01*
X419569Y187920D01*
X419515Y187891D01*
X419459Y187873D01*
X418422Y187957D01*
X418399Y187955D01*
X418360Y187959D01*
X410235Y187959D01*
X408597Y189596D01*
X408597Y191912D01*
X409644Y192959D01*
X409698Y193033D01*
X409757Y193102D01*
X409769Y193132D01*
X409788Y193158D01*
X409815Y193245D01*
X409849Y193330D01*
X409854Y193371D01*
X409860Y193393D01*
X409860Y193426D01*
X409867Y193497D01*
X409867Y195129D01*
X409863Y195155D01*
X409866Y195176D01*
X409863Y195189D01*
X409863Y195213D01*
X409756Y196177D01*
X409757Y196178D01*
X409785Y196248D01*
X409821Y196312D01*
X409830Y196361D01*
X409849Y196407D01*
X409856Y196472D01*
X410547Y197163D01*
X410564Y197186D01*
X410603Y197226D01*
X411209Y197983D01*
X411211Y197983D01*
X411279Y198012D01*
X411351Y198032D01*
X411392Y198060D01*
X411437Y198079D01*
X411489Y198121D01*
X412465Y198121D01*
X412494Y198125D01*
X412549Y198125D01*
X413513Y198232D01*
X413515Y198231D01*
X413584Y198203D01*
X413648Y198167D01*
X413697Y198158D01*
X413743Y198139D01*
X413809Y198132D01*
X414224Y197717D01*
X414259Y197691D01*
X414289Y197659D01*
X414359Y197620D01*
X414424Y197573D01*
X414465Y197560D01*
X414504Y197539D01*
X414582Y197524D01*
X414659Y197501D01*
X414703Y197502D01*
X414746Y197494D01*
X414825Y197505D01*
X414905Y197507D01*
X414946Y197522D01*
X414989Y197528D01*
X415122Y197587D01*
X415136Y197592D01*
X415138Y197594D01*
X415143Y197596D01*
X415723Y197931D01*
X415735Y197941D01*
X415749Y197947D01*
X415880Y198052D01*
X415950Y198121D01*
X418493Y198121D01*
X419098Y197681D01*
X419117Y197671D01*
X419132Y197657D01*
X419226Y197616D01*
X419318Y197570D01*
X419339Y197567D01*
X419358Y197559D01*
X419460Y197550D01*
X419561Y197536D01*
X419582Y197539D01*
X419603Y197537D01*
X419703Y197562D01*
X419803Y197580D01*
X419822Y197590D01*
X419842Y197595D01*
X419988Y197677D01*
X420609Y198121D01*
X423003Y198121D01*
X423585Y197705D01*
X423678Y197659D01*
X423769Y197609D01*
X423788Y197605D01*
X423805Y197597D01*
X423908Y197583D01*
X424010Y197564D01*
X424030Y197566D01*
X424049Y197564D01*
X424151Y197584D01*
X424254Y197598D01*
X424276Y197608D01*
X424290Y197611D01*
X424318Y197626D01*
X424408Y197666D01*
X424867Y197931D01*
X424879Y197941D01*
X424894Y197947D01*
X425024Y198052D01*
X425094Y198121D01*
X427637Y198121D01*
X429387Y196848D01*
X429409Y196837D01*
X429427Y196821D01*
X429518Y196782D01*
X429607Y196737D01*
X429631Y196734D01*
X429653Y196725D01*
X429752Y196717D01*
X429851Y196703D01*
X429874Y196707D01*
X429898Y196705D01*
X429995Y196729D01*
X430093Y196747D01*
X430114Y196759D01*
X430137Y196765D01*
X430283Y196848D01*
X432035Y198121D01*
X440693Y198121D01*
X440768Y198045D01*
X440839Y197994D01*
X440905Y197937D01*
X440939Y197923D01*
X440968Y197902D01*
X441052Y197876D01*
X441132Y197843D01*
X441169Y197840D01*
X441203Y197829D01*
X441291Y197832D01*
X441378Y197826D01*
X441423Y197835D01*
X441449Y197836D01*
X441478Y197846D01*
X441542Y197860D01*
X442990Y198330D01*
X444476Y197847D01*
X444562Y197834D01*
X444647Y197813D01*
X444683Y197815D01*
X444719Y197810D01*
X444805Y197825D01*
X444892Y197832D01*
X444925Y197846D01*
X444961Y197852D01*
X445038Y197894D01*
X445118Y197928D01*
X445155Y197957D01*
X445177Y197969D01*
X445199Y197992D01*
X445249Y198033D01*
X445337Y198121D01*
X445510Y198121D01*
X445629Y198140D01*
X445749Y198159D01*
X445751Y198160D01*
X445753Y198160D01*
X445759Y198164D01*
X445902Y198229D01*
X446050Y198318D01*
X446748Y198143D01*
X446757Y198143D01*
X446766Y198139D01*
X446933Y198121D01*
X447763Y198121D01*
X447817Y198107D01*
X447915Y198077D01*
X447935Y198077D01*
X447955Y198072D01*
X448058Y198080D01*
X448161Y198083D01*
X448180Y198090D01*
X448200Y198092D01*
X448269Y198121D01*
X449105Y198121D01*
X449114Y198122D01*
X449123Y198121D01*
X449290Y198143D01*
X449988Y198318D01*
X450136Y198229D01*
X450249Y198185D01*
X450361Y198139D01*
X450363Y198139D01*
X450365Y198138D01*
X450372Y198138D01*
X450528Y198121D01*
X450717Y198121D01*
X450727Y198114D01*
X450789Y198058D01*
X450826Y198042D01*
X450859Y198019D01*
X450938Y197994D01*
X451015Y197961D01*
X451055Y197958D01*
X451094Y197946D01*
X451177Y197949D01*
X451260Y197942D01*
X451299Y197952D01*
X451340Y197953D01*
X451418Y197981D01*
X451499Y198002D01*
X451544Y198028D01*
X451571Y198037D01*
X451594Y198056D01*
X451645Y198085D01*
X451694Y198121D01*
X455442Y198121D01*
X455579Y197984D01*
X455652Y197932D01*
X455721Y197873D01*
X455751Y197860D01*
X455779Y197841D01*
X455865Y197814D01*
X455948Y197780D01*
X455982Y197778D01*
X456014Y197768D01*
X456104Y197771D01*
X456194Y197765D01*
X456236Y197774D01*
X456260Y197775D01*
X456290Y197786D01*
X456358Y197800D01*
X456649Y197897D01*
X456678Y197913D01*
X456749Y197939D01*
X457565Y198347D01*
X457569Y198346D01*
X457604Y198332D01*
X457689Y198327D01*
X457774Y198313D01*
X457812Y198319D01*
X457849Y198317D01*
X457982Y198346D01*
X458796Y197939D01*
X458827Y197929D01*
X458896Y197897D01*
X459762Y197609D01*
X459764Y197606D01*
X459779Y197571D01*
X459836Y197506D01*
X459886Y197437D01*
X459917Y197415D01*
X459942Y197387D01*
X460082Y197296D01*
X460086Y197294D01*
X460110Y197282D01*
X460130Y197276D01*
X460147Y197264D01*
X460247Y197239D01*
X460345Y197209D01*
X460366Y197209D01*
X460386Y197204D01*
X460488Y197212D01*
X460590Y197215D01*
X460610Y197222D01*
X460631Y197223D01*
X460725Y197263D01*
X460822Y197298D01*
X460838Y197312D01*
X460857Y197320D01*
X460988Y197425D01*
X461684Y198121D01*
X464000Y198121D01*
X464696Y197424D01*
X464713Y197412D01*
X464725Y197397D01*
X464812Y197341D01*
X464896Y197280D01*
X464915Y197275D01*
X464932Y197264D01*
X465032Y197239D01*
X465131Y197208D01*
X465151Y197209D01*
X465171Y197204D01*
X465274Y197212D01*
X465377Y197214D01*
X465396Y197221D01*
X465416Y197223D01*
X465511Y197263D01*
X465608Y197299D01*
X465624Y197311D01*
X465642Y197319D01*
X465773Y197424D01*
X466470Y198121D01*
X469669Y198121D01*
X469691Y198124D01*
X469713Y198122D01*
X469879Y198150D01*
X470513Y198331D01*
X470719Y198217D01*
X470821Y198180D01*
X470922Y198139D01*
X470940Y198137D01*
X470951Y198133D01*
X470980Y198133D01*
X471089Y198121D01*
X471325Y198121D01*
X471791Y197654D01*
X471809Y197641D01*
X471823Y197624D01*
X471952Y197533D01*
X471954Y197531D01*
X471955Y197531D01*
X471960Y197527D01*
X472524Y197214D01*
X472591Y197190D01*
X472653Y197157D01*
X472706Y197149D01*
X472756Y197131D01*
X472826Y197129D01*
X472896Y197118D01*
X472949Y197127D01*
X473001Y197126D01*
X473069Y197147D01*
X473139Y197159D01*
X473186Y197183D01*
X473236Y197199D01*
X473293Y197241D01*
X473356Y197274D01*
X473409Y197325D01*
X473435Y197344D01*
X473448Y197363D01*
X473477Y197390D01*
X473677Y197629D01*
X474421Y198516D01*
X476727Y198720D01*
X477230Y198299D01*
X477280Y198269D01*
X477324Y198231D01*
X477385Y198207D01*
X477441Y198173D01*
X477498Y198161D01*
X477552Y198139D01*
X477651Y198128D01*
X477682Y198122D01*
X477696Y198123D01*
X477719Y198121D01*
X479431Y198121D01*
X479488Y198130D01*
X479546Y198130D01*
X479609Y198150D01*
X479674Y198160D01*
X479725Y198188D01*
X479780Y198206D01*
X479863Y198261D01*
X479891Y198276D01*
X479901Y198286D01*
X479920Y198299D01*
X480422Y198720D01*
X482728Y198516D01*
X483472Y197629D01*
X484280Y196664D01*
X485141Y194299D01*
X485141Y191781D01*
X484280Y189415D01*
X483472Y188451D01*
X482728Y187564D01*
X480422Y187360D01*
X479920Y187781D01*
G37*
%LPD*%
G36*
X381225Y93179D02*
X381225Y93179D01*
X381316Y93186D01*
X381346Y93198D01*
X381378Y93204D01*
X381459Y93246D01*
X381543Y93282D01*
X381575Y93308D01*
X381595Y93319D01*
X381618Y93342D01*
X381674Y93387D01*
X398307Y110020D01*
X398318Y110036D01*
X398334Y110048D01*
X398390Y110136D01*
X398450Y110219D01*
X398456Y110238D01*
X398467Y110255D01*
X398492Y110356D01*
X398523Y110455D01*
X398522Y110474D01*
X398527Y110494D01*
X398519Y110597D01*
X398516Y110700D01*
X398509Y110719D01*
X398508Y110739D01*
X398467Y110834D01*
X398432Y110931D01*
X398419Y110947D01*
X398411Y110965D01*
X398307Y111096D01*
X395954Y113449D01*
X395954Y115087D01*
X395939Y115177D01*
X395932Y115268D01*
X395919Y115298D01*
X395914Y115330D01*
X395871Y115410D01*
X395835Y115494D01*
X395810Y115526D01*
X395799Y115547D01*
X395775Y115569D01*
X395731Y115625D01*
X388011Y123345D01*
X387937Y123398D01*
X387867Y123458D01*
X387837Y123470D01*
X387811Y123489D01*
X387724Y123515D01*
X387639Y123550D01*
X387598Y123554D01*
X387576Y123561D01*
X387544Y123560D01*
X387473Y123568D01*
X352596Y123568D01*
X352576Y123565D01*
X352556Y123567D01*
X352455Y123545D01*
X352353Y123528D01*
X352336Y123519D01*
X352316Y123515D01*
X352227Y123462D01*
X352136Y123413D01*
X352122Y123399D01*
X352105Y123389D01*
X352038Y123310D01*
X351966Y123235D01*
X351958Y123217D01*
X351945Y123202D01*
X351906Y123105D01*
X351863Y123012D01*
X351861Y122992D01*
X351853Y122973D01*
X351835Y122807D01*
X351835Y120541D01*
X351838Y120522D01*
X351836Y120502D01*
X351858Y120401D01*
X351874Y120298D01*
X351884Y120281D01*
X351888Y120261D01*
X351941Y120172D01*
X351989Y120081D01*
X352004Y120067D01*
X352014Y120050D01*
X352093Y119983D01*
X352168Y119912D01*
X352186Y119903D01*
X352201Y119890D01*
X352297Y119852D01*
X352391Y119808D01*
X352411Y119806D01*
X352429Y119798D01*
X352596Y119780D01*
X368872Y119780D01*
X370956Y117697D01*
X371071Y117582D01*
X371145Y117529D01*
X371214Y117469D01*
X371244Y117457D01*
X371270Y117438D01*
X371357Y117411D01*
X371442Y117377D01*
X371483Y117373D01*
X371505Y117366D01*
X371538Y117367D01*
X371609Y117359D01*
X373247Y117359D01*
X375916Y114689D01*
X375916Y110914D01*
X373247Y108245D01*
X369472Y108245D01*
X366802Y110914D01*
X366802Y112552D01*
X366788Y112642D01*
X366781Y112733D01*
X366768Y112763D01*
X366763Y112795D01*
X366720Y112875D01*
X366684Y112960D01*
X366659Y112992D01*
X366648Y113012D01*
X366624Y113034D01*
X366579Y113091D01*
X366464Y113206D01*
X366390Y113259D01*
X366321Y113318D01*
X366291Y113330D01*
X366265Y113349D01*
X366178Y113376D01*
X366093Y113410D01*
X366052Y113415D01*
X366029Y113421D01*
X365997Y113421D01*
X365926Y113429D01*
X359317Y113429D01*
X359247Y113417D01*
X359175Y113415D01*
X359126Y113397D01*
X359075Y113389D01*
X359011Y113355D01*
X358944Y113331D01*
X358903Y113298D01*
X358857Y113274D01*
X358808Y113222D01*
X358752Y113177D01*
X358724Y113133D01*
X358688Y113095D01*
X358658Y113030D01*
X358619Y112970D01*
X358606Y112919D01*
X358584Y112872D01*
X358576Y112801D01*
X358559Y112731D01*
X358563Y112680D01*
X358557Y112628D01*
X358572Y112558D01*
X358578Y112486D01*
X358598Y112438D01*
X358609Y112387D01*
X358646Y112326D01*
X358674Y112260D01*
X358719Y112204D01*
X358736Y112176D01*
X358753Y112161D01*
X358779Y112129D01*
X371071Y99838D01*
X371145Y99784D01*
X371214Y99725D01*
X371244Y99713D01*
X371270Y99694D01*
X371357Y99667D01*
X371442Y99633D01*
X371483Y99628D01*
X371505Y99622D01*
X371538Y99622D01*
X371609Y99615D01*
X373247Y99615D01*
X375916Y96945D01*
X375916Y93925D01*
X375919Y93905D01*
X375917Y93886D01*
X375939Y93784D01*
X375956Y93682D01*
X375965Y93665D01*
X375969Y93645D01*
X376022Y93556D01*
X376071Y93465D01*
X376085Y93451D01*
X376095Y93434D01*
X376174Y93367D01*
X376249Y93296D01*
X376267Y93287D01*
X376282Y93274D01*
X376379Y93235D01*
X376472Y93192D01*
X376492Y93190D01*
X376510Y93182D01*
X376677Y93164D01*
X381135Y93164D01*
X381225Y93179D01*
G37*
G36*
X172410Y65654D02*
X172410Y65654D01*
X172514Y65657D01*
X172533Y65664D01*
X172552Y65665D01*
X172647Y65706D01*
X172745Y65741D01*
X172761Y65754D01*
X172779Y65762D01*
X172910Y65866D01*
X184068Y77025D01*
X184122Y77099D01*
X184181Y77169D01*
X184193Y77199D01*
X184212Y77225D01*
X184239Y77312D01*
X184273Y77397D01*
X184278Y77438D01*
X184284Y77460D01*
X184284Y77492D01*
X184291Y77563D01*
X184291Y79201D01*
X186011Y80921D01*
X186022Y80937D01*
X186038Y80949D01*
X186094Y81036D01*
X186154Y81120D01*
X186160Y81139D01*
X186171Y81156D01*
X186196Y81257D01*
X186227Y81355D01*
X186226Y81375D01*
X186231Y81395D01*
X186223Y81498D01*
X186220Y81601D01*
X186213Y81620D01*
X186212Y81640D01*
X186172Y81735D01*
X186136Y81832D01*
X186123Y81848D01*
X186116Y81866D01*
X186011Y81997D01*
X183392Y84616D01*
X183376Y84627D01*
X183363Y84643D01*
X183276Y84699D01*
X183192Y84759D01*
X183173Y84765D01*
X183157Y84776D01*
X183056Y84801D01*
X182957Y84832D01*
X182937Y84831D01*
X182918Y84836D01*
X182815Y84828D01*
X182711Y84825D01*
X182693Y84818D01*
X182673Y84817D01*
X182578Y84777D01*
X182480Y84741D01*
X182465Y84728D01*
X182446Y84721D01*
X182315Y84616D01*
X181864Y84164D01*
X178089Y84164D01*
X175419Y86833D01*
X175419Y90608D01*
X175871Y91060D01*
X175883Y91076D01*
X175899Y91089D01*
X175954Y91176D01*
X176015Y91260D01*
X176021Y91279D01*
X176032Y91296D01*
X176057Y91396D01*
X176087Y91495D01*
X176087Y91515D01*
X176092Y91534D01*
X176084Y91637D01*
X176085Y91646D01*
X176083Y91653D01*
X176081Y91741D01*
X176074Y91759D01*
X176072Y91779D01*
X176038Y91860D01*
X176032Y91887D01*
X176020Y91908D01*
X175996Y91972D01*
X175984Y91987D01*
X175976Y92006D01*
X175917Y92079D01*
X175906Y92098D01*
X175894Y92108D01*
X175871Y92137D01*
X171279Y96729D01*
X171205Y96782D01*
X171136Y96841D01*
X171106Y96854D01*
X171079Y96872D01*
X170992Y96899D01*
X170907Y96933D01*
X170867Y96938D01*
X170844Y96945D01*
X170812Y96944D01*
X170741Y96952D01*
X142586Y96952D01*
X142515Y96940D01*
X142443Y96938D01*
X142394Y96920D01*
X142343Y96912D01*
X142280Y96879D01*
X142212Y96854D01*
X142171Y96821D01*
X142126Y96797D01*
X142076Y96745D01*
X142020Y96700D01*
X141992Y96656D01*
X141956Y96619D01*
X141926Y96554D01*
X141887Y96493D01*
X141874Y96443D01*
X141853Y96396D01*
X141845Y96324D01*
X141827Y96255D01*
X141831Y96203D01*
X141825Y96151D01*
X141841Y96081D01*
X141846Y96010D01*
X141867Y95962D01*
X141878Y95911D01*
X141915Y95849D01*
X141943Y95783D01*
X141987Y95727D01*
X142004Y95700D01*
X142017Y95688D01*
X142020Y95684D01*
X142028Y95677D01*
X142047Y95652D01*
X171833Y65866D01*
X171849Y65855D01*
X171862Y65839D01*
X171949Y65783D01*
X172033Y65723D01*
X172052Y65717D01*
X172069Y65706D01*
X172169Y65681D01*
X172268Y65651D01*
X172288Y65651D01*
X172307Y65646D01*
X172410Y65654D01*
G37*
%LPC*%
G36*
X353579Y160019D02*
X353579Y160019D01*
X349844Y161566D01*
X346986Y164424D01*
X345439Y168159D01*
X345439Y187441D01*
X346986Y191176D01*
X349844Y194034D01*
X353579Y195581D01*
X357621Y195581D01*
X361356Y194034D01*
X364214Y191176D01*
X365761Y187441D01*
X365761Y168159D01*
X364214Y164424D01*
X361356Y161566D01*
X357621Y160019D01*
X353579Y160019D01*
G37*
%LPD*%
%LPC*%
G36*
X201179Y160019D02*
X201179Y160019D01*
X197444Y161566D01*
X194586Y164424D01*
X193039Y168159D01*
X193039Y187441D01*
X194586Y191176D01*
X197444Y194034D01*
X201179Y195581D01*
X205221Y195581D01*
X208956Y194034D01*
X211814Y191176D01*
X213361Y187441D01*
X213361Y168159D01*
X211814Y164424D01*
X208956Y161566D01*
X205221Y160019D01*
X201179Y160019D01*
G37*
%LPD*%
%LPC*%
G36*
X150379Y160019D02*
X150379Y160019D01*
X146644Y161566D01*
X143786Y164424D01*
X142239Y168159D01*
X142239Y187441D01*
X143786Y191176D01*
X146644Y194034D01*
X150379Y195581D01*
X154421Y195581D01*
X158156Y194034D01*
X161014Y191176D01*
X162561Y187441D01*
X162561Y168159D01*
X161014Y164424D01*
X158156Y161566D01*
X154421Y160019D01*
X150379Y160019D01*
G37*
%LPD*%
%LPC*%
G36*
X124979Y160019D02*
X124979Y160019D01*
X121244Y161566D01*
X118386Y164424D01*
X116839Y168159D01*
X116839Y187441D01*
X118386Y191176D01*
X121244Y194034D01*
X124979Y195581D01*
X129021Y195581D01*
X132756Y194034D01*
X135614Y191176D01*
X137161Y187441D01*
X137161Y168159D01*
X135614Y164424D01*
X132756Y161566D01*
X129021Y160019D01*
X124979Y160019D01*
G37*
%LPD*%
%LPC*%
G36*
X353579Y7619D02*
X353579Y7619D01*
X349844Y9166D01*
X346986Y12024D01*
X345439Y15759D01*
X345439Y35041D01*
X346986Y38776D01*
X349844Y41634D01*
X353579Y43181D01*
X357621Y43181D01*
X361356Y41634D01*
X364214Y38776D01*
X365761Y35041D01*
X365761Y15759D01*
X364214Y12024D01*
X361356Y9166D01*
X357621Y7619D01*
X353579Y7619D01*
G37*
%LPD*%
%LPC*%
G36*
X378979Y7619D02*
X378979Y7619D01*
X375244Y9166D01*
X372386Y12024D01*
X370839Y15759D01*
X370839Y35041D01*
X372386Y38776D01*
X375244Y41634D01*
X378979Y43181D01*
X383021Y43181D01*
X386756Y41634D01*
X389614Y38776D01*
X391161Y35041D01*
X391161Y15759D01*
X389614Y12024D01*
X386756Y9166D01*
X383021Y7619D01*
X378979Y7619D01*
G37*
%LPD*%
%LPC*%
G36*
X277379Y7619D02*
X277379Y7619D01*
X273644Y9166D01*
X270786Y12024D01*
X269239Y15759D01*
X269239Y35041D01*
X270786Y38776D01*
X273644Y41634D01*
X277379Y43181D01*
X281421Y43181D01*
X285156Y41634D01*
X288014Y38776D01*
X289561Y35041D01*
X289561Y15759D01*
X288014Y12024D01*
X285156Y9166D01*
X281421Y7619D01*
X277379Y7619D01*
G37*
%LPD*%
%LPC*%
G36*
X302779Y7619D02*
X302779Y7619D01*
X299044Y9166D01*
X296186Y12024D01*
X294639Y15759D01*
X294639Y35041D01*
X296186Y38776D01*
X299044Y41634D01*
X302779Y43181D01*
X306821Y43181D01*
X310556Y41634D01*
X313414Y38776D01*
X314961Y35041D01*
X314961Y15759D01*
X313414Y12024D01*
X310556Y9166D01*
X306821Y7619D01*
X302779Y7619D01*
G37*
%LPD*%
%LPC*%
G36*
X328179Y7619D02*
X328179Y7619D01*
X324444Y9166D01*
X321586Y12024D01*
X320039Y15759D01*
X320039Y35041D01*
X321586Y38776D01*
X324444Y41634D01*
X328179Y43181D01*
X332221Y43181D01*
X335956Y41634D01*
X338814Y38776D01*
X340361Y35041D01*
X340361Y15759D01*
X338814Y12024D01*
X335956Y9166D01*
X332221Y7619D01*
X328179Y7619D01*
G37*
%LPD*%
%LPC*%
G36*
X37079Y10421D02*
X37079Y10421D01*
X37058Y10428D01*
X37039Y10440D01*
X36941Y10464D01*
X36844Y10494D01*
X36822Y10494D01*
X36800Y10499D01*
X36700Y10491D01*
X36598Y10489D01*
X36577Y10481D01*
X36555Y10479D01*
X36398Y10421D01*
X35429Y9937D01*
X34358Y10293D01*
X34269Y10308D01*
X34182Y10330D01*
X34148Y10327D01*
X34115Y10333D01*
X34026Y10318D01*
X33936Y10311D01*
X33906Y10298D01*
X33873Y10292D01*
X33793Y10250D01*
X33710Y10214D01*
X33677Y10188D01*
X33656Y10176D01*
X33639Y10159D01*
X31266Y10159D01*
X31235Y10182D01*
X31216Y10188D01*
X31199Y10198D01*
X31099Y10224D01*
X31000Y10254D01*
X30980Y10254D01*
X30961Y10258D01*
X30858Y10250D01*
X30754Y10248D01*
X30735Y10241D01*
X30715Y10239D01*
X30621Y10199D01*
X30523Y10163D01*
X30518Y10159D01*
X25624Y10159D01*
X25549Y10235D01*
X25478Y10286D01*
X25412Y10343D01*
X25378Y10357D01*
X25349Y10378D01*
X25265Y10404D01*
X25185Y10438D01*
X25148Y10440D01*
X25114Y10451D01*
X25026Y10448D01*
X24939Y10454D01*
X24893Y10445D01*
X24868Y10444D01*
X24839Y10434D01*
X24775Y10421D01*
X23327Y9950D01*
X21880Y10420D01*
X21793Y10434D01*
X21709Y10455D01*
X21672Y10452D01*
X21636Y10458D01*
X21550Y10443D01*
X21463Y10436D01*
X21430Y10422D01*
X21394Y10415D01*
X21317Y10374D01*
X21237Y10340D01*
X21201Y10310D01*
X21178Y10298D01*
X21157Y10275D01*
X21106Y10235D01*
X21031Y10159D01*
X17445Y10159D01*
X17423Y10182D01*
X17410Y10191D01*
X17400Y10204D01*
X17265Y10303D01*
X17151Y10369D01*
X17110Y10384D01*
X17073Y10408D01*
X16996Y10427D01*
X16921Y10456D01*
X16877Y10457D01*
X16835Y10468D01*
X16755Y10462D01*
X16675Y10465D01*
X16633Y10452D01*
X16589Y10449D01*
X16516Y10418D01*
X16439Y10395D01*
X16403Y10370D01*
X16363Y10353D01*
X16249Y10262D01*
X16238Y10254D01*
X16236Y10251D01*
X16232Y10248D01*
X16144Y10159D01*
X11796Y10159D01*
X10159Y11796D01*
X10159Y14112D01*
X10444Y14397D01*
X10497Y14471D01*
X10557Y14540D01*
X10569Y14570D01*
X10588Y14596D01*
X10615Y14683D01*
X10649Y14768D01*
X10653Y14809D01*
X10660Y14831D01*
X10659Y14864D01*
X10667Y14935D01*
X10667Y15545D01*
X10653Y15635D01*
X10645Y15726D01*
X10633Y15756D01*
X10628Y15788D01*
X10585Y15868D01*
X10549Y15952D01*
X10523Y15984D01*
X10512Y16005D01*
X10489Y16027D01*
X10444Y16083D01*
X10159Y16368D01*
X10159Y18794D01*
X10173Y18848D01*
X10203Y18946D01*
X10203Y18966D01*
X10208Y18986D01*
X10200Y19089D01*
X10197Y19192D01*
X10190Y19211D01*
X10188Y19231D01*
X10159Y19300D01*
X10159Y20076D01*
X10158Y20085D01*
X10158Y20089D01*
X10156Y20100D01*
X10158Y20120D01*
X10130Y20285D01*
X9949Y20919D01*
X10063Y21126D01*
X10100Y21227D01*
X10141Y21329D01*
X10143Y21347D01*
X10147Y21357D01*
X10147Y21387D01*
X10159Y21495D01*
X10159Y26304D01*
X11796Y27941D01*
X14996Y27941D01*
X15018Y27944D01*
X15040Y27942D01*
X15205Y27970D01*
X15839Y28151D01*
X16046Y28037D01*
X16147Y28000D01*
X16249Y27959D01*
X16267Y27957D01*
X16277Y27953D01*
X16307Y27953D01*
X16415Y27941D01*
X16652Y27941D01*
X16727Y27865D01*
X16798Y27814D01*
X16864Y27757D01*
X16897Y27743D01*
X16927Y27722D01*
X17010Y27696D01*
X17091Y27663D01*
X17127Y27660D01*
X17162Y27649D01*
X17249Y27652D01*
X17336Y27646D01*
X17382Y27655D01*
X17408Y27656D01*
X17437Y27666D01*
X17501Y27680D01*
X18948Y28150D01*
X20434Y27667D01*
X20521Y27654D01*
X20606Y27633D01*
X20642Y27635D01*
X20678Y27630D01*
X20764Y27645D01*
X20851Y27652D01*
X20884Y27666D01*
X20920Y27672D01*
X20997Y27714D01*
X21077Y27748D01*
X21113Y27777D01*
X21136Y27789D01*
X21157Y27812D01*
X21208Y27853D01*
X21296Y27941D01*
X21469Y27941D01*
X21587Y27960D01*
X21708Y27979D01*
X21710Y27980D01*
X21711Y27980D01*
X21718Y27984D01*
X21860Y28049D01*
X22008Y28138D01*
X22707Y27963D01*
X22716Y27963D01*
X22725Y27959D01*
X22891Y27941D01*
X23721Y27941D01*
X23776Y27927D01*
X23874Y27897D01*
X23894Y27897D01*
X23914Y27892D01*
X24017Y27900D01*
X24120Y27903D01*
X24139Y27910D01*
X24159Y27912D01*
X24227Y27941D01*
X25064Y27941D01*
X25073Y27942D01*
X25082Y27941D01*
X25248Y27963D01*
X25947Y28138D01*
X26095Y28049D01*
X26207Y28005D01*
X26320Y27959D01*
X26322Y27959D01*
X26323Y27958D01*
X26331Y27958D01*
X26487Y27941D01*
X26955Y27941D01*
X27074Y27960D01*
X27194Y27979D01*
X27196Y27980D01*
X27198Y27980D01*
X27204Y27984D01*
X27347Y28049D01*
X27495Y28138D01*
X28193Y27963D01*
X28202Y27963D01*
X28211Y27959D01*
X28378Y27941D01*
X29208Y27941D01*
X29262Y27927D01*
X29360Y27897D01*
X29380Y27897D01*
X29400Y27892D01*
X29503Y27900D01*
X29606Y27903D01*
X29625Y27910D01*
X29645Y27912D01*
X29714Y27941D01*
X30550Y27941D01*
X30559Y27942D01*
X30569Y27941D01*
X30735Y27963D01*
X31433Y28138D01*
X31581Y28049D01*
X31694Y28005D01*
X31806Y27959D01*
X31808Y27959D01*
X31810Y27958D01*
X31817Y27958D01*
X31973Y27941D01*
X32146Y27941D01*
X32233Y27853D01*
X32305Y27802D01*
X32370Y27744D01*
X32404Y27730D01*
X32433Y27709D01*
X32517Y27683D01*
X32597Y27650D01*
X32634Y27648D01*
X32668Y27637D01*
X32756Y27639D01*
X32843Y27633D01*
X32889Y27643D01*
X32914Y27643D01*
X32943Y27654D01*
X33007Y27667D01*
X34493Y28150D01*
X35645Y27776D01*
X35732Y27762D01*
X35816Y27741D01*
X35853Y27744D01*
X35889Y27738D01*
X35975Y27753D01*
X36062Y27760D01*
X36095Y27774D01*
X36131Y27781D01*
X36208Y27822D01*
X36288Y27856D01*
X36324Y27886D01*
X36347Y27898D01*
X36368Y27921D01*
X36393Y27941D01*
X39730Y27941D01*
X39845Y27825D01*
X39858Y27816D01*
X39868Y27803D01*
X40003Y27704D01*
X41362Y26920D01*
X42146Y25561D01*
X42156Y25549D01*
X42162Y25534D01*
X42267Y25403D01*
X42383Y25288D01*
X42383Y20446D01*
X42394Y20379D01*
X42395Y20312D01*
X42413Y20259D01*
X42423Y20203D01*
X42454Y20143D01*
X42477Y20080D01*
X42511Y20035D01*
X42538Y19986D01*
X42586Y19939D01*
X42628Y19886D01*
X42692Y19839D01*
X42716Y19816D01*
X42735Y19808D01*
X42763Y19787D01*
X43607Y19300D01*
X44391Y17941D01*
X44401Y17929D01*
X44408Y17914D01*
X44512Y17783D01*
X44628Y17668D01*
X44628Y12812D01*
X44512Y12697D01*
X44503Y12684D01*
X44491Y12674D01*
X44391Y12539D01*
X43607Y11180D01*
X42248Y10396D01*
X42236Y10386D01*
X42221Y10380D01*
X42091Y10275D01*
X41975Y10159D01*
X38839Y10159D01*
X38801Y10153D01*
X38763Y10155D01*
X38599Y10120D01*
X38048Y9937D01*
X37079Y10421D01*
G37*
%LPD*%
G36*
X234600Y41635D02*
X234600Y41635D01*
X234717Y41644D01*
X234722Y41646D01*
X234729Y41647D01*
X234836Y41695D01*
X234943Y41740D01*
X234949Y41745D01*
X234953Y41747D01*
X234967Y41760D01*
X235074Y41845D01*
X260998Y67769D01*
X261040Y67827D01*
X261089Y67879D01*
X261111Y67926D01*
X261141Y67968D01*
X261162Y68037D01*
X261193Y68102D01*
X261198Y68154D01*
X261214Y68203D01*
X261212Y68275D01*
X261220Y68346D01*
X261209Y68397D01*
X261207Y68449D01*
X261183Y68517D01*
X261167Y68587D01*
X261141Y68631D01*
X261123Y68680D01*
X261078Y68736D01*
X261041Y68798D01*
X261002Y68832D01*
X260969Y68872D01*
X260909Y68911D01*
X260854Y68958D01*
X260806Y68977D01*
X260762Y69005D01*
X260693Y69023D01*
X260626Y69050D01*
X260555Y69058D01*
X260524Y69065D01*
X260500Y69064D01*
X260459Y69068D01*
X216097Y69068D01*
X216026Y69057D01*
X215955Y69055D01*
X215906Y69037D01*
X215854Y69028D01*
X215791Y68995D01*
X215724Y68970D01*
X215683Y68938D01*
X215637Y68913D01*
X215588Y68861D01*
X215532Y68817D01*
X215503Y68773D01*
X215468Y68735D01*
X215437Y68670D01*
X215399Y68610D01*
X215386Y68559D01*
X215364Y68512D01*
X215356Y68441D01*
X215338Y68371D01*
X215343Y68319D01*
X215337Y68267D01*
X215352Y68197D01*
X215358Y68126D01*
X215378Y68078D01*
X215389Y68027D01*
X215426Y67965D01*
X215454Y67900D01*
X215499Y67844D01*
X215515Y67816D01*
X215533Y67801D01*
X215559Y67769D01*
X224048Y59280D01*
X224122Y59226D01*
X224191Y59167D01*
X224221Y59155D01*
X224248Y59136D01*
X224335Y59109D01*
X224419Y59075D01*
X224460Y59070D01*
X224483Y59064D01*
X224515Y59064D01*
X224586Y59057D01*
X226224Y59057D01*
X227382Y57899D01*
X227456Y57845D01*
X227525Y57786D01*
X227556Y57774D01*
X227582Y57755D01*
X227669Y57728D01*
X227754Y57694D01*
X227794Y57689D01*
X227817Y57683D01*
X227849Y57683D01*
X227920Y57676D01*
X232845Y57676D01*
X232935Y57690D01*
X233026Y57697D01*
X233056Y57710D01*
X233088Y57715D01*
X233168Y57758D01*
X233252Y57794D01*
X233285Y57819D01*
X233305Y57830D01*
X233327Y57854D01*
X233383Y57899D01*
X234766Y59281D01*
X234819Y59355D01*
X234879Y59424D01*
X234891Y59455D01*
X234910Y59481D01*
X234936Y59568D01*
X234970Y59653D01*
X234975Y59694D01*
X234982Y59716D01*
X234981Y59748D01*
X234989Y59819D01*
X234989Y61457D01*
X237658Y64126D01*
X241433Y64126D01*
X244102Y61457D01*
X244102Y57682D01*
X241433Y55013D01*
X239795Y55013D01*
X239705Y54998D01*
X239614Y54991D01*
X239585Y54978D01*
X239553Y54973D01*
X239472Y54930D01*
X239388Y54895D01*
X239356Y54869D01*
X239335Y54858D01*
X239313Y54835D01*
X239257Y54790D01*
X237875Y53407D01*
X235791Y51324D01*
X227920Y51324D01*
X227830Y51309D01*
X227739Y51302D01*
X227709Y51290D01*
X227677Y51284D01*
X227597Y51242D01*
X227513Y51206D01*
X227481Y51180D01*
X227460Y51169D01*
X227438Y51146D01*
X227382Y51101D01*
X226224Y49943D01*
X223204Y49943D01*
X223184Y49940D01*
X223164Y49942D01*
X223063Y49920D01*
X222961Y49903D01*
X222943Y49894D01*
X222924Y49890D01*
X222835Y49837D01*
X222744Y49788D01*
X222730Y49774D01*
X222713Y49764D01*
X222645Y49685D01*
X222574Y49610D01*
X222566Y49592D01*
X222553Y49577D01*
X222514Y49480D01*
X222471Y49387D01*
X222468Y49367D01*
X222461Y49349D01*
X222442Y49182D01*
X222442Y47259D01*
X222457Y47168D01*
X222464Y47078D01*
X222477Y47048D01*
X222482Y47016D01*
X222525Y46935D01*
X222561Y46851D01*
X222586Y46819D01*
X222597Y46798D01*
X222621Y46776D01*
X222665Y46720D01*
X225982Y43404D01*
X226056Y43351D01*
X226125Y43291D01*
X226155Y43279D01*
X226182Y43260D01*
X226269Y43233D01*
X226353Y43199D01*
X226394Y43195D01*
X226417Y43188D01*
X226449Y43189D01*
X226520Y43181D01*
X230621Y43181D01*
X234244Y41680D01*
X234358Y41653D01*
X234471Y41625D01*
X234478Y41625D01*
X234484Y41624D01*
X234600Y41635D01*
G37*
G36*
X327380Y128101D02*
X327380Y128101D01*
X327484Y128104D01*
X327503Y128111D01*
X327523Y128113D01*
X327618Y128153D01*
X327715Y128189D01*
X327731Y128201D01*
X327749Y128209D01*
X327880Y128314D01*
X329486Y129919D01*
X380180Y129919D01*
X380251Y129931D01*
X380323Y129933D01*
X380372Y129951D01*
X380423Y129959D01*
X380487Y129993D01*
X380554Y130017D01*
X380595Y130050D01*
X380641Y130074D01*
X380690Y130126D01*
X380746Y130171D01*
X380774Y130215D01*
X380810Y130253D01*
X380840Y130318D01*
X380879Y130378D01*
X380892Y130429D01*
X380914Y130476D01*
X380921Y130547D01*
X380939Y130617D01*
X380935Y130668D01*
X380941Y130720D01*
X380925Y130790D01*
X380920Y130862D01*
X380900Y130910D01*
X380888Y130961D01*
X380852Y131022D01*
X380824Y131088D01*
X380779Y131144D01*
X380762Y131172D01*
X380744Y131187D01*
X380719Y131219D01*
X379721Y132217D01*
X379647Y132270D01*
X379577Y132330D01*
X379547Y132342D01*
X379521Y132361D01*
X379434Y132387D01*
X379349Y132422D01*
X379308Y132426D01*
X379286Y132433D01*
X379254Y132432D01*
X379182Y132440D01*
X327134Y132440D01*
X327114Y132437D01*
X327094Y132439D01*
X326993Y132417D01*
X326891Y132400D01*
X326873Y132391D01*
X326854Y132387D01*
X326765Y132334D01*
X326673Y132285D01*
X326660Y132271D01*
X326643Y132261D01*
X326575Y132182D01*
X326504Y132107D01*
X326496Y132089D01*
X326483Y132074D01*
X326444Y131977D01*
X326400Y131884D01*
X326398Y131864D01*
X326391Y131846D01*
X326372Y131679D01*
X326372Y129060D01*
X326387Y128970D01*
X326394Y128879D01*
X326407Y128849D01*
X326412Y128817D01*
X326455Y128737D01*
X326490Y128653D01*
X326516Y128621D01*
X326527Y128600D01*
X326550Y128578D01*
X326595Y128522D01*
X326803Y128314D01*
X326820Y128302D01*
X326832Y128286D01*
X326919Y128231D01*
X327003Y128170D01*
X327022Y128164D01*
X327039Y128153D01*
X327139Y128128D01*
X327238Y128098D01*
X327258Y128098D01*
X327277Y128093D01*
X327380Y128101D01*
G37*
G36*
X121516Y67171D02*
X121516Y67171D01*
X121568Y67173D01*
X121636Y67197D01*
X121706Y67212D01*
X121750Y67239D01*
X121799Y67257D01*
X121855Y67302D01*
X121917Y67339D01*
X121951Y67378D01*
X121991Y67411D01*
X122030Y67471D01*
X122077Y67526D01*
X122096Y67574D01*
X122124Y67618D01*
X122142Y67687D01*
X122169Y67754D01*
X122171Y67779D01*
X124856Y70463D01*
X128532Y70463D01*
X128603Y70475D01*
X128675Y70477D01*
X128724Y70495D01*
X128775Y70503D01*
X128838Y70537D01*
X128906Y70561D01*
X128947Y70594D01*
X128993Y70618D01*
X129042Y70670D01*
X129098Y70715D01*
X129126Y70759D01*
X129162Y70797D01*
X129192Y70862D01*
X129231Y70922D01*
X129244Y70973D01*
X129266Y71020D01*
X129273Y71091D01*
X129291Y71161D01*
X129287Y71212D01*
X129293Y71264D01*
X129277Y71334D01*
X129272Y71406D01*
X129251Y71454D01*
X129240Y71505D01*
X129204Y71566D01*
X129176Y71632D01*
X129131Y71688D01*
X129114Y71716D01*
X129096Y71731D01*
X129071Y71763D01*
X117391Y83443D01*
X117333Y83485D01*
X117281Y83534D01*
X117233Y83556D01*
X117191Y83586D01*
X117123Y83608D01*
X117057Y83638D01*
X117006Y83644D01*
X116956Y83659D01*
X116884Y83657D01*
X116813Y83665D01*
X116762Y83654D01*
X116710Y83652D01*
X116643Y83628D01*
X116573Y83613D01*
X116528Y83586D01*
X116479Y83568D01*
X116423Y83523D01*
X116362Y83486D01*
X116328Y83447D01*
X116287Y83414D01*
X116248Y83354D01*
X116202Y83300D01*
X116182Y83251D01*
X116154Y83207D01*
X116137Y83138D01*
X116110Y83071D01*
X116102Y83000D01*
X116094Y82969D01*
X116096Y82946D01*
X116091Y82905D01*
X116091Y81763D01*
X113422Y79094D01*
X113050Y79094D01*
X113030Y79091D01*
X113011Y79093D01*
X112909Y79071D01*
X112807Y79054D01*
X112790Y79045D01*
X112770Y79041D01*
X112681Y78988D01*
X112590Y78939D01*
X112576Y78925D01*
X112559Y78915D01*
X112492Y78836D01*
X112421Y78761D01*
X112412Y78743D01*
X112399Y78728D01*
X112361Y78632D01*
X112317Y78538D01*
X112315Y78518D01*
X112307Y78500D01*
X112289Y78333D01*
X112289Y77961D01*
X111837Y77509D01*
X111825Y77493D01*
X111810Y77481D01*
X111754Y77393D01*
X111693Y77309D01*
X111688Y77290D01*
X111677Y77274D01*
X111652Y77173D01*
X111621Y77074D01*
X111622Y77054D01*
X111617Y77035D01*
X111625Y76932D01*
X111627Y76828D01*
X111634Y76810D01*
X111636Y76790D01*
X111676Y76695D01*
X111712Y76597D01*
X111724Y76582D01*
X111732Y76564D01*
X111837Y76433D01*
X120887Y67382D01*
X120946Y67340D01*
X120998Y67291D01*
X121045Y67269D01*
X121087Y67239D01*
X121156Y67218D01*
X121221Y67187D01*
X121273Y67182D01*
X121322Y67166D01*
X121394Y67168D01*
X121465Y67160D01*
X121516Y67171D01*
G37*
%LPC*%
G36*
X382523Y179323D02*
X382523Y179323D01*
X382523Y195466D01*
X383379Y195331D01*
X384900Y194836D01*
X386325Y194110D01*
X387619Y193170D01*
X388750Y192039D01*
X389690Y190745D01*
X390416Y189320D01*
X390911Y187799D01*
X391161Y186220D01*
X391161Y179323D01*
X382523Y179323D01*
G37*
%LPD*%
%LPC*%
G36*
X382523Y176277D02*
X382523Y176277D01*
X391161Y176277D01*
X391161Y169380D01*
X390911Y167801D01*
X390416Y166280D01*
X389690Y164855D01*
X388750Y163561D01*
X387619Y162430D01*
X386325Y161490D01*
X384900Y160764D01*
X383379Y160269D01*
X382523Y160134D01*
X382523Y176277D01*
G37*
%LPD*%
%LPC*%
G36*
X370839Y179323D02*
X370839Y179323D01*
X370839Y186220D01*
X371089Y187799D01*
X371584Y189320D01*
X372310Y190745D01*
X373250Y192039D01*
X374381Y193170D01*
X375675Y194110D01*
X377100Y194836D01*
X378621Y195331D01*
X379477Y195466D01*
X379477Y179323D01*
X370839Y179323D01*
G37*
%LPD*%
%LPC*%
G36*
X378621Y160269D02*
X378621Y160269D01*
X377100Y160764D01*
X375675Y161490D01*
X374381Y162430D01*
X373250Y163561D01*
X372310Y164855D01*
X371584Y166280D01*
X371089Y167801D01*
X370839Y169380D01*
X370839Y176277D01*
X379477Y176277D01*
X379477Y160134D01*
X378621Y160269D01*
G37*
%LPD*%
G36*
X122380Y105850D02*
X122380Y105850D01*
X122451Y105852D01*
X122500Y105870D01*
X122552Y105878D01*
X122615Y105911D01*
X122682Y105936D01*
X122723Y105969D01*
X122769Y105993D01*
X122818Y106045D01*
X122874Y106090D01*
X122902Y106134D01*
X122938Y106171D01*
X122968Y106236D01*
X123007Y106297D01*
X123020Y106347D01*
X123042Y106394D01*
X123050Y106466D01*
X123067Y106535D01*
X123063Y106587D01*
X123069Y106639D01*
X123054Y106709D01*
X123048Y106780D01*
X123028Y106828D01*
X123017Y106879D01*
X122980Y106941D01*
X122952Y107007D01*
X122907Y107063D01*
X122891Y107090D01*
X122873Y107106D01*
X122847Y107138D01*
X118047Y111938D01*
X117973Y111991D01*
X117903Y112051D01*
X117873Y112063D01*
X117847Y112082D01*
X117760Y112108D01*
X117675Y112143D01*
X117634Y112147D01*
X117612Y112154D01*
X117580Y112153D01*
X117508Y112161D01*
X104178Y112161D01*
X104158Y112158D01*
X104139Y112160D01*
X104037Y112138D01*
X103935Y112121D01*
X103918Y112112D01*
X103898Y112108D01*
X103809Y112055D01*
X103718Y112006D01*
X103704Y111992D01*
X103687Y111982D01*
X103620Y111903D01*
X103549Y111828D01*
X103540Y111810D01*
X103527Y111795D01*
X103488Y111698D01*
X103445Y111605D01*
X103443Y111585D01*
X103435Y111567D01*
X103417Y111400D01*
X103417Y108380D01*
X102175Y107138D01*
X102133Y107079D01*
X102084Y107027D01*
X102062Y106980D01*
X102031Y106938D01*
X102010Y106869D01*
X101980Y106804D01*
X101974Y106753D01*
X101959Y106703D01*
X101961Y106631D01*
X101953Y106560D01*
X101964Y106509D01*
X101965Y106457D01*
X101990Y106390D01*
X102005Y106320D01*
X102032Y106275D01*
X102050Y106226D01*
X102095Y106170D01*
X102131Y106108D01*
X102171Y106075D01*
X102204Y106034D01*
X102264Y105995D01*
X102318Y105949D01*
X102367Y105929D01*
X102410Y105901D01*
X102480Y105883D01*
X102547Y105857D01*
X102618Y105849D01*
X102649Y105841D01*
X102672Y105843D01*
X102713Y105838D01*
X122309Y105838D01*
X122380Y105850D01*
G37*
%LPC*%
G36*
X442983Y104443D02*
X442983Y104443D01*
X440314Y107112D01*
X440314Y110887D01*
X442983Y113556D01*
X446758Y113556D01*
X449427Y110887D01*
X449427Y107112D01*
X446758Y104443D01*
X442983Y104443D01*
G37*
%LPD*%
%LPC*%
G36*
X192030Y89234D02*
X192030Y89234D01*
X189361Y91903D01*
X189361Y95678D01*
X192030Y98347D01*
X195805Y98347D01*
X198475Y95678D01*
X198475Y91903D01*
X195805Y89234D01*
X192030Y89234D01*
G37*
%LPD*%
%LPC*%
G36*
X454390Y85431D02*
X454390Y85431D01*
X451721Y88101D01*
X451721Y91876D01*
X454390Y94545D01*
X458165Y94545D01*
X460834Y91876D01*
X460834Y88101D01*
X458165Y85431D01*
X454390Y85431D01*
G37*
%LPD*%
%LPC*%
G36*
X222449Y80362D02*
X222449Y80362D01*
X219780Y83031D01*
X219780Y86806D01*
X222449Y89475D01*
X226224Y89475D01*
X228893Y86806D01*
X228893Y83031D01*
X226224Y80362D01*
X222449Y80362D01*
G37*
%LPD*%
%LPC*%
G36*
X420169Y76559D02*
X420169Y76559D01*
X417500Y79229D01*
X417500Y83003D01*
X420169Y85673D01*
X423944Y85673D01*
X426613Y83003D01*
X426613Y79229D01*
X423944Y76559D01*
X420169Y76559D01*
G37*
%LPD*%
%LPC*%
G36*
X420169Y138664D02*
X420169Y138664D01*
X417500Y141333D01*
X417500Y145108D01*
X420169Y147777D01*
X423944Y147777D01*
X426613Y145108D01*
X426613Y141333D01*
X423944Y138664D01*
X420169Y138664D01*
G37*
%LPD*%
%LPC*%
G36*
X361867Y49943D02*
X361867Y49943D01*
X359198Y52612D01*
X359198Y56387D01*
X361867Y59057D01*
X365642Y59057D01*
X368311Y56387D01*
X368311Y52612D01*
X365642Y49943D01*
X361867Y49943D01*
G37*
%LPD*%
G36*
X341980Y119783D02*
X341980Y119783D01*
X341999Y119781D01*
X342101Y119803D01*
X342203Y119820D01*
X342220Y119829D01*
X342240Y119833D01*
X342329Y119886D01*
X342420Y119935D01*
X342434Y119949D01*
X342451Y119959D01*
X342518Y120038D01*
X342589Y120113D01*
X342598Y120131D01*
X342611Y120146D01*
X342650Y120243D01*
X342693Y120336D01*
X342695Y120356D01*
X342703Y120375D01*
X342721Y120541D01*
X342721Y122807D01*
X342718Y122826D01*
X342720Y122846D01*
X342698Y122947D01*
X342681Y123050D01*
X342672Y123067D01*
X342668Y123087D01*
X342615Y123176D01*
X342566Y123267D01*
X342552Y123281D01*
X342542Y123298D01*
X342463Y123365D01*
X342388Y123436D01*
X342370Y123445D01*
X342355Y123458D01*
X342259Y123496D01*
X342165Y123540D01*
X342145Y123542D01*
X342127Y123550D01*
X341960Y123568D01*
X332432Y123568D01*
X332342Y123553D01*
X332251Y123546D01*
X332221Y123533D01*
X332189Y123528D01*
X332109Y123486D01*
X332025Y123450D01*
X331992Y123424D01*
X331972Y123413D01*
X331950Y123390D01*
X331894Y123345D01*
X329628Y121080D01*
X329586Y121021D01*
X329537Y120969D01*
X329515Y120922D01*
X329485Y120880D01*
X329463Y120811D01*
X329433Y120746D01*
X329428Y120694D01*
X329412Y120645D01*
X329414Y120573D01*
X329406Y120502D01*
X329417Y120451D01*
X329419Y120399D01*
X329443Y120331D01*
X329458Y120261D01*
X329485Y120217D01*
X329503Y120168D01*
X329548Y120112D01*
X329585Y120050D01*
X329624Y120016D01*
X329657Y119976D01*
X329717Y119937D01*
X329772Y119890D01*
X329820Y119871D01*
X329864Y119843D01*
X329933Y119825D01*
X330000Y119798D01*
X330071Y119791D01*
X330102Y119783D01*
X330125Y119785D01*
X330166Y119780D01*
X341960Y119780D01*
X341980Y119783D01*
G37*
G36*
X302937Y89373D02*
X302937Y89373D01*
X303009Y89375D01*
X303058Y89393D01*
X303110Y89401D01*
X303173Y89435D01*
X303240Y89459D01*
X303281Y89492D01*
X303327Y89516D01*
X303376Y89568D01*
X303432Y89613D01*
X303460Y89657D01*
X303496Y89695D01*
X303526Y89760D01*
X303565Y89820D01*
X303578Y89871D01*
X303600Y89918D01*
X303608Y89989D01*
X303625Y90059D01*
X303621Y90110D01*
X303627Y90162D01*
X303612Y90232D01*
X303606Y90304D01*
X303586Y90352D01*
X303575Y90403D01*
X303538Y90464D01*
X303510Y90530D01*
X303465Y90586D01*
X303449Y90614D01*
X303431Y90629D01*
X303405Y90661D01*
X302163Y91903D01*
X302163Y93541D01*
X302148Y93631D01*
X302141Y93722D01*
X302129Y93751D01*
X302123Y93783D01*
X302081Y93864D01*
X302045Y93948D01*
X302019Y93980D01*
X302008Y94001D01*
X301985Y94023D01*
X301940Y94079D01*
X301825Y94194D01*
X301751Y94247D01*
X301682Y94307D01*
X301652Y94319D01*
X301625Y94338D01*
X301538Y94364D01*
X301454Y94398D01*
X301413Y94403D01*
X301390Y94410D01*
X301358Y94409D01*
X301287Y94417D01*
X295561Y94417D01*
X295541Y94414D01*
X295522Y94416D01*
X295420Y94394D01*
X295318Y94377D01*
X295301Y94368D01*
X295281Y94364D01*
X295192Y94310D01*
X295101Y94262D01*
X295087Y94248D01*
X295070Y94237D01*
X295003Y94159D01*
X294932Y94084D01*
X294923Y94066D01*
X294910Y94051D01*
X294872Y93954D01*
X294828Y93861D01*
X294826Y93841D01*
X294818Y93822D01*
X294800Y93656D01*
X294800Y92773D01*
X294815Y92683D01*
X294822Y92592D01*
X294834Y92562D01*
X294840Y92530D01*
X294882Y92449D01*
X294918Y92365D01*
X294944Y92333D01*
X294955Y92313D01*
X294978Y92290D01*
X295023Y92234D01*
X297673Y89584D01*
X297747Y89531D01*
X297816Y89472D01*
X297846Y89460D01*
X297873Y89441D01*
X297960Y89414D01*
X298044Y89380D01*
X298085Y89375D01*
X298108Y89369D01*
X298140Y89369D01*
X298211Y89361D01*
X302867Y89361D01*
X302937Y89373D01*
G37*
G36*
X91003Y83107D02*
X91003Y83107D01*
X91107Y83110D01*
X91126Y83117D01*
X91146Y83119D01*
X91240Y83159D01*
X91338Y83195D01*
X91354Y83207D01*
X91372Y83215D01*
X91503Y83320D01*
X93696Y85513D01*
X93738Y85571D01*
X93787Y85623D01*
X93809Y85670D01*
X93840Y85713D01*
X93861Y85781D01*
X93891Y85846D01*
X93897Y85898D01*
X93912Y85948D01*
X93910Y86019D01*
X93918Y86091D01*
X93907Y86141D01*
X93906Y86194D01*
X93881Y86261D01*
X93866Y86331D01*
X93839Y86376D01*
X93821Y86425D01*
X93776Y86481D01*
X93740Y86542D01*
X93700Y86576D01*
X93667Y86617D01*
X93607Y86655D01*
X93553Y86702D01*
X93504Y86721D01*
X93460Y86750D01*
X93391Y86767D01*
X93324Y86794D01*
X93253Y86802D01*
X93222Y86810D01*
X93199Y86808D01*
X93158Y86812D01*
X88771Y86812D01*
X88701Y86801D01*
X88629Y86799D01*
X88580Y86781D01*
X88529Y86773D01*
X88465Y86739D01*
X88398Y86714D01*
X88357Y86682D01*
X88311Y86658D01*
X88262Y86606D01*
X88206Y86561D01*
X88178Y86517D01*
X88142Y86479D01*
X88112Y86414D01*
X88073Y86354D01*
X88060Y86303D01*
X88038Y86256D01*
X88030Y86185D01*
X88013Y86115D01*
X88017Y86063D01*
X88011Y86012D01*
X88026Y85941D01*
X88032Y85870D01*
X88052Y85822D01*
X88063Y85771D01*
X88100Y85710D01*
X88128Y85644D01*
X88173Y85588D01*
X88190Y85560D01*
X88207Y85545D01*
X88233Y85513D01*
X90426Y83320D01*
X90442Y83308D01*
X90455Y83292D01*
X90542Y83236D01*
X90626Y83176D01*
X90645Y83170D01*
X90662Y83159D01*
X90762Y83134D01*
X90861Y83104D01*
X90881Y83104D01*
X90900Y83099D01*
X91003Y83107D01*
G37*
%LPC*%
G36*
X380999Y177799D02*
X380999Y177799D01*
X380999Y177801D01*
X381001Y177801D01*
X381001Y177799D01*
X380999Y177799D01*
G37*
%LPD*%
D10*
X0Y0D02*
X492000Y0D01*
X492000Y203200D01*
X0Y203200D01*
X0Y0D01*
D11*
X482346Y193040D02*
X482344Y193166D01*
X482339Y193293D01*
X482329Y193419D01*
X482317Y193545D01*
X482300Y193670D01*
X482280Y193795D01*
X482256Y193919D01*
X482229Y194042D01*
X482198Y194165D01*
X482164Y194287D01*
X482126Y194407D01*
X482084Y194527D01*
X482039Y194645D01*
X481991Y194762D01*
X481939Y194877D01*
X481884Y194991D01*
X481826Y195103D01*
X481764Y195213D01*
X481699Y195322D01*
X481632Y195429D01*
X481561Y195533D01*
X481487Y195636D01*
X481410Y195736D01*
X481330Y195834D01*
X482346Y193040D02*
X482344Y192914D01*
X482339Y192787D01*
X482329Y192661D01*
X482317Y192535D01*
X482300Y192410D01*
X482280Y192285D01*
X482256Y192161D01*
X482229Y192038D01*
X482198Y191915D01*
X482164Y191793D01*
X482126Y191673D01*
X482084Y191553D01*
X482039Y191435D01*
X481991Y191318D01*
X481939Y191203D01*
X481884Y191089D01*
X481826Y190977D01*
X481764Y190867D01*
X481699Y190758D01*
X481632Y190651D01*
X481561Y190547D01*
X481487Y190444D01*
X481410Y190344D01*
X481330Y190246D01*
X478463Y190754D02*
X477447Y190754D01*
X478463Y190754D02*
X478524Y190756D01*
X478585Y190761D01*
X478646Y190771D01*
X478706Y190784D01*
X478765Y190800D01*
X478823Y190820D01*
X478880Y190844D01*
X478935Y190870D01*
X478989Y190901D01*
X479040Y190934D01*
X479090Y190970D01*
X479137Y191010D01*
X479181Y191052D01*
X479223Y191096D01*
X479263Y191143D01*
X479299Y191193D01*
X479332Y191244D01*
X479363Y191298D01*
X479389Y191353D01*
X479413Y191410D01*
X479433Y191468D01*
X479449Y191527D01*
X479462Y191587D01*
X479472Y191648D01*
X479477Y191709D01*
X479479Y191770D01*
X479479Y194310D01*
X479477Y194371D01*
X479472Y194432D01*
X479462Y194493D01*
X479449Y194553D01*
X479433Y194612D01*
X479413Y194670D01*
X479389Y194727D01*
X479363Y194782D01*
X479332Y194836D01*
X479299Y194887D01*
X479263Y194937D01*
X479223Y194984D01*
X479181Y195028D01*
X479137Y195070D01*
X479090Y195110D01*
X479040Y195146D01*
X478989Y195179D01*
X478935Y195210D01*
X478880Y195236D01*
X478823Y195260D01*
X478765Y195280D01*
X478706Y195296D01*
X478646Y195309D01*
X478585Y195319D01*
X478524Y195324D01*
X478463Y195326D01*
X477447Y195326D01*
X474803Y193040D02*
X474805Y192914D01*
X474810Y192787D01*
X474820Y192661D01*
X474832Y192535D01*
X474849Y192410D01*
X474869Y192285D01*
X474893Y192161D01*
X474920Y192038D01*
X474951Y191915D01*
X474985Y191793D01*
X475023Y191673D01*
X475065Y191553D01*
X475110Y191435D01*
X475158Y191318D01*
X475210Y191203D01*
X475265Y191089D01*
X475323Y190977D01*
X475385Y190867D01*
X475450Y190758D01*
X475517Y190651D01*
X475588Y190547D01*
X475662Y190444D01*
X475739Y190344D01*
X475819Y190246D01*
X474803Y193040D02*
X474805Y193166D01*
X474810Y193293D01*
X474820Y193419D01*
X474832Y193545D01*
X474849Y193670D01*
X474869Y193795D01*
X474893Y193919D01*
X474920Y194042D01*
X474951Y194165D01*
X474985Y194287D01*
X475023Y194407D01*
X475065Y194527D01*
X475110Y194645D01*
X475158Y194762D01*
X475210Y194877D01*
X475265Y194991D01*
X475323Y195103D01*
X475385Y195213D01*
X475450Y195322D01*
X475517Y195429D01*
X475588Y195533D01*
X475662Y195636D01*
X475739Y195736D01*
X475819Y195834D01*
X470167Y195326D02*
X470167Y190754D01*
X467627Y190754D02*
X470167Y195326D01*
X467627Y195326D02*
X467627Y190754D01*
X462842Y190754D02*
X462842Y195326D01*
X462842Y190754D02*
X460810Y190754D01*
X459296Y190754D02*
X457772Y195326D01*
X456248Y190754D01*
X456629Y191897D02*
X458915Y191897D01*
X454285Y190754D02*
X454285Y195326D01*
X453015Y195326D01*
X452945Y195324D01*
X452875Y195318D01*
X452806Y195309D01*
X452737Y195295D01*
X452669Y195278D01*
X452603Y195257D01*
X452537Y195233D01*
X452473Y195205D01*
X452411Y195173D01*
X452350Y195138D01*
X452291Y195100D01*
X452235Y195058D01*
X452181Y195014D01*
X452129Y194966D01*
X452081Y194916D01*
X452035Y194863D01*
X451992Y194808D01*
X451952Y194751D01*
X451915Y194691D01*
X451882Y194629D01*
X451852Y194566D01*
X451826Y194501D01*
X451803Y194435D01*
X451784Y194368D01*
X451769Y194299D01*
X451757Y194230D01*
X451749Y194161D01*
X451745Y194091D01*
X451745Y194021D01*
X451749Y193951D01*
X451757Y193882D01*
X451769Y193813D01*
X451784Y193744D01*
X451803Y193677D01*
X451826Y193611D01*
X451852Y193546D01*
X451882Y193483D01*
X451915Y193421D01*
X451952Y193361D01*
X451992Y193304D01*
X452035Y193249D01*
X452081Y193196D01*
X452129Y193146D01*
X452181Y193098D01*
X452235Y193054D01*
X452291Y193012D01*
X452350Y192974D01*
X452411Y192939D01*
X452473Y192907D01*
X452537Y192879D01*
X452603Y192855D01*
X452669Y192834D01*
X452737Y192817D01*
X452806Y192803D01*
X452875Y192794D01*
X452945Y192788D01*
X453015Y192786D01*
X454285Y192786D01*
X452761Y192786D02*
X451745Y190754D01*
X449543Y190754D02*
X449543Y195326D01*
X448019Y192786D01*
X446495Y195326D01*
X446495Y190754D01*
X444260Y192024D02*
X444260Y194056D01*
X444258Y194126D01*
X444252Y194196D01*
X444243Y194265D01*
X444229Y194334D01*
X444212Y194402D01*
X444191Y194468D01*
X444167Y194534D01*
X444139Y194598D01*
X444107Y194660D01*
X444072Y194721D01*
X444034Y194780D01*
X443992Y194836D01*
X443948Y194890D01*
X443900Y194942D01*
X443850Y194990D01*
X443797Y195036D01*
X443742Y195079D01*
X443685Y195119D01*
X443625Y195156D01*
X443563Y195189D01*
X443500Y195219D01*
X443435Y195245D01*
X443369Y195268D01*
X443302Y195287D01*
X443233Y195302D01*
X443164Y195314D01*
X443095Y195322D01*
X443025Y195326D01*
X442955Y195326D01*
X442885Y195322D01*
X442816Y195314D01*
X442747Y195302D01*
X442678Y195287D01*
X442611Y195268D01*
X442545Y195245D01*
X442480Y195219D01*
X442417Y195189D01*
X442355Y195156D01*
X442295Y195119D01*
X442238Y195079D01*
X442183Y195036D01*
X442130Y194990D01*
X442080Y194942D01*
X442032Y194890D01*
X441988Y194836D01*
X441946Y194780D01*
X441908Y194721D01*
X441873Y194660D01*
X441841Y194598D01*
X441813Y194534D01*
X441789Y194468D01*
X441768Y194402D01*
X441751Y194334D01*
X441737Y194265D01*
X441728Y194196D01*
X441722Y194126D01*
X441720Y194056D01*
X441720Y192024D01*
X441722Y191954D01*
X441728Y191884D01*
X441737Y191815D01*
X441751Y191746D01*
X441768Y191678D01*
X441789Y191612D01*
X441813Y191546D01*
X441841Y191482D01*
X441873Y191420D01*
X441908Y191359D01*
X441946Y191300D01*
X441988Y191244D01*
X442032Y191190D01*
X442080Y191138D01*
X442130Y191090D01*
X442183Y191044D01*
X442238Y191001D01*
X442295Y190961D01*
X442355Y190924D01*
X442417Y190891D01*
X442480Y190861D01*
X442545Y190835D01*
X442611Y190812D01*
X442678Y190793D01*
X442747Y190778D01*
X442816Y190766D01*
X442885Y190758D01*
X442955Y190754D01*
X443025Y190754D01*
X443095Y190758D01*
X443164Y190766D01*
X443233Y190778D01*
X443302Y190793D01*
X443369Y190812D01*
X443435Y190835D01*
X443500Y190861D01*
X443563Y190891D01*
X443625Y190924D01*
X443685Y190961D01*
X443742Y191001D01*
X443797Y191044D01*
X443850Y191090D01*
X443900Y191138D01*
X443948Y191190D01*
X443992Y191244D01*
X444034Y191300D01*
X444072Y191359D01*
X444107Y191420D01*
X444139Y191482D01*
X444167Y191546D01*
X444191Y191612D01*
X444212Y191678D01*
X444229Y191746D01*
X444243Y191815D01*
X444252Y191884D01*
X444258Y191954D01*
X444260Y192024D01*
X439535Y192024D02*
X439535Y195326D01*
X439535Y192024D02*
X439533Y191954D01*
X439527Y191884D01*
X439518Y191815D01*
X439504Y191746D01*
X439487Y191678D01*
X439466Y191612D01*
X439442Y191546D01*
X439414Y191482D01*
X439382Y191420D01*
X439347Y191359D01*
X439309Y191300D01*
X439267Y191244D01*
X439223Y191190D01*
X439175Y191138D01*
X439125Y191090D01*
X439072Y191044D01*
X439017Y191001D01*
X438960Y190961D01*
X438900Y190924D01*
X438838Y190891D01*
X438775Y190861D01*
X438710Y190835D01*
X438644Y190812D01*
X438577Y190793D01*
X438508Y190778D01*
X438439Y190766D01*
X438370Y190758D01*
X438300Y190754D01*
X438230Y190754D01*
X438160Y190758D01*
X438091Y190766D01*
X438022Y190778D01*
X437953Y190793D01*
X437886Y190812D01*
X437820Y190835D01*
X437755Y190861D01*
X437692Y190891D01*
X437630Y190924D01*
X437570Y190961D01*
X437513Y191001D01*
X437458Y191044D01*
X437405Y191090D01*
X437355Y191138D01*
X437307Y191190D01*
X437263Y191244D01*
X437221Y191300D01*
X437183Y191359D01*
X437148Y191420D01*
X437116Y191482D01*
X437088Y191546D01*
X437064Y191612D01*
X437043Y191678D01*
X437026Y191746D01*
X437012Y191815D01*
X437003Y191884D01*
X436997Y191954D01*
X436995Y192024D01*
X436995Y195326D01*
X434625Y195326D02*
X434625Y190754D01*
X434625Y195326D02*
X433355Y195326D01*
X433285Y195324D01*
X433215Y195318D01*
X433146Y195309D01*
X433077Y195295D01*
X433009Y195278D01*
X432943Y195257D01*
X432877Y195233D01*
X432813Y195205D01*
X432751Y195173D01*
X432690Y195138D01*
X432631Y195100D01*
X432575Y195058D01*
X432521Y195014D01*
X432469Y194966D01*
X432421Y194916D01*
X432375Y194863D01*
X432332Y194808D01*
X432292Y194751D01*
X432255Y194691D01*
X432222Y194629D01*
X432192Y194566D01*
X432166Y194501D01*
X432143Y194435D01*
X432124Y194368D01*
X432109Y194299D01*
X432097Y194230D01*
X432089Y194161D01*
X432085Y194091D01*
X432085Y194021D01*
X432089Y193951D01*
X432097Y193882D01*
X432109Y193813D01*
X432124Y193744D01*
X432143Y193677D01*
X432166Y193611D01*
X432192Y193546D01*
X432222Y193483D01*
X432255Y193421D01*
X432292Y193361D01*
X432332Y193304D01*
X432375Y193249D01*
X432421Y193196D01*
X432469Y193146D01*
X432521Y193098D01*
X432575Y193054D01*
X432631Y193012D01*
X432690Y192974D01*
X432751Y192939D01*
X432813Y192907D01*
X432877Y192879D01*
X432943Y192855D01*
X433009Y192834D01*
X433077Y192817D01*
X433146Y192803D01*
X433215Y192794D01*
X433285Y192788D01*
X433355Y192786D01*
X434625Y192786D01*
X433101Y192786D02*
X432085Y190754D01*
X426251Y195326D02*
X426185Y195324D01*
X426118Y195318D01*
X426053Y195309D01*
X425987Y195295D01*
X425923Y195278D01*
X425860Y195257D01*
X425798Y195233D01*
X425738Y195204D01*
X425680Y195173D01*
X425623Y195138D01*
X425568Y195100D01*
X425516Y195059D01*
X425467Y195014D01*
X425420Y194967D01*
X425375Y194918D01*
X425334Y194866D01*
X425296Y194811D01*
X425261Y194755D01*
X425230Y194696D01*
X425201Y194636D01*
X425177Y194574D01*
X425156Y194511D01*
X425139Y194447D01*
X425125Y194381D01*
X425116Y194316D01*
X425110Y194249D01*
X425108Y194183D01*
X426251Y195326D02*
X426325Y195324D01*
X426398Y195319D01*
X426472Y195309D01*
X426544Y195296D01*
X426616Y195280D01*
X426687Y195260D01*
X426757Y195236D01*
X426826Y195209D01*
X426893Y195178D01*
X426959Y195144D01*
X427022Y195107D01*
X427084Y195067D01*
X427144Y195023D01*
X427201Y194977D01*
X427257Y194928D01*
X427309Y194876D01*
X427359Y194821D01*
X427406Y194764D01*
X427450Y194705D01*
X427491Y194644D01*
X427529Y194580D01*
X427564Y194515D01*
X427595Y194448D01*
X427623Y194380D01*
X427648Y194310D01*
X425489Y193294D02*
X425442Y193341D01*
X425398Y193390D01*
X425357Y193442D01*
X425318Y193496D01*
X425283Y193552D01*
X425250Y193610D01*
X425221Y193669D01*
X425195Y193730D01*
X425172Y193792D01*
X425152Y193856D01*
X425137Y193920D01*
X425124Y193985D01*
X425115Y194051D01*
X425110Y194117D01*
X425108Y194183D01*
X425489Y193294D02*
X427648Y190754D01*
X425108Y190754D01*
X423077Y193040D02*
X423075Y193162D01*
X423069Y193284D01*
X423059Y193406D01*
X423045Y193527D01*
X423028Y193648D01*
X423006Y193768D01*
X422981Y193887D01*
X422951Y194006D01*
X422918Y194123D01*
X422881Y194240D01*
X422840Y194355D01*
X422796Y194468D01*
X422748Y194581D01*
X422696Y194691D01*
X422695Y194691D02*
X422675Y194745D01*
X422651Y194799D01*
X422623Y194850D01*
X422593Y194900D01*
X422560Y194948D01*
X422523Y194993D01*
X422484Y195037D01*
X422443Y195077D01*
X422399Y195116D01*
X422352Y195151D01*
X422304Y195183D01*
X422254Y195213D01*
X422201Y195239D01*
X422148Y195262D01*
X422093Y195281D01*
X422037Y195297D01*
X421980Y195310D01*
X421922Y195319D01*
X421864Y195324D01*
X421806Y195326D01*
X421748Y195324D01*
X421690Y195319D01*
X421632Y195310D01*
X421575Y195297D01*
X421519Y195281D01*
X421464Y195262D01*
X421411Y195239D01*
X421358Y195213D01*
X421308Y195183D01*
X421260Y195151D01*
X421213Y195116D01*
X421169Y195077D01*
X421128Y195037D01*
X421089Y194993D01*
X421052Y194948D01*
X421019Y194900D01*
X420989Y194850D01*
X420961Y194799D01*
X420937Y194745D01*
X420917Y194691D01*
X420865Y194581D01*
X420817Y194468D01*
X420773Y194355D01*
X420732Y194240D01*
X420695Y194123D01*
X420662Y194006D01*
X420632Y193887D01*
X420607Y193768D01*
X420585Y193648D01*
X420568Y193527D01*
X420554Y193406D01*
X420544Y193284D01*
X420538Y193162D01*
X420536Y193040D01*
X423077Y193040D02*
X423075Y192918D01*
X423069Y192796D01*
X423059Y192674D01*
X423045Y192553D01*
X423028Y192432D01*
X423006Y192312D01*
X422981Y192193D01*
X422951Y192074D01*
X422918Y191957D01*
X422881Y191840D01*
X422840Y191725D01*
X422796Y191612D01*
X422748Y191499D01*
X422696Y191389D01*
X422695Y191389D02*
X422675Y191335D01*
X422651Y191281D01*
X422623Y191230D01*
X422593Y191180D01*
X422560Y191132D01*
X422523Y191087D01*
X422484Y191043D01*
X422443Y191003D01*
X422399Y190964D01*
X422352Y190929D01*
X422304Y190897D01*
X422254Y190867D01*
X422201Y190841D01*
X422148Y190818D01*
X422093Y190799D01*
X422037Y190783D01*
X421980Y190770D01*
X421922Y190761D01*
X421864Y190756D01*
X421806Y190754D01*
X420917Y191389D02*
X420865Y191499D01*
X420817Y191612D01*
X420773Y191725D01*
X420732Y191840D01*
X420695Y191957D01*
X420662Y192074D01*
X420632Y192193D01*
X420607Y192312D01*
X420585Y192432D01*
X420568Y192553D01*
X420554Y192674D01*
X420544Y192796D01*
X420538Y192918D01*
X420536Y193040D01*
X420917Y191389D02*
X420937Y191335D01*
X420961Y191281D01*
X420989Y191230D01*
X421019Y191180D01*
X421052Y191132D01*
X421089Y191087D01*
X421128Y191043D01*
X421169Y191003D01*
X421213Y190964D01*
X421260Y190929D01*
X421308Y190897D01*
X421358Y190867D01*
X421411Y190841D01*
X421464Y190818D01*
X421519Y190799D01*
X421575Y190783D01*
X421632Y190770D01*
X421690Y190761D01*
X421748Y190756D01*
X421806Y190754D01*
X422822Y191770D02*
X420790Y194310D01*
X417107Y195326D02*
X417041Y195324D01*
X416974Y195318D01*
X416909Y195309D01*
X416843Y195295D01*
X416779Y195278D01*
X416716Y195257D01*
X416654Y195233D01*
X416594Y195204D01*
X416536Y195173D01*
X416479Y195138D01*
X416424Y195100D01*
X416372Y195059D01*
X416323Y195014D01*
X416276Y194967D01*
X416231Y194918D01*
X416190Y194866D01*
X416152Y194811D01*
X416117Y194755D01*
X416086Y194696D01*
X416057Y194636D01*
X416033Y194574D01*
X416012Y194511D01*
X415995Y194447D01*
X415981Y194381D01*
X415972Y194316D01*
X415966Y194249D01*
X415964Y194183D01*
X417107Y195326D02*
X417181Y195324D01*
X417254Y195319D01*
X417328Y195309D01*
X417400Y195296D01*
X417472Y195280D01*
X417543Y195260D01*
X417613Y195236D01*
X417682Y195209D01*
X417749Y195178D01*
X417815Y195144D01*
X417878Y195107D01*
X417940Y195067D01*
X418000Y195023D01*
X418057Y194977D01*
X418113Y194928D01*
X418165Y194876D01*
X418215Y194821D01*
X418262Y194764D01*
X418306Y194705D01*
X418347Y194644D01*
X418385Y194580D01*
X418420Y194515D01*
X418451Y194448D01*
X418479Y194380D01*
X418504Y194310D01*
X416345Y193294D02*
X416298Y193341D01*
X416254Y193390D01*
X416213Y193442D01*
X416174Y193496D01*
X416139Y193552D01*
X416106Y193610D01*
X416077Y193669D01*
X416051Y193730D01*
X416028Y193792D01*
X416008Y193856D01*
X415993Y193920D01*
X415980Y193985D01*
X415971Y194051D01*
X415966Y194117D01*
X415964Y194183D01*
X416345Y193294D02*
X418504Y190754D01*
X415964Y190754D01*
X413932Y194310D02*
X412662Y195326D01*
X412662Y190754D01*
X413932Y190754D02*
X411392Y190754D01*
X75946Y182090D02*
X75946Y179606D01*
X75946Y182090D02*
X75944Y182167D01*
X75938Y182245D01*
X75929Y182321D01*
X75915Y182398D01*
X75898Y182473D01*
X75877Y182547D01*
X75852Y182621D01*
X75824Y182693D01*
X75792Y182763D01*
X75757Y182832D01*
X75718Y182899D01*
X75676Y182964D01*
X75631Y183027D01*
X75583Y183088D01*
X75532Y183146D01*
X75478Y183201D01*
X75421Y183254D01*
X75362Y183303D01*
X75300Y183350D01*
X75236Y183394D01*
X75170Y183434D01*
X75102Y183471D01*
X75032Y183505D01*
X74961Y183535D01*
X74888Y183561D01*
X74814Y183584D01*
X74739Y183603D01*
X74664Y183618D01*
X74587Y183630D01*
X74510Y183638D01*
X74433Y183642D01*
X74355Y183642D01*
X74278Y183638D01*
X74201Y183630D01*
X74124Y183618D01*
X74049Y183603D01*
X73974Y183584D01*
X73900Y183561D01*
X73827Y183535D01*
X73756Y183505D01*
X73686Y183471D01*
X73618Y183434D01*
X73552Y183394D01*
X73488Y183350D01*
X73426Y183303D01*
X73367Y183254D01*
X73310Y183201D01*
X73256Y183146D01*
X73205Y183088D01*
X73157Y183027D01*
X73112Y182964D01*
X73070Y182899D01*
X73031Y182832D01*
X72996Y182763D01*
X72964Y182693D01*
X72936Y182621D01*
X72911Y182547D01*
X72890Y182473D01*
X72873Y182398D01*
X72859Y182321D01*
X72850Y182245D01*
X72844Y182167D01*
X72842Y182090D01*
X72842Y179606D01*
X72844Y179529D01*
X72850Y179451D01*
X72859Y179375D01*
X72873Y179298D01*
X72890Y179223D01*
X72911Y179149D01*
X72936Y179075D01*
X72964Y179003D01*
X72996Y178933D01*
X73031Y178864D01*
X73070Y178797D01*
X73112Y178732D01*
X73157Y178669D01*
X73205Y178608D01*
X73256Y178550D01*
X73310Y178495D01*
X73367Y178442D01*
X73426Y178393D01*
X73488Y178346D01*
X73552Y178302D01*
X73618Y178262D01*
X73686Y178225D01*
X73756Y178191D01*
X73827Y178161D01*
X73900Y178135D01*
X73974Y178112D01*
X74049Y178093D01*
X74124Y178078D01*
X74201Y178066D01*
X74278Y178058D01*
X74355Y178054D01*
X74433Y178054D01*
X74510Y178058D01*
X74587Y178066D01*
X74664Y178078D01*
X74739Y178093D01*
X74814Y178112D01*
X74888Y178135D01*
X74961Y178161D01*
X75032Y178191D01*
X75102Y178225D01*
X75170Y178262D01*
X75236Y178302D01*
X75300Y178346D01*
X75362Y178393D01*
X75421Y178442D01*
X75478Y178495D01*
X75532Y178550D01*
X75583Y178608D01*
X75631Y178669D01*
X75676Y178732D01*
X75718Y178797D01*
X75757Y178864D01*
X75792Y178933D01*
X75824Y179003D01*
X75852Y179075D01*
X75877Y179149D01*
X75898Y179223D01*
X75915Y179298D01*
X75929Y179375D01*
X75938Y179451D01*
X75944Y179529D01*
X75946Y179606D01*
X70277Y178054D02*
X70277Y183642D01*
X68725Y183642D01*
X68649Y183640D01*
X68573Y183635D01*
X68497Y183625D01*
X68422Y183612D01*
X68348Y183595D01*
X68274Y183575D01*
X68202Y183551D01*
X68131Y183524D01*
X68061Y183493D01*
X67993Y183459D01*
X67927Y183421D01*
X67863Y183380D01*
X67800Y183337D01*
X67740Y183290D01*
X67683Y183240D01*
X67628Y183187D01*
X67575Y183132D01*
X67525Y183075D01*
X67478Y183015D01*
X67435Y182952D01*
X67394Y182888D01*
X67356Y182822D01*
X67322Y182754D01*
X67291Y182684D01*
X67264Y182613D01*
X67240Y182541D01*
X67220Y182467D01*
X67203Y182393D01*
X67190Y182318D01*
X67180Y182242D01*
X67175Y182166D01*
X67173Y182090D01*
X67172Y182090D02*
X67172Y179606D01*
X67173Y179606D02*
X67175Y179530D01*
X67180Y179454D01*
X67190Y179378D01*
X67203Y179303D01*
X67220Y179229D01*
X67240Y179155D01*
X67264Y179083D01*
X67291Y179012D01*
X67322Y178942D01*
X67356Y178874D01*
X67394Y178808D01*
X67435Y178744D01*
X67478Y178681D01*
X67525Y178621D01*
X67575Y178564D01*
X67628Y178509D01*
X67683Y178456D01*
X67740Y178406D01*
X67800Y178359D01*
X67863Y178316D01*
X67927Y178275D01*
X67993Y178237D01*
X68061Y178203D01*
X68131Y178172D01*
X68202Y178145D01*
X68274Y178121D01*
X68348Y178101D01*
X68422Y178084D01*
X68497Y178071D01*
X68573Y178061D01*
X68649Y178056D01*
X68725Y178054D01*
X70277Y178054D01*
X64425Y179606D02*
X64425Y183642D01*
X64424Y179606D02*
X64422Y179529D01*
X64416Y179451D01*
X64407Y179375D01*
X64393Y179298D01*
X64376Y179223D01*
X64355Y179149D01*
X64330Y179075D01*
X64302Y179003D01*
X64270Y178933D01*
X64235Y178864D01*
X64196Y178797D01*
X64154Y178732D01*
X64109Y178669D01*
X64061Y178608D01*
X64010Y178550D01*
X63956Y178495D01*
X63899Y178442D01*
X63840Y178393D01*
X63778Y178346D01*
X63714Y178302D01*
X63648Y178262D01*
X63580Y178225D01*
X63510Y178191D01*
X63439Y178161D01*
X63366Y178135D01*
X63292Y178112D01*
X63217Y178093D01*
X63142Y178078D01*
X63065Y178066D01*
X62988Y178058D01*
X62911Y178054D01*
X62833Y178054D01*
X62756Y178058D01*
X62679Y178066D01*
X62602Y178078D01*
X62527Y178093D01*
X62452Y178112D01*
X62378Y178135D01*
X62305Y178161D01*
X62234Y178191D01*
X62164Y178225D01*
X62096Y178262D01*
X62030Y178302D01*
X61966Y178346D01*
X61904Y178393D01*
X61845Y178442D01*
X61788Y178495D01*
X61734Y178550D01*
X61683Y178608D01*
X61635Y178669D01*
X61590Y178732D01*
X61548Y178797D01*
X61509Y178864D01*
X61474Y178933D01*
X61442Y179003D01*
X61414Y179075D01*
X61389Y179149D01*
X61368Y179223D01*
X61351Y179298D01*
X61337Y179375D01*
X61328Y179451D01*
X61322Y179529D01*
X61320Y179606D01*
X61320Y183642D01*
X55646Y183642D02*
X55646Y178054D01*
X55646Y183642D02*
X54094Y183642D01*
X54018Y183640D01*
X53942Y183635D01*
X53866Y183625D01*
X53791Y183612D01*
X53717Y183595D01*
X53643Y183575D01*
X53571Y183551D01*
X53500Y183524D01*
X53430Y183493D01*
X53362Y183459D01*
X53296Y183421D01*
X53232Y183380D01*
X53169Y183337D01*
X53109Y183290D01*
X53052Y183240D01*
X52997Y183187D01*
X52944Y183132D01*
X52894Y183075D01*
X52847Y183015D01*
X52804Y182952D01*
X52763Y182888D01*
X52725Y182822D01*
X52691Y182754D01*
X52660Y182684D01*
X52633Y182613D01*
X52609Y182541D01*
X52589Y182467D01*
X52572Y182393D01*
X52559Y182318D01*
X52549Y182242D01*
X52544Y182166D01*
X52542Y182090D01*
X52542Y179606D01*
X52544Y179530D01*
X52549Y179454D01*
X52559Y179378D01*
X52572Y179303D01*
X52589Y179229D01*
X52609Y179155D01*
X52633Y179083D01*
X52660Y179012D01*
X52691Y178942D01*
X52725Y178874D01*
X52763Y178808D01*
X52804Y178744D01*
X52847Y178681D01*
X52894Y178621D01*
X52944Y178564D01*
X52997Y178509D01*
X53052Y178456D01*
X53109Y178406D01*
X53169Y178359D01*
X53232Y178316D01*
X53296Y178275D01*
X53362Y178237D01*
X53430Y178203D01*
X53500Y178172D01*
X53571Y178145D01*
X53643Y178121D01*
X53717Y178101D01*
X53791Y178084D01*
X53866Y178071D01*
X53942Y178061D01*
X54018Y178056D01*
X54094Y178054D01*
X55646Y178054D01*
X49522Y178054D02*
X49522Y183642D01*
X50143Y178054D02*
X48901Y178054D01*
X48901Y183642D02*
X50143Y183642D01*
X45006Y178054D02*
X44936Y178056D01*
X44867Y178062D01*
X44798Y178072D01*
X44730Y178085D01*
X44662Y178103D01*
X44596Y178124D01*
X44531Y178149D01*
X44467Y178177D01*
X44405Y178209D01*
X44345Y178244D01*
X44287Y178283D01*
X44232Y178325D01*
X44178Y178370D01*
X44128Y178418D01*
X44080Y178468D01*
X44035Y178522D01*
X43993Y178577D01*
X43954Y178635D01*
X43919Y178695D01*
X43887Y178757D01*
X43859Y178821D01*
X43834Y178886D01*
X43813Y178952D01*
X43795Y179020D01*
X43782Y179088D01*
X43772Y179157D01*
X43766Y179226D01*
X43764Y179296D01*
X45006Y178054D02*
X45105Y178056D01*
X45203Y178061D01*
X45301Y178071D01*
X45399Y178084D01*
X45496Y178100D01*
X45593Y178120D01*
X45688Y178144D01*
X45783Y178172D01*
X45877Y178203D01*
X45969Y178237D01*
X46060Y178275D01*
X46150Y178316D01*
X46238Y178361D01*
X46324Y178409D01*
X46408Y178460D01*
X46490Y178514D01*
X46571Y178572D01*
X46649Y178632D01*
X46724Y178695D01*
X46798Y178761D01*
X46868Y178830D01*
X46713Y182400D02*
X46711Y182470D01*
X46705Y182539D01*
X46695Y182608D01*
X46682Y182676D01*
X46664Y182744D01*
X46643Y182810D01*
X46618Y182875D01*
X46590Y182939D01*
X46558Y183001D01*
X46523Y183061D01*
X46484Y183119D01*
X46442Y183174D01*
X46397Y183228D01*
X46349Y183278D01*
X46299Y183326D01*
X46245Y183371D01*
X46190Y183413D01*
X46132Y183452D01*
X46072Y183487D01*
X46010Y183519D01*
X45946Y183547D01*
X45881Y183572D01*
X45815Y183593D01*
X45747Y183611D01*
X45679Y183624D01*
X45610Y183634D01*
X45541Y183640D01*
X45471Y183642D01*
X45377Y183640D01*
X45284Y183634D01*
X45191Y183625D01*
X45098Y183612D01*
X45006Y183595D01*
X44915Y183575D01*
X44824Y183550D01*
X44735Y183523D01*
X44647Y183491D01*
X44560Y183456D01*
X44474Y183418D01*
X44391Y183376D01*
X44308Y183331D01*
X44228Y183283D01*
X44150Y183231D01*
X44074Y183176D01*
X46092Y181314D02*
X46151Y181350D01*
X46207Y181390D01*
X46261Y181433D01*
X46313Y181478D01*
X46362Y181527D01*
X46408Y181578D01*
X46451Y181631D01*
X46492Y181687D01*
X46529Y181745D01*
X46564Y181805D01*
X46594Y181866D01*
X46622Y181929D01*
X46646Y181994D01*
X46666Y182060D01*
X46683Y182127D01*
X46696Y182194D01*
X46705Y182262D01*
X46711Y182331D01*
X46713Y182400D01*
X44385Y180382D02*
X44326Y180346D01*
X44270Y180306D01*
X44216Y180263D01*
X44164Y180218D01*
X44115Y180169D01*
X44069Y180118D01*
X44026Y180065D01*
X43985Y180009D01*
X43948Y179951D01*
X43913Y179892D01*
X43883Y179830D01*
X43855Y179767D01*
X43831Y179702D01*
X43811Y179636D01*
X43794Y179569D01*
X43781Y179502D01*
X43772Y179434D01*
X43766Y179365D01*
X43764Y179296D01*
X44385Y180382D02*
X46092Y181314D01*
X41299Y183642D02*
X41299Y178054D01*
X41299Y183642D02*
X39747Y183642D01*
X39670Y183640D01*
X39592Y183634D01*
X39516Y183625D01*
X39439Y183611D01*
X39364Y183594D01*
X39290Y183573D01*
X39216Y183548D01*
X39144Y183520D01*
X39074Y183488D01*
X39005Y183453D01*
X38938Y183414D01*
X38873Y183372D01*
X38810Y183327D01*
X38749Y183279D01*
X38691Y183228D01*
X38636Y183174D01*
X38583Y183117D01*
X38534Y183058D01*
X38487Y182996D01*
X38443Y182932D01*
X38403Y182866D01*
X38366Y182798D01*
X38332Y182728D01*
X38302Y182657D01*
X38276Y182584D01*
X38253Y182510D01*
X38234Y182435D01*
X38219Y182360D01*
X38207Y182283D01*
X38199Y182206D01*
X38195Y182129D01*
X38195Y182051D01*
X38199Y181974D01*
X38207Y181897D01*
X38219Y181820D01*
X38234Y181745D01*
X38253Y181670D01*
X38276Y181596D01*
X38302Y181523D01*
X38332Y181452D01*
X38366Y181382D01*
X38403Y181314D01*
X38443Y181248D01*
X38487Y181184D01*
X38534Y181122D01*
X38583Y181063D01*
X38636Y181006D01*
X38691Y180952D01*
X38749Y180901D01*
X38810Y180853D01*
X38873Y180808D01*
X38938Y180766D01*
X39005Y180727D01*
X39074Y180692D01*
X39144Y180660D01*
X39216Y180632D01*
X39290Y180607D01*
X39364Y180586D01*
X39439Y180569D01*
X39516Y180555D01*
X39592Y180546D01*
X39670Y180540D01*
X39747Y180538D01*
X41299Y180538D01*
X35885Y178054D02*
X35885Y183642D01*
X35885Y178054D02*
X33401Y178054D01*
X31634Y178054D02*
X29771Y183642D01*
X27909Y178054D01*
X28374Y179451D02*
X31168Y179451D01*
X26148Y183642D02*
X24285Y181003D01*
X22422Y183642D01*
X24285Y181003D02*
X24285Y178054D01*
X15873Y178054D02*
X17735Y183642D01*
X14010Y183642D02*
X15873Y178054D01*
X11938Y182400D02*
X10386Y183642D01*
X10386Y178054D01*
X11938Y178054D02*
X8834Y178054D01*
X37556Y20574D02*
X38572Y20574D01*
X38633Y20576D01*
X38694Y20581D01*
X38755Y20591D01*
X38815Y20604D01*
X38874Y20620D01*
X38932Y20640D01*
X38989Y20664D01*
X39044Y20690D01*
X39098Y20721D01*
X39149Y20754D01*
X39199Y20790D01*
X39246Y20830D01*
X39290Y20872D01*
X39332Y20916D01*
X39372Y20963D01*
X39408Y21013D01*
X39441Y21064D01*
X39472Y21118D01*
X39498Y21173D01*
X39522Y21230D01*
X39542Y21288D01*
X39558Y21347D01*
X39571Y21407D01*
X39581Y21468D01*
X39586Y21529D01*
X39588Y21590D01*
X39588Y24130D01*
X39586Y24191D01*
X39581Y24252D01*
X39571Y24313D01*
X39558Y24373D01*
X39542Y24432D01*
X39522Y24490D01*
X39498Y24547D01*
X39472Y24602D01*
X39441Y24656D01*
X39408Y24707D01*
X39372Y24757D01*
X39332Y24804D01*
X39290Y24848D01*
X39246Y24890D01*
X39199Y24930D01*
X39149Y24966D01*
X39098Y24999D01*
X39044Y25030D01*
X38989Y25056D01*
X38932Y25080D01*
X38874Y25100D01*
X38815Y25116D01*
X38755Y25129D01*
X38694Y25139D01*
X38633Y25144D01*
X38572Y25146D01*
X37556Y25146D01*
X35763Y23876D02*
X35763Y21844D01*
X35763Y23876D02*
X35761Y23946D01*
X35755Y24016D01*
X35746Y24085D01*
X35732Y24154D01*
X35715Y24222D01*
X35694Y24288D01*
X35670Y24354D01*
X35642Y24418D01*
X35610Y24480D01*
X35575Y24541D01*
X35537Y24600D01*
X35495Y24656D01*
X35451Y24710D01*
X35403Y24762D01*
X35353Y24810D01*
X35300Y24856D01*
X35245Y24899D01*
X35188Y24939D01*
X35128Y24976D01*
X35066Y25009D01*
X35003Y25039D01*
X34938Y25065D01*
X34872Y25088D01*
X34805Y25107D01*
X34736Y25122D01*
X34667Y25134D01*
X34598Y25142D01*
X34528Y25146D01*
X34458Y25146D01*
X34388Y25142D01*
X34319Y25134D01*
X34250Y25122D01*
X34181Y25107D01*
X34114Y25088D01*
X34048Y25065D01*
X33983Y25039D01*
X33920Y25009D01*
X33858Y24976D01*
X33798Y24939D01*
X33741Y24899D01*
X33686Y24856D01*
X33633Y24810D01*
X33583Y24762D01*
X33535Y24710D01*
X33491Y24656D01*
X33449Y24600D01*
X33411Y24541D01*
X33376Y24480D01*
X33344Y24418D01*
X33316Y24354D01*
X33292Y24288D01*
X33271Y24222D01*
X33254Y24154D01*
X33240Y24085D01*
X33231Y24016D01*
X33225Y23946D01*
X33223Y23876D01*
X33223Y21844D01*
X33225Y21774D01*
X33231Y21704D01*
X33240Y21635D01*
X33254Y21566D01*
X33271Y21498D01*
X33292Y21432D01*
X33316Y21366D01*
X33344Y21302D01*
X33376Y21240D01*
X33411Y21179D01*
X33449Y21120D01*
X33491Y21064D01*
X33535Y21010D01*
X33583Y20958D01*
X33633Y20910D01*
X33686Y20864D01*
X33741Y20821D01*
X33798Y20781D01*
X33858Y20744D01*
X33920Y20711D01*
X33983Y20681D01*
X34048Y20655D01*
X34114Y20632D01*
X34181Y20613D01*
X34250Y20598D01*
X34319Y20586D01*
X34388Y20578D01*
X34458Y20574D01*
X34528Y20574D01*
X34598Y20578D01*
X34667Y20586D01*
X34736Y20598D01*
X34805Y20613D01*
X34872Y20632D01*
X34938Y20655D01*
X35003Y20681D01*
X35066Y20711D01*
X35128Y20744D01*
X35188Y20781D01*
X35245Y20821D01*
X35300Y20864D01*
X35353Y20910D01*
X35403Y20958D01*
X35451Y21010D01*
X35495Y21064D01*
X35537Y21120D01*
X35575Y21179D01*
X35610Y21240D01*
X35642Y21302D01*
X35670Y21366D01*
X35694Y21432D01*
X35715Y21498D01*
X35732Y21566D01*
X35746Y21635D01*
X35755Y21704D01*
X35761Y21774D01*
X35763Y21844D01*
X30988Y20574D02*
X30988Y25146D01*
X29464Y22606D01*
X27940Y25146D01*
X27940Y20574D01*
X25502Y20574D02*
X25502Y25146D01*
X23978Y22606D01*
X22454Y25146D01*
X22454Y20574D01*
X20218Y21844D02*
X20218Y23876D01*
X20216Y23946D01*
X20210Y24016D01*
X20201Y24085D01*
X20187Y24154D01*
X20170Y24222D01*
X20149Y24288D01*
X20125Y24354D01*
X20097Y24418D01*
X20065Y24480D01*
X20030Y24541D01*
X19992Y24600D01*
X19950Y24656D01*
X19906Y24710D01*
X19858Y24762D01*
X19808Y24810D01*
X19755Y24856D01*
X19700Y24899D01*
X19643Y24939D01*
X19583Y24976D01*
X19521Y25009D01*
X19458Y25039D01*
X19393Y25065D01*
X19327Y25088D01*
X19260Y25107D01*
X19191Y25122D01*
X19122Y25134D01*
X19053Y25142D01*
X18983Y25146D01*
X18913Y25146D01*
X18843Y25142D01*
X18774Y25134D01*
X18705Y25122D01*
X18636Y25107D01*
X18569Y25088D01*
X18503Y25065D01*
X18438Y25039D01*
X18375Y25009D01*
X18313Y24976D01*
X18253Y24939D01*
X18196Y24899D01*
X18141Y24856D01*
X18088Y24810D01*
X18038Y24762D01*
X17990Y24710D01*
X17946Y24656D01*
X17904Y24600D01*
X17866Y24541D01*
X17831Y24480D01*
X17799Y24418D01*
X17771Y24354D01*
X17747Y24288D01*
X17726Y24222D01*
X17709Y24154D01*
X17695Y24085D01*
X17686Y24016D01*
X17680Y23946D01*
X17678Y23876D01*
X17678Y21844D01*
X17680Y21774D01*
X17686Y21704D01*
X17695Y21635D01*
X17709Y21566D01*
X17726Y21498D01*
X17747Y21432D01*
X17771Y21366D01*
X17799Y21302D01*
X17831Y21240D01*
X17866Y21179D01*
X17904Y21120D01*
X17946Y21064D01*
X17990Y21010D01*
X18038Y20958D01*
X18088Y20910D01*
X18141Y20864D01*
X18196Y20821D01*
X18253Y20781D01*
X18313Y20744D01*
X18375Y20711D01*
X18438Y20681D01*
X18503Y20655D01*
X18569Y20632D01*
X18636Y20613D01*
X18705Y20598D01*
X18774Y20586D01*
X18843Y20578D01*
X18913Y20574D01*
X18983Y20574D01*
X19053Y20578D01*
X19122Y20586D01*
X19191Y20598D01*
X19260Y20613D01*
X19327Y20632D01*
X19393Y20655D01*
X19458Y20681D01*
X19521Y20711D01*
X19583Y20744D01*
X19643Y20781D01*
X19700Y20821D01*
X19755Y20864D01*
X19808Y20910D01*
X19858Y20958D01*
X19906Y21010D01*
X19950Y21064D01*
X19992Y21120D01*
X20030Y21179D01*
X20065Y21240D01*
X20097Y21302D01*
X20125Y21366D01*
X20149Y21432D01*
X20170Y21498D01*
X20187Y21566D01*
X20201Y21635D01*
X20210Y21704D01*
X20216Y21774D01*
X20218Y21844D01*
X15494Y20574D02*
X15494Y25146D01*
X12954Y20574D01*
X12954Y25146D01*
X39801Y12954D02*
X40817Y12954D01*
X40878Y12956D01*
X40939Y12961D01*
X41000Y12971D01*
X41060Y12984D01*
X41119Y13000D01*
X41177Y13020D01*
X41234Y13044D01*
X41289Y13070D01*
X41343Y13101D01*
X41394Y13134D01*
X41444Y13170D01*
X41491Y13210D01*
X41535Y13252D01*
X41577Y13296D01*
X41617Y13343D01*
X41653Y13393D01*
X41686Y13444D01*
X41717Y13498D01*
X41743Y13553D01*
X41767Y13610D01*
X41787Y13668D01*
X41803Y13727D01*
X41816Y13787D01*
X41826Y13848D01*
X41831Y13909D01*
X41833Y13970D01*
X41833Y16510D01*
X41831Y16571D01*
X41826Y16632D01*
X41816Y16693D01*
X41803Y16753D01*
X41787Y16812D01*
X41767Y16870D01*
X41743Y16927D01*
X41717Y16982D01*
X41686Y17036D01*
X41653Y17087D01*
X41617Y17137D01*
X41577Y17184D01*
X41535Y17228D01*
X41491Y17270D01*
X41444Y17310D01*
X41394Y17346D01*
X41343Y17379D01*
X41289Y17410D01*
X41234Y17436D01*
X41177Y17460D01*
X41119Y17480D01*
X41060Y17496D01*
X41000Y17509D01*
X40939Y17519D01*
X40878Y17524D01*
X40817Y17526D01*
X39801Y17526D01*
X36738Y17526D02*
X38262Y12954D01*
X35214Y12954D02*
X36738Y17526D01*
X35595Y14097D02*
X37881Y14097D01*
X32471Y12954D02*
X32471Y17526D01*
X33741Y17526D02*
X31201Y17526D01*
X29322Y17526D02*
X29322Y12954D01*
X29322Y15494D02*
X26782Y15494D01*
X26782Y17526D02*
X26782Y12954D01*
X24597Y14224D02*
X24597Y16256D01*
X24595Y16326D01*
X24589Y16396D01*
X24580Y16465D01*
X24566Y16534D01*
X24549Y16602D01*
X24528Y16668D01*
X24504Y16734D01*
X24476Y16798D01*
X24444Y16860D01*
X24409Y16921D01*
X24371Y16980D01*
X24329Y17036D01*
X24285Y17090D01*
X24237Y17142D01*
X24187Y17190D01*
X24134Y17236D01*
X24079Y17279D01*
X24022Y17319D01*
X23962Y17356D01*
X23900Y17389D01*
X23837Y17419D01*
X23772Y17445D01*
X23706Y17468D01*
X23639Y17487D01*
X23570Y17502D01*
X23501Y17514D01*
X23432Y17522D01*
X23362Y17526D01*
X23292Y17526D01*
X23222Y17522D01*
X23153Y17514D01*
X23084Y17502D01*
X23015Y17487D01*
X22948Y17468D01*
X22882Y17445D01*
X22817Y17419D01*
X22754Y17389D01*
X22692Y17356D01*
X22632Y17319D01*
X22575Y17279D01*
X22520Y17236D01*
X22467Y17190D01*
X22417Y17142D01*
X22369Y17090D01*
X22325Y17036D01*
X22283Y16980D01*
X22245Y16921D01*
X22210Y16860D01*
X22178Y16798D01*
X22150Y16734D01*
X22126Y16668D01*
X22105Y16602D01*
X22088Y16534D01*
X22074Y16465D01*
X22065Y16396D01*
X22059Y16326D01*
X22057Y16256D01*
X22057Y14224D01*
X22059Y14154D01*
X22065Y14084D01*
X22074Y14015D01*
X22088Y13946D01*
X22105Y13878D01*
X22126Y13812D01*
X22150Y13746D01*
X22178Y13682D01*
X22210Y13620D01*
X22245Y13559D01*
X22283Y13500D01*
X22325Y13444D01*
X22369Y13390D01*
X22417Y13338D01*
X22467Y13290D01*
X22520Y13244D01*
X22575Y13201D01*
X22632Y13161D01*
X22692Y13124D01*
X22754Y13091D01*
X22817Y13061D01*
X22882Y13035D01*
X22948Y13012D01*
X23015Y12993D01*
X23084Y12978D01*
X23153Y12966D01*
X23222Y12958D01*
X23292Y12954D01*
X23362Y12954D01*
X23432Y12958D01*
X23501Y12966D01*
X23570Y12978D01*
X23639Y12993D01*
X23706Y13012D01*
X23772Y13035D01*
X23837Y13061D01*
X23900Y13091D01*
X23962Y13124D01*
X24022Y13161D01*
X24079Y13201D01*
X24134Y13244D01*
X24187Y13290D01*
X24237Y13338D01*
X24285Y13390D01*
X24329Y13444D01*
X24371Y13500D01*
X24409Y13559D01*
X24444Y13620D01*
X24476Y13682D01*
X24504Y13746D01*
X24528Y13812D01*
X24549Y13878D01*
X24566Y13946D01*
X24580Y14015D01*
X24589Y14084D01*
X24595Y14154D01*
X24597Y14224D01*
X19873Y12954D02*
X19873Y17526D01*
X18603Y17526D01*
X18534Y17524D01*
X18466Y17519D01*
X18398Y17509D01*
X18330Y17496D01*
X18263Y17480D01*
X18197Y17460D01*
X18133Y17436D01*
X18070Y17409D01*
X18008Y17378D01*
X17948Y17344D01*
X17890Y17307D01*
X17834Y17267D01*
X17781Y17224D01*
X17730Y17178D01*
X17681Y17129D01*
X17635Y17078D01*
X17592Y17025D01*
X17552Y16969D01*
X17515Y16911D01*
X17481Y16851D01*
X17450Y16789D01*
X17423Y16726D01*
X17399Y16662D01*
X17379Y16596D01*
X17363Y16529D01*
X17350Y16461D01*
X17340Y16393D01*
X17335Y16325D01*
X17333Y16256D01*
X17333Y14224D01*
X17335Y14155D01*
X17340Y14087D01*
X17350Y14019D01*
X17363Y13951D01*
X17379Y13884D01*
X17399Y13818D01*
X17423Y13754D01*
X17450Y13691D01*
X17481Y13629D01*
X17515Y13569D01*
X17552Y13511D01*
X17592Y13455D01*
X17635Y13402D01*
X17681Y13351D01*
X17730Y13302D01*
X17781Y13256D01*
X17834Y13213D01*
X17890Y13173D01*
X17948Y13136D01*
X18008Y13102D01*
X18070Y13071D01*
X18133Y13044D01*
X18197Y13020D01*
X18263Y13000D01*
X18330Y12984D01*
X18398Y12971D01*
X18466Y12961D01*
X18534Y12956D01*
X18603Y12954D01*
X19873Y12954D01*
X14986Y12954D02*
X12954Y12954D01*
X14986Y12954D02*
X14986Y17526D01*
X12954Y17526D01*
X13462Y15494D02*
X14986Y15494D01*
D12*
X101600Y170180D02*
X101600Y185420D01*
X127000Y185420D02*
X127000Y170180D01*
X152400Y170180D02*
X152400Y185420D01*
X177800Y185420D02*
X177800Y170180D01*
X203200Y170180D02*
X203200Y185420D01*
X228600Y185420D02*
X228600Y170180D01*
X254000Y170180D02*
X254000Y185420D01*
X279400Y185420D02*
X279400Y170180D01*
X304800Y170180D02*
X304800Y185420D01*
X330200Y185420D02*
X330200Y170180D01*
X355600Y170180D02*
X355600Y185420D01*
X381000Y185420D02*
X381000Y170180D01*
X101600Y33020D02*
X101600Y17780D01*
X127000Y17780D02*
X127000Y33020D01*
X152400Y33020D02*
X152400Y17780D01*
X177800Y17780D02*
X177800Y33020D01*
X203200Y33020D02*
X203200Y17780D01*
X228600Y17780D02*
X228600Y33020D01*
X254000Y33020D02*
X254000Y17780D01*
X279400Y17780D02*
X279400Y33020D01*
X304800Y33020D02*
X304800Y17780D01*
X330200Y17780D02*
X330200Y33020D01*
X355600Y33020D02*
X355600Y17780D01*
X381000Y17780D02*
X381000Y33020D01*
D13*
X62104Y145755D02*
X55767Y145755D01*
X65907Y149558D02*
X93790Y177441D01*
X65907Y149558D02*
X62104Y145755D01*
X93790Y177441D02*
X101395Y177441D01*
X101600Y177800D01*
X70977Y144488D02*
X65907Y149558D01*
X141953Y154627D02*
X159697Y136883D01*
X141953Y154627D02*
X119139Y154627D01*
X102662Y171104D01*
X102662Y177441D01*
X101600Y177800D01*
D14*
X55767Y145755D03*
X70977Y144488D03*
X159697Y136883D03*
X272499Y143220D03*
X422057Y143220D03*
X347278Y121674D03*
D13*
X111535Y83651D02*
X110267Y84918D01*
X101395Y84918D01*
X96325Y79849D01*
X96325Y69709D01*
X98860Y67174D01*
X98860Y43093D01*
X101395Y40558D01*
X101395Y26616D01*
X101600Y25400D01*
X382766Y89988D02*
X418254Y125476D01*
X382766Y89988D02*
X330801Y89988D01*
X318127Y102662D01*
D14*
X111535Y83651D03*
X195185Y120407D03*
X318127Y102662D03*
X418254Y125476D03*
D13*
X323197Y135616D02*
X323197Y153360D01*
X323197Y135616D02*
X323197Y125476D01*
X323197Y153360D02*
X328266Y158430D01*
X328266Y176174D01*
X329534Y177441D01*
X330200Y177800D01*
X323197Y135616D02*
X382766Y135616D01*
D14*
X98860Y110267D03*
X183778Y107732D03*
X323197Y125476D03*
X382766Y135616D03*
D13*
X171104Y122941D02*
X101395Y122941D01*
X171104Y122941D02*
X181244Y112802D01*
X309255Y149558D02*
X309255Y155895D01*
X306720Y158430D01*
X306720Y176174D01*
X305452Y177441D01*
X304800Y177800D01*
X389103Y126744D02*
X400510Y115337D01*
X389103Y126744D02*
X330801Y126744D01*
X324464Y120407D01*
X321929Y120407D01*
X309255Y133081D01*
X309255Y149558D01*
D14*
X101395Y122941D03*
X181244Y112802D03*
X309255Y149558D03*
X400510Y115337D03*
D13*
X272499Y149558D02*
X272499Y154627D01*
X277569Y159697D01*
X277569Y176174D01*
X278836Y177441D01*
X279400Y177800D01*
X367557Y116604D02*
X371359Y112802D01*
X367557Y116604D02*
X305452Y116604D01*
X272499Y149558D01*
X128011Y106465D02*
X119139Y115337D01*
X68442Y115337D01*
D14*
X272499Y149558D03*
X371359Y112802D03*
X68442Y115337D03*
X128011Y106465D03*
D13*
X125476Y102662D02*
X96325Y102662D01*
X125476Y102662D02*
X128011Y100128D01*
X172372Y100128D01*
X181244Y91256D02*
X219267Y53232D01*
X181244Y91256D02*
X172372Y100128D01*
X219267Y53232D02*
X219267Y45628D01*
X223069Y41825D01*
X223069Y40558D01*
X228139Y35488D01*
X228139Y26616D01*
X228600Y25400D01*
X179976Y88721D02*
X179976Y89988D01*
X181244Y91256D01*
X233209Y35488D02*
X290243Y92523D01*
X233209Y35488D02*
X228139Y35488D01*
X228600Y25400D01*
X396708Y86186D02*
X405580Y95058D01*
X396708Y86186D02*
X296580Y86186D01*
X290243Y92523D01*
D14*
X96325Y102662D03*
X179976Y88721D03*
X290243Y92523D03*
X405580Y95058D03*
D13*
X101395Y78581D02*
X101395Y68442D01*
X117872Y51965D01*
X117872Y44360D01*
X126744Y35488D01*
X126744Y26616D01*
X127000Y25400D01*
D14*
X101395Y78581D03*
X193918Y93790D03*
X334604Y107732D03*
X444871Y109000D03*
D13*
X171104Y136883D02*
X171104Y154627D01*
X171104Y136883D02*
X171104Y134348D01*
X171104Y154627D02*
X176174Y159697D01*
X176174Y176174D01*
X177800Y177800D01*
X171104Y136883D02*
X201523Y106465D01*
D14*
X171104Y134348D03*
X201523Y106465D03*
X334604Y95058D03*
X456278Y89988D03*
D13*
X107732Y79849D02*
X107732Y76046D01*
X152093Y31686D01*
X152093Y26616D01*
X152400Y25400D01*
X302918Y97593D02*
X306720Y93790D01*
X302918Y97593D02*
X286441Y97593D01*
X261092Y72244D01*
X216732Y72244D01*
X209127Y79849D01*
D14*
X107732Y79849D03*
X209127Y79849D03*
X306720Y93790D03*
X422057Y81116D03*
D13*
X202790Y79849D02*
X202790Y76046D01*
X224336Y54500D01*
X234476Y54500D02*
X239546Y59570D01*
X234476Y54500D02*
X224336Y54500D01*
D14*
X202790Y79849D03*
X224336Y54500D03*
X239546Y59570D03*
X363755Y54500D03*
X86186Y81116D03*
D13*
X96325Y96325D02*
X136883Y96325D01*
X172372Y60837D02*
X202790Y30419D01*
X172372Y60837D02*
X136883Y96325D01*
X202790Y30419D02*
X202790Y26616D01*
X203200Y25400D01*
X172372Y60837D02*
X188848Y77314D01*
D14*
X96325Y96325D03*
X188848Y77314D03*
X224336Y84918D03*
X405580Y84918D03*
D13*
X98860Y89988D02*
X68442Y89988D01*
X98860Y89988D02*
X101395Y92523D01*
X119139Y92523D01*
X124209Y87453D01*
X262360Y136883D02*
X262360Y152093D01*
X256022Y158430D01*
X256022Y176174D01*
X254755Y177441D01*
X254000Y177800D01*
X353615Y112802D02*
X371359Y95058D01*
X353615Y112802D02*
X286441Y112802D01*
X262360Y136883D01*
D14*
X68442Y89988D03*
X124209Y87453D03*
X262360Y136883D03*
X371359Y95058D03*
D13*
X259825Y77314D02*
X259825Y129279D01*
X230674Y158430D01*
X230674Y176174D01*
X229406Y177441D01*
X228600Y177800D01*
D14*
X93790Y65907D03*
X126744Y65907D03*
X259825Y77314D03*
D13*
X144488Y60837D02*
X116604Y88721D01*
X101395Y88721D01*
X88721Y76046D01*
X88721Y64639D01*
X93790Y59570D01*
X413185Y67174D02*
X414452Y68442D01*
X413185Y67174D02*
X294046Y67174D01*
D14*
X93790Y59570D03*
X144488Y60837D03*
X294046Y67174D03*
X414452Y68442D03*
X278836Y96325D03*
D13*
X171104Y2535D02*
X166034Y7605D01*
X171104Y2535D02*
X234476Y2535D01*
X239546Y7605D01*
X240813Y7605D01*
X253488Y20279D01*
X253488Y25349D01*
X254000Y25400D01*
D14*
X166034Y7605D03*
M02*
