G04 EAGLE Gerber RS-274X export*
G75*
%MOMM*%
%FSLAX34Y34*%
%LPD*%
%INSilk top*%
%IPPOS*%
%AMOC8*
5,1,8,0,0,1.08239X$1,22.5*%
G01*
%ADD10C,0.000000*%
%ADD11C,0.050800*%
%ADD12R,0.250000X0.250000*%
%ADD13R,0.250000X0.250000*%
%ADD14C,0.152400*%


D10*
X0Y0D02*
X492000Y0D01*
X492000Y203200D01*
X0Y203200D01*
X0Y0D01*
D11*
X61849Y134620D02*
X61849Y136144D01*
X61849Y134620D02*
X62738Y133477D01*
X61849Y134620D02*
X60960Y133477D01*
X61849Y134620D02*
X63246Y135128D01*
X61849Y134620D02*
X60452Y135128D01*
D12*
X69870Y142240D03*
D11*
X44196Y131191D02*
X42672Y131191D01*
X44196Y131191D02*
X45339Y132080D01*
X44196Y131191D02*
X45339Y130302D01*
X44196Y131191D02*
X43688Y132588D01*
X44196Y131191D02*
X43688Y129794D01*
D12*
X50800Y123170D03*
D11*
X123952Y131191D02*
X125476Y131191D01*
X126619Y132080D01*
X125476Y131191D02*
X126619Y130302D01*
X125476Y131191D02*
X124968Y132588D01*
X125476Y131191D02*
X124968Y129794D01*
D12*
X132080Y123170D03*
D11*
X138176Y72009D02*
X139700Y72009D01*
X140843Y72898D01*
X139700Y72009D02*
X140843Y71120D01*
X139700Y72009D02*
X139192Y73406D01*
X139700Y72009D02*
X139192Y70612D01*
D12*
X132080Y80030D03*
D11*
X61524Y122895D02*
X60446Y121817D01*
X60267Y120381D01*
X60446Y121817D02*
X59009Y121638D01*
X60446Y121817D02*
X61793Y121189D01*
X60446Y121817D02*
X59818Y123164D01*
D13*
G36*
X73273Y121534D02*
X71506Y119767D01*
X69739Y121534D01*
X71506Y123301D01*
X73273Y121534D01*
G37*
D11*
X111298Y132953D02*
X112376Y131875D01*
X113813Y131696D01*
X112376Y131875D02*
X112555Y130438D01*
X112376Y131875D02*
X113004Y133222D01*
X112376Y131875D02*
X111029Y131247D01*
D13*
G36*
X111374Y119767D02*
X109607Y121534D01*
X111374Y123301D01*
X113141Y121534D01*
X111374Y119767D01*
G37*
D11*
X70145Y71684D02*
X71222Y70606D01*
X72659Y70427D01*
X71222Y70606D02*
X71402Y69169D01*
X71222Y70606D02*
X71851Y71953D01*
X71222Y70606D02*
X69875Y69978D01*
D13*
G36*
X71506Y83433D02*
X73273Y81666D01*
X71506Y79899D01*
X69739Y81666D01*
X71506Y83433D01*
G37*
D11*
X121715Y80664D02*
X122793Y81742D01*
X121715Y80664D02*
X121536Y79227D01*
X121715Y80664D02*
X120278Y80484D01*
X121715Y80664D02*
X123062Y80035D01*
X121715Y80664D02*
X121087Y82011D01*
D13*
G36*
X109607Y81666D02*
X111374Y83433D01*
X113141Y81666D01*
X111374Y79899D01*
X109607Y81666D01*
G37*
D11*
X121031Y148844D02*
X121031Y150368D01*
X121031Y148844D02*
X121920Y147701D01*
X121031Y148844D02*
X120142Y147701D01*
X121031Y148844D02*
X122428Y149352D01*
X121031Y148844D02*
X119634Y149352D01*
D12*
X113010Y142240D03*
D11*
X84836Y131191D02*
X83312Y131191D01*
X84836Y131191D02*
X85979Y132080D01*
X84836Y131191D02*
X85979Y130302D01*
X84836Y131191D02*
X84328Y132588D01*
X84836Y131191D02*
X84328Y129794D01*
D12*
X91440Y123170D03*
D11*
X97536Y72009D02*
X99060Y72009D01*
X100203Y72898D01*
X99060Y72009D02*
X100203Y71120D01*
X99060Y72009D02*
X98552Y73406D01*
X99060Y72009D02*
X98552Y70612D01*
D12*
X91440Y80030D03*
D11*
X61849Y93980D02*
X61849Y95504D01*
X61849Y93980D02*
X62738Y92837D01*
X61849Y93980D02*
X60960Y92837D01*
X61849Y93980D02*
X63246Y94488D01*
X61849Y93980D02*
X60452Y94488D01*
D12*
X69870Y101600D03*
D11*
X121031Y108204D02*
X121031Y109728D01*
X121031Y108204D02*
X121920Y107061D01*
X121031Y108204D02*
X120142Y107061D01*
X121031Y108204D02*
X122428Y108712D01*
X121031Y108204D02*
X119634Y108712D01*
D12*
X113010Y101600D03*
D11*
X121031Y69088D02*
X121031Y67564D01*
X121920Y66421D01*
X121031Y67564D02*
X120142Y66421D01*
X121031Y67564D02*
X122428Y68072D01*
X121031Y67564D02*
X119634Y68072D01*
D12*
X113010Y60960D03*
D11*
X61849Y54864D02*
X61849Y53340D01*
X62738Y52197D01*
X61849Y53340D02*
X60960Y52197D01*
X61849Y53340D02*
X63246Y53848D01*
X61849Y53340D02*
X60452Y53848D01*
D12*
X69870Y60960D03*
D11*
X58420Y72009D02*
X56896Y72009D01*
X58420Y72009D02*
X59563Y72898D01*
X58420Y72009D02*
X59563Y71120D01*
X58420Y72009D02*
X57912Y73406D01*
X58420Y72009D02*
X57912Y70612D01*
D12*
X50800Y80030D03*
D14*
X95250Y190500D02*
X107950Y190500D01*
X114300Y184150D01*
X114300Y171450D02*
X107950Y165100D01*
X114300Y184150D02*
X120650Y190500D01*
X133350Y190500D01*
X139700Y184150D01*
X139700Y171450D02*
X133350Y165100D01*
X120650Y165100D01*
X114300Y171450D01*
X88900Y171450D02*
X88900Y184150D01*
X95250Y190500D01*
X88900Y171450D02*
X95250Y165100D01*
X107950Y165100D01*
X139700Y184150D02*
X146050Y190500D01*
X158750Y190500D01*
X165100Y184150D01*
X165100Y171450D02*
X158750Y165100D01*
X146050Y165100D01*
X139700Y171450D01*
X171450Y190500D02*
X184150Y190500D01*
X190500Y184150D01*
X190500Y171450D02*
X184150Y165100D01*
X190500Y184150D02*
X196850Y190500D01*
X209550Y190500D01*
X215900Y184150D01*
X215900Y171450D02*
X209550Y165100D01*
X196850Y165100D01*
X190500Y171450D01*
X171450Y190500D02*
X165100Y184150D01*
X165100Y171450D02*
X171450Y165100D01*
X184150Y165100D01*
X215900Y184150D02*
X222250Y190500D01*
X234950Y190500D01*
X241300Y184150D01*
X241300Y171450D02*
X234950Y165100D01*
X222250Y165100D01*
X215900Y171450D01*
X247650Y190500D02*
X260350Y190500D01*
X266700Y184150D01*
X266700Y171450D02*
X260350Y165100D01*
X266700Y184150D02*
X273050Y190500D01*
X285750Y190500D01*
X292100Y184150D01*
X292100Y171450D02*
X285750Y165100D01*
X273050Y165100D01*
X266700Y171450D01*
X247650Y190500D02*
X241300Y184150D01*
X241300Y171450D02*
X247650Y165100D01*
X260350Y165100D01*
X292100Y184150D02*
X298450Y190500D01*
X311150Y190500D01*
X317500Y184150D01*
X317500Y171450D02*
X311150Y165100D01*
X298450Y165100D01*
X292100Y171450D01*
X323850Y190500D02*
X336550Y190500D01*
X342900Y184150D01*
X342900Y171450D02*
X336550Y165100D01*
X342900Y184150D02*
X349250Y190500D01*
X361950Y190500D01*
X368300Y184150D01*
X368300Y171450D02*
X361950Y165100D01*
X349250Y165100D01*
X342900Y171450D01*
X323850Y190500D02*
X317500Y184150D01*
X317500Y171450D02*
X323850Y165100D01*
X336550Y165100D01*
X368300Y184150D02*
X374650Y190500D01*
X387350Y190500D01*
X393700Y184150D01*
X393700Y171450D02*
X387350Y165100D01*
X374650Y165100D01*
X368300Y171450D01*
X393700Y171450D02*
X393700Y184150D01*
D11*
X88166Y165862D02*
X86614Y164620D01*
X88166Y165862D02*
X88166Y160274D01*
X86614Y160274D02*
X89718Y160274D01*
X395224Y193830D02*
X396776Y195072D01*
X396776Y189484D01*
X395224Y189484D02*
X398328Y189484D01*
X403815Y193675D02*
X403813Y193748D01*
X403807Y193821D01*
X403798Y193894D01*
X403784Y193965D01*
X403767Y194037D01*
X403747Y194107D01*
X403722Y194176D01*
X403694Y194243D01*
X403663Y194309D01*
X403628Y194374D01*
X403590Y194436D01*
X403548Y194496D01*
X403504Y194554D01*
X403456Y194610D01*
X403406Y194663D01*
X403353Y194713D01*
X403297Y194761D01*
X403239Y194805D01*
X403179Y194847D01*
X403117Y194885D01*
X403052Y194920D01*
X402986Y194951D01*
X402919Y194979D01*
X402850Y195004D01*
X402780Y195024D01*
X402708Y195041D01*
X402637Y195055D01*
X402564Y195064D01*
X402491Y195070D01*
X402418Y195072D01*
X402334Y195070D01*
X402251Y195064D01*
X402168Y195055D01*
X402086Y195041D01*
X402004Y195024D01*
X401923Y195002D01*
X401843Y194977D01*
X401765Y194949D01*
X401687Y194917D01*
X401612Y194881D01*
X401538Y194842D01*
X401466Y194799D01*
X401396Y194753D01*
X401329Y194704D01*
X401263Y194651D01*
X401201Y194596D01*
X401141Y194538D01*
X401083Y194477D01*
X401029Y194414D01*
X400977Y194348D01*
X400929Y194280D01*
X400884Y194209D01*
X400842Y194137D01*
X400804Y194062D01*
X400769Y193986D01*
X400738Y193909D01*
X400710Y193830D01*
X403348Y192589D02*
X403402Y192642D01*
X403453Y192699D01*
X403501Y192758D01*
X403546Y192819D01*
X403587Y192882D01*
X403626Y192948D01*
X403661Y193015D01*
X403693Y193084D01*
X403721Y193155D01*
X403745Y193226D01*
X403766Y193299D01*
X403783Y193373D01*
X403797Y193448D01*
X403806Y193523D01*
X403812Y193599D01*
X403814Y193675D01*
X403349Y192588D02*
X400710Y189484D01*
X403815Y189484D01*
X98609Y156436D02*
X98607Y156366D01*
X98601Y156297D01*
X98591Y156228D01*
X98578Y156160D01*
X98560Y156092D01*
X98539Y156026D01*
X98514Y155961D01*
X98486Y155897D01*
X98454Y155835D01*
X98419Y155775D01*
X98380Y155717D01*
X98338Y155662D01*
X98293Y155608D01*
X98245Y155558D01*
X98195Y155510D01*
X98141Y155465D01*
X98086Y155423D01*
X98028Y155384D01*
X97968Y155349D01*
X97906Y155317D01*
X97842Y155289D01*
X97777Y155264D01*
X97711Y155243D01*
X97643Y155225D01*
X97575Y155212D01*
X97506Y155202D01*
X97437Y155196D01*
X97367Y155194D01*
X97268Y155196D01*
X97170Y155201D01*
X97072Y155211D01*
X96974Y155224D01*
X96877Y155240D01*
X96780Y155260D01*
X96685Y155284D01*
X96590Y155312D01*
X96496Y155343D01*
X96404Y155377D01*
X96313Y155415D01*
X96223Y155456D01*
X96135Y155501D01*
X96049Y155549D01*
X95965Y155600D01*
X95883Y155654D01*
X95802Y155712D01*
X95724Y155772D01*
X95649Y155835D01*
X95575Y155901D01*
X95505Y155970D01*
X95659Y159540D02*
X95661Y159610D01*
X95667Y159679D01*
X95677Y159748D01*
X95690Y159816D01*
X95708Y159884D01*
X95729Y159950D01*
X95754Y160015D01*
X95782Y160079D01*
X95814Y160141D01*
X95849Y160201D01*
X95888Y160259D01*
X95930Y160314D01*
X95975Y160368D01*
X96023Y160418D01*
X96073Y160466D01*
X96127Y160511D01*
X96182Y160553D01*
X96240Y160592D01*
X96300Y160627D01*
X96362Y160659D01*
X96426Y160687D01*
X96491Y160712D01*
X96557Y160733D01*
X96625Y160751D01*
X96693Y160764D01*
X96762Y160774D01*
X96831Y160780D01*
X96901Y160782D01*
X96995Y160780D01*
X97088Y160774D01*
X97181Y160765D01*
X97274Y160752D01*
X97366Y160735D01*
X97457Y160715D01*
X97548Y160690D01*
X97637Y160663D01*
X97725Y160631D01*
X97812Y160596D01*
X97898Y160558D01*
X97981Y160516D01*
X98063Y160471D01*
X98144Y160423D01*
X98222Y160371D01*
X98298Y160316D01*
X96280Y158454D02*
X96221Y158490D01*
X96165Y158530D01*
X96111Y158573D01*
X96059Y158618D01*
X96010Y158667D01*
X95964Y158718D01*
X95921Y158771D01*
X95880Y158827D01*
X95843Y158885D01*
X95808Y158945D01*
X95778Y159006D01*
X95750Y159069D01*
X95726Y159134D01*
X95706Y159200D01*
X95689Y159267D01*
X95676Y159334D01*
X95667Y159402D01*
X95661Y159471D01*
X95659Y159540D01*
X97987Y157522D02*
X98046Y157486D01*
X98102Y157446D01*
X98156Y157403D01*
X98208Y157358D01*
X98257Y157309D01*
X98303Y157258D01*
X98346Y157205D01*
X98387Y157149D01*
X98424Y157091D01*
X98459Y157031D01*
X98489Y156970D01*
X98517Y156907D01*
X98541Y156842D01*
X98561Y156776D01*
X98578Y156709D01*
X98591Y156642D01*
X98600Y156574D01*
X98606Y156505D01*
X98608Y156436D01*
X97988Y157522D02*
X96280Y158454D01*
X100497Y160782D02*
X102360Y155194D01*
X104222Y160782D01*
X106294Y159540D02*
X107846Y160782D01*
X107846Y155194D01*
X106294Y155194D02*
X109398Y155194D01*
D14*
X107950Y38100D02*
X95250Y38100D01*
X107950Y38100D02*
X114300Y31750D01*
X114300Y19050D02*
X107950Y12700D01*
X114300Y31750D02*
X120650Y38100D01*
X133350Y38100D01*
X139700Y31750D01*
X139700Y19050D02*
X133350Y12700D01*
X120650Y12700D01*
X114300Y19050D01*
X88900Y19050D02*
X88900Y31750D01*
X95250Y38100D01*
X88900Y19050D02*
X95250Y12700D01*
X107950Y12700D01*
X139700Y31750D02*
X146050Y38100D01*
X158750Y38100D01*
X165100Y31750D01*
X165100Y19050D02*
X158750Y12700D01*
X146050Y12700D01*
X139700Y19050D01*
X171450Y38100D02*
X184150Y38100D01*
X190500Y31750D01*
X190500Y19050D02*
X184150Y12700D01*
X190500Y31750D02*
X196850Y38100D01*
X209550Y38100D01*
X215900Y31750D01*
X215900Y19050D02*
X209550Y12700D01*
X196850Y12700D01*
X190500Y19050D01*
X171450Y38100D02*
X165100Y31750D01*
X165100Y19050D02*
X171450Y12700D01*
X184150Y12700D01*
X215900Y31750D02*
X222250Y38100D01*
X234950Y38100D01*
X241300Y31750D01*
X241300Y19050D02*
X234950Y12700D01*
X222250Y12700D01*
X215900Y19050D01*
X247650Y38100D02*
X260350Y38100D01*
X266700Y31750D01*
X266700Y19050D02*
X260350Y12700D01*
X266700Y31750D02*
X273050Y38100D01*
X285750Y38100D01*
X292100Y31750D01*
X292100Y19050D02*
X285750Y12700D01*
X273050Y12700D01*
X266700Y19050D01*
X247650Y38100D02*
X241300Y31750D01*
X241300Y19050D02*
X247650Y12700D01*
X260350Y12700D01*
X292100Y31750D02*
X298450Y38100D01*
X311150Y38100D01*
X317500Y31750D01*
X317500Y19050D02*
X311150Y12700D01*
X298450Y12700D01*
X292100Y19050D01*
X323850Y38100D02*
X336550Y38100D01*
X342900Y31750D01*
X342900Y19050D02*
X336550Y12700D01*
X342900Y31750D02*
X349250Y38100D01*
X361950Y38100D01*
X368300Y31750D01*
X368300Y19050D02*
X361950Y12700D01*
X349250Y12700D01*
X342900Y19050D01*
X323850Y38100D02*
X317500Y31750D01*
X317500Y19050D02*
X323850Y12700D01*
X336550Y12700D01*
X368300Y31750D02*
X374650Y38100D01*
X387350Y38100D01*
X393700Y31750D01*
X393700Y19050D02*
X387350Y12700D01*
X374650Y12700D01*
X368300Y19050D01*
X393700Y19050D02*
X393700Y31750D01*
D11*
X88166Y13462D02*
X86614Y12220D01*
X88166Y13462D02*
X88166Y7874D01*
X86614Y7874D02*
X89718Y7874D01*
X395224Y41430D02*
X396776Y42672D01*
X396776Y37084D01*
X395224Y37084D02*
X398328Y37084D01*
X403815Y41275D02*
X403813Y41348D01*
X403807Y41421D01*
X403798Y41494D01*
X403784Y41565D01*
X403767Y41637D01*
X403747Y41707D01*
X403722Y41776D01*
X403694Y41843D01*
X403663Y41909D01*
X403628Y41974D01*
X403590Y42036D01*
X403548Y42096D01*
X403504Y42154D01*
X403456Y42210D01*
X403406Y42263D01*
X403353Y42313D01*
X403297Y42361D01*
X403239Y42405D01*
X403179Y42447D01*
X403117Y42485D01*
X403052Y42520D01*
X402986Y42551D01*
X402919Y42579D01*
X402850Y42604D01*
X402780Y42624D01*
X402708Y42641D01*
X402637Y42655D01*
X402564Y42664D01*
X402491Y42670D01*
X402418Y42672D01*
X402334Y42670D01*
X402251Y42664D01*
X402168Y42655D01*
X402086Y42641D01*
X402004Y42624D01*
X401923Y42602D01*
X401843Y42577D01*
X401765Y42549D01*
X401687Y42517D01*
X401612Y42481D01*
X401538Y42442D01*
X401466Y42399D01*
X401396Y42353D01*
X401329Y42304D01*
X401263Y42251D01*
X401201Y42196D01*
X401141Y42138D01*
X401083Y42077D01*
X401029Y42014D01*
X400977Y41948D01*
X400929Y41880D01*
X400884Y41809D01*
X400842Y41737D01*
X400804Y41662D01*
X400769Y41586D01*
X400738Y41509D01*
X400710Y41430D01*
X403348Y40189D02*
X403402Y40242D01*
X403453Y40299D01*
X403501Y40358D01*
X403546Y40419D01*
X403587Y40482D01*
X403626Y40548D01*
X403661Y40615D01*
X403693Y40684D01*
X403721Y40755D01*
X403745Y40826D01*
X403766Y40899D01*
X403783Y40973D01*
X403797Y41048D01*
X403806Y41123D01*
X403812Y41199D01*
X403814Y41275D01*
X403349Y40188D02*
X400710Y37084D01*
X403815Y37084D01*
X66859Y30706D02*
X66857Y30636D01*
X66851Y30567D01*
X66841Y30498D01*
X66828Y30430D01*
X66810Y30362D01*
X66789Y30296D01*
X66764Y30231D01*
X66736Y30167D01*
X66704Y30105D01*
X66669Y30045D01*
X66630Y29987D01*
X66588Y29932D01*
X66543Y29878D01*
X66495Y29828D01*
X66445Y29780D01*
X66391Y29735D01*
X66336Y29693D01*
X66278Y29654D01*
X66218Y29619D01*
X66156Y29587D01*
X66092Y29559D01*
X66027Y29534D01*
X65961Y29513D01*
X65893Y29495D01*
X65825Y29482D01*
X65756Y29472D01*
X65687Y29466D01*
X65617Y29464D01*
X65518Y29466D01*
X65420Y29471D01*
X65322Y29481D01*
X65224Y29494D01*
X65127Y29510D01*
X65030Y29530D01*
X64935Y29554D01*
X64840Y29582D01*
X64746Y29613D01*
X64654Y29647D01*
X64563Y29685D01*
X64473Y29726D01*
X64385Y29771D01*
X64299Y29819D01*
X64215Y29870D01*
X64133Y29924D01*
X64052Y29982D01*
X63974Y30042D01*
X63899Y30105D01*
X63825Y30171D01*
X63755Y30240D01*
X63909Y33810D02*
X63911Y33880D01*
X63917Y33949D01*
X63927Y34018D01*
X63940Y34086D01*
X63958Y34154D01*
X63979Y34220D01*
X64004Y34285D01*
X64032Y34349D01*
X64064Y34411D01*
X64099Y34471D01*
X64138Y34529D01*
X64180Y34584D01*
X64225Y34638D01*
X64273Y34688D01*
X64323Y34736D01*
X64377Y34781D01*
X64432Y34823D01*
X64490Y34862D01*
X64550Y34897D01*
X64612Y34929D01*
X64676Y34957D01*
X64741Y34982D01*
X64807Y35003D01*
X64875Y35021D01*
X64943Y35034D01*
X65012Y35044D01*
X65081Y35050D01*
X65151Y35052D01*
X65245Y35050D01*
X65338Y35044D01*
X65431Y35035D01*
X65524Y35022D01*
X65616Y35005D01*
X65707Y34985D01*
X65798Y34960D01*
X65887Y34933D01*
X65975Y34901D01*
X66062Y34866D01*
X66148Y34828D01*
X66231Y34786D01*
X66313Y34741D01*
X66394Y34693D01*
X66472Y34641D01*
X66548Y34586D01*
X64530Y32724D02*
X64471Y32760D01*
X64415Y32800D01*
X64361Y32843D01*
X64309Y32888D01*
X64260Y32937D01*
X64214Y32988D01*
X64171Y33041D01*
X64130Y33097D01*
X64093Y33155D01*
X64058Y33215D01*
X64028Y33276D01*
X64000Y33339D01*
X63976Y33404D01*
X63956Y33470D01*
X63939Y33537D01*
X63926Y33604D01*
X63917Y33672D01*
X63911Y33741D01*
X63909Y33810D01*
X66237Y31792D02*
X66296Y31756D01*
X66352Y31716D01*
X66406Y31673D01*
X66458Y31628D01*
X66507Y31579D01*
X66553Y31528D01*
X66596Y31475D01*
X66637Y31419D01*
X66674Y31361D01*
X66709Y31301D01*
X66739Y31240D01*
X66767Y31177D01*
X66791Y31112D01*
X66811Y31046D01*
X66828Y30979D01*
X66841Y30912D01*
X66850Y30844D01*
X66856Y30775D01*
X66858Y30706D01*
X66238Y31792D02*
X64530Y32724D01*
X68747Y35052D02*
X70610Y29464D01*
X72472Y35052D01*
X76251Y35052D02*
X76324Y35050D01*
X76397Y35044D01*
X76470Y35035D01*
X76541Y35021D01*
X76613Y35004D01*
X76683Y34984D01*
X76752Y34959D01*
X76819Y34931D01*
X76885Y34900D01*
X76950Y34865D01*
X77012Y34827D01*
X77072Y34785D01*
X77130Y34741D01*
X77186Y34693D01*
X77239Y34643D01*
X77289Y34590D01*
X77337Y34534D01*
X77381Y34476D01*
X77423Y34416D01*
X77461Y34354D01*
X77496Y34289D01*
X77527Y34223D01*
X77555Y34156D01*
X77580Y34087D01*
X77600Y34017D01*
X77617Y33945D01*
X77631Y33874D01*
X77640Y33801D01*
X77646Y33728D01*
X77648Y33655D01*
X76251Y35052D02*
X76167Y35050D01*
X76084Y35044D01*
X76001Y35035D01*
X75919Y35021D01*
X75837Y35004D01*
X75756Y34982D01*
X75676Y34957D01*
X75598Y34929D01*
X75520Y34897D01*
X75445Y34861D01*
X75371Y34822D01*
X75299Y34779D01*
X75229Y34733D01*
X75162Y34684D01*
X75096Y34631D01*
X75034Y34576D01*
X74974Y34518D01*
X74916Y34457D01*
X74862Y34394D01*
X74810Y34328D01*
X74762Y34260D01*
X74717Y34189D01*
X74675Y34117D01*
X74637Y34042D01*
X74602Y33966D01*
X74571Y33889D01*
X74543Y33810D01*
X77182Y32569D02*
X77236Y32622D01*
X77287Y32679D01*
X77335Y32738D01*
X77380Y32799D01*
X77421Y32862D01*
X77460Y32928D01*
X77495Y32995D01*
X77527Y33064D01*
X77555Y33135D01*
X77579Y33206D01*
X77600Y33279D01*
X77617Y33353D01*
X77631Y33428D01*
X77640Y33503D01*
X77646Y33579D01*
X77648Y33655D01*
X77183Y32568D02*
X74544Y29464D01*
X77648Y29464D01*
X173609Y134620D02*
X173609Y136144D01*
X173609Y134620D02*
X174498Y133477D01*
X173609Y134620D02*
X172720Y133477D01*
X173609Y134620D02*
X175006Y135128D01*
X173609Y134620D02*
X172212Y135128D01*
D12*
X181630Y142240D03*
D11*
X232791Y148844D02*
X232791Y150368D01*
X232791Y148844D02*
X233680Y147701D01*
X232791Y148844D02*
X231902Y147701D01*
X232791Y148844D02*
X234188Y149352D01*
X232791Y148844D02*
X231394Y149352D01*
D12*
X224770Y142240D03*
D11*
X196596Y131191D02*
X195072Y131191D01*
X196596Y131191D02*
X197739Y132080D01*
X196596Y131191D02*
X197739Y130302D01*
X196596Y131191D02*
X196088Y132588D01*
X196596Y131191D02*
X196088Y129794D01*
D12*
X203200Y123170D03*
D11*
X209296Y70739D02*
X210820Y70739D01*
X211963Y71628D01*
X210820Y70739D02*
X211963Y69850D01*
X210820Y70739D02*
X210312Y72136D01*
X210820Y70739D02*
X210312Y69342D01*
D12*
X203200Y78760D03*
D11*
X173609Y93980D02*
X173609Y95504D01*
X173609Y93980D02*
X174498Y92837D01*
X173609Y93980D02*
X172720Y92837D01*
X173609Y93980D02*
X175006Y94488D01*
X173609Y93980D02*
X172212Y94488D01*
D12*
X181630Y101600D03*
D11*
X232791Y108204D02*
X232791Y109728D01*
X232791Y108204D02*
X233680Y107061D01*
X232791Y108204D02*
X231902Y107061D01*
X232791Y108204D02*
X234188Y108712D01*
X232791Y108204D02*
X231394Y108712D01*
D12*
X224770Y101600D03*
D11*
X232791Y69088D02*
X232791Y67564D01*
X233680Y66421D01*
X232791Y67564D02*
X231902Y66421D01*
X232791Y67564D02*
X234188Y68072D01*
X232791Y67564D02*
X231394Y68072D01*
D12*
X224770Y60960D03*
D11*
X173609Y54864D02*
X173609Y53340D01*
X174498Y52197D01*
X173609Y53340D02*
X172720Y52197D01*
X173609Y53340D02*
X175006Y53848D01*
X173609Y53340D02*
X172212Y53848D01*
D12*
X181630Y60960D03*
D11*
X170180Y72009D02*
X168656Y72009D01*
X170180Y72009D02*
X171323Y72898D01*
X170180Y72009D02*
X171323Y71120D01*
X170180Y72009D02*
X169672Y73406D01*
X170180Y72009D02*
X169672Y70612D01*
D12*
X162560Y80030D03*
D11*
X155956Y131191D02*
X154432Y131191D01*
X155956Y131191D02*
X157099Y132080D01*
X155956Y131191D02*
X157099Y130302D01*
X155956Y131191D02*
X155448Y132588D01*
X155956Y131191D02*
X155448Y129794D01*
D12*
X162560Y123170D03*
D11*
X235712Y129921D02*
X237236Y129921D01*
X238379Y130810D01*
X237236Y129921D02*
X238379Y129032D01*
X237236Y129921D02*
X236728Y131318D01*
X237236Y129921D02*
X236728Y128524D01*
D12*
X243840Y121900D03*
D11*
X249936Y72009D02*
X251460Y72009D01*
X252603Y72898D01*
X251460Y72009D02*
X252603Y71120D01*
X251460Y72009D02*
X250952Y73406D01*
X251460Y72009D02*
X250952Y70612D01*
D12*
X243840Y80030D03*
D11*
X173284Y122895D02*
X172206Y121817D01*
X172027Y120381D01*
X172206Y121817D02*
X170769Y121638D01*
X172206Y121817D02*
X173553Y121189D01*
X172206Y121817D02*
X171578Y123164D01*
D13*
G36*
X185033Y121534D02*
X183266Y119767D01*
X181499Y121534D01*
X183266Y123301D01*
X185033Y121534D01*
G37*
D11*
X223058Y132953D02*
X224136Y131875D01*
X225573Y131696D01*
X224136Y131875D02*
X224315Y130438D01*
X224136Y131875D02*
X224764Y133222D01*
X224136Y131875D02*
X222789Y131247D01*
D13*
G36*
X223134Y119767D02*
X221367Y121534D01*
X223134Y123301D01*
X224901Y121534D01*
X223134Y119767D01*
G37*
D11*
X181905Y71684D02*
X182982Y70606D01*
X184419Y70427D01*
X182982Y70606D02*
X183162Y69169D01*
X182982Y70606D02*
X183611Y71953D01*
X182982Y70606D02*
X181635Y69978D01*
D13*
G36*
X183266Y83433D02*
X185033Y81666D01*
X183266Y79899D01*
X181499Y81666D01*
X183266Y83433D01*
G37*
D11*
X233475Y80664D02*
X234553Y81742D01*
X233475Y80664D02*
X233296Y79227D01*
X233475Y80664D02*
X232038Y80484D01*
X233475Y80664D02*
X234822Y80035D01*
X233475Y80664D02*
X232847Y82011D01*
D13*
G36*
X221367Y81666D02*
X223134Y83433D01*
X224901Y81666D01*
X223134Y79899D01*
X221367Y81666D01*
G37*
D11*
X285369Y134620D02*
X285369Y136144D01*
X285369Y134620D02*
X286258Y133477D01*
X285369Y134620D02*
X284480Y133477D01*
X285369Y134620D02*
X286766Y135128D01*
X285369Y134620D02*
X283972Y135128D01*
D12*
X293390Y142240D03*
D11*
X344551Y148844D02*
X344551Y150368D01*
X344551Y148844D02*
X345440Y147701D01*
X344551Y148844D02*
X343662Y147701D01*
X344551Y148844D02*
X345948Y149352D01*
X344551Y148844D02*
X343154Y149352D01*
D12*
X336530Y142240D03*
D11*
X308356Y131191D02*
X306832Y131191D01*
X308356Y131191D02*
X309499Y132080D01*
X308356Y131191D02*
X309499Y130302D01*
X308356Y131191D02*
X307848Y132588D01*
X308356Y131191D02*
X307848Y129794D01*
D12*
X314960Y123170D03*
D11*
X308356Y90551D02*
X306832Y90551D01*
X308356Y90551D02*
X309499Y91440D01*
X308356Y90551D02*
X309499Y89662D01*
X308356Y90551D02*
X307848Y91948D01*
X308356Y90551D02*
X307848Y89154D01*
D12*
X314960Y82530D03*
D11*
X285369Y93980D02*
X285369Y95504D01*
X285369Y93980D02*
X286258Y92837D01*
X285369Y93980D02*
X284480Y92837D01*
X285369Y93980D02*
X286766Y94488D01*
X285369Y93980D02*
X283972Y94488D01*
D12*
X293390Y101600D03*
D11*
X344551Y108204D02*
X344551Y109728D01*
X344551Y108204D02*
X345440Y107061D01*
X344551Y108204D02*
X343662Y107061D01*
X344551Y108204D02*
X345948Y108712D01*
X344551Y108204D02*
X343154Y108712D01*
D12*
X336530Y101600D03*
D11*
X344551Y69088D02*
X344551Y67564D01*
X345440Y66421D01*
X344551Y67564D02*
X343662Y66421D01*
X344551Y67564D02*
X345948Y68072D01*
X344551Y67564D02*
X343154Y68072D01*
D12*
X336530Y60960D03*
D11*
X285369Y54864D02*
X285369Y53340D01*
X286258Y52197D01*
X285369Y53340D02*
X284480Y52197D01*
X285369Y53340D02*
X286766Y53848D01*
X285369Y53340D02*
X283972Y53848D01*
D12*
X293390Y60960D03*
D11*
X281940Y72009D02*
X280416Y72009D01*
X281940Y72009D02*
X283083Y72898D01*
X281940Y72009D02*
X283083Y71120D01*
X281940Y72009D02*
X281432Y73406D01*
X281940Y72009D02*
X281432Y70612D01*
D12*
X274320Y80030D03*
D11*
X267716Y129921D02*
X266192Y129921D01*
X267716Y129921D02*
X268859Y130810D01*
X267716Y129921D02*
X268859Y129032D01*
X267716Y129921D02*
X267208Y131318D01*
X267716Y129921D02*
X267208Y128524D01*
D12*
X274320Y121900D03*
D11*
X347472Y129921D02*
X348996Y129921D01*
X350139Y130810D01*
X348996Y129921D02*
X350139Y129032D01*
X348996Y129921D02*
X348488Y131318D01*
X348996Y129921D02*
X348488Y128524D01*
D12*
X355600Y121900D03*
D11*
X361696Y72009D02*
X363220Y72009D01*
X364363Y72898D01*
X363220Y72009D02*
X364363Y71120D01*
X363220Y72009D02*
X362712Y73406D01*
X363220Y72009D02*
X362712Y70612D01*
D12*
X355600Y80030D03*
D11*
X285044Y122895D02*
X283966Y121817D01*
X283787Y120381D01*
X283966Y121817D02*
X282529Y121638D01*
X283966Y121817D02*
X285313Y121189D01*
X283966Y121817D02*
X283338Y123164D01*
D13*
G36*
X296793Y121534D02*
X295026Y119767D01*
X293259Y121534D01*
X295026Y123301D01*
X296793Y121534D01*
G37*
D11*
X334818Y132953D02*
X335896Y131875D01*
X337333Y131696D01*
X335896Y131875D02*
X336075Y130438D01*
X335896Y131875D02*
X336524Y133222D01*
X335896Y131875D02*
X334549Y131247D01*
D13*
G36*
X334894Y119767D02*
X333127Y121534D01*
X334894Y123301D01*
X336661Y121534D01*
X334894Y119767D01*
G37*
D11*
X293665Y71684D02*
X294742Y70606D01*
X296179Y70427D01*
X294742Y70606D02*
X294922Y69169D01*
X294742Y70606D02*
X295371Y71953D01*
X294742Y70606D02*
X293395Y69978D01*
D13*
G36*
X295026Y83433D02*
X296793Y81666D01*
X295026Y79899D01*
X293259Y81666D01*
X295026Y83433D01*
G37*
D11*
X345235Y80664D02*
X346313Y81742D01*
X345235Y80664D02*
X345056Y79227D01*
X345235Y80664D02*
X343798Y80484D01*
X345235Y80664D02*
X346582Y80035D01*
X345235Y80664D02*
X344607Y82011D01*
D13*
G36*
X333127Y81666D02*
X334894Y83433D01*
X336661Y81666D01*
X334894Y79899D01*
X333127Y81666D01*
G37*
D11*
X397129Y134620D02*
X397129Y136144D01*
X397129Y134620D02*
X398018Y133477D01*
X397129Y134620D02*
X396240Y133477D01*
X397129Y134620D02*
X398526Y135128D01*
X397129Y134620D02*
X395732Y135128D01*
D12*
X405150Y142240D03*
D11*
X456311Y148844D02*
X456311Y150368D01*
X456311Y148844D02*
X457200Y147701D01*
X456311Y148844D02*
X455422Y147701D01*
X456311Y148844D02*
X457708Y149352D01*
X456311Y148844D02*
X454914Y149352D01*
D12*
X448290Y142240D03*
D11*
X420116Y131191D02*
X418592Y131191D01*
X420116Y131191D02*
X421259Y132080D01*
X420116Y131191D02*
X421259Y130302D01*
X420116Y131191D02*
X419608Y132588D01*
X420116Y131191D02*
X419608Y129794D01*
D12*
X426720Y123170D03*
D11*
X420116Y90551D02*
X418592Y90551D01*
X420116Y90551D02*
X421259Y91440D01*
X420116Y90551D02*
X421259Y89662D01*
X420116Y90551D02*
X419608Y91948D01*
X420116Y90551D02*
X419608Y89154D01*
D12*
X426720Y82530D03*
D11*
X397129Y93980D02*
X397129Y95504D01*
X397129Y93980D02*
X398018Y92837D01*
X397129Y93980D02*
X396240Y92837D01*
X397129Y93980D02*
X398526Y94488D01*
X397129Y93980D02*
X395732Y94488D01*
D12*
X405150Y101600D03*
D11*
X456311Y108204D02*
X456311Y109728D01*
X456311Y108204D02*
X457200Y107061D01*
X456311Y108204D02*
X455422Y107061D01*
X456311Y108204D02*
X457708Y108712D01*
X456311Y108204D02*
X454914Y108712D01*
D12*
X448290Y101600D03*
D11*
X456311Y69088D02*
X456311Y67564D01*
X457200Y66421D01*
X456311Y67564D02*
X455422Y66421D01*
X456311Y67564D02*
X457708Y68072D01*
X456311Y67564D02*
X454914Y68072D01*
D12*
X448290Y60960D03*
D11*
X397129Y54864D02*
X397129Y53340D01*
X398018Y52197D01*
X397129Y53340D02*
X396240Y52197D01*
X397129Y53340D02*
X398526Y53848D01*
X397129Y53340D02*
X395732Y53848D01*
D12*
X405150Y60960D03*
D11*
X393700Y72009D02*
X392176Y72009D01*
X393700Y72009D02*
X394843Y72898D01*
X393700Y72009D02*
X394843Y71120D01*
X393700Y72009D02*
X393192Y73406D01*
X393700Y72009D02*
X393192Y70612D01*
D12*
X386080Y80030D03*
D11*
X379476Y129921D02*
X377952Y129921D01*
X379476Y129921D02*
X380619Y130810D01*
X379476Y129921D02*
X380619Y129032D01*
X379476Y129921D02*
X378968Y131318D01*
X379476Y129921D02*
X378968Y128524D01*
D12*
X386080Y121900D03*
D11*
X459232Y129921D02*
X460756Y129921D01*
X461899Y130810D01*
X460756Y129921D02*
X461899Y129032D01*
X460756Y129921D02*
X460248Y131318D01*
X460756Y129921D02*
X460248Y128524D01*
D12*
X467360Y121900D03*
D11*
X473456Y72009D02*
X474980Y72009D01*
X476123Y72898D01*
X474980Y72009D02*
X476123Y71120D01*
X474980Y72009D02*
X474472Y73406D01*
X474980Y72009D02*
X474472Y70612D01*
D12*
X467360Y80030D03*
D11*
X396804Y122895D02*
X395726Y121817D01*
X395547Y120381D01*
X395726Y121817D02*
X394289Y121638D01*
X395726Y121817D02*
X397073Y121189D01*
X395726Y121817D02*
X395098Y123164D01*
D13*
G36*
X408553Y121534D02*
X406786Y119767D01*
X405019Y121534D01*
X406786Y123301D01*
X408553Y121534D01*
G37*
D11*
X446578Y132953D02*
X447656Y131875D01*
X449093Y131696D01*
X447656Y131875D02*
X447835Y130438D01*
X447656Y131875D02*
X448284Y133222D01*
X447656Y131875D02*
X446309Y131247D01*
D13*
G36*
X446654Y119767D02*
X444887Y121534D01*
X446654Y123301D01*
X448421Y121534D01*
X446654Y119767D01*
G37*
D11*
X405425Y71684D02*
X406502Y70606D01*
X407939Y70427D01*
X406502Y70606D02*
X406682Y69169D01*
X406502Y70606D02*
X407131Y71953D01*
X406502Y70606D02*
X405155Y69978D01*
D13*
G36*
X406786Y83433D02*
X408553Y81666D01*
X406786Y79899D01*
X405019Y81666D01*
X406786Y83433D01*
G37*
D11*
X456995Y80664D02*
X458073Y81742D01*
X456995Y80664D02*
X456816Y79227D01*
X456995Y80664D02*
X455558Y80484D01*
X456995Y80664D02*
X458342Y80035D01*
X456995Y80664D02*
X456367Y82011D01*
D13*
G36*
X444887Y81666D02*
X446654Y83433D01*
X448421Y81666D01*
X446654Y79899D01*
X444887Y81666D01*
G37*
D11*
X13716Y131191D02*
X12192Y131191D01*
X13716Y131191D02*
X14859Y132080D01*
X13716Y131191D02*
X14859Y130302D01*
X13716Y131191D02*
X13208Y132588D01*
X13716Y131191D02*
X13208Y129794D01*
D12*
X20320Y123170D03*
D11*
X13716Y90551D02*
X12192Y90551D01*
X13716Y90551D02*
X14859Y91440D01*
X13716Y90551D02*
X14859Y89662D01*
X13716Y90551D02*
X13208Y91948D01*
X13716Y90551D02*
X13208Y89154D01*
D12*
X20320Y82530D03*
M02*
