G04 EAGLE Gerber RS-274X export*
G75*
%MOMM*%
%FSLAX34Y34*%
%LPD*%
%INSolder Mask top*%
%IPPOS*%
%AMOC8*
5,1,8,0,0,1.08239X$1,22.5*%
G01*
%ADD10C,0.000000*%
%ADD11R,0.952400X0.952400*%
%ADD12R,0.952400X0.952400*%
%ADD13C,1.676400*%


D10*
X0Y0D02*
X492000Y0D01*
X492000Y203200D01*
X0Y203200D01*
X0Y0D01*
D11*
X63620Y142240D03*
X78620Y142240D03*
X50800Y129420D03*
X50800Y114420D03*
X132080Y129420D03*
X132080Y114420D03*
X132080Y73780D03*
X132080Y88780D03*
D12*
G36*
X73821Y125953D02*
X67087Y119219D01*
X60353Y125953D01*
X67087Y132687D01*
X73821Y125953D01*
G37*
G36*
X84427Y115347D02*
X77693Y108613D01*
X70959Y115347D01*
X77693Y122081D01*
X84427Y115347D01*
G37*
G36*
X115793Y119219D02*
X109059Y125953D01*
X115793Y132687D01*
X122527Y125953D01*
X115793Y119219D01*
G37*
G36*
X105187Y108613D02*
X98453Y115347D01*
X105187Y122081D01*
X111921Y115347D01*
X105187Y108613D01*
G37*
G36*
X67087Y83981D02*
X73821Y77247D01*
X67087Y70513D01*
X60353Y77247D01*
X67087Y83981D01*
G37*
G36*
X77693Y94587D02*
X84427Y87853D01*
X77693Y81119D01*
X70959Y87853D01*
X77693Y94587D01*
G37*
G36*
X109059Y77247D02*
X115793Y83981D01*
X122527Y77247D01*
X115793Y70513D01*
X109059Y77247D01*
G37*
G36*
X98453Y87853D02*
X105187Y94587D01*
X111921Y87853D01*
X105187Y81119D01*
X98453Y87853D01*
G37*
D11*
X119260Y142240D03*
X104260Y142240D03*
X91440Y129420D03*
X91440Y114420D03*
X91440Y73780D03*
X91440Y88780D03*
X63620Y101600D03*
X78620Y101600D03*
X119260Y101600D03*
X104260Y101600D03*
X119260Y60960D03*
X104260Y60960D03*
X63620Y60960D03*
X78620Y60960D03*
X50800Y73780D03*
X50800Y88780D03*
D13*
X101600Y170180D02*
X101600Y185420D01*
X127000Y185420D02*
X127000Y170180D01*
X152400Y170180D02*
X152400Y185420D01*
X177800Y185420D02*
X177800Y170180D01*
X203200Y170180D02*
X203200Y185420D01*
X228600Y185420D02*
X228600Y170180D01*
X254000Y170180D02*
X254000Y185420D01*
X279400Y185420D02*
X279400Y170180D01*
X304800Y170180D02*
X304800Y185420D01*
X330200Y185420D02*
X330200Y170180D01*
X355600Y170180D02*
X355600Y185420D01*
X381000Y185420D02*
X381000Y170180D01*
X101600Y33020D02*
X101600Y17780D01*
X127000Y17780D02*
X127000Y33020D01*
X152400Y33020D02*
X152400Y17780D01*
X177800Y17780D02*
X177800Y33020D01*
X203200Y33020D02*
X203200Y17780D01*
X228600Y17780D02*
X228600Y33020D01*
X254000Y33020D02*
X254000Y17780D01*
X279400Y17780D02*
X279400Y33020D01*
X304800Y33020D02*
X304800Y17780D01*
X330200Y17780D02*
X330200Y33020D01*
X355600Y33020D02*
X355600Y17780D01*
X381000Y17780D02*
X381000Y33020D01*
D11*
X175380Y142240D03*
X190380Y142240D03*
X231020Y142240D03*
X216020Y142240D03*
X203200Y129420D03*
X203200Y114420D03*
X203200Y72510D03*
X203200Y87510D03*
X175380Y101600D03*
X190380Y101600D03*
X231020Y101600D03*
X216020Y101600D03*
X231020Y60960D03*
X216020Y60960D03*
X175380Y60960D03*
X190380Y60960D03*
X162560Y73780D03*
X162560Y88780D03*
X162560Y129420D03*
X162560Y114420D03*
X243840Y128150D03*
X243840Y113150D03*
X243840Y73780D03*
X243840Y88780D03*
D12*
G36*
X185581Y125953D02*
X178847Y119219D01*
X172113Y125953D01*
X178847Y132687D01*
X185581Y125953D01*
G37*
G36*
X196187Y115347D02*
X189453Y108613D01*
X182719Y115347D01*
X189453Y122081D01*
X196187Y115347D01*
G37*
G36*
X227553Y119219D02*
X220819Y125953D01*
X227553Y132687D01*
X234287Y125953D01*
X227553Y119219D01*
G37*
G36*
X216947Y108613D02*
X210213Y115347D01*
X216947Y122081D01*
X223681Y115347D01*
X216947Y108613D01*
G37*
G36*
X178847Y83981D02*
X185581Y77247D01*
X178847Y70513D01*
X172113Y77247D01*
X178847Y83981D01*
G37*
G36*
X189453Y94587D02*
X196187Y87853D01*
X189453Y81119D01*
X182719Y87853D01*
X189453Y94587D01*
G37*
G36*
X220819Y77247D02*
X227553Y83981D01*
X234287Y77247D01*
X227553Y70513D01*
X220819Y77247D01*
G37*
G36*
X210213Y87853D02*
X216947Y94587D01*
X223681Y87853D01*
X216947Y81119D01*
X210213Y87853D01*
G37*
D11*
X287140Y142240D03*
X302140Y142240D03*
X342780Y142240D03*
X327780Y142240D03*
X314960Y129420D03*
X314960Y114420D03*
X314960Y88780D03*
X314960Y73780D03*
X287140Y101600D03*
X302140Y101600D03*
X342780Y101600D03*
X327780Y101600D03*
X342780Y60960D03*
X327780Y60960D03*
X287140Y60960D03*
X302140Y60960D03*
X274320Y73780D03*
X274320Y88780D03*
X274320Y128150D03*
X274320Y113150D03*
X355600Y128150D03*
X355600Y113150D03*
X355600Y73780D03*
X355600Y88780D03*
D12*
G36*
X297341Y125953D02*
X290607Y119219D01*
X283873Y125953D01*
X290607Y132687D01*
X297341Y125953D01*
G37*
G36*
X307947Y115347D02*
X301213Y108613D01*
X294479Y115347D01*
X301213Y122081D01*
X307947Y115347D01*
G37*
G36*
X339313Y119219D02*
X332579Y125953D01*
X339313Y132687D01*
X346047Y125953D01*
X339313Y119219D01*
G37*
G36*
X328707Y108613D02*
X321973Y115347D01*
X328707Y122081D01*
X335441Y115347D01*
X328707Y108613D01*
G37*
G36*
X290607Y83981D02*
X297341Y77247D01*
X290607Y70513D01*
X283873Y77247D01*
X290607Y83981D01*
G37*
G36*
X301213Y94587D02*
X307947Y87853D01*
X301213Y81119D01*
X294479Y87853D01*
X301213Y94587D01*
G37*
G36*
X332579Y77247D02*
X339313Y83981D01*
X346047Y77247D01*
X339313Y70513D01*
X332579Y77247D01*
G37*
G36*
X321973Y87853D02*
X328707Y94587D01*
X335441Y87853D01*
X328707Y81119D01*
X321973Y87853D01*
G37*
D11*
X398900Y142240D03*
X413900Y142240D03*
X454540Y142240D03*
X439540Y142240D03*
X426720Y129420D03*
X426720Y114420D03*
X426720Y88780D03*
X426720Y73780D03*
X398900Y101600D03*
X413900Y101600D03*
X454540Y101600D03*
X439540Y101600D03*
X454540Y60960D03*
X439540Y60960D03*
X398900Y60960D03*
X413900Y60960D03*
X386080Y73780D03*
X386080Y88780D03*
X386080Y128150D03*
X386080Y113150D03*
X467360Y128150D03*
X467360Y113150D03*
X467360Y73780D03*
X467360Y88780D03*
D12*
G36*
X409101Y125953D02*
X402367Y119219D01*
X395633Y125953D01*
X402367Y132687D01*
X409101Y125953D01*
G37*
G36*
X419707Y115347D02*
X412973Y108613D01*
X406239Y115347D01*
X412973Y122081D01*
X419707Y115347D01*
G37*
G36*
X451073Y119219D02*
X444339Y125953D01*
X451073Y132687D01*
X457807Y125953D01*
X451073Y119219D01*
G37*
G36*
X440467Y108613D02*
X433733Y115347D01*
X440467Y122081D01*
X447201Y115347D01*
X440467Y108613D01*
G37*
G36*
X402367Y83981D02*
X409101Y77247D01*
X402367Y70513D01*
X395633Y77247D01*
X402367Y83981D01*
G37*
G36*
X412973Y94587D02*
X419707Y87853D01*
X412973Y81119D01*
X406239Y87853D01*
X412973Y94587D01*
G37*
G36*
X444339Y77247D02*
X451073Y83981D01*
X457807Y77247D01*
X451073Y70513D01*
X444339Y77247D01*
G37*
G36*
X433733Y87853D02*
X440467Y94587D01*
X447201Y87853D01*
X440467Y81119D01*
X433733Y87853D01*
G37*
D11*
X20320Y129420D03*
X20320Y114420D03*
X20320Y88780D03*
X20320Y73780D03*
M02*
