G04 EAGLE Gerber RS-274X export*
G75*
%MOMM*%
%FSLAX34Y34*%
%LPD*%
%INSolder Mask bottom*%
%IPPOS*%
%AMOC8*
5,1,8,0,0,1.08239X$1,22.5*%
G01*
%ADD10C,0.000000*%
%ADD11C,1.676400*%


D10*
X0Y0D02*
X492000Y0D01*
X492000Y203200D01*
X0Y203200D01*
X0Y0D01*
D11*
X101600Y170180D02*
X101600Y185420D01*
X127000Y185420D02*
X127000Y170180D01*
X152400Y170180D02*
X152400Y185420D01*
X177800Y185420D02*
X177800Y170180D01*
X203200Y170180D02*
X203200Y185420D01*
X228600Y185420D02*
X228600Y170180D01*
X254000Y170180D02*
X254000Y185420D01*
X279400Y185420D02*
X279400Y170180D01*
X304800Y170180D02*
X304800Y185420D01*
X330200Y185420D02*
X330200Y170180D01*
X355600Y170180D02*
X355600Y185420D01*
X381000Y185420D02*
X381000Y170180D01*
X101600Y33020D02*
X101600Y17780D01*
X127000Y17780D02*
X127000Y33020D01*
X152400Y33020D02*
X152400Y17780D01*
X177800Y17780D02*
X177800Y33020D01*
X203200Y33020D02*
X203200Y17780D01*
X228600Y17780D02*
X228600Y33020D01*
X254000Y33020D02*
X254000Y17780D01*
X279400Y17780D02*
X279400Y33020D01*
X304800Y33020D02*
X304800Y17780D01*
X330200Y17780D02*
X330200Y33020D01*
X355600Y33020D02*
X355600Y17780D01*
X381000Y17780D02*
X381000Y33020D01*
M02*
