G04 EAGLE Gerber RS-274X export*
G75*
%MOMM*%
%FSLAX34Y34*%
%LPD*%
%INLayer 2*%
%IPPOS*%
%AMOC8*
5,1,8,0,0,1.08239X$1,22.5*%
G01*
%ADD10C,0.000000*%
%ADD11C,1.524000*%
%ADD12C,0.127000*%
%ADD13C,0.403200*%


D10*
X0Y0D02*
X492000Y0D01*
X492000Y203200D01*
X0Y203200D01*
X0Y0D01*
D11*
X101600Y177800D03*
X127000Y177800D03*
X152400Y177800D03*
X177800Y177800D03*
X203200Y177800D03*
X228600Y177800D03*
X254000Y177800D03*
X279400Y177800D03*
X304800Y177800D03*
X330200Y177800D03*
X355600Y177800D03*
X381000Y177800D03*
X101600Y25400D03*
X127000Y25400D03*
X152400Y25400D03*
X177800Y25400D03*
X203200Y25400D03*
X228600Y25400D03*
X254000Y25400D03*
X279400Y25400D03*
X304800Y25400D03*
X330200Y25400D03*
X355600Y25400D03*
X381000Y25400D03*
D12*
X422057Y143220D02*
X321929Y143220D01*
X310522Y154627D01*
X283906Y154627D01*
X272499Y143220D01*
D13*
X55767Y145755D03*
X70977Y144488D03*
X159697Y136883D03*
X272499Y143220D03*
X422057Y143220D03*
X347278Y121674D03*
X111535Y83651D03*
X195185Y120407D03*
X318127Y102662D03*
X418254Y125476D03*
D12*
X125476Y110267D02*
X98860Y110267D01*
X125476Y110267D02*
X126744Y111535D01*
X176174Y111535D01*
X179976Y107732D01*
X183778Y107732D01*
D13*
X98860Y110267D03*
X183778Y107732D03*
X323197Y125476D03*
X382766Y135616D03*
D12*
X272499Y112802D02*
X181244Y112802D01*
X272499Y112802D02*
X309255Y149558D01*
D13*
X101395Y122941D03*
X181244Y112802D03*
X309255Y149558D03*
X400510Y115337D03*
D12*
X177441Y115337D02*
X68442Y115337D01*
X177441Y115337D02*
X211662Y149558D01*
X272499Y149558D01*
D13*
X272499Y149558D03*
X371359Y112802D03*
X68442Y115337D03*
X128011Y106465D03*
X96325Y102662D03*
X179976Y88721D03*
X290243Y92523D03*
X405580Y95058D03*
D12*
X193918Y93790D02*
X115337Y93790D01*
X101395Y79849D01*
X101395Y78581D01*
X209127Y107732D02*
X334604Y107732D01*
X209127Y107732D02*
X195185Y93790D01*
X193918Y93790D01*
X437266Y109000D02*
X444871Y109000D01*
X437266Y109000D02*
X435999Y107732D01*
X334604Y107732D01*
D13*
X101395Y78581D03*
X193918Y93790D03*
X334604Y107732D03*
X444871Y109000D03*
D12*
X456278Y89988D02*
X339673Y89988D01*
X334604Y95058D01*
D13*
X171104Y134348D03*
X201523Y106465D03*
X334604Y95058D03*
X456278Y89988D03*
D12*
X209127Y79849D02*
X155895Y26616D01*
X153360Y26616D01*
X152400Y25400D01*
D13*
X107732Y79849D03*
X209127Y79849D03*
X306720Y93790D03*
X422057Y81116D03*
D12*
X363755Y54500D02*
X244615Y54500D01*
X239546Y59570D01*
X92523Y81116D02*
X86186Y81116D01*
X92523Y81116D02*
X101395Y72244D01*
X195185Y72244D01*
X202790Y79849D01*
D13*
X202790Y79849D03*
X224336Y54500D03*
X239546Y59570D03*
X363755Y54500D03*
X86186Y81116D03*
D12*
X196453Y84918D02*
X224336Y84918D01*
X196453Y84918D02*
X188848Y77314D01*
X224336Y84918D02*
X405580Y84918D01*
D13*
X96325Y96325D03*
X188848Y77314D03*
X224336Y84918D03*
X405580Y84918D03*
D12*
X68442Y89988D02*
X68442Y98860D01*
X57035Y110267D01*
X114069Y167302D01*
X243348Y167302D01*
X253488Y177441D01*
X254000Y177800D01*
D13*
X68442Y89988D03*
X124209Y87453D03*
X262360Y136883D03*
X371359Y95058D03*
D12*
X126744Y65907D02*
X93790Y65907D01*
D13*
X93790Y65907D03*
X126744Y65907D03*
X259825Y77314D03*
X93790Y59570D03*
X144488Y60837D03*
X294046Y67174D03*
X414452Y68442D03*
X278836Y96325D03*
X166034Y7605D03*
M02*
