M48
;GenerationSoftware,Autodesk,EAGLE,9.6.2*%
;CreationDate,2021-05-15T16:37:27Z*%
FMAT,2
ICI,OFF
METRIC,TZ,000.000
T2C0.200
T1C1.016
%
G90
M71
T1
X12700Y2540
X10160Y17780
X12700Y17780
X15240Y17780
X17780Y17780
X20320Y17780
X22860Y17780
X25400Y17780
X27940Y17780
X30480Y17780
X33020Y17780
X35560Y17780
X38100Y17780
X10160Y2540
X15240Y2540
X17780Y2540
X20320Y2540
X22860Y2540
X25400Y2540
X27940Y2540
X30480Y2540
X33020Y2540
X35560Y2540
X38100Y2540
T2
X29024Y9252
X40558Y9506
X10140Y7858
X19392Y9379
X33460Y10773
X44487Y10900
X17110Y13435
X20152Y10646
X33460Y9506
X45628Y8999
X10773Y7985
X20913Y7985
X30672Y9379
X42206Y8112
X20279Y7985
X22434Y5450
X23955Y5957
X36375Y5450
X9886Y11027
X9633Y9633
X18885Y7731
X22434Y8492
X40558Y8492
X6844Y8999
X12421Y8745
X26236Y13688
X37136Y9506
X9379Y6591
X12674Y6591
X25982Y7731
X9379Y5957
X14449Y6084
X29405Y6717
X41445Y6844
X27884Y9633
X16603Y760
X5577Y14576
X7098Y14449
X15970Y13688
X27250Y14322
X42206Y14322
X34728Y12167
X11153Y8365
X19519Y12041
X31813Y10266
X41825Y12548
X18378Y10773
X32320Y12548
X38277Y13562
X8619Y8112
X10140Y12294
X18124Y11280
X30925Y14956
X40051Y11534
X27250Y14956
X37136Y11280
X6844Y11534
X12801Y10646
X9633Y10266
X17998Y8872
M30