<?xml version="1.0" encoding="UTF-8"?>
<svg xmlns="http://www.w3.org/2000/svg" width="150.337mm" height="67.973mm" viewBox="0.000000 -67.973114 150.336517 67.973114">
    <rect transform="matrix(1,0,0,-1,5,-2.4)" style="stroke:#000000;stroke-width:0.05mm;fill:none" x="-5" y="-2.4" width="10" height="4.8"/>
    <rect transform="matrix(1,0,0,-1,14.4,-2.4)" style="stroke:#000000;stroke-width:0.05mm;fill:none" x="-3.400001" y="-2.4" width="6.800001" height="4.8"/>
    <rect transform="matrix(1,0,0,-1,25,-2.4)" style="stroke:#000000;stroke-width:0.05mm;fill:none" x="-5" y="-2.4" width="10" height="4.8"/>
    <rect transform="matrix(1,0,0,-1,34.400002,-2.4)" style="stroke:#000000;stroke-width:0.05mm;fill:none" x="-3.400001" y="-2.4" width="6.800001" height="4.8"/>
    <rect transform="matrix(1,0,0,-1,5,-8.4)" style="stroke:#000000;stroke-width:0.05mm;fill:none" x="-5" y="-2.4" width="10" height="4.8"/>
    <rect transform="matrix(1,0,0,-1,14.4,-8.4)" style="stroke:#000000;stroke-width:0.05mm;fill:none" x="-3.400001" y="-2.4" width="6.800001" height="4.8"/>
    <rect transform="matrix(1,0,0,-1,25,-8.4)" style="stroke:#000000;stroke-width:0.05mm;fill:none" x="-5" y="-2.4" width="10" height="4.8"/>
    <rect transform="matrix(1,0,0,-1,34.400002,-8.4)" style="stroke:#000000;stroke-width:0.05mm;fill:none" x="-3.400001" y="-2.4" width="6.800001" height="4.8"/>
    <rect transform="matrix(1,0,0,-1,47,-6.2)" style="stroke:#000000;stroke-width:0.05mm;fill:none" x="-2" y="-6.2" width="4" height="12.4"/>
    <rect transform="matrix(1,0,0,-1,42,-6.2)" style="stroke:#000000;stroke-width:0.05mm;fill:none" x="-2" y="-6.2" width="4" height="12.4"/>
    <rect transform="matrix(1,0,0,-1,14,-18)" style="stroke:#000000;stroke-width:0.05mm;fill:none" x="-4" y="-6.2" width="8" height="12.4"/>
    <rect transform="matrix(1,0,0,-1,4,-18)" style="stroke:#000000;stroke-width:0.05mm;fill:none" x="-4" y="-6.2" width="8" height="12.4"/>
    <rect transform="matrix(1,0,0,-1,34,-18)" style="stroke:#000000;stroke-width:0.05mm;fill:none" x="-4" y="-6.2" width="8" height="12.4"/>
    <rect transform="matrix(1,0,0,-1,24,-18)" style="stroke:#000000;stroke-width:0.05mm;fill:none" x="-4" y="-6.2" width="8" height="12.4"/>
    <rect transform="matrix(1,0,0,-1,57,-6.2)" style="stroke:#000000;stroke-width:0.05mm;fill:none" x="-2" y="-6.2" width="4" height="12.4"/>
    <rect transform="matrix(1,0,0,-1,52,-6.2)" style="stroke:#000000;stroke-width:0.05mm;fill:none" x="-2" y="-6.2" width="4" height="12.4"/>
    <path transform="matrix(1,0,0,-1,76.6959,-30.4028)" style="stroke:#500a78;stroke-width:0.05mm;fill:none" d="M14.589844,30.972656C15.171221,31.01091,15.67621,31.387356,15.878906,31.933594C16.11208,32.604008,16.186951,33.319271,16.097656,34.023438C16.084175,34.5345,15.905994,35.027924,15.589844,35.429688C15.269192,35.750004,14.827574,35.918976,14.375,35.894531C13.993223,35.914829,13.615564,35.804565,13.304688,35.582031C13.136666,35.423168,12.993118,35.24012,12.878906,35.039063C12.904186,35.882648,12.909397,36.726509,12.894531,37.570313L12.105469,37.570313L12.105469,32.03125C12.111044,31.70418,12.101921,31.377037,12.078125,31.050781L12.84375,31.050781C12.865379,31.296583,12.883614,31.542765,12.898438,31.789063C13.119953,31.310621,13.590448,30.995451,14.117188,30.972656C14.274345,30.956896,14.432685,30.956898,14.589844,30.972656M5.890625,37.570313L5.101563,37.570313L5.101563,36.816406L5.890625,36.816406L5.890625,37.570313M-42.191406,30.96875C-41.627808,30.966993,-41.075443,31.1285,-40.601563,31.433594C-40.11861,31.765779,-39.862133,32.340576,-39.9375,32.921875C-39.959354,33.416489,-40.241867,33.862595,-40.679688,34.09375C-41.002583,34.269623,-41.348316,34.399765,-41.707031,34.480469C-42.258015,34.586372,-42.802032,34.725964,-43.335938,34.898438C-43.619686,34.98122,-43.851048,35.188141,-43.964844,35.460938C-44.088669,35.834354,-43.944069,36.244076,-43.613281,36.457031C-43.161751,36.674419,-42.656792,36.754505,-42.160156,36.6875C-41.825706,36.678864,-41.503201,36.560856,-41.242188,36.351563C-41.074532,36.193256,-40.956524,35.989754,-40.902344,35.765625L-40.074219,35.910156C-40.23238,36.620289,-40.817951,37.157459,-41.539063,37.253906C-42.318005,37.412102,-43.124939,37.356781,-43.875,37.09375C-44.622219,36.795967,-45.007889,35.966343,-44.753906,35.203125C-44.627094,34.804817,-44.333389,34.481152,-43.949219,34.316406C-43.405167,34.080681,-42.834595,33.91148,-42.25,33.8125C-41.871689,33.754513,-41.505802,33.632984,-41.167969,33.453125C-40.831287,33.246735,-40.675652,32.839207,-40.789063,32.460938C-40.844166,32.223679,-40.993771,32.019032,-41.203125,31.894531C-41.587849,31.689037,-42.02153,31.593117,-42.457031,31.617188C-42.886627,31.597296,-43.314175,31.687355,-43.699219,31.878906C-44.006222,32.054695,-44.223675,32.353104,-44.296875,32.699219L-45.109375,32.535156C-44.9599,31.830992,-44.415974,31.27639,-43.714844,31.113281C-43.218437,30.981728,-42.703697,30.932888,-42.191406,30.96875M-8.167969,30.984375C-7.967275,30.999199,-7.768428,31.033211,-7.574219,31.085938L-7.574219,31.671875C-7.798582,31.603914,-8.036596,31.594498,-8.265625,31.644531C-8.433495,31.717161,-8.536884,31.887899,-8.523438,32.070313L-8.53125,32.226563L-8.53125,35.230469L-7.652344,35.230469L-7.652344,35.804688L-8.53125,35.804688L-8.53125,36.867188L-9.058594,36.867188L-9.292969,35.804688L-9.871094,35.804688L-9.871094,35.230469L-9.320313,35.230469L-9.320313,32.058594C-9.343292,31.76894,-9.258412,31.480906,-9.082031,31.25C-8.897063,31.058741,-8.636368,30.959909,-8.371094,30.980469L-8.167969,30.984375M8.335938,30.984375C8.536632,30.999199,8.735478,31.033211,8.929688,31.085938L8.929688,31.671875C8.705325,31.60391,8.467311,31.594501,8.238281,31.644531C8.070424,31.717171,7.967065,31.887903,7.980469,32.070313L7.972656,32.226563L7.972656,35.230469L8.851563,35.230469L8.851563,35.804688L7.972656,35.804688L7.972656,36.867188L7.445313,36.867188L7.210938,35.804688L6.632813,35.804688L6.632813,35.230469L7.183594,35.230469L7.183594,32.058594C7.160614,31.76894,7.245494,31.480906,7.421875,31.25C7.606843,31.058741,7.867538,30.959909,8.132813,30.980469L8.335938,30.984375M23.34375,30.984375C23.54578,30.998783,23.74596,31.032797,23.941406,31.085938L23.941406,31.671875C23.717058,31.603815,23.479027,31.594416,23.25,31.644531C23.081444,31.716511,22.977846,31.887592,22.992188,32.070313L22.984375,32.226563L22.984375,35.230469L23.863281,35.230469L23.863281,35.804688L22.984375,35.804688L22.984375,36.867188L22.457031,36.867188L22.222656,35.804688L21.644531,35.804688L21.644531,35.230469L22.195313,35.230469L22.195313,32.058594C22.173107,31.769588,22.256369,31.48233,22.429688,31.25C22.615757,31.057968,22.877996,30.959085,23.144531,30.980469L23.34375,30.984375M19.402344,30.980469C19.805325,31.00474,20.191116,31.151972,20.507813,31.402344C20.719608,31.587553,20.88199,31.822382,20.980469,32.085938L20.285156,32.285156C20.122259,31.869654,19.730907,31.588369,19.285156,31.566406C18.919682,31.499453,18.542336,31.585674,18.242188,31.804688C17.900021,32.132465,17.711536,32.588799,17.722656,33.0625L17.714844,33.261719L21.109375,33.261719C21.142281,33.825623,21.040497,34.389446,20.8125,34.90625C20.518011,35.493599,19.922533,35.869526,19.265625,35.882813C18.733177,35.953415,18.192722,35.831474,17.742188,35.539063C17.263292,35.169937,16.963633,34.614635,16.917969,34.011719C16.826258,33.385017,16.889307,32.74519,17.101563,32.148438C17.370684,31.450298,18.037043,30.984932,18.785156,30.972656C18.990635,30.954729,19.19739,30.957348,19.402344,30.980469M-4.769531,30.972656C-3.850404,30.988802,-3.079606,31.674877,-2.957031,32.585938C-2.814838,33.306095,-2.856476,34.050205,-3.078125,34.75C-3.296633,35.358746,-3.844971,35.788609,-4.488281,35.855469C-5.040307,35.959724,-5.611438,35.888676,-6.121094,35.652344C-6.630064,35.361336,-6.975025,34.850384,-7.054688,34.269531C-7.194698,33.564194,-7.148934,32.834656,-6.921875,32.152344C-6.668098,31.459013,-6.015436,30.990829,-5.277344,30.972656C-5.108433,30.957031,-4.938441,30.957031,-4.769531,30.972656M-18.589844,33.527344C-18.613207,33.948444,-18.522804,34.368061,-18.328125,34.742188C-18.178028,35.013664,-17.888163,35.178204,-17.578125,35.167969C-17.436289,35.17054,-17.294659,35.156105,-17.15625,35.125L-17.15625,35.847656C-17.504105,35.95491,-17.881937,35.888062,-18.171875,35.667969C-18.382488,35.43042,-18.531406,35.14465,-18.605469,34.835938L-18.625,34.835938C-18.630613,35.159004,-18.642336,35.482059,-18.660156,35.804688L-19.40625,35.804688C-19.390148,35.436432,-19.381031,35.067818,-19.378906,34.699219L-19.378906,31.050781L-18.589844,31.050781L-18.589844,33.527344M41.929688,33.804688C41.906147,34.194801,42.024021,34.580395,42.261719,34.890625C42.534336,35.193394,42.941383,35.337414,43.34375,35.273438C43.714809,35.289513,44.038296,35.020161,44.089844,34.652344C44.127789,34.459431,44.144817,34.262974,44.140625,34.066406L44.140625,31.050781L44.9375,31.050781L44.9375,34.21875C44.954456,34.582691,44.884834,34.945526,44.734375,35.277344C44.541706,35.621479,44.18668,35.843929,43.792969,35.867188C43.366428,35.941628,42.927536,35.878727,42.539063,35.6875C42.270306,35.516964,42.052929,35.276669,41.910156,34.992188L41.894531,34.992188C41.889881,35.263287,41.878159,35.534199,41.859375,35.804688L41.113281,35.804688C41.133652,35.533047,41.142773,35.260689,41.140625,34.988281L41.140625,31.050781L41.929688,31.050781L41.929688,33.804688M-22.109375,30.980469C-21.706392,31.004738,-21.320601,31.151968,-21.003906,31.402344C-20.792097,31.587538,-20.629734,31.822384,-20.53125,32.085938L-21.222656,32.285156C-21.387667,31.871262,-21.777754,31.590887,-22.222656,31.566406C-22.589354,31.499121,-22.968082,31.585314,-23.269531,31.804688C-23.571222,32.081627,-23.752201,32.466022,-23.773438,32.875C-23.786909,33.003502,-23.794729,33.132526,-23.796875,33.261719L-20.402344,33.261719C-20.369427,33.825623,-20.47121,34.38945,-20.699219,34.90625C-20.993494,35.493835,-21.589066,35.869846,-22.246094,35.882813C-22.778507,35.953098,-23.318888,35.831169,-23.769531,35.539063C-24.181828,35.229435,-24.459913,34.773853,-24.546875,34.265625C-24.693115,33.560368,-24.645889,32.829029,-24.410156,32.148438C-24.14094,31.450378,-23.474632,30.985031,-22.726563,30.972656C-22.521086,30.954714,-22.314331,30.957335,-22.109375,30.980469M-26.71875,30.988281C-25.942928,31.075241,-25.330999,31.688795,-25.246094,32.464844L-26.046875,32.519531C-26.064724,32.045502,-26.427078,31.654888,-26.898438,31.601563C-27.427568,31.485847,-27.959993,31.787455,-28.132813,32.300781C-28.383142,33.098396,-28.366705,33.954773,-28.085938,34.742188C-27.896048,35.098652,-27.51181,35.307663,-27.109375,35.273438C-26.663656,35.315105,-26.250954,35.032269,-26.128906,34.601563L-26.085938,34.414063L-25.273438,34.472656C-25.388897,35.216415,-25.989969,35.790245,-26.738281,35.871094C-27.284813,35.967602,-27.847902,35.848534,-28.308594,35.539063C-28.707886,35.216629,-28.972399,34.757202,-29.050781,34.25C-29.189631,33.549988,-29.145235,32.826237,-28.921875,32.148438C-28.680147,31.465092,-28.044687,30.998575,-27.320313,30.972656C-27.119919,30.952879,-26.917845,30.958132,-26.71875,30.988281M33.40625,30.980469C33.809231,31.004753,34.19503,31.151962,34.511719,31.402344C34.723553,31.587513,34.885921,31.822369,34.984375,32.085938L34.289063,32.285156C34.12616,31.869659,33.734814,31.588381,33.289063,31.566406C32.92358,31.499296,32.546192,31.585546,32.246094,31.804688C31.903608,32.132271,31.715078,32.588711,31.726563,33.0625L31.71875,33.261719L35.109375,33.261719C35.145527,33.825409,35.044991,34.389721,34.816406,34.90625C34.521889,35.493584,33.926434,35.869507,33.269531,35.882813C32.737083,35.953434,32.196617,35.831493,31.746094,35.539063C31.266918,35.170143,30.967215,34.614758,30.921875,34.011719C30.812435,33.309307,30.908764,32.590244,31.199219,31.941406C31.51572,31.355545,32.123295,30.985331,32.789063,30.972656C32.994541,30.954725,33.201294,30.957338,33.40625,30.980469M-32.417969,30.976563C-31.806362,31.027683,-31.269093,31.40377,-31.011719,31.960938L-30.984375,31.960938C-30.990736,31.701633,-30.911072,31.447542,-30.757813,31.238281C-30.591221,31.066877,-30.354795,30.981833,-30.117188,31.007813C-29.91188,31.004858,-29.70705,31.028488,-29.507813,31.078125L-29.507813,31.570313C-29.691954,31.498293,-29.90056,31.523272,-30.0625,31.636719C-30.17827,31.817875,-30.230415,32.03199,-30.210938,32.246094L-30.210938,34.292969C-30.170364,34.791039,-30.387066,35.276058,-30.785156,35.578125C-31.152569,35.805386,-31.580219,35.915703,-32.011719,35.894531C-32.477993,35.920319,-32.941494,35.807518,-33.34375,35.570313C-33.66703,35.34938,-33.878113,34.998486,-33.921875,34.609375L-33.09375,34.535156C-33.087925,34.886112,-32.833839,35.184498,-32.488281,35.246094C-32.125317,35.346684,-31.737736,35.311958,-31.398438,35.148438C-31.171066,35.00169,-31.031826,34.751045,-31.027344,34.480469C-31.011896,34.303833,-31.006676,34.126457,-31.011719,33.949219C-31.454588,33.953434,-31.89752,33.944313,-32.339844,33.921875C-32.750629,33.906761,-33.152729,33.79855,-33.515625,33.605469C-33.924358,33.334995,-34.159195,32.868317,-34.132813,32.378906C-34.154915,31.998035,-34.024124,31.62398,-33.769531,31.339844C-33.480289,31.06888,-33.090546,30.931387,-32.695313,30.960938L-32.417969,30.976563M38.410156,30.980469C38.813137,31.004744,39.198925,31.151978,39.515625,31.402344C39.727417,31.587555,39.889793,31.822388,39.988281,32.085938L39.292969,32.285156C39.130753,31.869028,38.739098,31.587528,38.292969,31.566406C37.927502,31.499493,37.550163,31.58572,37.25,31.804688C36.948322,32.081638,36.767345,32.466026,36.746094,32.875C36.732624,33.003502,36.724808,33.13253,36.722656,33.261719L40.117188,33.261719C40.150089,33.825623,40.048313,34.389446,39.820313,34.90625C39.526039,35.493832,38.930462,35.869823,38.273438,35.882813C37.741016,35.953186,37.200623,35.831238,36.75,35.539063C36.271122,35.169922,35.971481,34.614628,35.925781,34.011719C35.834049,33.385017,35.897095,32.745182,36.109375,32.148438C36.378563,31.450363,37.044895,30.985023,37.792969,30.972656C37.998447,30.954729,38.2052,30.957348,38.410156,30.980469M-38.121094,31.355469C-38.117119,31.500284,-38.123653,31.645189,-38.140625,31.789063L-38.117188,31.789063C-37.897373,31.310682,-37.428314,30.995449,-36.902344,30.972656C-36.493191,30.914202,-36.076088,30.995441,-35.71875,31.203125C-35.339573,31.482077,-35.082333,31.895899,-35,32.359375C-34.832138,33.153862,-34.852196,33.976364,-35.058594,34.761719C-35.247646,35.467594,-35.911636,35.941391,-36.640625,35.890625C-36.958023,35.901089,-37.272774,35.829792,-37.554688,35.683594C-37.801914,35.530346,-37.996742,35.305569,-38.113281,35.039063L-38.128906,35.039063C-38.133694,35.294834,-38.149338,35.550243,-38.175781,35.804688L-38.9375,35.804688C-38.92083,35.594166,-38.91301,35.38306,-38.914063,35.171875L-38.914063,29.183594L-38.121094,29.183594L-38.121094,31.355469M2.464844,30.96875C2.943771,30.964817,3.409576,31.12468,3.785156,31.421875C4.286922,31.911713,4.309362,32.709282,3.835938,33.226563C3.53133,33.478474,3.171302,33.653805,2.785156,33.738281C2.391674,33.823715,2.004108,33.934635,1.625,34.070313C1.443853,34.125854,1.299126,34.263344,1.234375,34.441406C1.148756,34.69202,1.241559,34.968826,1.460938,35.117188C1.780673,35.264877,2.135485,35.317696,2.484375,35.269531C2.782845,35.267853,3.065942,35.134884,3.257813,34.90625C3.317796,34.823669,3.359114,34.729034,3.378906,34.628906L4.089844,34.714844C4.023297,35.182457,3.697947,35.572876,3.25,35.722656C2.570522,35.954594,1.831447,35.942162,1.160156,35.6875C0.594224,35.445549,0.301006,34.8153,0.480469,34.226563C0.599718,33.872875,0.870306,33.590832,1.21875,33.457031C1.734502,33.275993,2.258472,33.119583,2.789063,32.988281C3.032982,32.938305,3.241621,32.780029,3.355469,32.558594C3.479119,32.268333,3.383101,31.931452,3.125,31.75C2.766271,31.584131,2.368483,31.523245,1.976563,31.574219C1.703235,31.582756,1.439443,31.677065,1.222656,31.84375C1.085521,31.965027,0.989911,32.126198,0.949219,32.304688L0.25,32.167969C0.37436,31.574324,0.8567,31.121643,1.457031,31.035156C1.788615,30.96903,2.127453,30.946703,2.464844,30.96875M-14.539063,30.96875C-14.061193,30.963953,-13.596325,31.123962,-13.222656,31.421875C-12.718286,31.909874,-12.694073,32.70892,-13.167969,33.226563C-13.47276,33.478161,-13.832738,33.653465,-14.21875,33.738281C-14.613618,33.823273,-15.002526,33.9342,-15.382813,34.070313C-15.56327,34.126858,-15.707695,34.264091,-15.773438,34.441406C-15.859743,34.692863,-15.764911,34.970829,-15.542969,35.117188C-15.224695,35.265129,-14.871057,35.317974,-14.523438,35.269531C-14.224302,35.270859,-13.939971,35.137321,-13.75,34.90625C-13.69001,34.823673,-13.648684,34.729042,-13.628906,34.628906L-12.917969,34.714844C-12.984979,35.180984,-13.308182,35.570644,-13.753906,35.722656C-14.433274,35.955223,-15.17259,35.942787,-15.84375,35.6875C-16.35816,35.472103,-16.655304,34.928143,-16.558594,34.378906C-16.484039,33.95549,-16.189178,33.604015,-15.785156,33.457031C-15.340994,33.285385,-14.883785,33.149529,-14.417969,33.050781C-14.190609,33.002586,-13.976926,32.903759,-13.792969,32.761719C-13.548798,32.512238,-13.533621,32.119141,-13.757813,31.851563C-13.955201,31.671932,-14.213609,31.574148,-14.480469,31.578125C-14.8748,31.51815,-15.278385,31.575226,-15.640625,31.742188C-15.851566,31.863998,-16.002851,32.067566,-16.058594,32.304688L-16.757813,32.167969C-16.6311,31.574114,-16.147852,31.122032,-15.546875,31.035156C-15.215301,30.968939,-14.876455,30.946611,-14.539063,30.96875M5.890625,35.804688L5.101563,35.804688L5.101563,31.050781L5.890625,31.050781L5.890625,35.804688M26.339844,31.433594C26.671387,32.668411,26.978714,33.90947,27.261719,35.15625L27.417969,34.414063L28.25,31.050781L29.167969,31.050781L30.53125,35.804688L29.757813,35.804688L28.855469,32.316406L28.71875,31.707031C28.387344,33.075325,28.043259,34.442497,27.6875,35.804688L26.839844,35.804688L25.84375,32.03125L25.769531,31.707031C25.71236,31.997223,25.649849,32.286327,25.582031,32.574219L24.777344,35.804688L23.996094,35.804688L25.328125,31.050781L26.242188,31.050781L26.339844,31.433594M17.722656,33.867188C17.718521,34.250092,17.846886,34.62273,18.085938,34.921875C18.391071,35.244987,18.843836,35.38303,19.277344,35.285156C19.700426,35.229839,20.049717,34.926701,20.164063,34.515625C20.232563,34.305527,20.274559,34.087696,20.289063,33.867188L17.722656,33.867188M36.734375,33.867188C36.726379,34.250061,36.853634,34.623543,37.09375,34.921875C37.398895,35.244976,37.85165,35.383022,38.285156,35.285156C38.708241,35.229847,39.057507,34.926693,39.171875,34.515625C39.239338,34.305077,39.282589,34.087528,39.300781,33.867188L36.734375,33.867188M-5.191406,31.554688C-5.623345,31.582489,-5.994114,31.872589,-6.125,32.285156C-6.360886,33.036953,-6.360885,33.841949,-6.125,34.59375C-5.949817,35.061878,-5.482047,35.355038,-4.984375,35.308594C-4.602069,35.34243,-4.229981,35.173431,-4.003906,34.863281C-3.804836,34.496864,-3.705201,34.084862,-3.714844,33.667969C-3.667383,33.142971,-3.745026,32.614193,-3.941406,32.125C-4.119587,31.780939,-4.471982,31.562002,-4.859375,31.554688C-4.969807,31.54426,-5.080973,31.54426,-5.191406,31.554688M-23.785156,33.867188C-23.793158,34.250061,-23.665892,34.623543,-23.425781,34.921875C-23.120632,35.244968,-22.667883,35.383022,-22.234375,35.285156C-21.811304,35.229805,-21.462025,34.926689,-21.347656,34.515625C-21.280188,34.30508,-21.236929,34.087532,-21.21875,33.867188L-23.785156,33.867188M31.726563,33.867188C31.722412,34.250095,31.850782,34.622734,32.089844,34.921875C32.395008,35.244953,32.847748,35.383034,33.28125,35.285156C33.703083,35.228733,34.050591,34.925808,34.164063,34.515625C34.236492,34.306393,34.279873,34.088215,34.292969,33.867188L31.726563,33.867188M14.003906,31.554688C13.519976,31.573584,13.110289,31.920368,13.011719,32.394531C12.811496,33.157955,12.852408,33.963902,13.128906,34.703125C13.32895,35.087681,13.739745,35.315392,14.171875,35.28125C14.676216,35.312275,15.120674,34.949539,15.191406,34.449219C15.34878,33.719887,15.332729,32.96418,15.144531,32.242188C15.025096,31.806814,14.614435,31.515587,14.164063,31.546875L14.003906,31.554688M-37.011719,31.554688C-37.494659,31.572954,-37.903934,31.917791,-38.003906,32.390625C-38.194229,33.140667,-38.160297,33.929237,-37.90625,34.660156C-37.762459,35.005444,-37.43565,35.23996,-37.0625,35.265625C-36.738228,35.333004,-36.400238,35.249554,-36.144531,35.039063C-35.911797,34.778648,-35.77533,34.446476,-35.757813,34.097656C-35.670349,33.475052,-35.710217,32.841118,-35.875,32.234375C-35.995312,31.802368,-36.404293,31.514404,-36.851563,31.546875L-37.011719,31.554688M-32.695313,31.566406C-33.083447,31.62075,-33.358387,31.973618,-33.316406,32.363281C-33.351898,32.827847,-33.023037,33.241879,-32.5625,33.3125C-32.335758,33.355099,-32.105705,33.377327,-31.875,33.378906L-31.011719,33.398438C-30.985794,33.146324,-31.001644,32.891495,-31.058594,32.644531C-31.25581,31.925108,-31.95647,31.463566,-32.695313,31.566406M-61.613281,23.503906C-61.630108,23.879396,-61.510826,24.248415,-61.277344,24.542969C-61.054211,24.80212,-60.724461,24.944641,-60.382813,24.929688C-60.1017,24.964676,-59.819901,24.869749,-59.617188,24.671875C-59.471348,24.459665,-59.39748,24.206562,-59.40625,23.949219C-59.386894,22.866194,-59.385597,21.782364,-59.402344,20.699219L-58.605469,20.699219L-58.605469,23.867188C-58.571808,24.282589,-58.670319,24.698511,-58.886719,25.054688C-59.097683,25.322536,-59.410255,25.490854,-59.75,25.519531C-60.183147,25.597452,-60.629829,25.528721,-61.019531,25.324219C-61.281704,25.155668,-61.493591,24.919483,-61.632813,24.640625L-61.648438,24.640625C-61.623463,24.934212,-61.611732,25.228798,-61.613281,25.523438L-61.613281,27.222656L-62.402344,27.222656L-62.402344,20.699219L-61.613281,20.699219L-61.613281,23.503906M57.421875,27.222656L56.628906,27.222656L56.628906,20.699219L57.421875,20.699219L57.421875,27.222656M20.914063,27.222656L20.121094,27.222656L20.121094,20.699219L20.914063,20.699219L20.914063,27.222656M64.613281,24.878906L65.542969,24.878906L65.542969,25.453125L64.613281,25.453125C64.58654,25.709887,64.598389,25.969404,64.648438,26.222656C64.680107,26.421209,64.846123,26.570911,65.046875,26.582031C65.21244,26.600945,65.379921,26.593031,65.542969,26.558594L65.542969,27.160156C65.188118,27.236488,64.820587,27.229816,64.46875,27.140625C64.187927,27.057104,63.97049,26.833742,63.894531,26.550781C63.822044,26.189617,63.798401,25.820583,63.824219,25.453125L63.15625,25.453125L63.15625,24.878906L63.824219,24.878906L63.824219,20.699219L64.613281,20.699219L64.613281,24.878906M-19.425781,24.878906L-18.496094,24.878906L-18.496094,25.453125L-19.425781,25.453125C-19.452593,25.709883,-19.440733,25.969412,-19.390625,26.222656C-19.358656,26.42104,-19.192808,26.57066,-18.992188,26.582031C-18.826624,26.600964,-18.659136,26.593048,-18.496094,26.558594L-18.496094,27.160156C-18.850945,27.236485,-19.218472,27.229809,-19.570313,27.140625C-19.851154,27.057138,-20.068619,26.833765,-20.144531,26.550781C-20.217012,26.189621,-20.240652,25.820583,-20.214844,25.453125L-20.882813,25.453125L-20.882813,24.878906L-20.214844,24.878906L-20.214844,20.699219L-19.425781,20.699219L-19.425781,24.878906M-40.59375,20.636719C-39.615528,20.736555,-38.763992,21.349897,-38.359375,22.246094L-39.042969,22.589844C-39.225975,22.202347,-39.507515,21.869625,-39.859375,21.625C-40.675182,21.11438,-41.728653,21.19846,-42.453125,21.832031C-42.91246,22.286503,-43.178379,22.900927,-43.195313,23.546875C-43.271629,24.215763,-43.121719,24.891083,-42.769531,25.464844C-42.373089,26.022085,-41.717888,26.336395,-41.035156,26.296875C-40.451916,26.328064,-39.885578,26.095783,-39.492188,25.664063C-39.374416,25.520666,-39.279541,25.359913,-39.210938,25.1875L-38.414063,25.449219C-38.739502,26.25877,-39.481239,26.826689,-40.347656,26.929688C-41.099136,27.067656,-41.874683,26.972246,-42.570313,26.65625C-43.276661,26.288214,-43.781219,25.623142,-43.945313,24.84375C-44.165661,23.931231,-44.079182,22.971697,-43.699219,22.113281C-43.349571,21.395512,-42.690208,20.877224,-41.910156,20.707031C-41.47797,20.612984,-41.033489,20.589239,-40.59375,20.636719M-26.988281,20.621094C-26.469952,20.662197,-25.977797,20.865894,-25.582031,21.203125C-25.084465,20.685181,-24.33028,20.505037,-23.652344,20.742188L-23.652344,21.335938C-24.158079,21.163467,-24.717947,21.304214,-25.082031,21.695313C-24.651575,22.32235,-24.335506,23.020611,-24.148438,23.757813L-24.785156,23.945313C-24.925779,23.304501,-25.181202,22.694397,-25.539063,22.144531C-26.031967,22.700277,-26.462875,23.307999,-26.824219,23.957031C-26.312441,24.132381,-25.839094,24.40419,-25.429688,24.757813C-24.967793,25.188177,-24.892879,25.892258,-25.253906,26.410156C-25.488722,26.690695,-25.823595,26.868645,-26.1875,26.90625C-26.608082,26.970993,-27.038345,26.907005,-27.421875,26.722656C-27.836039,26.478764,-28.077686,26.022619,-28.046875,25.542969C-28.030125,25.079145,-27.908585,24.625021,-27.691406,24.214844C-28.126192,24.041805,-28.513288,23.767216,-28.820313,23.414063C-29.339567,22.759693,-29.331446,21.832653,-28.800781,21.1875C-28.442366,20.825436,-27.954765,20.620266,-27.445313,20.617188C-27.293001,20.610657,-27.140455,20.611961,-26.988281,20.621094M-48.9375,23.113281L-47.121094,23.113281C-46.488022,23.072651,-45.86832,23.311106,-45.425781,23.765625C-44.833694,24.499155,-44.833694,25.543814,-45.425781,26.277344C-45.826717,26.663692,-46.361183,26.880573,-46.917969,26.882813L-47.171875,26.890625L-49.777344,26.890625L-49.777344,20.699219L-48.9375,20.699219L-48.9375,23.113281M33.71875,21.386719L30.589844,21.386719L30.589844,26.890625L29.753906,26.890625L29.753906,20.699219L33.71875,20.699219L33.71875,21.386719M-34.503906,20.707031C-33.997604,20.711109,-33.504219,20.869211,-33.089844,21.160156C-32.455872,21.664862,-32.295452,22.560539,-32.714844,23.253906C-32.941696,23.583727,-33.285034,23.815392,-33.675781,23.902344L-34.027344,23.964844C-33.520855,24.048306,-33.099216,24.399679,-32.925781,24.882813C-32.776585,25.313917,-32.826698,25.789165,-33.0625,26.179688C-33.30584,26.510136,-33.669048,26.731697,-34.074219,26.796875C-34.387333,26.86434,-34.707088,26.895792,-35.027344,26.890625L-37.277344,26.890625L-37.277344,20.699219L-34.765625,20.699219L-34.503906,20.707031M67.367188,20.636719C67.568016,20.648012,67.767082,20.680729,67.960938,20.734375L67.960938,21.320313C67.73658,21.252283,67.49855,21.24283,67.269531,21.292969C67.102928,21.367142,67.000282,21.536743,67.011719,21.71875L67.003906,21.878906L67.003906,24.878906L67.882813,24.878906L67.882813,25.453125L67.003906,25.453125L67.003906,26.519531L66.476563,26.519531L66.242188,25.453125L65.664063,25.453125L65.664063,24.878906L66.214844,24.878906L66.214844,21.707031C66.192657,21.418026,66.275894,21.130762,66.449219,20.898438C66.635895,20.707485,66.897789,20.608713,67.164063,20.628906L67.367188,20.636719M-3.667969,20.636719C-3.465915,20.648539,-3.26562,20.681267,-3.070313,20.734375L-3.070313,21.320313C-3.29602,21.252399,-3.535281,21.24299,-3.765625,21.292969C-3.929278,21.370481,-4.030596,21.537809,-4.023438,21.71875L-4.027344,21.878906L-4.027344,24.878906L-3.148438,24.878906L-3.148438,25.453125L-4.027344,25.453125L-4.027344,26.519531L-4.554688,26.519531L-4.789063,25.453125L-5.367188,25.453125L-5.367188,24.878906L-4.820313,24.878906L-4.820313,21.707031C-4.843292,21.417377,-4.758412,21.129343,-4.582031,20.898438C-4.396666,20.707882,-4.136199,20.609133,-3.871094,20.628906L-3.667969,20.636719M-63.6875,20.636719C-63.486668,20.647961,-63.287601,20.680708,-63.09375,20.734375L-63.09375,21.320313C-63.318092,21.252241,-63.556129,21.242868,-63.785156,21.292969C-63.95145,21.36746,-64.054146,21.536875,-64.042969,21.71875L-64.050781,21.878906L-64.050781,24.878906L-63.171875,24.878906L-63.171875,25.453125L-64.050781,25.453125L-64.050781,26.519531L-64.578125,26.519531L-64.8125,25.453125L-65.390625,25.453125L-65.390625,24.878906L-64.839844,24.878906L-64.839844,21.707031C-64.862854,21.417377,-64.777939,21.129347,-64.601563,20.898438C-64.417099,20.706566,-64.155922,20.607527,-63.890625,20.628906L-63.6875,20.636719M-27.214844,24.75C-27.343306,25.05986,-27.392952,25.396719,-27.359375,25.730469C-27.32494,26.073841,-27.054096,26.346321,-26.710938,26.382813C-26.430796,26.441082,-26.138815,26.372404,-25.914063,26.195313C-25.622906,25.907589,-25.621145,25.438318,-25.910156,25.148438C-26.168907,24.895977,-26.479528,24.702671,-26.820313,24.582031L-27.089844,24.46875L-27.214844,24.75M-36.4375,24.257813L-36.4375,26.21875C-35.865952,26.236824,-35.293907,26.232914,-34.722656,26.207031C-34.41375,26.201086,-34.117188,26.084679,-33.886719,25.878906C-33.624481,25.514021,-33.621349,25.024454,-33.878906,24.65625C-34.024109,24.485796,-34.222004,24.368961,-34.441406,24.324219C-34.632881,24.276041,-34.829941,24.253712,-35.027344,24.257813L-36.4375,24.257813M-48.9375,23.777344L-48.9375,26.21875L-47.273438,26.21875C-46.971386,26.232887,-46.670082,26.175308,-46.394531,26.050781C-46.100643,25.906816,-45.898251,25.625229,-45.855469,25.300781C-45.786053,24.944548,-45.848507,24.575291,-46.03125,24.261719C-46.176365,24.061722,-46.386017,23.918276,-46.625,23.855469C-46.824642,23.800262,-47.03117,23.773954,-47.238281,23.777344L-48.9375,23.777344M36.753906,20.621094C37.493233,20.632591,38.154602,21.08477,38.433594,21.769531C38.720165,22.62332,38.72427,23.54604,38.445313,24.402344C38.229862,25.012491,37.679314,25.442568,37.035156,25.503906C36.483402,25.607885,35.91291,25.538284,35.402344,25.304688C34.965256,25.061176,34.649506,24.646324,34.53125,24.160156C34.297421,23.31283,34.355175,22.412086,34.695313,21.601563C34.994061,21.014091,35.591137,20.637558,36.25,20.621094C36.417812,20.610666,36.586098,20.610672,36.753906,20.621094M-9.09375,23.453125C-9.117929,23.842712,-9.001495,24.228052,-8.765625,24.539063C-8.541272,24.801592,-8.208241,24.945763,-7.863281,24.929688C-7.619814,24.958754,-7.373889,24.894478,-7.175781,24.75C-7.014014,24.583759,-6.918247,24.36446,-6.90625,24.132813C-6.891065,23.994032,-6.884542,23.854437,-6.886719,23.714844L-6.886719,20.699219L-6.089844,20.699219L-6.089844,23.867188C-6.059151,24.280695,-6.155988,24.693956,-6.367188,25.050781C-6.619434,25.364853,-7.003518,25.5439,-7.40625,25.535156C-7.849425,25.595488,-8.298664,25.482128,-8.660156,25.21875C-8.84516,25.049648,-9.004936,24.855021,-9.134766,24.640625C-9.13494,24.911711,-9.144713,25.182732,-9.164063,25.453125L-9.914063,25.453125C-9.892036,25.240341,-9.882904,25.026386,-9.886719,24.8125L-9.886719,20.699219L-9.09375,20.699219L-9.09375,23.453125M60.921875,20.628906C61.324482,20.654572,61.709995,20.801706,62.027344,21.050781C62.240105,21.236662,62.402657,21.473059,62.5,21.738281L61.804688,21.933594C61.642601,21.518164,61.250217,21.237669,60.804688,21.21875C60.393818,21.134285,59.967216,21.256971,59.664063,21.546875C59.386005,21.870329,59.235931,22.284443,59.242188,22.710938L59.234375,22.910156L62.628906,22.910156C62.661877,23.474068,62.560097,24.037903,62.332031,24.554688C62.083279,25.070925,61.591396,25.427736,61.023438,25.503906C60.417835,25.628838,59.787403,25.517004,59.261719,25.191406C58.783237,24.821974,58.483635,24.266802,58.4375,23.664063C58.345779,23.036081,58.408817,22.394962,58.621094,21.796875C58.891117,21.099575,59.557053,20.634508,60.304688,20.621094C60.51033,20.608515,60.716621,20.611113,60.921875,20.628906M6.597656,20.625C7.104381,20.659653,7.565985,20.930244,7.84375,21.355469L8.003906,21.609375L8.027344,21.609375C8.023453,21.35046,8.102895,21.097071,8.253906,20.886719C8.424166,20.72106,8.657758,20.637026,8.894531,20.65625C9.099545,20.65847,9.303774,20.682035,9.503906,20.726563L9.503906,21.21875C9.347756,21.170675,9.18001,21.176174,9.027344,21.234375C8.877449,21.354134,8.795925,21.539026,8.808594,21.730469L8.800781,21.894531L8.800781,23.941406C8.828763,24.384542,8.66515,24.818462,8.351563,25.132813C8.030261,25.391109,7.630996,25.532915,7.21875,25.535156C6.782954,25.572294,6.344317,25.513632,5.933594,25.363281C5.472314,25.176432,5.150094,24.752298,5.09375,24.257813L5.917969,24.183594C5.926481,24.533648,6.179205,24.830391,6.523438,24.894531C6.887503,24.993881,7.275338,24.960634,7.617188,24.800781C7.840823,24.648699,7.978634,24.399181,7.988281,24.128906C8.003666,23.953575,8.008883,23.777498,8.003906,23.601563C7.559733,23.602915,7.115501,23.592493,6.671875,23.570313C6.261501,23.560532,5.859531,23.452,5.5,23.253906C5.088114,22.986317,4.852247,22.517569,4.882813,22.027344C4.862108,21.647364,4.991147,21.274273,5.242188,20.988281C5.533965,20.719166,5.92451,20.583323,6.320313,20.613281L6.597656,20.625M17.410156,20.628906C17.812759,20.654589,18.198275,20.80171,18.515625,21.050781C18.728403,21.236645,18.890942,21.473057,18.988281,21.738281L18.292969,21.933594C18.130836,21.518192,17.738485,21.23772,17.292969,21.21875C16.882092,21.13419,16.455482,21.256912,16.152344,21.546875C15.873952,21.870159,15.723834,22.284357,15.730469,22.710938L15.722656,22.910156L19.113281,22.910156C19.149487,23.47385,19.048954,24.038174,18.820313,24.554688C18.571547,25.070915,18.07967,25.427706,17.511719,25.503906C16.906116,25.628817,16.275692,25.516991,15.75,25.191406C15.337453,24.879675,15.058336,24.423323,14.96875,23.914063C14.826041,23.208288,14.874576,22.477573,15.109375,21.796875C15.341697,21.17705,15.898116,20.736427,16.554688,20.652344C16.837763,20.608807,17.125124,20.600931,17.410156,20.628906M10.917969,23.453125C10.897664,23.842852,11.015219,24.227329,11.25,24.539063C11.473408,24.8006,11.804797,24.944674,12.148438,24.929688C12.391946,24.959112,12.637961,24.894802,12.835938,24.75C13.002128,24.586739,13.098662,24.365681,13.105469,24.132813C13.124722,23.994368,13.132559,23.854572,13.128906,23.714844L13.128906,20.699219L13.925781,20.699219L13.925781,23.867188C13.956474,24.280695,13.859636,24.693956,13.648438,25.050781C13.395166,25.363649,13.011845,25.542341,12.609375,25.535156C12.1662,25.595493,11.716958,25.482134,11.355469,25.21875C11.17235,25.048489,11.013283,24.853928,10.882813,24.640625C10.882595,24.911833,10.870865,25.182909,10.847656,25.453125L10.101563,25.453125C10.11957,25.240057,10.128693,25.026323,10.128906,24.8125L10.128906,20.699219L10.917969,20.699219L10.917969,23.453125M-12.777344,20.621094C-12.119583,20.632227,-11.51676,20.992435,-11.195313,21.566406C-10.938843,22.136908,-10.835218,22.764038,-10.894531,23.386719C-10.89817,23.877512,-11.031603,24.358679,-11.28125,24.78125C-11.560707,25.18861,-12.004747,25.452747,-12.496094,25.503906C-13.047851,25.608076,-13.618384,25.538467,-14.128906,25.304688C-14.567944,25.062593,-14.885428,24.647318,-15.003906,24.160156C-15.211154,23.384661,-15.185347,22.565594,-14.929688,21.804688C-14.677948,21.10927,-14.024519,20.63899,-13.285156,20.621094C-13.116043,20.610683,-12.946457,20.610683,-12.777344,20.621094M51.941406,23.179688C51.919075,23.600279,52.008003,24.019253,52.199219,24.394531C52.353806,24.66301,52.643444,24.825094,52.953125,24.816406C53.094959,24.818945,53.236588,24.804516,53.375,24.773438L53.375,25.5C53.026836,25.602337,52.651295,25.535887,52.359375,25.320313C52.149143,25.08095,52.000343,24.794106,51.925781,24.484375L51.90625,24.484375C51.899658,24.807501,51.887939,25.130371,51.871094,25.453125L51.125,25.453125C51.141102,25.084799,51.150215,24.716316,51.152344,24.347656L51.152344,20.699219L51.941406,20.699219L51.941406,23.179688M-17.097656,23.179688C-17.121655,23.600868,-17.031235,24.020596,-16.835938,24.394531C-16.684032,24.663795,-16.394934,24.826414,-16.085938,24.816406C-15.944102,24.818962,-15.80247,24.804533,-15.664063,24.773438L-15.664063,25.5C-16.01223,25.602402,-16.387791,25.535957,-16.679688,25.320313C-16.889927,25.080957,-17.038715,24.794104,-17.113281,24.484375L-17.132813,24.484375C-17.138407,24.807461,-17.150129,25.130486,-17.167969,25.453125L-17.914063,25.453125C-17.897963,25.084797,-17.888849,24.716331,-17.886719,24.347656L-17.886719,20.699219L-17.097656,20.699219L-17.097656,23.179688M48.421875,20.628906C48.824478,20.654591,49.209991,20.801714,49.527344,21.050781C49.740105,21.236662,49.902657,21.473059,50,21.738281L49.304688,21.933594C49.142601,21.518164,48.750217,21.237669,48.304688,21.21875C47.893822,21.134289,47.467232,21.256989,47.164063,21.546875C46.886005,21.870329,46.735931,22.284443,46.742188,22.710938L46.734375,22.910156L50.128906,22.910156C50.161385,23.474018,50.059616,24.037777,49.832031,24.554688C49.583279,25.070925,49.091396,25.427736,48.523438,25.503906C47.917835,25.628838,47.287403,25.517004,46.761719,25.191406C46.283237,24.821974,45.983635,24.266802,45.9375,23.664063C45.827374,22.961666,45.923725,22.242393,46.214844,21.59375C46.531349,21.007368,47.138504,20.635918,47.804688,20.621094C48.01033,20.608521,48.216618,20.611124,48.421875,20.628906M-55.121094,20.628906C-54.718491,20.654583,-54.332966,20.801697,-54.015625,21.050781C-53.80283,21.236628,-53.640305,21.473053,-53.542969,21.738281L-54.238281,21.933594C-54.400448,21.518217,-54.792774,21.237761,-55.238281,21.21875C-55.649155,21.134157,-56.075775,21.256899,-56.378906,21.546875C-56.656517,21.870882,-56.807739,22.284277,-56.804688,22.710938L-56.808594,22.910156L-53.417969,22.910156C-53.381763,23.47385,-53.482296,24.038174,-53.710938,24.554688C-53.960217,25.072149,-54.453938,25.42922,-55.023438,25.503906C-55.627789,25.628403,-56.25684,25.516575,-56.78125,25.191406C-57.194458,24.880207,-57.473682,24.423668,-57.5625,23.914063C-57.703426,23.208448,-57.656288,22.478504,-57.425781,21.796875C-57.153042,21.099945,-56.486538,20.635553,-55.738281,20.621094C-55.532639,20.608509,-55.326351,20.611116,-55.121094,20.628906M0.894531,20.859375C0.901317,21.052282,0.894789,21.245493,0.875,21.4375L0.898438,21.4375C1.116616,20.960135,1.584931,20.64591,2.109375,20.625C2.519899,20.560892,2.940135,20.64245,3.296875,20.855469C3.678013,21.132607,3.935786,21.547287,4.015625,22.011719C4.185254,22.806244,4.163838,23.629431,3.953125,24.414063C3.76491,25.118338,3.102153,25.590797,2.375,25.539063C1.987661,25.565477,1.603511,25.451759,1.292969,25.21875C1.128487,25.071121,0.995634,24.891769,0.902344,24.691406L0.882813,24.691406C0.881461,24.945877,0.86712,25.200115,0.839844,25.453125L0.074219,25.453125C0.089352,25.242504,0.098471,25.03145,0.101563,24.820313L0.101563,18.832031L0.894531,18.832031L0.894531,20.859375M41.355469,21.085938C41.687469,22.319399,41.994781,23.559069,42.277344,24.804688L42.433594,24.0625L43.265625,20.699219L44.183594,20.699219L45.546875,25.453125L44.773438,25.453125L43.871094,21.964844L43.734375,21.355469C43.402939,22.723862,43.058914,24.090874,42.703125,25.453125L41.855469,25.453125L40.859375,21.679688L40.785156,21.355469C40.728493,21.645761,40.665981,21.934885,40.597656,22.222656L39.792969,25.453125L39.011719,25.453125L40.34375,20.699219L41.257813,20.699219L41.355469,21.085938M36.335938,21.203125C35.844082,21.240648,35.438084,21.604918,35.347656,22.089844C35.160999,22.798063,35.179962,23.544361,35.402344,24.242188C35.5467,24.65801,35.934925,24.940203,36.375,24.949219C36.719788,25.004683,37.072651,24.917181,37.351563,24.707031C37.603058,24.447685,37.752716,24.10676,37.773438,23.746094C37.872173,23.133661,37.828053,22.506636,37.644531,21.914063C37.497082,21.496685,37.106598,21.213543,36.664063,21.203125C36.554939,21.192667,36.445065,21.192667,36.335938,21.203125M46.742188,23.515625C46.73901,23.899569,46.867207,24.273132,47.105469,24.574219C47.336575,24.833418,47.672688,24.974146,48.019531,24.957031C48.357349,24.980257,48.688347,24.854706,48.925781,24.613281C49.100464,24.397774,49.216164,24.140833,49.261719,23.867188L49.308594,23.515625L46.742188,23.515625M15.730469,23.515625C15.727283,23.899569,15.855485,24.273132,16.09375,24.574219C16.323915,24.832428,16.658381,24.97311,17.003906,24.957031C17.342928,24.980816,17.675404,24.855238,17.914063,24.613281C18.088745,24.397776,18.204433,24.140831,18.25,23.867188L18.296875,23.515625L15.730469,23.515625M59.242188,23.515625C59.23901,23.899569,59.367207,24.273132,59.605469,24.574219C59.836575,24.833418,60.172688,24.974146,60.519531,24.957031C60.858322,24.979124,61.190071,24.853804,61.429688,24.613281C61.605019,24.398672,61.719643,24.141098,61.761719,23.867188L61.808594,23.515625L59.242188,23.515625M-13.199219,21.203125C-13.690786,21.241171,-14.096567,21.605265,-14.1875,22.089844C-14.370169,22.798582,-14.351238,23.543642,-14.132813,24.242188C-13.960453,24.712481,-13.490576,25.006956,-12.992188,24.957031C-12.655792,24.98531,-12.324015,24.860346,-12.089844,24.617188C-11.865946,24.301748,-11.743372,23.925854,-11.738281,23.539063C-11.6731,22.99268,-11.725024,22.43881,-11.890625,21.914063C-12.036053,21.495247,-12.42782,21.21118,-12.871094,21.203125C-12.980219,21.192667,-13.090094,21.192667,-13.199219,21.203125M-56.800781,23.515625C-56.80397,23.89957,-56.675774,24.273138,-56.4375,24.574219C-56.208317,24.833742,-55.873123,24.97476,-55.527344,24.957031C-55.18832,24.980862,-54.855843,24.855247,-54.617188,24.613281C-54.442509,24.397774,-54.326828,24.140829,-54.28125,23.867188L-54.234375,23.515625L-56.800781,23.515625M2,21.203125C1.516472,21.222824,1.107107,21.569336,1.007813,22.042969C0.820633,22.792324,0.855897,23.578991,1.109375,24.308594C1.249928,24.654654,1.576476,24.890072,1.949219,24.914063C2.274795,24.982948,2.614537,24.899452,2.871094,24.6875C3.103057,24.426889,3.238168,24.094629,3.253906,23.746094C3.340619,23.123629,3.302108,22.490187,3.140625,21.882813C3.015388,21.454096,2.6099,21.168633,2.164063,21.195313L2,21.203125M-27.46875,21.207031C-28.049437,21.257193,-28.487745,21.757612,-28.460938,22.339844C-28.46269,22.774628,-28.241491,23.18013,-27.875,23.414063C-27.73477,23.514601,-27.582554,23.597263,-27.421875,23.660156C-27.023922,22.944933,-26.554041,22.272181,-26.019531,21.652344C-26.410435,21.292208,-26.943066,21.128542,-27.46875,21.207031M-36.4375,21.371094L-36.4375,23.605469L-34.875,23.605469C-34.472126,23.631744,-34.070778,23.536507,-33.722656,23.332031C-33.463104,23.14175,-33.31757,22.833025,-33.335938,22.511719C-33.316486,22.187872,-33.445946,21.872829,-33.6875,21.65625C-34.020519,21.442408,-34.413872,21.342369,-34.808594,21.371094L-36.4375,21.371094M6.316406,21.21875C5.928295,21.270199,5.652285,21.622583,5.695313,22.011719C5.659491,22.477751,5.990731,22.89266,6.453125,22.960938C6.67788,23.008028,6.907104,23.030296,7.136719,23.027344L8.003906,23.046875C8.012209,22.855415,8.008295,22.663618,7.992188,22.472656C7.886377,21.733725,7.24634,21.189186,6.5,21.203125L6.316406,21.21875M23.191406,21.660156L22.335938,21.660156L22.335938,20.699219L23.191406,20.699219L23.191406,21.660156M-48.820313,16.871094L-49.609375,16.871094L-49.609375,16.117188L-48.820313,16.117188L-48.820313,16.871094M-9.613281,14.53125L-8.683594,14.53125L-8.683594,15.105469L-9.613281,15.105469C-9.634298,15.3611,-9.62248,15.618463,-9.578125,15.871094C-9.526978,16.120817,-9.286399,16.285255,-9.035156,16.242188C-8.917106,16.241898,-8.799364,16.230124,-8.683594,16.207031L-8.683594,16.808594C-9.036667,16.889122,-9.404006,16.882418,-9.753906,16.789063C-10.038331,16.710329,-10.259025,16.485167,-10.332031,16.199219C-10.403507,15.839262,-10.427141,15.471612,-10.402344,15.105469L-11.070313,15.105469L-11.070313,14.53125L-10.402344,14.53125L-10.402344,10.351563L-9.613281,10.351563L-9.613281,14.53125M17.125,16.542969L16.316406,16.542969L16.40625,14.59375L17.03125,14.59375L17.125,16.542969M23.703125,16.542969L22.894531,16.542969L22.988281,14.59375L23.605469,14.59375L23.703125,16.542969M25.324219,16.542969L24.515625,16.542969L24.605469,14.59375L25.226563,14.59375L25.324219,16.542969M22.214844,11.035156L19.085938,11.035156L19.085938,16.542969L18.246094,16.542969L18.246094,10.351563L22.214844,10.351563L22.214844,11.035156M15.503906,16.542969L14.695313,16.542969L14.789063,14.59375L15.410156,14.59375L15.503906,16.542969M50.117188,10.277344C50.520748,10.301758,50.906982,10.450525,51.222656,10.703125C51.434467,10.888318,51.596848,11.123156,51.695313,11.386719L51,11.585938C50.83712,11.170426,50.445755,10.889153,50,10.867188C49.634514,10.800126,49.257133,10.88634,48.957031,11.105469C48.654297,11.382029,48.471928,11.766369,48.449219,12.175781C48.434517,12.304144,48.427998,12.433308,48.429688,12.5625L51.820313,12.5625C51.851997,13.126005,51.751678,13.689137,51.527344,14.207031C51.232189,14.793673,50.637024,15.169423,49.980469,15.183594C49.44812,15.253235,48.90789,15.131336,48.457031,14.839844C48.044716,14.529501,47.765625,14.074584,47.675781,13.566406C47.50198,12.786613,47.584171,11.971583,47.910156,11.242188C48.179333,10.726179,48.684395,10.374389,49.261719,10.300781C49.544796,10.257245,49.832153,10.249372,50.117188,10.277344M-5.960938,10.269531C-5.379383,10.283756,-4.836883,10.566549,-4.492188,11.035156C-4.228842,11.453176,-4.085576,11.935689,-4.078125,12.429688C-4.033168,12.977407,-4.098248,13.528597,-4.269531,14.050781C-4.488319,14.659287,-5.036544,15.08906,-5.679688,15.15625C-6.231704,15.260007,-6.802731,15.188971,-7.3125,14.953125C-7.749817,14.708876,-8.066487,14.29466,-8.1875,13.808594C-8.394068,13.033056,-8.368263,12.21412,-8.113281,11.453125C-7.85825,10.758544,-7.204504,10.289149,-6.464844,10.269531C-6.297035,10.259113,-6.128746,10.259113,-5.960938,10.269531M-2.277344,12.828125C-2.303732,13.248979,-2.214573,13.669106,-2.019531,14.042969C-1.867238,14.314262,-1.576591,14.478411,-1.265625,14.46875C-1.123816,14.470692,-0.982256,14.456273,-0.84375,14.425781L-0.84375,15.148438C-1.191536,15.255964,-1.569594,15.189076,-1.859375,14.96875C-2.073673,14.731726,-2.224264,14.443991,-2.296875,14.132813L-2.3125,14.132813C-2.319103,14.45725,-2.330818,14.781397,-2.347656,15.105469L-3.09375,15.105469C-3.076271,14.735966,-3.068455,14.366004,-3.070313,13.996094L-3.070313,10.351563L-2.277344,10.351563L-2.277344,12.828125M-15.800781,10.277344C-15.398506,10.302321,-15.013715,10.451052,-14.699219,10.703125C-14.484311,10.885489,-14.321293,11.12126,-14.226563,11.386719L-14.917969,11.585938C-15.082649,11.171734,-15.472878,10.891256,-15.917969,10.867188C-16.283476,10.79987,-16.660927,10.886104,-16.960938,11.105469C-17.267324,11.379295,-17.450455,11.765269,-17.46875,12.175781C-17.483446,12.304144,-17.489971,12.433308,-17.488281,12.5625L-14.097656,12.5625C-14.066437,13.12596,-14.166746,13.689019,-14.390625,14.207031C-14.688265,14.793242,-15.284136,15.168474,-15.941406,15.183594C-16.473698,15.251779,-17.013411,15.129999,-17.464844,14.839844C-17.944311,14.471711,-18.243031,13.915524,-18.285156,13.3125C-18.394997,12.610405,-18.30007,11.891689,-18.011719,11.242188C-17.740276,10.728168,-17.236399,10.377205,-16.660156,10.300781C-16.375767,10.257278,-16.087118,10.249407,-15.800781,10.277344M-20.285156,12.828125C-20.307541,13.248726,-20.218624,13.667711,-20.027344,14.042969C-19.874908,14.314098,-19.584337,14.478211,-19.273438,14.46875C-19.131603,14.471295,-18.989971,14.456875,-18.851563,14.425781L-18.851563,15.148438C-19.199406,15.255019,-19.577026,15.18821,-19.867188,14.96875C-20.079136,14.730596,-20.228186,14.443248,-20.300781,14.132813L-20.320313,14.132813C-20.326916,14.457142,-20.338638,14.781512,-20.355469,15.105469L-21.101563,15.105469C-21.085522,14.735905,-21.076405,14.366002,-21.074219,13.996094L-21.074219,10.351563L-20.285156,10.351563L-20.285156,12.828125M3.902344,10.277344C4.409585,10.310665,4.871578,10.58149,5.148438,11.007813L5.308594,11.261719L5.332031,11.261719C5.326785,11.001371,5.406299,10.746378,5.558594,10.535156C5.729171,10.370091,5.962579,10.286121,6.199219,10.304688C6.404235,10.306908,6.608461,10.330472,6.808594,10.375L6.808594,10.867188C6.651823,10.823798,6.485624,10.829247,6.332031,10.882813C6.180196,11.001032,6.098164,11.18707,6.113281,11.378906L6.105469,11.546875L6.105469,13.59375C6.144876,14.090753,5.930128,14.574668,5.535156,14.878906C5.166698,15.106728,4.737202,15.215806,4.304688,15.191406C3.94059,15.207275,3.577073,15.146024,3.238281,15.011719C2.777026,14.827066,2.454355,14.403842,2.398438,13.910156L3.222656,13.835938C3.232387,14.185383,3.484686,14.481631,3.828125,14.546875C4.131535,14.611407,4.445704,14.604723,4.746094,14.527344C4.993966,14.456692,5.184988,14.258209,5.246094,14.007813C5.300398,13.759049,5.321408,13.504301,5.308594,13.25C4.864345,13.259587,4.419876,13.24916,3.976563,13.21875C3.510864,13.217484,3.055969,13.07584,2.671875,12.8125C2.342284,12.52969,2.163189,12.109395,2.1875,11.675781C2.167677,11.297106,2.296669,10.925554,2.546875,10.640625C2.836931,10.368352,3.22838,10.230778,3.625,10.261719L3.902344,10.277344M8.222656,13.105469C8.199914,13.49544,8.31775,13.880833,8.554688,14.191406C8.827448,14.493921,9.234402,14.637897,9.636719,14.574219C10.007773,14.590212,10.331262,14.320929,10.382813,13.953125C10.420991,13.758926,10.438018,13.561149,10.433594,13.363281L10.433594,10.351563L11.230469,10.351563L11.230469,13.519531C11.261808,13.931825,11.164886,14.344077,10.953125,14.699219C10.743035,14.970682,10.428132,15.1409,10.085938,15.167969C9.659436,15.241262,9.220785,15.178402,8.832031,14.988281C8.563601,14.817396,8.346299,14.577148,8.203125,14.292969L8.1875,14.292969C8.186634,14.564155,8.174906,14.835219,8.152344,15.105469L7.40625,15.105469C7.423963,14.892381,7.433086,14.678665,7.433594,14.464844L7.433594,10.351563L8.222656,10.351563L8.222656,13.105469M-24.609375,10.277344C-24.100895,10.309858,-23.637304,10.580771,-23.359375,11.007813L-23.203125,11.261719L-23.175781,11.261719C-23.181028,11.001371,-23.101513,10.746378,-22.949219,10.535156C-22.778921,10.369569,-22.545349,10.285537,-22.308594,10.304688C-22.103579,10.306908,-21.899351,10.330473,-21.699219,10.375L-21.699219,10.867188C-21.855989,10.823793,-22.022188,10.829249,-22.175781,10.882813C-22.326529,11.002171,-22.409458,11.186943,-22.398438,11.378906C-22.416908,12.116988,-22.418213,12.855594,-22.402344,13.59375C-22.361847,14.091796,-22.578548,14.57679,-22.976563,14.878906C-23.34337,15.107214,-23.77179,15.216365,-24.203125,15.191406C-24.567223,15.207276,-24.930737,15.14602,-25.269531,15.011719C-25.733755,14.83097,-26.05801,14.405672,-26.109375,13.910156L-25.285156,13.835938C-25.278936,14.186668,-25.024952,14.484879,-24.679688,14.546875C-24.377584,14.611328,-24.064699,14.604641,-23.765625,14.527344C-23.517469,14.455764,-23.325689,14.258038,-23.261719,14.007813C-23.211021,13.758557,-23.191345,13.504086,-23.203125,13.25C-23.64608,13.259502,-24.089228,13.249075,-24.53125,13.21875C-24.997028,13.217884,-25.452002,13.076211,-25.835938,12.8125C-26.166601,12.530363,-26.34586,12.109702,-26.320313,11.675781C-26.341602,11.296805,-26.212482,10.924879,-25.960938,10.640625C-25.672089,10.368918,-25.282114,10.231364,-24.886719,10.261719L-24.609375,10.277344M-35.808594,10.277344C-35.405033,10.301753,-35.018791,10.450515,-34.703125,10.703125C-34.491318,10.888321,-34.328945,11.123161,-34.230469,11.386719L-34.925781,11.585938C-35.088661,11.170424,-35.480022,10.889131,-35.925781,10.867188C-36.291267,10.800137,-36.66864,10.886354,-36.96875,11.105469C-37.271759,11.381851,-37.454155,11.76627,-37.476563,12.175781C-37.491261,12.304144,-37.497784,12.433308,-37.496094,12.5625L-34.105469,12.5625C-34.07378,13.126006,-34.174099,13.689136,-34.398438,14.207031C-34.693779,14.793468,-35.288864,15.169153,-35.945313,15.183594C-36.478848,15.252178,-37.019947,15.13039,-37.472656,14.839844C-37.949936,14.469707,-38.247967,13.914804,-38.292969,13.3125C-38.404659,12.610046,-38.308262,11.890475,-38.015625,11.242188C-37.746899,10.727503,-37.243694,10.375992,-36.667969,10.300781C-36.383579,10.257278,-36.094929,10.249407,-35.808594,10.277344M-40.417969,10.285156C-39.642075,10.372836,-39.030727,10.989058,-38.949219,11.765625L-39.746094,11.816406C-39.77103,11.34529,-40.129734,10.958612,-40.597656,10.898438C-40.975163,10.822242,-41.365437,10.949868,-41.625,11.234375C-41.884293,11.611329,-42.014534,12.062379,-41.996094,12.519531C-42.032917,12.988476,-41.981228,13.460306,-41.84375,13.910156C-41.693283,14.341656,-41.26759,14.615752,-40.8125,14.574219C-40.364231,14.617759,-39.948589,14.332408,-39.828125,13.898438L-39.785156,13.710938L-38.972656,13.773438C-39.089344,14.515862,-39.690235,15.08792,-40.4375,15.167969C-40.983498,15.267086,-41.547192,15.149303,-42.007813,14.839844C-42.408333,14.518019,-42.674366,14.058385,-42.753906,13.550781C-42.918125,12.776606,-42.840401,11.970707,-42.53125,11.242188C-42.243214,10.66783,-41.665462,10.295137,-41.023438,10.269531C-40.821579,10.255205,-40.618816,10.260435,-40.417969,10.285156M53.636719,12.828125C53.610329,13.248978,53.69949,13.669106,53.894531,14.042969C54.045349,14.315657,54.33704,14.480416,54.648438,14.46875C54.790249,14.470699,54.931808,14.45629,55.070313,14.425781L55.070313,15.148438C54.722527,15.255963,54.344463,15.189085,54.054688,14.96875C53.839775,14.732117,53.689133,14.44427,53.617188,14.132813L53.601563,14.132813C53.594528,14.457129,53.582802,14.781494,53.566406,15.105469L52.820313,15.105469C52.837791,14.735925,52.845604,14.366058,52.84375,13.996094L52.84375,10.351563L53.636719,10.351563L53.636719,12.828125M-45.3125,10.277344C-44.910225,10.302318,-44.525429,10.451044,-44.210938,10.703125C-43.996037,10.885495,-43.833015,11.121263,-43.738281,11.386719L-44.429688,11.585938C-44.594368,11.171734,-44.984596,10.891256,-45.429688,10.867188C-45.795197,10.79987,-46.172649,10.8861,-46.472656,11.105469C-46.778683,11.379535,-46.961773,11.765397,-46.980469,12.175781C-46.995163,12.304143,-47.001686,12.433312,-47,12.5625L-43.609375,12.5625C-43.578163,13.125958,-43.678471,13.689014,-43.902344,14.207031C-44.199986,14.793244,-44.795853,15.16848,-45.453125,15.183594C-45.985416,15.251772,-46.525131,15.130004,-46.976563,14.839844C-47.456032,14.471714,-47.754749,13.915524,-47.796875,13.3125C-47.906715,12.610406,-47.811798,11.891687,-47.523438,11.242188C-47.251987,10.728172,-46.748116,10.377211,-46.171875,10.300781C-45.887486,10.257282,-45.598835,10.24941,-45.3125,10.277344M39.808594,10.277344C40.315834,10.310672,40.777821,10.581495,41.054688,11.007813L41.214844,11.261719L41.238281,11.261719C41.232937,11.00082,41.313999,10.745271,41.46875,10.535156C41.637127,10.369109,41.869823,10.284868,42.105469,10.304688C42.310486,10.306908,42.514709,10.330473,42.714844,10.375L42.714844,10.867188C42.559406,10.823717,42.394417,10.829181,42.242188,10.882813C42.090408,11.001493,42.007328,11.186623,42.019531,11.378906L42.011719,11.546875C42.025932,12.291532,42.024628,13.036679,42.007813,13.78125C41.993229,14.460771,41.492008,15.032863,40.820313,15.136719C40.260296,15.243075,39.682568,15.199984,39.144531,15.011719C38.683285,14.827054,38.360607,14.40384,38.304688,13.910156L39.128906,13.835938C39.138638,14.185386,39.39093,14.481652,39.734375,14.546875C40.037785,14.611404,40.351955,14.604727,40.652344,14.527344C40.900208,14.456671,41.091236,14.258206,41.152344,14.007813C41.206646,13.759048,41.227661,13.504301,41.214844,13.25C40.771885,13.259928,40.328716,13.2495,39.886719,13.21875C39.419697,13.218231,38.963337,13.076547,38.578125,12.8125C38.249229,12.529254,38.070229,12.109195,38.09375,11.675781C38.073933,11.297106,38.202915,10.92555,38.453125,10.640625C38.743309,10.368598,39.134686,10.231045,39.53125,10.261719L39.808594,10.277344M45.507813,10.285156C46.283398,10.374881,46.894844,10.989578,46.980469,11.765625L46.179688,11.816406C46.155846,11.546796,46.031788,11.295918,45.832031,11.113281C45.36573,10.756,44.705135,10.808247,44.300781,11.234375C44.041481,11.611326,43.911236,12.062379,43.929688,12.519531C43.892883,12.988476,43.944572,13.4603,44.082031,13.910156C44.23315,14.342952,44.660801,14.617332,45.117188,14.574219C45.564144,14.616059,45.977695,14.331022,46.097656,13.898438L46.140625,13.710938L46.953125,13.773438C46.836819,14.51611,46.235771,15.088293,45.488281,15.167969C44.942299,15.266888,44.378651,15.14912,43.917969,14.839844C43.517456,14.518014,43.251423,14.058381,43.171875,13.550781C43.007648,12.776605,43.085377,11.970705,43.394531,11.242188C43.68462,10.667791,44.263283,10.295468,44.90625,10.269531C45.106804,10.255219,45.308273,10.260455,45.507813,10.285156M-53.820313,10.65625C-53.817299,10.801051,-53.823826,10.945899,-53.839844,11.089844L-53.816406,11.089844C-53.596626,10.611443,-53.127541,10.296217,-52.601563,10.273438C-52.131592,10.19529,-51.649734,10.317177,-51.273438,10.609375C-50.922359,10.955129,-50.702801,11.412186,-50.652344,11.902344C-50.53548,12.622092,-50.572754,13.358239,-50.761719,14.0625C-50.948017,14.76841,-51.611767,15.241578,-52.339844,15.1875C-52.657146,15.201841,-52.972546,15.131764,-53.253906,14.984375C-53.501141,14.83114,-53.695961,14.606349,-53.8125,14.339844L-53.828125,14.339844C-53.832932,14.595609,-53.848572,14.851027,-53.875,15.105469L-54.636719,15.105469C-54.620102,14.89364,-54.612282,14.681223,-54.613281,14.46875L-54.613281,8.484375L-53.820313,8.484375L-53.820313,10.65625M34.105469,10.507813C34.112988,10.702028,34.106461,10.896566,34.085938,11.089844L34.109375,11.089844C34.328423,10.612532,34.795692,10.297502,35.320313,10.273438C35.791531,10.194628,36.27486,10.316525,36.652344,10.609375C37.003426,10.955127,37.22298,11.412186,37.273438,11.902344C37.390305,12.622093,37.353035,13.358238,37.164063,14.0625C36.97694,14.767713,36.313622,15.24059,35.585938,15.1875C35.268635,15.201845,34.953236,15.131763,34.671875,14.984375C34.424633,14.831149,34.229809,14.606356,34.113281,14.339844L34.097656,14.339844C34.091549,14.595534,34.075912,14.850943,34.050781,15.105469L33.289063,15.105469C33.30011,14.893312,33.307919,14.681143,33.3125,14.46875L33.3125,8.484375L34.105469,8.484375L34.105469,10.507813M-31.238281,10.265625C-30.758791,10.261772,-30.292465,10.423194,-29.917969,10.722656C-29.415905,11.212404,-29.393456,12.010141,-29.867188,12.527344C-30.171322,12.779067,-30.531765,12.953258,-30.917969,13.035156C-31.312298,13.118788,-31.700119,13.231085,-32.078125,13.371094C-32.259274,13.426634,-32.404003,13.564122,-32.46875,13.742188C-32.554958,13.992859,-32.462067,14.269914,-32.242188,14.417969C-31.745159,14.643987,-31.175579,14.642564,-30.679688,14.414063C-30.494516,14.312266,-30.364216,14.133268,-30.324219,13.925781L-29.613281,14.015625C-29.682524,14.482149,-30.006739,14.871196,-30.453125,15.023438C-31.133383,15.250849,-31.870745,15.238446,-32.542969,14.988281C-33.109898,14.745254,-33.403141,14.113263,-33.222656,13.523438C-33.101753,13.171631,-32.831558,12.891413,-32.484375,12.757813C-31.968632,12.576778,-31.444656,12.420368,-30.914063,12.289063C-30.67178,12.235461,-30.464558,12.078254,-30.347656,11.859375C-30.224638,11.569139,-30.320587,11.232561,-30.578125,11.050781C-30.935511,10.880594,-31.334631,10.819509,-31.726563,10.875C-32.000954,10.884285,-32.265747,10.978457,-32.484375,11.144531C-32.617462,11.26687,-32.711254,11.425894,-32.753906,11.601563L-33.453125,11.464844C-33.327381,10.872622,-32.845394,10.421831,-32.246094,10.335938C-31.914349,10.270909,-31.57584,10.247293,-31.238281,10.265625M30.675781,10.265625C31.101757,10.266947,31.518505,10.391834,31.875,10.625C32.410805,11.033085,32.546272,11.781564,32.1875,12.351563C31.947466,12.652859,31.615709,12.866718,31.242188,12.960938C30.767006,13.079319,30.296593,13.216145,29.832031,13.371094C29.681326,13.422891,29.553785,13.526899,29.472656,13.664063C29.339489,13.928789,29.423018,14.251196,29.667969,14.417969C30.165024,14.643799,30.734549,14.642377,31.230469,14.414063C31.416018,14.312637,31.546417,14.133516,31.585938,13.925781L32.296875,14.015625C32.227169,14.480679,31.905094,14.868976,31.460938,15.023438C30.779379,15.251022,30.040722,15.238622,29.367188,14.988281C28.854515,14.771175,28.559383,14.227942,28.65625,13.679688C28.730568,13.257383,29.023554,12.906397,29.425781,12.757813C29.941988,12.57822,30.465921,12.421822,30.996094,12.289063C31.238695,12.236044,31.446081,12.078721,31.5625,11.859375C31.687225,11.569076,31.591059,11.231709,31.332031,11.050781C30.976086,10.880468,30.578152,10.819355,30.1875,10.875C29.912851,10.882811,29.647585,10.97716,29.429688,11.144531C29.294514,11.265779,29.199165,11.425121,29.15625,11.601563L28.457031,11.464844C28.583204,10.871441,29.067186,10.420242,29.667969,10.335938C29.999702,10.270814,30.338219,10.247196,30.675781,10.265625M-48.820313,15.105469L-49.609375,15.105469L-49.609375,10.351563L-48.820313,10.351563L-48.820313,15.105469M48.4375,13.167969C48.435181,13.55058,48.563335,13.92263,48.800781,14.222656C49.030548,14.481841,49.364876,14.62387,49.710938,14.609375C50.050602,14.633042,50.383694,14.505794,50.621094,14.261719C50.796207,14.046451,50.911934,13.789433,50.957031,13.515625L51.003906,13.167969L48.4375,13.167969M-17.480469,13.167969C-17.487358,13.551296,-17.358679,13.92488,-17.117188,14.222656C-16.887493,14.481964,-16.553131,14.624031,-16.207031,14.609375C-15.86757,14.63145,-15.535174,14.504482,-15.296875,14.261719C-15.121117,14.047348,-15.006454,13.789696,-14.964844,13.515625L-14.914063,13.167969L-17.480469,13.167969M-46.992188,13.167969C-46.995277,13.550751,-46.867073,13.922975,-46.628906,14.222656C-46.399208,14.481958,-46.06485,14.624028,-45.71875,14.609375C-45.379288,14.631458,-45.04689,14.504486,-44.808594,14.261719C-44.632813,14.047362,-44.51815,13.789701,-44.476563,13.515625L-44.425781,13.167969L-46.992188,13.167969M-6.382813,10.855469C-6.81463,10.883518,-7.185308,11.173547,-7.316406,11.585938C-7.551917,12.337771,-7.551917,13.142696,-7.316406,13.894531C-7.16783,14.30713,-6.78206,14.587547,-6.34375,14.601563C-5.997168,14.657283,-5.64247,14.568254,-5.363281,14.355469C-5.113446,14.094959,-4.964092,13.754765,-4.941406,13.394531C-4.842088,12.781932,-4.887582,12.15437,-5.074219,11.5625C-5.217135,11.144002,-5.608582,10.860595,-6.050781,10.855469C-6.161212,10.845039,-6.272382,10.845039,-6.382813,10.855469M-37.488281,13.167969C-37.491383,13.550752,-37.363167,13.922976,-37.125,14.222656C-36.895298,14.481956,-36.560944,14.624021,-36.214844,14.609375C-35.875381,14.631454,-35.542976,14.504494,-35.304688,14.261719C-35.129581,14.046447,-35.013855,13.789432,-34.96875,13.515625L-34.921875,13.167969L-37.488281,13.167969M-52.710938,10.851563C-53.193584,10.873903,-53.601368,11.219077,-53.703125,11.691406C-53.893631,12.440124,-53.859688,13.227481,-53.605469,13.957031C-53.463371,14.302458,-53.138092,14.538478,-52.765625,14.566406C-52.439438,14.632549,-52.100426,14.547808,-51.84375,14.335938C-51.644096,14.131633,-51.518867,13.866049,-51.488281,13.582031C-51.368355,12.900138,-51.397663,12.200725,-51.574219,11.53125C-51.696438,11.10101,-52.104698,10.815207,-52.550781,10.847656L-52.710938,10.851563M35.210938,10.851563C34.72884,10.873083,34.321667,11.219093,34.222656,11.691406C34.031448,12.440086,34.065392,13.227578,34.320313,13.957031C34.462418,14.302453,34.787689,14.538475,35.160156,14.566406C35.486294,14.63203,35.825146,14.547319,36.082031,14.335938C36.313286,14.076411,36.448341,13.745655,36.464844,13.398438C36.555843,12.774896,36.517281,12.13922,36.351563,11.53125C36.227276,11.102412,35.820477,10.817656,35.375,10.847656L35.210938,10.851563M3.621094,10.867188C3.232671,10.921186,2.957519,11.274212,3,11.664063C2.965845,12.128069,3.294214,12.541507,3.753906,12.613281C3.980821,12.654562,4.210786,12.676775,4.441406,12.679688L5.308594,12.695313C5.337825,12.444389,5.320601,12.190006,5.257813,11.945313C5.062725,11.224377,4.360488,10.761805,3.621094,10.867188M39.527344,10.867188C39.139145,10.921481,38.86412,11.274356,38.90625,11.664063C38.872795,12.12908,39.203186,12.542912,39.664063,12.613281C39.889645,12.654657,40.118324,12.676872,40.347656,12.679688L41.214844,12.695313C41.244076,12.444389,41.226852,12.190006,41.164063,11.945313C40.969639,11.223783,40.267021,10.760963,39.527344,10.867188M-24.886719,10.867188C-25.275139,10.921193,-25.550293,11.274214,-25.507813,11.664063C-25.542559,12.12832,-25.213976,12.542019,-24.753906,12.613281C-24.527044,12.654915,-24.297045,12.677132,-24.066406,12.679688L-23.203125,12.695313C-23.177402,12.44449,-23.193247,12.190981,-23.25,11.945313C-23.44532,11.224586,-24.147427,10.762104,-24.886719,10.867188M28.109375,-0.078125C28.769716,-0.029536,29.323294,0.441796,29.476563,1.085938C29.734417,2.008114,29.711308,2.98557,29.410156,3.894531C29.207321,4.43862,28.697374,4.808373,28.117188,4.832031C27.664963,4.896737,27.205013,4.789415,26.828125,4.53125C26.652727,4.384553,26.512577,4.200354,26.417969,3.992188L26.398438,3.992188C26.430441,4.835534,26.436956,5.67973,26.417969,6.523438L25.625,6.523438L25.625,0.640625C25.625761,0.426854,25.617943,0.213145,25.601563,0L26.363281,0C26.384794,0.245934,26.404325,0.492027,26.421875,0.738281C26.645864,0.261779,27.114737,-0.052305,27.640625,-0.078125C27.796476,-0.093907,27.953524,-0.093907,28.109375,-0.078125M65.445313,2.804688C65.427383,3.180388,65.546768,3.549655,65.78125,3.84375C66.095093,4.176364,66.564095,4.313777,67.007813,4.203125C67.313576,4.162528,67.556786,3.925676,67.605469,3.621094C67.639709,3.421086,67.656693,3.218542,67.65625,3.015625L67.65625,0L68.453125,0L68.453125,3.167969C68.482735,3.583123,68.384544,3.997698,68.171875,4.355469C67.916191,4.664686,67.534012,4.841414,67.132813,4.835938C66.753975,4.882014,66.369926,4.808216,66.035156,4.625C65.775017,4.455192,65.564705,4.219265,65.425781,3.941406L65.410156,3.941406C65.429672,4.235328,65.441399,4.529678,65.445313,4.824219L65.445313,6.523438L64.65625,6.523438L64.65625,0L65.445313,0L65.445313,2.804688M42.925781,1.691406L43.503906,2.171875L45.113281,0L46.039063,0L44.011719,2.710938L45.941406,4.753906L45.011719,4.753906L42.925781,2.449219L42.925781,6.523438L42.132813,6.523438L42.132813,0L42.925781,0L42.925781,1.691406M31.421875,6.523438L30.632813,6.523438L30.632813,0L31.421875,0L31.421875,6.523438M-33.601563,2.804688C-33.623341,3.180823,-33.503479,3.551556,-33.265625,3.84375C-32.994713,4.141377,-32.593143,4.283536,-32.195313,4.222656C-31.829594,4.240286,-31.507477,3.981922,-31.445313,3.621094C-31.40731,3.421526,-31.388996,3.218772,-31.390625,3.015625L-31.390625,0L-30.597656,0L-30.597656,3.167969C-30.564722,3.582878,-30.661692,3.99807,-30.875,4.355469C-31.132792,4.664193,-31.515793,4.840631,-31.917969,4.835938C-32.295536,4.881528,-32.678185,4.807731,-33.011719,4.625C-33.271038,4.447876,-33.486797,4.214079,-33.642578,3.941406C-33.612514,4.234701,-33.598824,4.529399,-33.601563,4.824219L-33.601563,6.523438L-34.394531,6.523438L-34.394531,0L-33.601563,0L-33.601563,2.804688M-70.949219,-0.078125C-70.367622,-0.040344,-69.862465,0.336225,-69.660156,0.882813C-69.325417,1.858886,-69.32267,2.916732,-69.652344,3.894531C-69.854362,4.439362,-70.364677,4.809377,-70.945313,4.832031C-71.397484,4.896204,-71.8573,4.788913,-72.234375,4.53125C-72.400871,4.372458,-72.54425,4.190936,-72.660156,3.992188C-72.63475,4.835719,-72.629539,5.679688,-72.644531,6.523438L-73.433594,6.523438L-73.433594,0.800781C-73.431892,0.533605,-73.44101,0.266443,-73.460938,0L-72.695313,0C-72.673576,0.245787,-72.655334,0.491991,-72.640625,0.738281C-72.41494,0.263181,-71.947113,-0.050202,-71.421875,-0.078125C-71.264717,-0.093932,-71.106377,-0.093932,-70.949219,-0.078125M55.554688,-0.078125C56.072834,-0.035993,56.564571,0.167533,56.960938,0.503906C57.458237,-0.014613,58.212669,-0.194819,58.890625,0.042969L58.890625,0.636719C58.384869,0.46387,57.824848,0.604641,57.460938,0.996094C57.890736,1.623477,58.206768,2.32166,58.394531,3.058594L57.757813,3.246094C57.617195,2.605283,57.361771,1.995177,57.003906,1.445313C56.508804,1.999297,56.077705,2.607289,55.71875,3.257813C56.22929,3.434066,56.702236,3.70432,57.113281,4.054688C57.576107,4.486489,57.649452,5.193301,57.285156,5.710938C57.052685,5.992298,56.718616,6.17056,56.355469,6.207031C55.934887,6.271779,55.504627,6.20778,55.121094,6.023438C54.707176,5.779342,54.465569,5.32331,54.496094,4.84375C54.512661,4.379892,54.634212,3.925742,54.851563,3.515625C54.415688,3.342768,54.028236,3.066593,53.722656,2.710938C53.203354,2.056582,53.211487,1.129519,53.742188,0.484375C54.102161,0.125049,54.58905,-0.078405,55.097656,-0.082031C55.249836,-0.09373,55.402733,-0.092423,55.554688,-0.078125M-62.191406,-0.0625C-61.990578,-0.051228,-61.791512,-0.018487,-61.597656,0.035156L-61.597656,0.621094C-61.82201,0.553056,-62.060036,0.543642,-62.289063,0.59375C-62.456928,0.666382,-62.56031,0.837119,-62.546875,1.019531L-62.554688,1.179688L-62.554688,4.179688L-61.675781,4.179688L-61.675781,4.753906L-62.554688,4.753906L-62.554688,5.820313L-63.082031,5.820313L-63.316406,4.753906L-63.894531,4.753906L-63.894531,4.179688L-63.34375,4.179688L-63.34375,1.007813C-63.36673,0.718159,-63.281849,0.430124,-63.105469,0.199219C-62.921413,0.00664,-62.659996,-0.092467,-62.394531,-0.070313L-62.191406,-0.0625M63.367188,-0.0625C63.569344,-0.051633,63.769745,-0.018887,63.964844,0.035156L63.964844,0.621094C63.74049,0.553056,63.502464,0.543642,63.273438,0.59375C63.104885,0.665731,63.001293,0.836812,63.015625,1.019531L63.007813,1.179688L63.007813,4.179688L63.886719,4.179688L63.886719,4.753906L63.007813,4.753906L63.007813,5.820313L62.480469,5.820313L62.246094,4.753906L61.667969,4.753906L61.667969,4.179688L62.214844,4.179688L62.214844,1.007813C62.196468,0.718629,62.280869,0.432225,62.453125,0.199219C62.638165,0.008084,62.898819,-0.090735,63.164063,-0.070313L63.367188,-0.0625M-10.660156,-0.0625C-10.458001,-0.051632,-10.257601,-0.018887,-10.0625,0.035156L-10.0625,0.621094C-10.288207,0.553181,-10.527468,0.543772,-10.757813,0.59375C-10.923034,0.669475,-11.025095,0.83803,-11.015625,1.019531L-11.019531,1.179688L-11.019531,4.179688L-10.140625,4.179688L-10.140625,4.753906L-11.019531,4.753906L-11.019531,5.820313L-11.546875,5.820313L-11.78125,4.753906L-12.359375,4.753906L-12.359375,4.179688L-11.8125,4.179688L-11.8125,1.007813C-11.830875,0.718629,-11.746476,0.432225,-11.574219,0.199219C-11.389247,0.007963,-11.128555,-0.090871,-10.863281,-0.070313L-10.660156,-0.0625M-35.679688,-0.0625C-35.477631,-0.05068,-35.27734,-0.017953,-35.082031,0.035156L-35.082031,0.621094C-35.307739,0.553181,-35.547001,0.543772,-35.777344,0.59375C-35.942566,0.669475,-36.044624,0.83803,-36.035156,1.019531L-36.039063,1.179688L-36.039063,4.179688L-35.160156,4.179688L-35.160156,4.753906L-36.039063,4.753906L-36.039063,5.820313L-36.566406,5.820313L-36.800781,4.753906L-37.382813,4.753906L-37.382813,4.179688L-36.832031,4.179688L-36.832031,1.007813C-36.855011,0.718158,-36.77013,0.430123,-36.59375,0.199219C-36.408779,0.007963,-36.148087,-0.090871,-35.882813,-0.070313L-35.679688,-0.0625M8.851563,-0.0625C9.052391,-0.051228,9.251453,-0.018487,9.445313,0.035156L9.445313,0.621094C9.220963,0.553025,8.98293,0.543611,8.753906,0.59375C8.58604,0.666382,8.482657,0.837119,8.496094,1.019531L8.488281,1.179688L8.488281,4.179688L9.367188,4.179688L9.367188,4.753906L8.488281,4.753906L8.488281,5.820313L7.960938,5.820313L7.730469,4.753906L7.148438,4.753906L7.148438,4.179688L7.699219,4.179688L7.699219,1.007813C7.676239,0.718158,7.761119,0.430123,7.9375,0.199219C8.122472,0.007963,8.383163,-0.090871,8.648438,-0.070313L8.851563,-0.0625M55.328125,4.050781C55.198925,4.36047,55.14925,4.697452,55.183594,5.03125C55.237385,5.445196,55.612347,5.740288,56.027344,5.695313C56.346889,5.724739,56.651623,5.553715,56.792969,5.265625C56.928417,4.886248,56.77404,4.46418,56.425781,4.261719C56.121502,4.06088,55.79517,3.895747,55.453125,3.769531L55.328125,4.050781M-27.113281,-0.070313C-26.710196,-0.046433,-26.324326,0.100825,-26.007813,0.351563C-25.791943,0.534604,-25.628759,0.771962,-25.535156,1.039063L-26.226563,1.234375C-26.389973,0.819799,-26.781412,0.53998,-27.226563,0.519531C-27.637915,0.437003,-28.06414,0.557742,-28.371094,0.84375C-28.647797,1.16949,-28.797644,1.584344,-28.792969,2.011719L-28.796875,2.210938L-25.40625,2.210938C-25.373268,2.774847,-25.475054,3.338686,-25.703125,3.855469C-25.995062,4.444971,-26.592247,4.821982,-27.25,4.832031C-27.782444,4.901711,-28.322506,4.779851,-28.773438,4.488281C-29.187267,4.180091,-29.465813,3.72378,-29.550781,3.214844C-29.696115,2.509562,-29.648899,1.778386,-29.414063,1.097656C-29.142332,0.399781,-28.475357,-0.064941,-27.726563,-0.078125C-27.522388,-0.096072,-27.316931,-0.093455,-27.113281,-0.070313M-66.136719,-0.070313C-65.733635,-0.046432,-65.347763,0.100826,-65.03125,0.351563C-64.815376,0.534604,-64.652199,0.771962,-64.558594,1.039063L-65.25,1.234375C-65.413406,0.819799,-65.804848,0.53998,-66.25,0.519531C-66.661354,0.437004,-67.087578,0.557741,-67.394531,0.84375C-67.671234,1.16949,-67.821083,1.584344,-67.816406,2.011719L-67.820313,2.210938L-64.429688,2.210938C-64.396706,2.774848,-64.498489,3.338686,-64.726563,3.855469C-65.018494,4.444976,-65.615685,4.821986,-66.273438,4.832031C-66.805878,4.901702,-67.34594,4.779847,-67.796875,4.488281C-68.210709,4.180092,-68.48925,3.723782,-68.574219,3.214844C-68.719551,2.509564,-68.67234,1.778387,-68.4375,1.097656C-68.165771,0.39978,-67.498795,-0.06494,-66.75,-0.078125C-66.54583,-0.096072,-66.34037,-0.093455,-66.136719,-0.070313M-21.09375,2.753906C-21.108221,3.055546,-21.043543,3.356027,-20.90625,3.625C-20.706446,4.012978,-20.299276,4.249351,-19.863281,4.230469C-19.619856,4.259208,-19.374014,4.194954,-19.175781,4.050781C-19.009886,3.887341,-18.913383,3.666366,-18.90625,3.433594C-18.887001,3.295147,-18.879164,3.155356,-18.882813,3.015625L-18.882813,0L-18.085938,0L-18.085938,3.167969C-18.054537,3.580271,-18.151459,3.992537,-18.363281,4.347656C-18.615562,4.664385,-19.001429,4.845035,-19.40625,4.835938C-19.848045,4.894625,-20.29558,4.781342,-20.65625,4.519531C-20.837231,4.34726,-20.996038,4.153015,-21.128906,3.941406C-21.129757,4.212593,-21.141487,4.483657,-21.164063,4.753906L-21.910156,4.753906C-21.892151,4.540831,-21.883028,4.327114,-21.882813,4.113281L-21.882813,0L-21.09375,0L-21.09375,2.753906M-4.703125,-0.0625C-3.929282,0.026974,-3.319742,0.639756,-3.234375,1.414063L-4.03125,1.46875C-4.055211,0.995699,-4.416528,0.607984,-4.886719,0.550781C-5.416973,0.434881,-5.950334,0.738694,-6.121094,1.253906C-6.37083,2.050252,-6.354387,2.905251,-6.074219,3.691406C-5.884322,4.047868,-5.50009,4.25689,-5.097656,4.222656C-4.839997,4.239031,-4.585766,4.156615,-4.386719,3.992188C-4.213964,3.824294,-4.103692,3.602371,-4.074219,3.363281L-3.257813,3.421875C-3.375903,4.165803,-3.97774,4.738829,-4.726563,4.820313C-5.20573,4.896815,-5.697,4.818814,-6.128906,4.597656C-6.624608,4.291494,-6.958352,3.780137,-7.039063,3.203125C-7.178015,2.501819,-7.133624,1.776774,-6.910156,1.097656C-6.668158,0.414551,-6.032822,-0.051878,-5.308594,-0.078125C-5.106897,-0.097889,-4.903533,-0.092641,-4.703125,-0.0625M-0.898438,-0.074219C-0.391546,-0.039996,0.070181,0.230672,0.347656,0.65625L0.507813,0.910156L0.53125,0.910156C0.526667,0.651104,0.606153,0.397569,0.757813,0.1875C0.928005,0.021717,1.161636,-0.062334,1.398438,-0.042969C1.603745,-0.045923,1.808573,-0.022289,2.007813,0.027344L2.007813,0.519531C1.851709,0.473024,1.684879,0.477127,1.53125,0.53125C1.378789,0.650666,1.296729,0.838232,1.3125,1.03125L1.304688,1.195313L1.304688,3.242188C1.344566,3.739308,1.129751,4.223377,0.734375,4.527344C0.365634,4.754984,-0.063281,4.865277,-0.496094,4.84375C-0.960527,4.868098,-1.421942,4.756815,-1.824219,4.523438C-2.146492,4.299796,-2.357135,3.948249,-2.402344,3.558594L-1.578125,3.484375C-1.570139,3.834693,-1.317235,4.131653,-0.972656,4.195313C-0.608589,4.29466,-0.220755,4.261416,0.121094,4.101563C0.344731,3.949482,0.482546,3.699964,0.492188,3.429688C0.507573,3.254358,0.51279,3.07828,0.507813,2.902344C0.063571,2.903694,-0.380525,2.893276,-0.824219,2.871094C-1.234592,2.861314,-1.636564,2.752781,-1.996094,2.554688C-2.408035,2.287138,-2.643912,1.818369,-2.613281,1.328125C-2.633986,0.948146,-2.504947,0.575054,-2.253906,0.289063C-1.961717,0.020197,-1.571933,-0.116792,-1.175781,-0.089844L-0.898438,-0.074219M15.933594,2.480469C15.907567,2.90128,15.996713,3.321343,16.191406,3.695313C16.345884,3.963925,16.635574,4.126032,16.945313,4.117188C17.087122,4.119129,17.228682,4.104711,17.367188,4.074219L17.367188,4.800781C17.018604,4.905095,16.641565,4.836938,16.351563,4.617188C16.137667,4.381357,15.987116,4.095044,15.914063,3.785156L15.898438,3.785156C15.891853,4.108191,15.880131,4.431245,15.863281,4.753906L15.117188,4.753906C15.134713,4.385704,15.142529,4.01706,15.140625,3.648438L15.140625,0L15.933594,0L15.933594,2.480469M20.414063,-0.070313C20.817045,-0.046044,21.202839,0.101185,21.519531,0.351563C21.732307,0.537428,21.89484,0.77384,21.992188,1.039063L21.300781,1.234375C21.137371,0.819799,20.745932,0.539981,20.300781,0.519531C19.889437,0.435869,19.462603,0.556781,19.15625,0.84375C18.879547,1.16949,18.7297,1.584344,18.734375,2.011719L18.726563,2.210938L22.121094,2.210938C22.154076,2.774847,22.05229,3.338686,21.824219,3.855469C21.532204,4.444886,20.935055,4.821874,20.277344,4.832031C19.744883,4.902777,19.204395,4.780821,18.753906,4.488281C18.340076,4.18009,18.061531,3.72378,17.976563,3.214844C17.831228,2.509564,17.878445,1.778386,18.113281,1.097656C18.382956,0.400032,19.049055,-0.065156,19.796875,-0.078125C20.002352,-0.096059,20.209106,-0.093442,20.414063,-0.070313M34.761719,-0.078125C35.68058,-0.06146,36.45116,0.624422,36.574219,1.535156C36.716961,2.255477,36.673946,3.000127,36.449219,3.699219C36.233421,4.309934,35.683636,4.740923,35.039063,4.804688C34.488335,4.909856,33.91819,4.838758,33.410156,4.601563C32.968449,4.362486,32.650028,3.945976,32.535156,3.457031C32.301411,2.609698,32.359165,1.708974,32.699219,0.898438C33.000019,0.313391,33.596279,-0.061144,34.253906,-0.078125C34.422817,-0.09375,34.592808,-0.09375,34.761719,-0.078125M39.820313,-0.0625C40.59539,0.024122,41.206554,0.638535,41.289063,1.414063L40.492188,1.46875C40.468029,0.997209,40.109032,0.610213,39.640625,0.550781C39.109215,0.433479,38.573895,0.737448,38.402344,1.253906C38.176254,2.006675,38.173538,2.808216,38.394531,3.5625C38.547142,3.991905,38.971928,4.263837,39.425781,4.222656C39.68449,4.237959,39.939571,4.155719,40.140625,3.992188C40.31427,3.825401,40.423553,3.60268,40.449219,3.363281L41.265625,3.421875C41.147549,4.164323,40.547905,4.736781,39.800781,4.820313C39.254223,4.917166,38.69104,4.798087,38.230469,4.488281C37.829117,4.16884,37.562771,3.710057,37.484375,3.203125C37.344456,2.50165,37.390228,1.775988,37.617188,1.097656C37.8564,0.414198,38.491173,-0.052958,39.214844,-0.078125C39.416538,-0.097889,39.619904,-0.092641,39.820313,-0.0625M71.9375,-0.070313C72.339195,-0.04548,72.723541,0.101718,73.039063,0.351563C73.254936,0.534604,73.418114,0.771962,73.511719,1.039063L72.820313,1.234375C72.657234,0.819489,72.265648,0.539566,71.820313,0.519531C71.409019,0.437513,70.982956,0.558207,70.675781,0.84375C70.364731,1.228558,70.21244,1.717563,70.25,2.210938L73.640625,2.210938C73.673172,2.774483,73.572807,3.337831,73.347656,3.855469C73.052757,4.444055,72.455101,4.820422,71.796875,4.832031C71.264458,4.901484,70.724449,4.779632,70.273438,4.488281C69.859612,4.180089,69.581062,3.72378,69.496094,3.214844C69.350761,2.509563,69.39798,1.778387,69.632813,1.097656C69.904648,0.399882,70.571579,-0.064807,71.320313,-0.078125C71.525787,-0.096083,71.732544,-0.093466,71.9375,-0.070313M-47.125,-0.070313C-46.723305,-0.04548,-46.338959,0.101718,-46.023438,0.351563C-45.807568,0.534604,-45.644382,0.771962,-45.550781,1.039063L-46.242188,1.234375C-46.405266,0.819489,-46.796852,0.539567,-47.242188,0.519531C-47.653507,0.437276,-48.079647,0.557991,-48.386719,0.84375C-48.663422,1.16949,-48.813267,1.584343,-48.808594,2.011719L-48.8125,2.210938L-45.421875,2.210938C-45.389805,2.774438,-45.49015,3.337711,-45.714844,3.855469C-46.009735,4.444057,-46.607399,4.820418,-47.265625,4.832031C-47.798065,4.901665,-48.338116,4.779808,-48.789063,4.488281C-49.202892,4.180091,-49.481441,3.723781,-49.566406,3.214844C-49.711739,2.509563,-49.664524,1.778387,-49.429688,1.097656C-49.157955,0.399781,-48.490982,-0.064941,-47.742188,-0.078125C-47.536713,-0.096083,-47.329956,-0.093466,-47.125,-0.070313M-43.609375,2.753906C-43.629555,3.143611,-43.512005,3.528057,-43.277344,3.839844C-43.004581,4.142358,-42.59763,4.286331,-42.195313,4.222656C-41.823868,4.239509,-41.500004,3.969903,-41.449219,3.601563C-41.410847,3.408709,-41.393818,3.212207,-41.398438,3.015625L-41.398438,0L-40.601563,0L-40.601563,3.167969C-40.57016,3.580271,-40.667084,3.992537,-40.878906,4.347656C-41.130276,4.663377,-41.514481,4.843926,-41.917969,4.835938C-42.361023,4.895241,-42.810005,4.781949,-43.171875,4.519531C-43.352856,4.347259,-43.511665,4.153013,-43.644531,3.941406C-43.644768,4.212615,-43.656498,4.483697,-43.679688,4.753906L-44.425781,4.753906C-44.407776,4.540841,-44.398651,4.327105,-44.398438,4.113281L-44.398438,0L-43.609375,0L-43.609375,2.753906M-52.132813,-0.070313C-51.729828,-0.046044,-51.344036,0.101185,-51.027344,0.351563C-50.814568,0.537428,-50.652035,0.77384,-50.554688,1.039063L-51.246094,1.234375C-51.409504,0.819798,-51.800945,0.539981,-52.246094,0.519531C-52.65744,0.435869,-53.084274,0.556781,-53.390625,0.84375C-53.667328,1.16949,-53.817177,1.584344,-53.8125,2.011719L-53.820313,2.210938L-50.425781,2.210938C-50.392799,2.774847,-50.494583,3.338684,-50.722656,3.855469C-51.014671,4.444887,-51.61182,4.821873,-52.269531,4.832031C-52.801991,4.902781,-53.34248,4.780823,-53.792969,4.488281C-54.206799,4.180092,-54.485344,3.723782,-54.570313,3.214844C-54.716518,2.509584,-54.669292,1.778252,-54.433594,1.097656C-54.163918,0.400032,-53.497818,-0.065157,-52.75,-0.078125C-52.544521,-0.09606,-52.337769,-0.093442,-52.132813,-0.070313M3.40625,0.304688C3.409696,0.449491,3.40317,0.594376,3.386719,0.738281L3.410156,0.738281C3.628638,0.259384,4.098964,-0.055174,4.625,-0.074219C5.095124,-0.15381,5.577383,-0.031827,5.953125,0.261719C6.305791,0.606318,6.52565,1.064012,6.574219,1.554688C6.690771,2.274452,6.653501,3.010533,6.464844,3.714844C6.304773,4.346597,5.748739,4.799368,5.097656,4.828125C4.711579,4.882014,4.317977,4.813681,3.972656,4.632813C3.726756,4.47975,3.532216,4.25664,3.414063,3.992188L3.398438,3.992188C3.393476,4.246638,3.377837,4.500769,3.351563,4.753906L2.589844,4.753906C2.60651,4.543381,2.614328,4.332279,2.613281,4.121094L2.613281,-1.867188L3.40625,-1.867188L3.40625,0.304688M48.496094,-0.082031C48.973869,-0.086412,49.438644,0.073569,49.8125,0.371094C50.317268,0.858968,50.341488,1.658239,49.867188,2.175781C49.562397,2.427379,49.202419,2.602684,48.816406,2.6875C48.421539,2.772489,48.032631,2.883416,47.652344,3.019531C47.470207,3.075492,47.325066,3.214831,47.261719,3.394531C47.17701,3.645976,47.271492,3.923022,47.492188,4.070313C47.990147,4.293831,48.558987,4.290987,49.054688,4.0625C49.236416,3.959487,49.364632,3.78283,49.40625,3.578125L50.117188,3.664063C50.050701,4.13049,49.727352,4.520321,49.28125,4.671875C48.601921,4.904835,47.862514,4.892394,47.191406,4.636719C46.67646,4.421811,46.37915,3.877548,46.476563,3.328125C46.549522,2.904819,46.845211,2.553876,47.25,2.410156C47.693127,2.234551,48.150574,2.097317,48.617188,2C48.889599,1.957081,49.139378,1.821841,49.324219,1.617188C49.528496,1.316651,49.453712,0.907948,49.15625,0.699219C48.884544,0.557733,48.579025,0.494195,48.273438,0.515625C47.970387,0.49965,47.668129,0.560103,47.394531,0.691406C47.183578,0.813201,47.032307,1.016783,46.976563,1.253906L46.277344,1.117188C46.40477,0.523829,46.887756,0.072005,47.488281,-0.015625C47.819855,-0.081842,48.158703,-0.104169,48.496094,-0.082031M-59.199219,0.382813C-58.863609,1.616478,-58.556221,2.857769,-58.277344,4.105469L-58.121094,3.363281L-57.289063,0L-56.371094,0L-55.007813,4.753906L-55.78125,4.753906L-56.683594,1.265625L-56.820313,0.65625C-57.151733,2.024658,-57.495758,3.391678,-57.851563,4.753906L-58.699219,4.753906L-59.695313,0.980469L-59.769531,0.65625C-59.824947,0.946779,-59.887474,1.235964,-59.957031,1.523438L-60.761719,4.753906L-61.542969,4.753906L-60.210938,0L-59.296875,0L-59.199219,0.382813M11.859375,-0.074219C12.31829,-0.046737,12.736563,0.198708,12.984375,0.585938L13.142578,0.8125C13.143202,0.54142,13.152973,0.270421,13.171875,0L13.921875,0C13.901506,0.271637,13.892384,0.544021,13.894531,0.816406L13.894531,4.753906L13.101563,4.753906L13.101563,2C13.124329,1.610563,13.008049,1.225731,12.773438,0.914063C12.499523,0.61079,12.091045,0.466794,11.6875,0.53125C11.317664,0.516737,10.996214,0.78574,10.945313,1.152344C10.906171,1.346425,10.889137,1.544272,10.894531,1.742188L10.894531,4.753906L10.097656,4.753906L10.097656,1.585938C10.080786,1.222004,10.150405,0.859185,10.300781,0.527344C10.493455,0.183214,10.848479,-0.039228,11.242188,-0.0625C11.446438,-0.094271,11.654068,-0.098213,11.859375,-0.074219M-15.15625,-0.074219C-14.697335,-0.046737,-14.279062,0.198708,-14.03125,0.585938L-13.890625,0.8125L-13.875,0.8125C-13.874764,0.541298,-13.863034,0.270208,-13.839844,0L-13.09375,0C-13.114119,0.271637,-13.123241,0.544021,-13.121094,0.816406L-13.121094,4.753906L-13.910156,4.753906L-13.910156,2C-13.891287,1.610436,-14.008689,1.226465,-14.242188,0.914063C-14.514948,0.611548,-14.921902,0.467572,-15.324219,0.53125C-15.695462,0.514838,-16.019131,0.784279,-16.070313,1.152344C-16.108492,1.346544,-16.125519,1.54432,-16.121094,1.742188L-16.121094,4.753906L-16.917969,4.753906L-16.917969,1.585938C-16.934839,1.222004,-16.865219,0.859185,-16.714844,0.527344C-16.522169,0.183214,-16.167145,-0.039228,-15.773438,-0.0625C-15.569187,-0.094271,-15.361557,-0.098213,-15.15625,-0.074219M-28.789063,2.816406C-28.796825,3.20106,-28.668098,3.576167,-28.425781,3.875C-28.194691,4.132061,-27.860979,4.272419,-27.515625,4.257813C-27.176975,4.279244,-26.845398,4.154013,-26.605469,3.914063C-26.430151,3.699446,-26.315525,3.441876,-26.273438,3.167969L-26.222656,2.816406L-28.789063,2.816406M-67.8125,2.816406C-67.820267,3.20106,-67.691536,3.576167,-67.449219,3.875C-67.218124,4.132057,-66.884415,4.272419,-66.539063,4.257813C-66.200417,4.279245,-65.868843,4.154008,-65.628906,3.914063C-65.45359,3.699445,-65.338959,3.441876,-65.296875,3.167969L-65.246094,2.816406L-67.8125,2.816406M18.738281,2.816406C18.729837,3.201206,18.858618,3.57647,19.101563,3.875C19.332653,4.13206,19.666365,4.272419,20.011719,4.257813C20.350368,4.279244,20.681946,4.154013,20.921875,3.914063C21.097193,3.699447,21.211819,3.441876,21.253906,3.167969L21.304688,2.816406L18.738281,2.816406M-53.808594,2.816406C-53.815659,3.200327,-53.688557,3.574727,-53.449219,3.875C-53.215858,4.131165,-52.881416,4.271224,-52.535156,4.257813C-52.196507,4.27924,-51.864929,4.154011,-51.625,3.914063C-51.449684,3.699444,-51.33506,3.441875,-51.292969,3.167969L-51.242188,2.816406L-53.808594,2.816406M-48.804688,2.816406C-48.81245,3.20106,-48.683723,3.576167,-48.441406,3.875C-48.210072,4.131657,-47.876488,4.271959,-47.53125,4.257813C-47.19257,4.279386,-46.860954,4.154138,-46.621094,3.914063C-46.44577,3.699449,-46.331146,3.441877,-46.289063,3.167969L-46.238281,2.816406L-48.804688,2.816406M34.339844,0.503906C33.84766,0.540825,33.441429,0.905309,33.351563,1.390625C33.16502,2.098852,33.183983,2.845129,33.40625,3.542969C33.578564,4.013309,34.048466,4.307804,34.546875,4.257813C34.88327,4.286082,35.215046,4.161124,35.449219,3.917969C35.672508,3.60226,35.79504,3.226493,35.800781,2.839844C35.865223,2.293478,35.813305,1.739713,35.648438,1.214844C35.503654,0.795452,35.111588,0.511165,34.667969,0.503906C34.558842,0.493466,34.448971,0.493466,34.339844,0.503906M70.257813,2.816406C70.253853,3.20052,70.382111,3.574258,70.621094,3.875C70.852432,4.131651,71.186012,4.271955,71.53125,4.257813C71.869926,4.279386,72.201546,4.154138,72.441406,3.914063C72.617477,3.699866,72.732162,3.442155,72.773438,3.167969L72.824219,2.816406L70.257813,2.816406M27.527344,0.503906C27.041929,0.522475,26.631468,0.871529,26.535156,1.347656C26.3547,2.060561,26.37361,2.808839,26.589844,3.511719C26.749474,3.976333,27.205893,4.273087,27.695313,4.230469C28.139744,4.264392,28.547026,3.979784,28.667969,3.550781C28.872362,2.777322,28.872362,1.964867,28.667969,1.191406C28.524,0.701443,28.027826,0.402379,27.527344,0.503906M-71.535156,0.503906C-72.019981,0.523642,-72.429977,0.872298,-72.527344,1.347656C-72.703178,2.061096,-72.684303,2.80807,-72.472656,3.511719C-72.311737,3.977003,-71.853699,4.273766,-71.363281,4.230469C-70.859871,4.260601,-70.417175,3.897936,-70.347656,3.398438C-70.185677,2.669581,-70.201752,1.912728,-70.394531,1.191406C-70.511765,0.756365,-70.921638,0.464529,-71.371094,0.496094L-71.535156,0.503906M4.511719,0.503906C4.028585,0.52324,3.620461,0.870064,3.523438,1.34375C3.332571,2.09245,3.366511,2.879875,3.621094,3.609375C3.761647,3.955435,4.088195,4.190853,4.460938,4.214844C4.786473,4.283247,5.126069,4.199788,5.382813,3.988281C5.61714,3.729154,5.752614,3.395998,5.765625,3.046875C5.856709,2.424626,5.81814,1.790227,5.652344,1.183594C5.53132,0.752216,5.122703,0.464549,4.675781,0.496094L4.511719,0.503906M55.074219,0.507813C54.674049,0.541585,54.324913,0.794407,54.167969,1.164063C53.944584,1.733899,54.153801,2.382808,54.667969,2.714844C54.810612,2.811474,54.962379,2.893898,55.121094,2.960938C55.519547,2.24697,55.987995,1.574393,56.519531,0.953125C56.132397,0.589418,55.598915,0.425048,55.074219,0.507813M-1.179688,0.519531C-1.567918,0.570817,-1.843991,0.923288,-1.800781,1.3125C-1.83618,1.777038,-1.507367,2.191036,-1.046875,2.261719C-0.820769,2.308589,-0.590272,2.330853,-0.359375,2.328125L0.507813,2.347656C0.532243,2.096603,0.51508,1.843126,0.457031,1.597656C0.265803,0.873948,-0.439271,0.409508,-1.179688,0.519531M19.914063,-3.828125L19.121094,-3.828125L19.121094,-10.351563L19.914063,-10.351563L19.914063,-3.828125M-19.921875,-10.429688C-19.261978,-10.378914,-18.710003,-9.906014,-18.558594,-9.261719C-18.300114,-8.340918,-18.323231,-7.364564,-18.625,-6.457031C-18.859772,-5.838579,-19.477684,-5.450586,-20.136719,-5.507813C-20.519005,-5.483429,-20.897923,-5.594062,-21.207031,-5.820313C-21.373529,-5.979104,-21.516905,-6.160626,-21.632813,-6.359375C-21.607426,-5.515844,-21.602215,-4.671875,-21.617188,-3.828125L-22.40625,-3.828125L-22.40625,-9.371094C-22.40077,-9.698163,-22.409893,-10.025303,-22.433594,-10.351563L-21.667969,-10.351563C-21.646763,-10.105719,-21.628529,-9.859573,-21.613281,-9.613281C-21.390209,-10.089887,-20.920271,-10.403182,-20.394531,-10.425781C-20.237349,-10.439974,-20.079271,-10.44128,-19.921875,-10.429688M-7.105469,-8.660156L-6.527344,-8.179688L-4.917969,-10.351563L-3.992188,-10.351563L-6.019531,-7.640625L-4.089844,-5.59375L-5.019531,-5.59375L-7.105469,-7.902344L-7.105469,-3.828125L-7.898438,-3.828125L-7.898438,-10.351563L-7.105469,-10.351563L-7.105469,-8.660156M16.410156,-10.421875C16.812759,-10.396191,17.198273,-10.249067,17.515625,-10C17.728401,-9.814136,17.890938,-9.577724,17.988281,-9.3125L17.292969,-9.117188C17.128819,-9.531247,16.737869,-9.810712,16.292969,-9.832031C15.882189,-9.91242,15.457616,-9.790283,15.152344,-9.503906C14.873826,-9.179214,14.723729,-8.763665,14.730469,-8.335938L14.722656,-8.140625L18.117188,-8.140625C18.149462,-7.575493,18.047718,-7.010548,17.820313,-6.492188C17.570026,-5.97783,17.078667,-5.622877,16.511719,-5.546875C15.906106,-5.421738,15.275623,-5.533576,14.75,-5.859375C14.271528,-6.228815,13.971936,-6.783983,13.925781,-7.386719C13.834063,-8.014698,13.897101,-8.655817,14.109375,-9.253906C14.379814,-9.950813,15.04556,-10.415753,15.792969,-10.429688C15.99861,-10.442266,16.204901,-10.439654,16.410156,-10.421875M9.921875,-7.59375C9.899109,-7.204313,10.015388,-6.819481,10.25,-6.507813C10.569324,-6.17055,11.046214,-6.033014,11.496094,-6.148438C11.803464,-6.194911,12.041818,-6.441264,12.078125,-6.75C12.115587,-6.943057,12.133902,-7.139282,12.132813,-7.335938L12.132813,-10.351563L12.925781,-10.351563L12.925781,-7.183594C12.957623,-6.770028,12.860692,-6.356367,12.648438,-6C12.438029,-5.730844,12.125484,-5.561137,11.785156,-5.53125C11.35866,-5.457124,10.919765,-5.520019,10.53125,-5.710938C10.259472,-5.885996,10.035822,-6.126436,9.880859,-6.410156C9.881408,-6.137733,9.871636,-5.865428,9.851563,-5.59375L9.101563,-5.59375C9.123819,-5.806519,9.132952,-6.02048,9.128906,-6.234375L9.128906,-10.351563L9.921875,-10.351563L9.921875,-7.59375M5.597656,-10.425781C6.20781,-10.370653,6.743265,-9.995835,7.003906,-9.441406L7.027344,-9.441406C7.02281,-9.700983,7.103833,-9.955039,7.257813,-10.164063C7.425874,-10.330692,7.658752,-10.414986,7.894531,-10.394531C8.099547,-10.392311,8.303773,-10.368746,8.503906,-10.324219L8.503906,-9.832031C8.320768,-9.905298,8.111983,-9.878645,7.953125,-9.761719C7.83506,-9.582932,7.781388,-9.369623,7.800781,-9.15625C7.815025,-8.410124,7.813721,-7.664019,7.796875,-6.917969C7.78401,-6.23987,7.283755,-5.668622,6.613281,-5.566406C6.052531,-5.454952,5.472557,-5.496764,4.933594,-5.6875C4.47355,-5.873857,4.151633,-6.296092,4.09375,-6.789063L4.917969,-6.867188C4.928339,-6.517093,5.179821,-6.220181,5.523438,-6.152344C5.826851,-6.087891,6.141008,-6.094575,6.441406,-6.171875C6.689698,-6.24194,6.880902,-6.440613,6.941406,-6.691406C6.995505,-6.9402,7.016513,-7.194921,7.003906,-7.449219C6.561023,-7.447598,6.118095,-7.458019,5.675781,-7.480469C5.264081,-7.489625,4.860694,-7.598178,4.5,-7.796875C4.088538,-8.064787,3.852758,-8.533362,3.882813,-9.023438C3.861015,-9.402397,3.990255,-9.774665,4.242188,-10.058594C4.53218,-10.330988,4.923666,-10.468575,5.320313,-10.4375L5.597656,-10.425781M-15.914063,-10.425781C-15.405663,-10.389715,-14.943062,-10.117936,-14.664063,-9.691406L-14.507813,-9.441406L-14.480469,-9.441406C-14.484915,-9.700432,-14.405436,-9.953937,-14.253906,-10.164063C-14.083714,-10.329848,-13.850082,-10.413902,-13.613281,-10.394531C-13.408267,-10.392311,-13.204039,-10.368746,-13.003906,-10.324219L-13.003906,-9.832031C-13.188276,-9.905766,-13.398452,-9.879124,-13.558594,-9.761719C-13.674007,-9.581841,-13.726158,-9.369112,-13.707031,-9.15625L-13.707031,-7.105469C-13.666754,-6.607479,-13.883424,-6.122552,-14.28125,-5.820313C-14.649469,-5.595115,-15.076726,-5.48626,-15.507813,-5.507813C-15.871909,-5.491943,-16.235426,-5.553195,-16.574219,-5.6875C-17.034264,-5.873858,-17.356178,-6.296093,-17.414063,-6.789063L-16.589844,-6.867188C-16.58057,-6.516544,-16.328712,-6.219189,-15.984375,-6.152344C-15.682271,-6.087899,-15.369388,-6.094584,-15.070313,-6.171875C-14.822152,-6.243448,-14.63037,-6.441177,-14.566406,-6.691406C-14.515901,-6.940689,-14.496226,-7.195134,-14.507813,-7.449219C-14.950728,-7.447929,-15.393577,-7.458351,-15.835938,-7.480469C-16.247538,-7.490171,-16.650837,-7.598702,-17.011719,-7.796875C-17.421389,-8.066133,-17.655397,-8.534147,-17.625,-9.023438C-17.64826,-9.402694,-17.518887,-9.775337,-17.265625,-10.058594C-16.976868,-10.330476,-16.58684,-10.46805,-16.191406,-10.4375L-15.914063,-10.425781M-10.210938,-10.414063C-9.670621,-10.350229,-9.194311,-10.028318,-8.933594,-9.550781C-8.832048,-9.358711,-8.76714,-9.149418,-8.742188,-8.933594L-9.539063,-8.882813C-9.563024,-9.355863,-9.924341,-9.743579,-10.394531,-9.800781C-10.924429,-9.915316,-11.457152,-9.611866,-11.628906,-9.097656C-11.8566,-8.345045,-11.859314,-7.5432,-11.636719,-6.789063C-11.488019,-6.356517,-11.060537,-6.082864,-10.605469,-6.128906C-10.158505,-6.082621,-9.743159,-6.367241,-9.625,-6.800781L-9.582031,-6.988281L-8.765625,-6.925781C-8.885419,-6.183397,-9.486782,-5.612422,-10.234375,-5.53125C-10.712359,-5.452374,-11.202958,-5.530485,-11.632813,-5.753906C-12.061925,-6.008559,-12.370275,-6.425327,-12.488281,-6.910156C-12.720019,-7.753483,-12.663682,-8.649379,-12.328125,-9.457031C-12.037846,-10.031223,-11.459269,-10.403486,-10.816406,-10.429688C-10.614552,-10.444017,-10.411783,-10.438785,-10.210938,-10.414063M-0.105469,-10.046875C-0.102014,-9.902071,-0.10854,-9.757186,-0.125,-9.613281L-0.101563,-9.613281C0.119041,-10.088762,0.585754,-10.401912,1.109375,-10.425781C1.580591,-10.504591,2.063924,-10.382695,2.441406,-10.089844C2.79366,-9.744982,3.013469,-9.287392,3.0625,-8.796875C3.179346,-8.077126,3.142072,-7.340981,2.953125,-6.636719C2.76568,-5.931787,2.102522,-5.459042,1.375,-5.511719C1.057696,-5.49737,0.742299,-5.567458,0.460938,-5.714844C0.215739,-5.870483,0.021553,-6.094544,-0.097656,-6.359375L-0.113281,-6.359375C-0.118579,-6.103637,-0.134217,-5.848224,-0.160156,-5.59375L-0.921875,-5.59375C-0.90629,-5.805624,-0.898472,-6.018018,-0.898438,-6.230469L-0.898438,-12.21875L-0.105469,-12.21875L-0.105469,-10.046875M14.734375,-7.535156C14.727308,-7.151235,14.854412,-6.776834,15.09375,-6.476563C15.324868,-6.217374,15.660968,-6.076614,16.007813,-6.09375C16.346605,-6.071659,16.678366,-6.196959,16.917969,-6.4375C17.093723,-6.651874,17.208385,-6.909525,17.25,-7.183594L17.300781,-7.535156L14.734375,-7.535156M-20.507813,-9.847656C-20.991673,-9.82512,-21.400023,-9.477861,-21.5,-9.003906C-21.679756,-8.289645,-21.660851,-7.540227,-21.445313,-6.835938C-21.282192,-6.374036,-20.828199,-6.07886,-20.339844,-6.117188C-19.834505,-6.086943,-19.38969,-6.451659,-19.320313,-6.953125C-19.16258,-7.681126,-19.178633,-8.435613,-19.367188,-9.15625C-19.511524,-9.646454,-20.006441,-9.946452,-20.507813,-9.847656M1,-9.847656C0.517409,-9.827251,0.109712,-9.48079,0.011719,-9.007813C-0.179148,-8.259114,-0.145208,-7.471688,0.109375,-6.742188C0.249928,-6.396128,0.576476,-6.160709,0.949219,-6.136719C1.315587,-6.053965,1.698454,-6.173145,1.953125,-6.449219C2.159274,-6.764321,2.271673,-7.13131,2.277344,-7.507813C2.335166,-8.06488,2.288802,-8.627866,2.140625,-9.167969C2.017102,-9.597765,1.610339,-9.884127,1.164063,-9.855469L1,-9.847656M-16.191406,-9.832031C-16.580727,-9.779846,-16.856964,-9.425435,-16.8125,-9.035156C-16.846252,-8.571886,-16.517763,-8.160002,-16.058594,-8.089844C-15.83214,-8.044836,-15.601971,-8.021296,-15.371094,-8.019531L-14.507813,-8.003906C-14.482086,-8.254727,-14.497931,-8.508238,-14.554688,-8.753906C-14.747155,-9.476507,-15.451517,-9.940478,-16.191406,-9.832031M5.316406,-9.832031C4.995631,-9.795149,4.743704,-9.539972,4.710938,-9.21875C4.646026,-8.913255,4.728505,-8.594916,4.933594,-8.359375C5.131283,-8.180924,5.382801,-8.073721,5.648438,-8.054688C6.098963,-8.012248,6.551469,-7.995296,7.003906,-8.003906C7.033137,-8.25483,7.015913,-8.509213,6.953125,-8.753906C6.761559,-9.477312,6.056679,-9.941624,5.316406,-9.832031M22.191406,-9.386719L21.335938,-9.386719L21.335938,-10.351563L22.191406,-10.351563L22.191406,-9.386719"/>
</svg>
