<?xml version="1.0" encoding="UTF-8"?>
<svg xmlns="http://www.w3.org/2000/svg" width="196.461mm" height="129.608mm" viewBox="9.999965 -139.608337 196.460785 129.608368">
    <path transform="matrix(1,0,0,-1,-143.171005,-218.389999)" style="stroke:#ff0000;stroke-width:0.05mm;fill:none" d="M161,-106.599998L161,-109.599998L157.800003,-109.599998L157.800003,-117.599998L161,-117.599998L161,-125.599998L157.800003,-125.599998L157.800003,-133.600006L161,-133.600006L161,-141.600006L157.800003,-141.600006L157.800003,-149.600006L161,-149.600006L161,-157.600006L157.800003,-157.600006L157.800003,-165.600006L161,-165.600006L161,-173.600006L157.800003,-173.600006L157.800003,-181.600006L161,-181.600006L161,-189.600006L157.800003,-189.600006L157.800003,-197.600006L161,-197.600006L161,-200.600006L163.5,-200.600006L163.5,-203.800003L171.5,-203.800003L171.5,-200.600006L179.5,-200.600006L179.5,-203.800003L187.5,-203.800003L187.5,-200.600006L195.5,-200.600006L195.5,-203.800003L203.5,-203.800003L203.5,-200.600006L206,-200.600006L206,-197.600006L209.199997,-197.600006L209.199997,-189.600006L206,-189.600006L206,-181.600006L209.199997,-181.600006L209.199997,-173.600006L206,-173.600006L206,-165.600006L209.199997,-165.600006L209.199997,-157.600006L206,-157.600006L206,-149.600006L209.199997,-149.600006L209.199997,-141.600006L206,-141.600006L206,-133.600006L209.199997,-133.600006L209.199997,-125.600014L206,-125.600014L206,-117.600014L209.199997,-117.600014L209.199997,-109.600014L206,-109.600014L206,-106.600014L203.5,-106.600014L203.5,-103.400009L195.5,-103.400009L195.5,-106.600014L187.5,-106.600014L187.5,-103.400009L179.5,-103.400009L179.5,-106.600014L171.5,-106.600014L171.5,-103.400009L163.5,-103.400009L163.5,-106.600014L161,-106.599998z"/>
    <path transform="matrix(1,0,0,-1,24.618799,-288.899994)" style="stroke:#ff8000;stroke-width:0.05mm;fill:none" d="M0,-149.291672L0,-154.199997L3.2,-154.199997L3.2,-162.199997L0,-162.199997L0,-164.908325L0,-167.108322L5.7,-167.108322L5.7,-163.908325L13.7,-163.908325L13.7,-167.108322L21.700001,-167.108322L21.700001,-163.908325L29.700001,-163.908325L29.700001,-167.108322L37.700001,-167.108322L37.700001,-163.908325L45.700001,-163.908325L45.700001,-167.108322L51.400002,-167.108322L51.400002,-162.199997L48.200001,-162.199997L48.200001,-154.199997L51.400002,-154.199997L51.400002,-151.491669L51.400002,-149.291672L45.700001,-149.291672L45.700001,-152.491669L37.700001,-152.491669L37.700001,-149.291672L29.700001,-149.291672L29.700001,-152.491669L21.700001,-152.491669L21.700001,-149.291672L13.700001,-149.291672L13.700001,-152.491669L5.700001,-152.491669L5.700001,-149.291672L0,-149.291672z"/>
    <path transform="matrix(-0,1,1,0,239.934006,-179.404999)" style="stroke:#d0d000;stroke-width:0.05mm;fill:none" d="M57.599998,-149.291672L57.599998,-154.199997L54.399998,-154.199997L54.399998,-162.199997L57.599998,-162.199997L57.599998,-164.908325L57.599998,-167.108322L60.599998,-167.108322L60.599998,-163.908325L68.599998,-163.908325L68.599998,-167.108322L76.599998,-167.108322L76.599998,-163.908325L84.599998,-163.908325L84.599998,-167.108322L92.599998,-167.108322L92.599998,-163.908325L100.599998,-163.908325L100.599998,-167.108322L108.599998,-167.108322L108.599998,-163.908325L116.599998,-163.908325L116.599998,-167.108322L124.599998,-167.108322L124.599998,-163.908325L132.600006,-163.908325L132.600006,-167.108322L140.600006,-167.108322L140.600006,-163.908325L148.600006,-163.908325L148.600006,-167.108322L151.600006,-167.108322L151.600006,-162.199997L154.800003,-162.199997L154.800003,-154.199997L151.600006,-154.199997L151.600006,-151.491669L151.600006,-149.291672L148.600006,-149.291672L148.600006,-152.491669L140.600006,-152.491669L140.600006,-149.291672L132.600006,-149.291672L132.600006,-152.491669L124.600014,-152.491669L124.600014,-149.291672L116.600014,-149.291672L116.600014,-152.491669L108.600014,-152.491669L108.600014,-149.291672L100.600014,-149.291672L100.600014,-152.491669L92.600006,-152.491669L92.600006,-149.291672L84.600006,-149.291672L84.600006,-152.491669L76.600006,-152.491669L76.600006,-149.291672L68.600006,-149.291672L68.600006,-152.491669L60.600006,-152.491669L60.600006,-149.291672L57.599998,-149.291672z"/>
    <rect transform="matrix(1,0,0,-1,50.322899,-74.797501)" style="stroke:#ffdb66;stroke-width:0.05mm;fill:none" x="-40.322632" y="-64.797234" width="80.645264" height="129.594467"/>
    <circle transform="matrix(1,0,0,-1,50,-118.511002)" style="stroke:#00e000;stroke-width:0.05mm;fill:none" r="2" cx="0" cy="0"/>
    <rect transform="matrix(1,0,0,-1,42,-133)" style="stroke:#00e0e0;stroke-width:0.05mm;fill:none" x="-5.000002" y="-2.999997" width="10.000005" height="5.999994"/>
    <rect transform="matrix(1,0,0,-1,67.984596,-108.516998)" style="stroke:#ff00ff;stroke-width:0.05mm;fill:none" x="-4.351822" y="-10.240527" width="8.703645" height="20.481054"/>
    <rect transform="matrix(1,0,0,-1,60.658798,-112.836998)" style="stroke:#ff00ff;stroke-width:0.05mm;fill:none" x="-2.974046" y="-4.836426" width="5.948091" height="9.672852"/>
    <rect transform="matrix(1,0,0,-1,67.769402,-76.0784)" style="stroke:#ff00ff;stroke-width:0.05mm;fill:none" x="-4.6" y="-9.761378" width="9.2" height="19.522757"/>
    <circle transform="matrix(1,0,0,-1,47,-34)" style="stroke:#00e000;stroke-width:0.05mm;fill:none" r="2" cx="0" cy="0"/>
    <circle transform="matrix(1,0,0,-1,82.000298,-56.000301)" style="stroke:#0000ff;stroke-width:0.05mm;fill:none" r="5" cx="0" cy="0"/>
    <path transform="matrix(1,0,0,-1,10.0003,-10.0003)" style="stroke:#d0d000;stroke-width:0.05mm;fill:none" d="M14.6386,-0.000336L14.6386,4.90799L17.8386,4.90799L17.8386,12.90799L14.6386,12.90799L14.6386,17.81633L20.328995,17.789993L20.328995,14.589996L28.328995,14.589996L28.328995,17.789993L36.328995,17.789993L36.3386,14.616318L44.3386,14.616318L44.328995,17.789993L52.328995,17.789993L52.3386,14.616318L60.3386,14.616318L60.3386,17.816315L66.038605,17.816315L66.038605,12.90799L62.8386,12.90799L62.8386,4.90799L66.038605,4.90799L66.038605,-0.000336L60.3386,-0.000336L60.3386,3.199661L52.3386,3.199661L52.3386,-0.000336L44.3386,-0.000336L44.3386,3.199661L36.3386,3.199661L36.3386,-0.000336L28.3386,-0.000336L28.3386,3.199661L20.3386,3.199661L20.3386,-0.000336L14.6386,-0.000336z"/>
    <path transform="matrix(1,0,0,-1,10.0003,-10.0003)" style="stroke:#d0d000;stroke-width:0.05mm;fill:none" d="M-0.000336,17.815308L4.908005,17.815308L4.908005,14.615307L12.908005,14.615307L12.908005,17.815308L17.81633,17.815308L17.81633,20.815308L14.628998,20.789993L14.628998,28.789993L17.81633,28.815308L17.828995,36.789993L14.616333,36.815308L14.628998,44.789993L17.81633,44.815308L17.81633,52.815308L14.616333,52.815308L14.616333,60.815308L17.81633,60.815308L17.828995,68.789993L14.628998,68.789993L14.628998,76.789993L17.81633,76.815308L17.81633,84.815308L14.628998,84.789993L14.616333,92.815323L17.828995,92.790001L17.828995,100.790001L14.616333,100.815323L14.616333,108.815323L17.828995,108.790001L17.828995,111.790001L12.908005,111.815323L12.908005,115.01532L4.908005,115.01532L4.908005,111.815323L-0.00032,111.815323L-0.00032,108.815323L3.199677,108.815323L3.199677,100.815323L-0.00032,100.815323L-0.00032,92.815323L3.199677,92.815323L3.199677,84.815323L-0.00032,84.815323L-0.00032,76.815323L3.199677,76.815323L3.199677,68.815323L-0.00032,68.815323L-0.00032,60.815323L3.199677,60.815323L3.199677,52.815315L-0.00032,52.815315L-0.00032,44.815315L3.199677,44.815315L3.199677,36.815315L-0.00032,36.815315L-0.00032,28.815315L3.199677,28.815315L3.199677,20.815315L-0.00032,20.815315L-0.000336,17.815308z"/>
    <path transform="matrix(1,0,0,-1,108.752953,-116.636917)" style="stroke:#500a78;stroke-width:0.05mm;fill:none" d="M6.910156,18.328125C6.892875,18.704847,7.012191,19.075277,7.246094,19.371094C7.562473,19.70237,8.032264,19.838091,8.476563,19.726563C8.780824,19.687405,9.023057,19.451548,9.070313,19.148438C9.108981,18.947716,9.126005,18.743416,9.121094,18.539063L9.121094,15.523438L9.917969,15.523438L9.917969,18.691406C9.95174,19.106821,9.853227,19.522768,9.636719,19.878906C9.426048,20.14715,9.11335,20.315525,8.773438,20.34375C8.340289,20.421675,7.893601,20.352955,7.503906,20.148438C7.241314,19.980335,7.029351,19.74407,6.890625,19.464844L6.875,19.464844C6.900084,19.759735,6.911814,20.055613,6.910156,20.351563L6.910156,22.046875L6.121094,22.046875L6.121094,15.523438L6.910156,15.523438L6.910156,18.328125M71.253906,15.449219C71.789955,15.469962,72.267273,15.796794,72.480469,16.289063L72.496094,16.289063C72.497826,16.033302,72.512161,15.777781,72.539063,15.523438L73.296875,15.523438C73.277893,15.791248,73.268768,16.059643,73.269531,16.328125L73.269531,22.046875L72.480469,22.046875C72.485313,21.213196,72.484001,20.376726,72.476563,19.542969C72.253487,20.019562,71.783539,20.332827,71.257813,20.355469C70.789078,20.434263,70.308098,20.312225,69.933594,20.019531C69.582497,19.673794,69.362953,19.216724,69.3125,18.726563C69.198471,18.01358,69.233032,17.28492,69.414063,16.585938C69.519119,16.151283,69.812904,15.785821,70.214844,15.589844C70.543076,15.453311,70.901192,15.404835,71.253906,15.449219M53.949219,15.445313C54.610558,15.494493,55.164536,15.967743,55.316406,16.613281C55.574566,17.534105,55.551453,18.510397,55.25,19.417969C55.014515,20.035706,54.396984,20.42345,53.738281,20.367188C53.355858,20.393089,52.976376,20.282291,52.667969,20.054688C52.492546,19.908018,52.352386,19.723812,52.257813,19.515625L52.238281,19.515625C52.27026,20.359058,52.276768,21.203085,52.257813,22.046875L51.464844,22.046875L51.464844,16.164063C51.465523,15.950296,51.457703,15.736587,51.441406,15.523438L52.203125,15.523438C52.224548,15.769536,52.244057,16.015362,52.261719,16.261719C52.48447,15.784793,52.954556,15.471401,53.480469,15.449219C53.636345,15.43502,53.793129,15.433718,53.949219,15.445313M27.335938,15.445313C27.900011,15.445318,28.452692,15.605163,28.929688,15.90625C29.489891,16.312643,29.736448,17.025789,29.546875,17.691406C29.417915,18.1563,29.068855,18.528727,28.613281,18.6875C28.04641,18.909298,27.458878,19.074177,26.859375,19.179688C26.507509,19.241726,26.16997,19.367474,25.863281,19.550781C25.578728,19.742451,25.452024,20.097214,25.550781,20.425781C25.623617,20.718243,25.844553,20.951052,26.132813,21.039063C26.706907,21.220739,27.32198,21.224817,27.898438,21.050781C28.26532,20.923376,28.541107,20.616602,28.628906,20.238281L29.453125,20.386719C29.295353,21.097126,28.709633,21.634439,27.988281,21.730469C27.277603,21.869278,26.544201,21.838503,25.847656,21.640625C25.30209,21.503593,24.87734,21.074331,24.746094,20.527344C24.547709,19.747963,24.994293,18.947548,25.761719,18.707031C26.254303,18.525375,26.761282,18.385565,27.277344,18.289063C27.655794,18.231594,28.021744,18.110056,28.359375,17.929688C28.699993,17.726606,28.856821,17.315933,28.738281,16.9375C28.684587,16.699492,28.534712,16.494476,28.324219,16.371094C27.940786,16.162041,27.506302,16.064585,27.070313,16.089844C26.640846,16.070995,26.21348,16.161037,25.828125,16.351563C25.522175,16.528374,25.304993,16.826456,25.230469,17.171875L24.417969,17.011719C24.569519,16.308533,25.112391,15.755022,25.8125,15.589844C26.308828,15.457765,26.823627,15.408924,27.335938,15.445313M41.105469,15.445313C41.643112,15.44351,42.159782,15.654116,42.542969,16.03125C43.01638,16.58555,43.095711,17.374233,42.742188,18.011719C42.52412,18.326748,42.19466,18.547302,41.820313,18.628906L41.492188,18.683594L41.492188,18.703125C41.860229,18.761103,42.19915,18.93812,42.457031,19.207031C42.97142,19.867443,42.891556,20.810492,42.273438,21.375C41.858353,21.689209,41.343666,21.843191,40.824219,21.808594C40.205826,21.84757,39.60265,21.604862,39.183594,21.148438C38.965923,20.874395,38.831684,20.54355,38.796875,20.195313L39.59375,20.132813C39.623882,20.662884,40.037739,21.091707,40.566406,21.140625C40.891403,21.197302,41.225952,21.146584,41.519531,20.996094C41.82465,20.796997,41.999092,20.449572,41.976563,20.085938C41.988319,19.607244,41.656185,19.187935,41.1875,19.089844C40.855942,19.023001,40.517315,18.999378,40.179688,19.019531L40.179688,18.332031C40.545647,18.36377,40.914555,18.340059,41.273438,18.261719C41.599442,18.202583,41.881855,18.00045,42.042969,17.710938C42.201469,17.331326,42.165043,16.898556,41.945313,16.550781C41.750084,16.298183,41.458561,16.138277,41.140625,16.109375C40.790848,16.055134,40.432938,16.102585,40.109375,16.246094C39.763741,16.44062,39.539223,16.795746,39.511719,17.191406L38.691406,17.117188C38.754936,16.289276,39.385258,15.615102,40.207031,15.496094C40.502884,15.439193,40.805088,15.422108,41.105469,15.445313M47.90625,16.195313L44.679688,16.195313C44.920506,16.657352,45.25898,17.061117,45.671875,17.378906C46.19281,17.783092,46.68856,18.218834,47.15625,18.683594C47.546349,19.061106,47.780567,19.571365,47.8125,20.113281C47.866932,20.913027,47.299858,21.622711,46.507813,21.746094C45.92178,21.883137,45.306431,21.818439,44.761719,21.5625C44.241615,21.290428,43.89563,20.772171,43.84375,20.1875L44.652344,20.113281C44.685722,20.647074,45.097492,21.080231,45.628906,21.140625C45.938274,21.195814,46.257061,21.146347,46.535156,21C46.845028,20.802481,47.022926,20.452692,47,20.085938C46.984898,19.665697,46.807041,19.268007,46.503906,18.976563C46.154938,18.627592,45.781593,18.303854,45.386719,18.007813C44.862633,17.608183,44.411804,17.120333,44.054688,16.566406C43.962334,16.410402,43.880131,16.24861,43.808594,16.082031L43.808594,15.523438L47.90625,15.523438L47.90625,16.195313M23.625,16.210938L19.585938,16.210938L19.585938,18.367188L23.179688,18.367188L23.179688,19.042969L19.585938,19.042969L19.585938,21.03125L23.445313,21.03125L23.445313,21.714844L18.746094,21.714844L18.746094,15.523438L23.625,15.523438L23.625,16.210938M31.589844,17.9375L33.410156,17.9375C34.041931,17.897835,34.660042,18.136223,35.101563,18.589844C35.693607,19.323383,35.693615,20.368027,35.101563,21.101563C34.701782,21.490011,34.16679,21.708485,33.609375,21.710938C32.656124,21.726898,31.703291,21.728195,30.75,21.714844L30.75,15.523438L31.589844,15.523438L31.589844,17.9375M3.164063,21.03125L5.292969,21.03125L5.292969,21.714844L0.203125,21.714844L0.203125,21.03125L2.328125,21.03125L2.328125,15.523438L3.164063,15.523438L3.164063,21.03125M31.589844,18.601563L31.589844,21.042969L33.253906,21.042969C33.637936,21.070665,34.019817,20.965897,34.335938,20.746094C34.58725,20.516094,34.719715,20.183548,34.695313,19.84375C34.707294,19.576857,34.637779,19.312435,34.496094,19.085938C34.285076,18.810108,33.963947,18.640268,33.617188,18.621094L33.289063,18.601563L31.589844,18.601563M13.402344,15.453125C13.804946,15.478809,14.190459,15.625933,14.507813,15.875C14.72059,16.060865,14.883124,16.297277,14.980469,16.5625L14.285156,16.757813C14.120375,16.344345,13.729701,16.065075,13.285156,16.042969C12.874358,15.962432,12.449741,16.084581,12.144531,16.371094C11.865281,16.695414,11.715113,17.111153,11.722656,17.539063L11.714844,17.734375L15.105469,17.734375C15.140972,18.299294,15.04048,18.864719,14.8125,19.382813C14.561967,19.896927,14.070702,20.251816,13.503906,20.328125C12.898283,20.453463,12.267751,20.341618,11.742188,20.015625C11.329637,19.703897,11.050522,19.247541,10.960938,18.738281C10.818226,18.032509,10.86676,17.301792,11.101563,16.621094C11.371634,15.923841,12.03755,15.458778,12.785156,15.445313C12.990798,15.432734,13.197087,15.435346,13.402344,15.453125M67.289063,18.003906C67.266785,18.424496,67.35569,18.843462,67.546875,19.21875C67.700951,19.487831,67.990852,19.650023,68.300781,19.640625C68.442787,19.648476,68.585144,19.633961,68.722656,19.597656L68.722656,20.324219C68.374817,20.430189,67.997383,20.363432,67.707031,20.144531C67.49511,19.906357,67.346077,19.619015,67.273438,19.308594L67.253906,19.308594C67.247253,19.632965,67.235535,19.957243,67.21875,20.28125L66.472656,20.28125C66.488693,19.911657,66.497818,19.541801,66.5,19.171875L66.5,15.523438L67.289063,15.523438L67.289063,18.003906M62.964844,15.449219C63.473244,15.485277,63.935837,15.757069,64.214844,16.183594L64.371094,16.433594L64.398438,16.433594C64.39399,16.174568,64.473465,15.92106,64.625,15.710938C64.794991,15.544776,65.02874,15.460676,65.265625,15.480469C65.470642,15.482689,65.674866,15.506254,65.875,15.550781L65.875,16.042969C65.690605,15.969318,65.480453,15.995903,65.320313,16.113281C65.204918,16.293169,65.152733,16.505888,65.171875,16.71875L65.171875,18.769531C65.212166,19.267523,64.995499,19.752462,64.597656,20.054688C64.229431,20.279873,63.802177,20.388725,63.371094,20.367188C63.006996,20.383034,62.643482,20.3218,62.304688,20.1875C61.841671,20.005032,61.518188,19.580746,61.464844,19.085938L62.289063,19.007813C62.295692,19.359308,62.54892,19.658274,62.894531,19.722656C63.196636,19.7871,63.509521,19.780426,63.808594,19.703125C64.056717,19.63147,64.248512,19.433805,64.3125,19.183594C64.362991,18.934309,64.382668,18.679863,64.371094,18.425781C63.928162,18.427069,63.485359,18.416651,63.042969,18.394531C62.631371,18.384823,62.228069,18.276291,61.867188,18.078125C61.456913,17.809326,61.222782,17.341063,61.253906,16.851563C61.230644,16.472305,61.360008,16.099657,61.613281,15.816406C61.901924,15.544306,62.292019,15.406704,62.6875,15.4375L62.964844,15.449219M58.601563,15.445313C59.519974,15.462843,60.290184,16.148405,60.414063,17.058594C60.556053,17.780066,60.51442,18.525391,60.292969,19.226563C60.074024,19.834938,59.525864,20.264656,58.882813,20.332031C58.330601,20.432186,57.760845,20.361303,57.25,20.128906C56.740021,19.837139,56.394878,19.324467,56.316406,18.742188C56.176289,18.038147,56.222061,17.309866,56.449219,16.628906C56.701374,15.933864,57.35461,15.46371,58.09375,15.445313C58.262863,15.434895,58.432453,15.434893,58.601563,15.445313M58.179688,16.027344C57.749229,16.05901,57.380375,16.34761,57.246094,16.757813C57.010345,17.510956,57.010338,18.317169,57.246094,19.070313C57.420761,19.538321,57.889614,19.830542,58.386719,19.78125C58.7696,19.81897,59.143665,19.64908,59.367188,19.335938C59.566906,18.971176,59.666603,18.560263,59.65625,18.144531C59.704594,17.619513,59.626907,17.090528,59.429688,16.601563C59.252701,16.256025,58.899864,16.035318,58.511719,16.027344C58.401287,16.01693,58.290119,16.016922,58.179688,16.027344M71.054688,16.054688C70.605309,16.089794,70.241356,16.43578,70.183594,16.882813C70.021027,17.610313,70.037109,18.366007,70.230469,19.085938C70.348724,19.52232,70.760002,19.813965,71.210938,19.78125C71.749535,19.827993,72.240669,19.468834,72.359375,18.941406C72.563728,18.179991,72.524132,17.374426,72.246094,16.636719C72.04953,16.245728,71.635483,16.012442,71.199219,16.046875L71.054688,16.054688M11.722656,18.339844C11.719466,18.723789,11.847665,19.097357,12.085938,19.398438C12.316092,19.656658,12.650565,19.797335,12.996094,19.78125C13.335115,19.805037,13.667597,19.679462,13.90625,19.4375C14.081363,19.222231,14.197086,18.965214,14.242188,18.691406L14.289063,18.339844L11.722656,18.339844M53.367188,16.027344C52.883026,16.049282,52.474445,16.396749,52.375,16.871094C52.194595,17.585312,52.213505,18.334846,52.429688,19.039063C52.592697,19.501072,53.046745,19.79627,53.535156,19.757813C54.040195,19.787382,54.484711,19.422916,54.554688,18.921875C54.712097,18.193855,54.696045,17.439419,54.507813,16.71875C54.363415,16.228601,53.86853,15.928601,53.367188,16.027344M62.6875,16.042969C62.298199,16.095207,62.021973,16.449574,62.066406,16.839844C62.032265,17.30328,62.360897,17.71533,62.820313,17.785156C63.046711,17.830523,63.276917,17.854073,63.507813,17.855469L64.371094,17.871094C64.396828,17.620272,64.380989,17.366756,64.324219,17.121094C64.13176,16.398489,63.427391,15.934525,62.6875,16.042969M32.425781,7.980469C32.404018,8.356604,32.523876,8.72733,32.761719,9.019531C33.07563,9.352015,33.544579,9.489424,33.988281,9.378906C34.292664,9.336956,34.534027,9.10036,34.582031,8.796875C34.621727,8.597597,34.63876,8.394514,34.632813,8.191406L34.632813,5.175781L35.429688,5.175781L35.429688,8.34375C35.463272,8.757937,35.364758,9.172543,35.148438,9.527344C34.894825,9.839705,34.511673,10.018315,34.109375,10.011719C33.731812,10.057295,33.349163,9.983499,33.015625,9.800781C32.755878,9.62412,32.540047,9.390255,32.384766,9.117188C32.413822,9.410547,32.427513,9.70521,32.425781,10L32.425781,11.695313L31.632813,11.695313L31.632813,5.175781L32.425781,5.175781L32.425781,7.980469M5.894531,11.695313L5.101563,11.695313L5.101563,10.941406L5.894531,10.941406L5.894531,11.695313M46.609375,5.097656C47.192284,5.134207,47.699249,5.510987,47.902344,6.058594C48.156982,6.815387,48.220039,7.623014,48.085938,8.410156C48.043335,8.83025,47.87751,9.228502,47.609375,9.554688C47.290726,9.875624,46.849987,10.044808,46.398438,10.019531C46.016663,10.039831,45.639,9.929564,45.328125,9.707031C45.151222,9.560212,45.010841,9.374363,44.917969,9.164063L44.898438,9.164063C44.930279,10.007401,44.936794,10.851608,44.917969,11.695313L44.125,11.695313L44.125,5.816406C44.124653,5.602661,44.116837,5.388983,44.101563,5.175781L44.863281,5.175781C44.883839,5.421719,44.903378,5.66795,44.921875,5.914063C45.143093,5.435319,45.61372,5.120058,46.140625,5.097656C46.296478,5.081872,46.453526,5.081875,46.609375,5.097656M78.949219,7.980469C78.932762,8.355885,79.052032,8.724806,79.285156,9.019531C79.599213,9.35172,80.068054,9.489088,80.511719,9.378906C80.816422,9.335881,81.058342,9.100336,81.109375,8.796875C81.148109,8.59748,81.165131,8.394469,81.160156,8.191406L81.160156,5.175781L81.957031,5.175781L81.957031,8.34375C81.974586,8.710629,81.903557,9.076497,81.75,9.410156C81.552094,9.748243,81.199486,9.966234,80.808594,9.992188C80.37706,10.069769,79.932251,10.002514,79.542969,9.800781C79.280312,9.632768,79.068314,9.396471,78.929688,9.117188L78.914063,9.117188C78.933655,9.411076,78.945389,9.705498,78.949219,10L78.949219,11.695313L78.160156,11.695313L78.160156,5.175781L78.949219,5.175781L78.949219,7.980469M59.425781,6.867188L60.007813,7.347656L61.613281,5.175781L62.542969,5.175781L60.511719,7.886719L62.441406,9.929688L61.511719,9.929688L59.425781,7.625L59.425781,11.695313L58.636719,11.695313L58.636719,5.175781L59.425781,5.175781L59.425781,6.867188M71.621094,9.355469L72.546875,9.355469L72.546875,9.929688L71.621094,9.929688C71.594299,10.186447,71.606148,10.445973,71.65625,10.699219C71.710228,10.945359,71.946121,11.107757,72.195313,11.070313C72.313072,11.065327,72.430458,11.053594,72.546875,11.035156L72.546875,11.636719C72.193298,11.712364,71.827141,11.705683,71.476563,11.617188C71.194305,11.533695,70.976372,11.308322,70.902344,11.023438C70.826675,10.664037,70.801697,10.296016,70.828125,9.929688L70.160156,9.929688L70.160156,9.355469L70.828125,9.355469L70.828125,5.175781L71.621094,5.175781L71.621094,9.355469M8.335938,5.109375C8.537851,5.124749,8.737937,5.158751,8.933594,5.210938L8.933594,5.796875C8.707886,5.728962,8.468625,5.719553,8.238281,5.769531C8.07306,5.845256,7.970999,6.013811,7.980469,6.195313L7.976563,6.351563L7.976563,9.355469L8.855469,9.355469L8.855469,9.929688L7.976563,9.929688L7.976563,10.992188L7.449219,10.992188L7.214844,9.929688L6.632813,9.929688L6.632813,9.355469L7.183594,9.355469L7.183594,6.183594C7.160614,5.893939,7.245494,5.605905,7.421875,5.375C7.606846,5.183744,7.867539,5.084911,8.132813,5.105469L8.335938,5.109375M76.871094,5.109375C77.07312,5.123783,77.2733,5.1578,77.46875,5.210938L77.46875,5.796875C77.2444,5.728834,77.006371,5.719425,76.777344,5.769531C76.609169,5.841872,76.505684,6.012763,76.519531,6.195313L76.511719,6.351563L76.511719,9.355469L77.390625,9.355469L77.390625,9.929688L76.511719,9.929688L76.511719,10.992188L75.984375,10.992188L75.75,9.929688L75.171875,9.929688L75.171875,9.355469L75.722656,9.355469L75.722656,6.183594C75.700447,5.894588,75.783714,5.607332,75.957031,5.375C76.143097,5.182961,76.405342,5.084084,76.671875,5.105469L76.871094,5.109375M30.347656,5.109375C30.548351,5.124198,30.747196,5.158211,30.941406,5.210938L30.941406,5.796875C30.717056,5.728808,30.479025,5.719391,30.25,5.769531C30.082136,5.842166,29.978762,6.012901,29.992188,6.195313L29.984375,6.351563L29.984375,9.355469L30.863281,9.355469L30.863281,9.929688L29.984375,9.929688L29.984375,10.992188L29.457031,10.992188L29.226563,9.929688L28.644531,9.929688L28.644531,9.355469L29.195313,9.355469L29.195313,6.183594C29.172333,5.893939,29.257214,5.605905,29.433594,5.375C29.618563,5.183741,29.879257,5.084909,30.144531,5.105469L30.347656,5.109375M56.320313,5.113281C57.095596,5.201118,57.707184,5.814329,57.792969,6.589844L56.992188,6.644531C56.972893,6.242552,56.706894,5.894112,56.324219,5.769531C55.941544,5.633947,55.515667,5.709629,55.203125,5.96875C54.958569,6.233078,54.808857,6.570962,54.777344,6.929688C54.684799,7.532585,54.724792,8.148508,54.894531,8.734375C55.045643,9.16717,55.473301,9.44152,55.929688,9.398438C56.375217,9.439571,56.787708,9.156905,56.910156,8.726563L56.953125,8.539063L57.765625,8.597656C57.647984,9.340389,57.048168,9.913011,56.300781,9.996094C55.754246,10.092646,55.191139,9.973587,54.730469,9.664063C54.329575,9.342523,54.06348,8.882786,53.984375,8.375C53.819733,7.602146,53.897484,6.797354,54.207031,6.070313C54.493443,5.492591,55.07428,5.118878,55.71875,5.097656C55.919144,5.077893,56.121216,5.083142,56.320313,5.113281M50.621094,5.101563C51.128128,5.135414,51.589962,5.406149,51.867188,5.832031L52.027344,6.085938L52.050781,6.085938C52.044308,5.826076,52.125526,5.571415,52.28125,5.363281C52.446781,5.192742,52.681633,5.107736,52.917969,5.132813C53.123276,5.129855,53.328106,5.153489,53.527344,5.203125L53.527344,5.695313C53.34444,5.623737,53.137203,5.648705,52.976563,5.761719C52.858166,5.941801,52.804489,6.156482,52.824219,6.371094C52.838428,7.115736,52.837124,7.860889,52.820313,8.605469C52.808128,9.285808,52.305641,9.859386,51.632813,9.960938C51.073112,10.071897,50.494076,10.0287,49.957031,9.835938C49.495777,9.651283,49.173115,9.228059,49.117188,8.734375L49.941406,8.660156C49.950859,9.009738,50.203259,9.306088,50.546875,9.371094C50.849751,9.441207,51.165226,9.434501,51.464844,9.351563C51.712723,9.280925,51.903748,9.082434,51.964844,8.832031C52.019276,8.583282,52.040287,8.328525,52.027344,8.074219C51.584446,8.078753,51.141556,8.069635,50.699219,8.046875C50.288364,8.032112,49.886211,7.923891,49.523438,7.730469C49.112095,7.462467,48.876339,6.99394,48.90625,6.503906C48.885544,6.123927,49.014584,5.750835,49.265625,5.464844C49.556202,5.19357,49.94735,5.056098,50.34375,5.085938L50.621094,5.101563M67.765625,5.097656C68.684753,5.113801,69.455551,5.799877,69.578125,6.710938C69.720314,7.431092,69.67868,8.175204,69.457031,8.875C69.238533,9.483753,68.690186,9.91362,68.046875,9.980469C67.49485,10.084708,66.923721,10.013662,66.414063,9.777344C65.976578,9.533263,65.659859,9.118998,65.539063,8.632813C65.332687,7.857262,65.35849,7.038364,65.613281,6.277344C65.869431,5.584022,66.522835,5.116423,67.261719,5.097656C67.429329,5.082029,67.598022,5.082028,67.765625,5.097656M38.914063,5.105469C39.317047,5.129737,39.702839,5.276965,40.019531,5.527344C40.231342,5.712538,40.393715,5.947378,40.492188,6.210938L39.796875,6.410156C39.633995,5.994642,39.242634,5.713349,38.796875,5.691406C38.4314,5.624467,38.05405,5.710674,37.753906,5.929688C37.411739,6.257463,37.223251,6.713799,37.234375,7.1875L37.226563,7.386719L40.621094,7.386719C40.654011,7.950623,40.552227,8.51445,40.324219,9.03125C40.029732,9.618607,39.434254,9.994546,38.777344,10.007813C38.244896,10.078432,37.704437,9.956482,37.253906,9.664063C36.775013,9.294935,36.475349,8.739635,36.429688,8.136719C36.337975,7.510017,36.401016,6.870187,36.613281,6.273438C36.882412,5.575304,37.548763,5.109939,38.296875,5.097656C38.502354,5.079721,38.709103,5.08234,38.914063,5.105469M85.441406,5.105469C85.844345,5.129914,86.230095,5.277133,86.546875,5.527344C86.759766,5.710744,86.921257,5.946264,87.015625,6.210938L86.324219,6.410156C86.161339,5.994643,85.769974,5.713349,85.324219,5.691406C84.958733,5.624357,84.58136,5.710577,84.28125,5.929688C83.979317,6.206948,83.797211,6.590768,83.773438,7C83.758743,7.128362,83.75222,7.257531,83.753906,7.386719L87.144531,7.386719C87.177017,7.950259,87.076653,8.513597,86.851563,9.03125C86.554604,9.618195,85.95842,9.993623,85.300781,10.007813C84.76841,10.076795,84.228508,9.95497,83.777344,9.664063C83.300056,9.293935,83.002029,8.739026,82.957031,8.136719C82.845871,7.434246,82.942238,6.71485,83.234375,6.066406C83.550636,5.48027,84.158318,5.109982,84.824219,5.097656C85.029694,5.079699,85.23645,5.082313,85.441406,5.105469M18.734375,5.097656C19.39356,5.103918,19.998575,5.465433,20.316406,6.042969C20.543808,6.514584,20.649893,7.035613,20.625,7.558594C20.648891,8.080739,20.549877,8.601225,20.335938,9.078125C20.079054,9.584702,19.580912,9.925145,19.015625,9.980469C18.463604,10.084588,17.8925,10.013542,17.382813,9.777344C16.944868,9.534702,16.628916,9.119573,16.511719,8.632813C16.277971,7.78548,16.335728,6.884755,16.675781,6.074219C16.976473,5.489052,17.572783,5.114485,18.230469,5.097656C18.398075,5.08203,18.566769,5.08203,18.734375,5.097656M22.417969,7.929688C22.394442,8.319798,22.512333,8.705376,22.75,9.015625C23.022621,9.318391,23.429667,9.462401,23.832031,9.398438C24.203083,9.414424,24.526567,9.145144,24.578125,8.777344C24.616096,8.584433,24.633121,8.387975,24.628906,8.191406L24.628906,5.175781L25.425781,5.175781L25.425781,8.34375C25.442726,8.707692,25.373104,9.070522,25.222656,9.402344C25.029978,9.746469,24.674957,9.968914,24.28125,9.992188C23.854706,10.066605,23.415821,10.00371,23.027344,9.8125C22.758574,9.641983,22.541212,9.401668,22.398438,9.117188L22.382813,9.117188C22.37816,9.388269,22.366438,9.659212,22.347656,9.929688L21.601563,9.929688C21.621931,9.658048,21.631054,9.385676,21.628906,9.113281L21.628906,5.175781L22.417969,5.175781L22.417969,7.929688M2.46875,5.09375C2.946569,5.089178,3.411384,5.249174,3.785156,5.546875C4.288959,6.03505,4.313163,6.833777,3.839844,7.351563C3.534946,7.602979,3.174997,7.77827,2.789063,7.863281C2.394147,7.948094,2.005236,8.059026,1.625,8.195313C1.474326,8.247175,1.346785,8.351149,1.265625,8.488281C1.131493,8.753737,1.217085,9.077644,1.464844,9.242188C1.783112,9.390146,2.136757,9.442989,2.484375,9.394531C2.783473,9.395738,3.067761,9.262208,3.257813,9.03125C3.317796,8.948668,3.359114,8.854036,3.378906,8.753906L4.089844,8.839844C4.02283,9.305984,3.699628,9.695638,3.253906,9.847656C2.573115,10.079632,1.832778,10.067202,1.160156,9.8125C0.647689,9.595212,0.35262,9.052091,0.449219,8.503906C0.523553,8.080372,0.818485,7.728837,1.222656,7.582031C1.666819,7.410388,2.124021,7.274533,2.589844,7.175781C2.86349,7.134017,3.114091,6.996948,3.296875,6.789063C3.499087,6.488292,3.422649,6.08178,3.125,5.875C2.856045,5.729906,2.550641,5.666111,2.246094,5.691406C1.942923,5.674384,1.640491,5.73487,1.367188,5.867188C1.155715,5.988469,1.004321,6.192213,0.949219,6.429688L0.25,6.292969C0.37484,5.698183,0.859158,5.245111,1.460938,5.160156C1.792511,5.093939,2.131355,5.071612,2.46875,5.09375M11.464844,5.09375C11.94377,5.089818,12.409576,5.24968,12.785156,5.546875C13.28692,6.036716,13.309361,6.834281,12.835938,7.351563C12.531331,7.603475,12.171303,7.778804,11.785156,7.863281C11.391675,7.948716,11.004103,8.059638,10.625,8.195313C10.443852,8.250853,10.299126,8.388343,10.234375,8.566406C10.148756,8.817019,10.241559,9.093827,10.460938,9.242188C10.780673,9.389877,11.135486,9.442693,11.484375,9.394531C11.782845,9.392853,12.065943,9.259884,12.257813,9.03125C12.317796,8.948668,12.359115,8.854036,12.378906,8.753906L13.089844,8.839844C13.023298,9.307459,12.697948,9.697877,12.25,9.847656C11.570522,10.079596,10.831448,10.067162,10.160156,9.8125C9.594224,9.57055,9.301006,8.940301,9.480469,8.351563C9.599718,7.997873,9.870306,7.715833,10.21875,7.582031C10.734503,7.400991,11.258472,7.244581,11.789063,7.113281C12.032982,7.063305,12.24162,6.905027,12.355469,6.683594C12.479119,6.393333,12.383101,6.056453,12.125,5.875C11.766271,5.70913,11.368483,5.648244,10.976563,5.699219C10.703236,5.707755,10.439444,5.802064,10.222656,5.96875C10.085522,6.090027,9.989911,6.251199,9.949219,6.429688L9.25,6.292969C9.374359,5.699324,9.8567,5.246643,10.457031,5.160156C10.788615,5.09403,11.127453,5.071704,11.464844,5.09375M5.894531,9.929688L5.101563,9.929688L5.101563,5.175781L5.894531,5.175781L5.894531,9.929688M37.234375,7.992188C37.230251,8.375093,37.358604,8.747731,37.597656,9.046875C37.902805,9.369968,38.355556,9.50802,38.789063,9.410156C39.212143,9.354829,39.561432,9.0517,39.675781,8.640625C39.744282,8.430526,39.786278,8.212695,39.800781,7.992188L37.234375,7.992188M18.316406,5.679688C17.82539,5.716255,17.419641,6.078702,17.328125,6.5625C17.141783,7.272069,17.16074,8.01954,17.382813,8.71875C17.557375,9.187492,18.025484,9.480859,18.523438,9.433594C18.905575,9.466764,19.277445,9.29787,19.503906,8.988281C19.698006,8.619978,19.797331,8.209266,19.792969,7.792969C19.830404,7.319086,19.773291,6.842263,19.625,6.390625C19.478825,5.97211,19.087751,5.688542,18.644531,5.679688C18.535406,5.669247,18.425531,5.669247,18.316406,5.679688M67.34375,5.679688C66.911934,5.707728,66.541252,5.997764,66.410156,6.410156C66.149437,7.20858,66.171494,8.071405,66.472656,8.855469C66.685043,9.245367,67.10849,9.472428,67.550781,9.433594C67.933891,9.465879,68.306458,9.297338,68.535156,8.988281C68.730194,8.6205,68.828323,8.209191,68.820313,7.792969C68.868622,7.267914,68.790955,6.739004,68.59375,6.25C68.415573,5.905933,68.063179,5.687,67.675781,5.679688C67.565353,5.669254,67.454185,5.669264,67.34375,5.679688M83.761719,7.992188C83.756836,8.375259,83.885239,8.748073,84.125,9.046875C84.354713,9.306162,84.689056,9.44822,85.035156,9.433594C85.373665,9.454392,85.705063,9.329221,85.945313,9.089844C86.118568,8.873447,86.23407,8.616916,86.28125,8.34375L86.328125,7.992188L83.761719,7.992188M46.023438,5.679688C45.539967,5.697589,45.130829,6.045282,45.035156,6.519531C44.854755,7.233749,44.873665,7.983283,45.089844,8.6875C45.251858,9.150459,45.70644,9.44602,46.195313,9.40625C46.698734,9.434225,47.141319,9.073028,47.214844,8.574219C47.371246,7.844834,47.355198,7.089277,47.167969,6.367188C47.048534,5.931814,46.637875,5.640586,46.1875,5.671875L46.023438,5.679688M50.339844,5.691406C50.019432,5.728876,49.767723,5.983819,49.734375,6.304688C49.669048,6.611387,49.751511,6.931129,49.957031,7.167969C50.217987,7.391993,50.554878,7.508022,50.898438,7.492188C51.274433,7.510965,51.65089,7.521387,52.027344,7.523438C52.05677,7.271225,52.039547,7.015521,51.976563,6.769531C51.781658,6.048427,51.079319,5.585789,50.339844,5.691406M79.410156,-5.25C79.945122,-5.228553,80.42083,-4.901799,80.632813,-4.410156L80.652344,-4.410156C80.652939,-4.665965,80.667282,-4.921516,80.695313,-5.175781L81.453125,-5.175781C81.432419,-4.9629,81.423286,-4.749031,81.425781,-4.535156L81.425781,1.347656L80.632813,1.347656C80.640076,0.511998,80.638123,-0.324519,80.626953,-1.160156C80.407326,-0.682484,79.93927,-0.367433,79.414063,-0.34375C79.004822,-0.284204,78.587471,-0.365471,78.230469,-0.574219C77.850044,-0.851941,77.5924,-1.266418,77.511719,-1.730469C77.320724,-2.587398,77.366623,-3.479689,77.644531,-4.3125C77.844406,-4.859542,78.355507,-5.231673,78.9375,-5.253906C79.094894,-5.265494,79.252975,-5.264188,79.410156,-5.25M90.425781,1.347656L89.632813,1.347656L89.632813,0.589844L90.425781,0.589844L90.425781,1.347656M56.40625,1.347656L55.613281,1.347656L55.613281,0.589844L56.40625,0.589844L56.40625,1.347656M13.894531,1.347656L13.101563,1.347656L13.101563,0.589844L13.894531,0.589844L13.894531,1.347656M31.925781,-5.238281C32.904633,-5.137434,33.756802,-4.524703,34.164063,-3.628906L33.480469,-3.285156C33.261459,-3.766919,32.881535,-4.157893,32.40625,-4.390625C31.624975,-4.739838,30.712399,-4.604248,30.066406,-4.042969C29.608088,-3.587889,29.342285,-2.973748,29.324219,-2.328125C29.261757,-1.733459,29.370207,-1.132914,29.636719,-0.597656C30.003542,0.072588,30.725756,0.470262,31.488281,0.421875C32.0714,0.452565,32.6376,0.220351,33.03125,-0.210938C33.149017,-0.354334,33.243893,-0.515091,33.3125,-0.6875L34.105469,-0.425781C33.78302,0.384419,33.041847,0.953051,32.175781,1.054688C31.42301,1.192422,30.646292,1.097035,29.949219,0.78125C29.245186,0.411347,28.742529,-0.253135,28.578125,-1.03125C28.355465,-1.943187,28.440617,-2.903211,28.820313,-3.761719C29.172302,-4.477626,29.830584,-4.995051,30.609375,-5.167969C31.041573,-5.26191,31.48604,-5.285649,31.925781,-5.238281M23.582031,-2.761719L25.402344,-2.761719C25.968891,-2.792677,26.526276,-2.606882,26.960938,-2.242188C27.395746,-1.827017,27.604956,-1.228445,27.523438,-0.632813C27.487886,0.095336,26.980177,0.715694,26.273438,0.894531C25.972166,0.978747,25.660452,1.01952,25.347656,1.015625L22.742188,1.015625L22.742188,-5.175781L23.582031,-5.175781L23.582031,-2.761719M38.019531,-5.167969C38.524799,-5.165016,39.017273,-5.006767,39.429688,-4.714844C39.831112,-4.412922,40.056534,-3.931344,40.03125,-3.429688C40.050735,-2.838412,39.697689,-2.297912,39.148438,-2.078125C38.941025,-1.988622,38.72094,-1.931954,38.496094,-1.910156C39.0014,-1.823986,39.42178,-1.47367,39.597656,-0.992188C39.744862,-0.560992,39.694824,-0.086333,39.460938,0.304688C39.216877,0.636217,38.851994,0.857952,38.445313,0.921875C38.132225,0.989505,37.812454,1.020958,37.492188,1.015625L35.242188,1.015625L35.242188,-5.175781L37.757813,-5.175781L38.019531,-5.167969M58.847656,-5.238281C59.049812,-5.227412,59.250214,-5.194665,59.445313,-5.140625L59.445313,-4.554688C59.220943,-4.622649,58.982941,-4.632058,58.753906,-4.582031C58.586891,-4.508253,58.484085,-4.33844,58.496094,-4.15625L58.488281,-3.996094L58.488281,-0.996094L59.367188,-0.996094L59.367188,-0.421875L58.488281,-0.421875L58.488281,0.644531L57.960938,0.644531L57.726563,-0.421875L57.148438,-0.421875L57.148438,-0.996094L57.695313,-0.996094L57.695313,-4.167969C57.676933,-4.457153,57.761333,-4.743559,57.933594,-4.976563C58.118958,-5.167122,58.379425,-5.265868,58.644531,-5.246094L58.847656,-5.238281M92.867188,-5.238281C93.069237,-5.226463,93.269539,-5.193731,93.464844,-5.140625L93.464844,-4.554688C93.239136,-4.622591,92.999878,-4.632005,92.769531,-4.582031C92.605873,-4.50452,92.504547,-4.337192,92.511719,-4.15625L92.507813,-3.996094L92.507813,-0.996094L93.386719,-0.996094L93.386719,-0.421875L92.507813,-0.421875L92.507813,0.644531L91.980469,0.644531L91.746094,-0.421875L91.164063,-0.421875L91.164063,-0.996094L91.714844,-0.996094L91.714844,-4.167969C91.691864,-4.457622,91.776749,-4.745654,91.953125,-4.976563C92.138496,-5.167108,92.398956,-5.265861,92.664063,-5.246094L92.867188,-5.238281M36.082031,-1.617188L36.082031,0.34375C36.654884,0.361595,37.228226,0.357685,37.800781,0.332031C38.109646,0.325924,38.40617,0.20953,38.636719,0.003906C38.89426,-0.362543,38.897369,-0.849039,38.644531,-1.21875C38.427887,-1.45241,38.127029,-1.590184,37.808594,-1.601563L37.492188,-1.617188L36.082031,-1.617188M23.582031,-2.097656L23.582031,0.34375L25.246094,0.34375C25.548248,0.359496,25.849945,0.301839,26.125,0.175781C26.420416,0.032981,26.624548,-0.248984,26.667969,-0.574219C26.73654,-0.930416,26.674109,-1.299459,26.492188,-1.613281C26.2812,-1.889156,25.960062,-2.059001,25.613281,-2.078125L25.28125,-2.097656L23.582031,-2.097656M50.246094,-5.253906C50.827442,-5.238482,51.369289,-4.956033,51.714844,-4.488281C51.977428,-4.070059,52.119343,-3.587537,52.125,-3.09375C52.189514,-2.473309,52.094017,-1.846513,51.847656,-1.273438C51.590355,-0.765616,51.090187,-0.424793,50.523438,-0.371094C49.972988,-0.266548,49.403561,-0.336191,48.894531,-0.570313C48.454937,-0.811841,48.137321,-1.227295,48.019531,-1.714844C47.785698,-2.562171,47.843456,-3.462915,48.183594,-4.273438C48.48246,-4.860785,49.079479,-5.23729,49.738281,-5.253906C49.907394,-5.264317,50.076981,-5.264317,50.246094,-5.253906M63.425781,-2.421875C63.40094,-2.031632,63.518986,-1.645563,63.757813,-1.335938C63.980186,-1.073067,64.31234,-0.928653,64.65625,-0.945313C64.899757,-0.915907,65.145767,-0.980206,65.34375,-1.125C65.507034,-1.290343,65.602982,-1.510034,65.613281,-1.742188C65.63253,-1.880635,65.640366,-2.020426,65.636719,-2.160156L65.636719,-5.175781L66.433594,-5.175781L66.433594,-2.007813C66.463333,-1.594427,66.366547,-1.181359,66.15625,-0.824219C65.901794,-0.510748,65.516953,-0.332018,65.113281,-0.339844C64.670197,-0.281009,64.221497,-0.394234,63.859375,-0.65625C63.678829,-0.82787,63.521221,-1.022253,63.390625,-1.234375C63.38599,-0.963258,63.374271,-0.692381,63.355469,-0.421875L62.609375,-0.421875C62.629929,-0.693518,62.639053,-0.965871,62.636719,-1.238281L62.636719,-5.175781L63.425781,-5.175781L63.425781,-2.421875M69.917969,-5.246094C70.320221,-5.218736,70.705231,-5.071807,71.023438,-4.824219C71.236694,-4.639645,71.398277,-4.402661,71.492188,-4.136719L70.800781,-3.941406C70.636856,-4.355502,70.245644,-4.635163,69.800781,-4.65625C69.388771,-4.739543,68.961548,-4.617064,68.65625,-4.328125C68.381653,-4.002597,68.232101,-3.589934,68.234375,-3.164063L68.230469,-2.964844L71.621094,-2.964844C71.653641,-2.401298,71.553276,-1.837951,71.328125,-1.320313C71.076569,-0.804735,70.584045,-0.448536,70.015625,-0.371094C69.410019,-0.247421,68.780029,-0.35917,68.253906,-0.683594C67.774857,-1.052037,67.476212,-1.608091,67.433594,-2.210938C67.323593,-2.913036,67.418526,-3.631783,67.707031,-4.28125C68.024513,-4.868495,68.633354,-5.240064,69.300781,-5.253906C69.506424,-5.266478,69.712715,-5.263867,69.917969,-5.246094M74.921875,-5.246094C75.324478,-5.220409,75.709991,-5.073286,76.027344,-4.824219C76.24012,-4.638352,76.402649,-4.401938,76.5,-4.136719L75.804688,-3.941406C75.642548,-4.356801,75.250198,-4.637269,74.804688,-4.65625C74.393814,-4.740811,73.967201,-4.618088,73.664063,-4.328125C73.386452,-4.004119,73.235245,-3.590723,73.238281,-3.164063L73.234375,-2.964844L76.625,-2.964844C76.661209,-2.401147,76.560669,-1.836825,76.332031,-1.320313C76.082733,-0.802863,75.58902,-0.445802,75.019531,-0.371094C74.415176,-0.246598,73.786133,-0.358429,73.261719,-0.683594C72.848511,-0.994797,72.56929,-1.451332,72.480469,-1.960938C72.339546,-2.666553,72.386688,-3.396496,72.617188,-4.078125C72.889908,-4.775069,73.556427,-5.239475,74.304688,-5.253906C74.51033,-5.266484,74.716621,-5.263873,74.921875,-5.246094M1.410156,-2.421875C1.386493,-2.035851,1.490857,-1.652723,1.707031,-1.332031C1.948123,-1.02118,2.346173,-0.876849,2.730469,-0.960938C2.975145,-0.976599,3.187055,-1.136299,3.269531,-1.367188C3.347428,-1.624085,3.383039,-1.891828,3.375,-2.160156L3.375,-5.175781L4.15625,-5.175781L4.15625,-2.421875C4.134326,-2.035885,4.235548,-1.652883,4.445313,-1.328125C4.691412,-1.01956,5.090829,-0.877343,5.476563,-0.960938C5.721239,-0.976599,5.933149,-1.136299,6.015625,-1.367188C6.093522,-1.624085,6.129133,-1.891828,6.121094,-2.160156L6.121094,-5.175781L6.902344,-5.175781L6.902344,-2.007813C6.930963,-1.599013,6.844321,-1.190175,6.652344,-0.828125C6.437796,-0.516667,6.08127,-0.333269,5.703125,-0.339844C5.279697,-0.281631,4.850722,-0.398752,4.515625,-0.664063C4.340963,-0.832693,4.190497,-1.024553,4.068359,-1.234375C3.976429,-0.733357,3.548091,-0.362727,3.039063,-0.34375C2.606873,-0.271092,2.163961,-0.381467,1.816406,-0.648438C1.648033,-0.825825,1.501151,-1.022542,1.378906,-1.234375C1.37466,-0.963244,1.362937,-0.692361,1.34375,-0.421875L0.597656,-0.421875C0.618211,-0.693518,0.627332,-0.965871,0.625,-1.238281L0.625,-5.175781L1.410156,-5.175781L1.410156,-2.421875M15.914063,-2.421875C15.889223,-2.031632,16.007265,-1.645563,16.246094,-1.335938C16.468468,-1.073067,16.800621,-0.928653,17.144531,-0.945313C17.388041,-0.915907,17.634052,-0.980206,17.832031,-1.125C17.995319,-1.290343,18.091261,-1.510034,18.101563,-1.742188C18.120811,-1.880634,18.128649,-2.020425,18.125,-2.160156L18.125,-5.175781L18.921875,-5.175781L18.921875,-2.007813C18.938295,-1.642643,18.868713,-1.278673,18.71875,-0.945313C18.522869,-0.604245,18.169697,-0.382962,17.777344,-0.355469C17.350864,-0.282741,16.912329,-0.345584,16.523438,-0.535156C16.253345,-0.705812,16.035715,-0.947773,15.894531,-1.234375L15.878906,-1.234375C15.874272,-0.963258,15.862554,-0.692381,15.84375,-0.421875L15.097656,-0.421875C15.118211,-0.693518,15.127332,-0.965871,15.125,-1.238281L15.125,-5.175781L15.914063,-5.175781L15.914063,-2.421875M9.59375,-5.25C10.100475,-5.21535,10.562077,-4.944756,10.839844,-4.519531L11,-4.265625L11.023438,-4.265625C11.018766,-4.52523,11.099798,-4.779315,11.253906,-4.988281C11.421967,-5.154913,11.654846,-5.239205,11.890625,-5.21875C12.095639,-5.21653,12.299869,-5.192966,12.5,-5.148438L12.5,-4.65625C12.316862,-4.729517,12.108077,-4.702863,11.949219,-4.585938C11.830331,-4.407534,11.776576,-4.193893,11.796875,-3.980469C11.810795,-3.234349,11.80949,-2.488232,11.792969,-1.742188C11.77071,-0.991729,11.16829,-0.385885,10.417969,-0.359375C9.916916,-0.287314,9.405751,-0.339638,8.929688,-0.511719C8.468409,-0.698568,8.146187,-1.122701,8.089844,-1.617188L8.914063,-1.691406C8.922809,-1.341468,9.175449,-1.044819,9.519531,-0.980469C9.883601,-0.881211,10.271414,-0.914452,10.613281,-1.074219C10.836919,-1.2263,10.974734,-1.475817,10.984375,-1.746094C10.99976,-1.921423,11.004978,-2.097502,11,-2.273438C10.557116,-2.271816,10.114187,-2.282238,9.671875,-2.304688C9.260176,-2.313844,8.856789,-2.422397,8.496094,-2.621094C8.084522,-2.888923,7.848721,-3.357543,7.878906,-3.847656C7.858202,-4.227635,7.98724,-4.600727,8.238281,-4.886719C8.530068,-5.155817,8.920608,-5.291656,9.316406,-5.261719L9.59375,-5.25M84.5,-5.257813C84.978561,-5.263105,85.444084,-5.101486,85.816406,-4.800781C86.320335,-4.314198,86.344559,-3.516269,85.871094,-3C85.568161,-2.74564,85.207352,-2.569928,84.820313,-2.488281C84.42556,-2.402864,84.036667,-2.291936,83.65625,-2.15625C83.475334,-2.098058,83.331146,-1.959639,83.265625,-1.78125C83.18129,-1.530623,83.273827,-1.254611,83.492188,-1.105469C83.990112,-0.88172,84.559021,-0.884566,85.054688,-1.113281C85.240456,-1.212467,85.371254,-1.390695,85.410156,-1.597656L86.121094,-1.511719C86.052582,-1.045311,85.730278,-0.655233,85.285156,-0.5C84.653389,-0.297482,83.975548,-0.290677,83.339844,-0.480469C82.74688,-0.64738,82.375336,-1.236779,82.480469,-1.84375C82.552834,-2.266848,82.846642,-2.618826,83.25,-2.765625C83.764816,-2.949506,84.288948,-3.105962,84.820313,-3.234375C85.017487,-3.290817,85.193947,-3.403481,85.328125,-3.558594C85.528824,-3.860884,85.452705,-4.267344,85.15625,-4.476563C84.799263,-4.643466,84.401985,-4.703125,84.011719,-4.648438C83.736725,-4.64207,83.471161,-4.547614,83.253906,-4.378906C83.116638,-4.259391,83.020905,-4.099335,82.980469,-3.921875L82.28125,-4.058594C82.406921,-4.652804,82.89093,-5.105581,83.492188,-5.191406C83.824348,-5.25316,84.162605,-5.275448,84.5,-5.257813M45.476563,-5.257813C45.955124,-5.263103,46.420643,-5.101483,46.792969,-4.800781C47.296886,-4.31419,47.321121,-3.51627,46.847656,-3C46.544727,-2.745642,46.183914,-2.569928,45.796875,-2.488281C45.402119,-2.402864,45.013237,-2.29194,44.632813,-2.15625C44.4519,-2.098058,44.307713,-1.959639,44.242188,-1.78125C44.157856,-1.530624,44.250393,-1.254617,44.46875,-1.105469C44.966675,-0.881722,45.535587,-0.884567,46.03125,-1.113281C46.217014,-1.212466,46.347813,-1.390696,46.386719,-1.597656L47.097656,-1.511719C47.029144,-1.045311,46.706841,-0.655233,46.261719,-0.5C45.629951,-0.297482,44.95211,-0.290676,44.316406,-0.480469C43.723442,-0.64738,43.351902,-1.236779,43.457031,-1.84375C43.529392,-2.266848,43.823204,-2.618824,44.226563,-2.765625C44.741356,-2.9495,45.265526,-3.105969,45.796875,-3.234375C45.994049,-3.290816,46.170509,-3.403481,46.304688,-3.558594C46.505367,-3.86089,46.429264,-4.267343,46.132813,-4.476563C45.775826,-4.643466,45.378544,-4.703125,44.988281,-4.648438C44.713287,-4.64207,44.447723,-4.547614,44.230469,-4.378906C44.093216,-4.259375,43.997459,-4.099335,43.957031,-3.921875L43.257813,-4.058594C43.383495,-4.652798,43.867496,-5.105573,44.46875,-5.191406C44.800915,-5.25316,45.139168,-5.275448,45.476563,-5.257813M95.996094,-5.257813C96.475708,-5.262208,96.942154,-5.100744,97.316406,-4.800781C97.818581,-4.312614,97.841049,-3.515692,97.367188,-3C97.064552,-2.745147,96.703651,-2.569394,96.316406,-2.488281C95.923088,-2.402242,95.535538,-2.291326,95.15625,-2.15625C94.975052,-2.098464,94.830757,-1.959938,94.765625,-1.78125C94.681297,-1.530623,94.773827,-1.254611,94.992188,-1.105469C95.490089,-0.881533,96.059052,-0.884378,96.554688,-1.113281C96.740074,-1.212843,96.870773,-1.390943,96.910156,-1.597656L97.621094,-1.511719C97.553055,-1.043838,97.228615,-0.652995,96.78125,-0.5C96.15081,-0.297543,95.474236,-0.290736,94.839844,-0.480469C94.246536,-0.647006,93.874855,-1.236629,93.980469,-1.84375C94.052315,-2.267142,94.34626,-2.619287,94.75,-2.765625C95.264336,-2.950938,95.788567,-3.107427,96.320313,-3.234375C96.51638,-3.293293,96.692169,-3.405531,96.828125,-3.558594C97.027863,-3.860968,96.951843,-4.266919,96.65625,-4.476563C96.385757,-4.617515,96.081642,-4.681044,95.777344,-4.660156C95.474281,-4.676653,95.171844,-4.616162,94.898438,-4.484375C94.684906,-4.365531,94.532646,-4.160614,94.480469,-3.921875L93.78125,-4.058594C93.906685,-4.651495,94.388626,-5.103796,94.988281,-5.191406C95.320457,-5.253062,95.658699,-5.275351,95.996094,-5.257813M56.40625,-0.421875L55.613281,-0.421875L55.613281,-5.175781L56.40625,-5.175781L56.40625,-0.421875M13.894531,-0.421875L13.101563,-0.421875L13.101563,-5.175781L13.894531,-5.175781L13.894531,-0.421875M90.425781,-0.421875L89.632813,-0.421875L89.632813,-5.175781L90.425781,-5.175781L90.425781,-0.421875M49.824219,-4.671875C49.332359,-4.634366,48.926361,-4.270087,48.835938,-3.785156C48.649284,-3.076937,48.668247,-2.33064,48.890625,-1.632813C49.03524,-1.217217,49.423344,-0.935099,49.863281,-0.925781C50.208107,-0.86996,50.561058,-0.957491,50.839844,-1.167969C51.091717,-1.427093,51.241432,-1.768111,51.261719,-2.128906C51.360447,-2.741338,51.31633,-3.368363,51.132813,-3.960938C50.985752,-4.378659,50.595085,-4.661933,50.152344,-4.671875C50.043217,-4.682315,49.933346,-4.682315,49.824219,-4.671875M79.210938,-4.644531C78.819397,-4.621973,78.48558,-4.35114,78.382813,-3.972656C78.156067,-3.152926,78.175072,-2.285575,78.4375,-1.476563C78.596848,-1.113321,78.967644,-0.8896,79.363281,-0.917969C79.902802,-0.870508,80.395607,-1.229673,80.515625,-1.757813C80.694847,-2.470645,80.677307,-3.218231,80.464844,-3.921875C80.305138,-4.3897,79.848335,-4.690479,79.355469,-4.652344L79.210938,-4.644531M73.242188,-2.359375C73.238998,-1.97543,73.367195,-1.601863,73.605469,-1.300781C73.834641,-1.041246,74.169846,-0.900256,74.515625,-0.917969C74.854645,-0.89418,75.187126,-1.019754,75.425781,-1.261719C75.600464,-1.477228,75.716156,-1.734169,75.761719,-2.007813L75.808594,-2.359375L73.242188,-2.359375M68.238281,-2.359375C68.234329,-1.975262,68.362587,-1.601526,68.601563,-1.300781C68.83065,-1.041115,69.165901,-0.900108,69.511719,-0.917969C69.85054,-0.895739,70.182343,-1.021055,70.421875,-1.261719C70.59655,-1.477229,70.712242,-1.734169,70.757813,-2.007813L70.804688,-2.359375L68.238281,-2.359375M36.082031,-4.503906L36.082031,-2.269531L37.648438,-2.269531C38.051311,-2.243259,38.45266,-2.338494,38.800781,-2.542969C39.060623,-2.732614,39.205151,-3.042315,39.183594,-3.363281C39.208206,-3.68799,39.077858,-4.005179,38.832031,-4.21875C38.499573,-4.433851,38.105766,-4.534017,37.710938,-4.503906L36.082031,-4.503906M9.3125,-4.65625C8.990587,-4.621964,8.737187,-4.365295,8.707031,-4.042969C8.642104,-3.737472,8.724585,-3.419128,8.929688,-3.183594C9.127377,-3.005143,9.378894,-2.897939,9.644531,-2.878906C10.095387,-2.841507,10.547613,-2.824566,11,-2.828125C11.008303,-3.019584,11.004389,-3.211381,10.988281,-3.402344C10.882708,-4.14144,10.242558,-4.68607,9.496094,-4.671875L9.3125,-4.65625M61.925781,-9.003906L61.132813,-9.003906L61.132813,-15.523438L61.925781,-15.523438L61.925781,-9.003906M42.914063,-9.003906L42.125,-9.003906L42.125,-15.523438L42.914063,-15.523438L42.914063,-9.003906M35.910156,-9.003906L35.117188,-9.003906L35.117188,-9.757813L35.910156,-9.757813L35.910156,-9.003906M33.851563,-15.589844C34.053722,-15.576397,34.253967,-15.542372,34.449219,-15.488281L34.449219,-14.90625C34.224072,-14.969578,33.987255,-14.978951,33.757813,-14.933594C33.589664,-14.859015,33.486675,-14.687368,33.5,-14.503906L33.492188,-14.347656L33.492188,-11.34375L34.371094,-11.34375L34.371094,-10.769531L33.492188,-10.769531L33.492188,-9.707031L32.964844,-9.707031L32.730469,-10.769531L32.152344,-10.769531L32.152344,-11.34375L32.699219,-11.34375L32.699219,-14.519531C32.68124,-14.807483,32.765633,-15.092485,32.9375,-15.324219C33.122128,-15.51608,33.383018,-15.614992,33.648438,-15.59375L33.851563,-15.589844M2.738281,-15.605469C3.319836,-15.591244,3.862336,-15.308451,4.207031,-14.839844C4.470377,-14.421825,4.613644,-13.939311,4.621094,-13.445313C4.682258,-12.823337,4.585502,-12.195765,4.339844,-11.621094C4.080281,-11.11692,3.583551,-10.777439,3.019531,-10.71875C2.467554,-10.614244,1.896268,-10.685313,1.386719,-10.921875C0.946757,-11.163027,0.629049,-11.578601,0.511719,-12.066406C0.27779,-12.913731,0.335549,-13.814495,0.675781,-14.625C0.975775,-15.211136,1.572273,-15.587319,2.230469,-15.605469C2.399578,-15.615885,2.569172,-15.615885,2.738281,-15.605469M82.933594,-15.597656C83.335869,-15.57268,83.720657,-15.423948,84.035156,-15.171875C84.250069,-14.989517,84.413071,-14.753736,84.507813,-14.488281L83.816406,-14.289063C83.651375,-14.702944,83.261307,-14.983313,82.816406,-15.007813C82.449692,-15.073945,82.07151,-14.98784,81.769531,-14.769531C81.466476,-14.493651,81.285164,-14.108571,81.265625,-13.699219C81.250916,-13.570858,81.2444,-13.44169,81.246094,-13.3125L84.636719,-13.3125C84.669792,-12.748538,84.568008,-12.184774,84.339844,-11.667969C84.045143,-11.080842,83.449768,-10.704959,82.792969,-10.691406C82.260681,-10.623223,81.72097,-10.745003,81.269531,-11.035156C80.790176,-11.403373,80.49147,-11.959524,80.449219,-12.5625C80.339371,-13.264593,80.434296,-13.983314,80.722656,-14.632813C80.994125,-15.146811,81.497986,-15.497766,82.074219,-15.574219C82.358612,-15.617699,82.647255,-15.62557,82.933594,-15.597656M78.449219,-13.046875C78.426834,-12.626274,78.515747,-12.20729,78.707031,-11.832031C78.859444,-11.560886,79.150032,-11.39678,79.460938,-11.40625C79.602768,-11.403726,79.7444,-11.418153,79.882813,-11.449219L79.882813,-10.726563C79.534973,-10.619966,79.157349,-10.686785,78.867188,-10.90625C78.655243,-11.144407,78.506203,-11.431756,78.433594,-11.742188L78.414063,-11.742188C78.407455,-11.417858,78.395737,-11.093488,78.378906,-10.769531L77.632813,-10.769531C77.648849,-11.139061,77.657974,-11.509043,77.660156,-11.878906L77.660156,-15.523438L78.449219,-15.523438L78.449219,-13.046875M65.261719,-15.605469C65.843277,-15.591246,66.385773,-15.308453,66.730469,-14.839844C66.99382,-14.421827,67.137085,-13.939311,67.144531,-13.445313C67.189491,-12.897594,67.124413,-12.346402,66.953125,-11.824219C66.734337,-11.215713,66.186111,-10.78594,65.542969,-10.71875C64.990952,-10.614993,64.419922,-10.686029,63.910156,-10.921875C63.401356,-11.213043,63.056435,-11.723931,62.976563,-12.304688C62.836338,-13.010021,62.882111,-13.739594,63.109375,-14.421875C63.362354,-15.116171,64.015213,-15.58604,64.753906,-15.605469C64.923019,-15.615891,65.092606,-15.615885,65.261719,-15.605469M58.816406,-15.589844C59.59277,-15.501372,60.204712,-14.886194,60.289063,-14.109375L59.488281,-14.058594C59.466946,-14.531257,59.106457,-14.919878,58.636719,-14.976563C58.260376,-15.052277,57.871552,-14.924637,57.613281,-14.640625C57.390533,-14.327062,57.265522,-13.954765,57.253906,-13.570313C57.19231,-13.031077,57.240128,-12.48516,57.394531,-11.964844C57.544106,-11.532482,57.97028,-11.258029,58.425781,-11.300781C58.872932,-11.25839,59.286728,-11.543601,59.40625,-11.976563L59.449219,-12.164063L60.261719,-12.101563C60.148029,-11.357581,59.545547,-10.784007,58.796875,-10.707031C58.250896,-10.608152,57.68726,-10.725922,57.226563,-11.035156C56.827652,-11.357879,56.563187,-11.817201,56.484375,-12.324219C56.345604,-13.025532,56.389988,-13.750545,56.613281,-14.429688C56.85865,-15.110304,57.491982,-15.575252,58.214844,-15.605469C58.415398,-15.619814,58.616871,-15.61458,58.816406,-15.589844M52.4375,-12.769531C52.414738,-12.380095,52.531017,-11.995264,52.765625,-11.683594C53.039555,-11.380341,53.448017,-11.236341,53.851563,-11.300781C54.221992,-11.284067,54.544895,-11.5543,54.59375,-11.921875C54.631001,-12.116275,54.649311,-12.313784,54.648438,-12.511719L54.648438,-15.523438L55.441406,-15.523438L55.441406,-12.355469C55.473225,-11.943113,55.376289,-11.53076,55.164063,-11.175781C54.956062,-10.903913,54.642075,-10.733416,54.300781,-10.707031C53.874287,-10.632902,53.43539,-10.695795,53.046875,-10.886719C52.776402,-11.061667,52.553005,-11.300492,52.396484,-11.582031C52.397121,-11.31093,52.387344,-11.039879,52.367188,-10.769531L51.621094,-10.769531C51.638725,-10.982596,51.646545,-11.19637,51.644531,-11.410156L51.644531,-15.523438L52.4375,-15.523438L52.4375,-12.769531M48.917969,-15.597656C49.321533,-15.57325,49.707775,-15.424493,50.023438,-15.171875C50.235245,-14.986678,50.39761,-14.751835,50.496094,-14.488281L49.800781,-14.289063C49.637875,-14.704561,49.246536,-14.985861,48.800781,-15.007813C48.435295,-15.074844,48.05793,-14.988629,47.757813,-14.769531C47.454815,-14.493143,47.272434,-14.108726,47.25,-13.699219C47.235302,-13.570856,47.228779,-13.441692,47.230469,-13.3125L50.621094,-13.3125C50.652782,-12.748993,50.552467,-12.185862,50.328125,-11.667969C50.032784,-11.081532,49.437698,-10.705849,48.78125,-10.691406C48.247715,-10.62283,47.706615,-10.744608,47.253906,-11.035156C46.776733,-11.405371,46.478729,-11.960242,46.433594,-12.5625C46.321907,-13.264954,46.418297,-13.984528,46.710938,-14.632813C46.979671,-15.147494,47.482868,-15.499015,48.058594,-15.574219C48.342983,-15.617713,48.631634,-15.625586,48.917969,-15.597656M38.609375,-15.597656C39.221039,-15.546659,39.75835,-15.170542,40.015625,-14.613281L40.042969,-14.613281C40.037724,-14.87363,40.117237,-15.128623,40.269531,-15.339844C40.437931,-15.505857,40.670609,-15.590096,40.90625,-15.570313C41.112537,-15.567794,41.318031,-15.544237,41.519531,-15.5L41.519531,-15.007813C41.362846,-15.052231,41.196407,-15.046773,41.042969,-14.992188C40.891773,-14.873116,40.808781,-14.6882,40.820313,-14.496094C40.801842,-13.757876,40.800537,-13.019532,40.816406,-12.28125C40.843643,-11.838697,40.678406,-11.405663,40.363281,-11.09375C39.980431,-10.791863,39.497776,-10.645395,39.011719,-10.683594C38.647621,-10.667727,38.284103,-10.728978,37.945313,-10.863281C37.484058,-11.047934,37.161388,-11.471159,37.105469,-11.964844L37.933594,-12.039063C37.939816,-11.688332,38.193798,-11.390121,38.539063,-11.328125C38.841164,-11.263672,39.154049,-11.270359,39.453125,-11.347656C39.701412,-11.417736,39.892609,-11.6164,39.953125,-11.867188C40.007427,-12.115952,40.028435,-12.370699,40.015625,-12.625C39.572674,-12.615497,39.129517,-12.625924,38.6875,-12.65625C38.275822,-12.665525,37.872452,-12.774068,37.511719,-12.972656C37.100037,-13.240398,36.86422,-13.709066,36.894531,-14.199219C36.874706,-14.577894,37.003696,-14.949448,37.253906,-15.234375C37.544788,-15.505336,37.935585,-15.642679,38.332031,-15.613281L38.609375,-15.597656M30.433594,-13.046875C30.407204,-12.626021,30.496361,-12.205892,30.691406,-11.832031C30.842228,-11.559349,31.133917,-11.394607,31.445313,-11.40625C31.587122,-11.40431,31.728682,-11.41873,31.867188,-11.449219L31.867188,-10.726563C31.519402,-10.619036,31.141338,-10.685915,30.851563,-10.90625C30.636646,-11.142879,30.485996,-11.430725,30.414063,-11.742188L30.398438,-11.742188C30.391401,-11.417871,30.379679,-11.093506,30.363281,-10.769531L29.617188,-10.769531C29.634663,-11.139035,29.642479,-11.508996,29.640625,-11.878906L29.640625,-15.523438L30.433594,-15.523438L30.433594,-13.046875M26.109375,-15.597656C26.721041,-15.546671,27.258352,-15.170546,27.515625,-14.613281L27.542969,-14.613281C27.537722,-14.873629,27.617237,-15.128622,27.769531,-15.339844C27.937906,-15.505888,28.170603,-15.590109,28.40625,-15.570313C28.612539,-15.56779,28.818027,-15.54423,29.019531,-15.5L29.019531,-15.007813C28.862846,-15.05223,28.696407,-15.046773,28.542969,-14.992188C28.391743,-14.873143,28.308741,-14.688205,28.320313,-14.496094C28.301842,-13.757963,28.300537,-13.019442,28.316406,-12.28125C28.343277,-11.838778,28.17808,-11.405847,27.863281,-11.09375C27.480429,-10.791864,26.997778,-10.645396,26.511719,-10.683594C26.147621,-10.667727,25.784105,-10.728978,25.445313,-10.863281C24.984058,-11.047934,24.661388,-11.471159,24.605469,-11.964844L25.433594,-12.039063C25.439816,-11.688332,25.693798,-11.390121,26.039063,-11.328125C26.341166,-11.263672,26.654051,-11.270359,26.953125,-11.347656C27.20141,-11.417736,27.392611,-11.616399,27.453125,-11.867188C27.507427,-12.115952,27.528437,-12.3707,27.515625,-12.625C27.072674,-12.615497,26.629515,-12.625924,26.1875,-12.65625C25.775824,-12.665525,25.372452,-12.774067,25.011719,-12.972656C24.600037,-13.240399,24.36422,-13.709066,24.394531,-14.199219C24.374712,-14.577893,24.503708,-14.94944,24.753906,-15.234375C25.044098,-15.506386,25.435469,-15.643932,25.832031,-15.613281L26.109375,-15.597656M12.917969,-12.769531C12.895206,-12.380095,13.011486,-11.995264,13.246094,-11.683594C13.520537,-11.38107,13.928542,-11.237241,14.332031,-11.300781C14.599546,-11.288451,14.851848,-11.427448,14.984375,-11.660156C15.094882,-11.929893,15.144227,-12.220626,15.128906,-12.511719L15.128906,-15.523438L15.925781,-15.523438L15.925781,-12.355469C15.952166,-11.94355,15.855596,-11.532795,15.648438,-11.175781C15.438348,-10.904318,15.123445,-10.7341,14.78125,-10.707031C14.354766,-10.633245,13.915941,-10.696131,13.527344,-10.886719C13.258572,-11.057234,13.041206,-11.297548,12.898438,-11.582031L12.882813,-11.582031C12.878117,-11.310935,12.866394,-11.040016,12.847656,-10.769531L12.101563,-10.769531C12.1215,-11.04251,12.130621,-11.316143,12.128906,-11.589844L12.128906,-15.523438L12.917969,-15.523438L12.917969,-12.769531M20.40625,-15.21875C20.409256,-15.07395,20.402733,-14.9291,20.386719,-14.785156L20.410156,-14.785156C20.629946,-15.263554,21.099024,-15.57879,21.625,-15.601563C22.094971,-15.679711,22.576832,-15.557829,22.953125,-15.265625C23.304205,-14.919872,23.52376,-14.462815,23.574219,-13.972656C23.691088,-13.252907,23.653814,-12.516763,23.464844,-11.8125C23.278286,-11.106813,22.614666,-10.633735,21.886719,-10.6875C21.569416,-10.673151,21.254019,-10.743238,20.972656,-10.890625C20.72542,-11.043858,20.530596,-11.268648,20.414063,-11.535156L20.398438,-11.535156C20.393629,-11.279395,20.377991,-11.023969,20.351563,-10.769531L19.589844,-10.769531C19.606457,-10.981358,19.614277,-11.193772,19.613281,-11.40625L19.613281,-17.390625L20.40625,-17.390625L20.40625,-15.21875M69.996094,-15.609375C70.475586,-15.613218,70.941902,-15.451797,71.316406,-15.152344C71.818466,-14.662596,71.840904,-13.864866,71.367188,-13.347656C71.063057,-13.095932,70.702614,-12.921737,70.316406,-12.839844C69.922073,-12.756212,69.534264,-12.643915,69.15625,-12.503906C68.975128,-12.448319,68.830399,-12.310859,68.765625,-12.132813C68.679375,-11.882144,68.77227,-11.605058,68.992188,-11.457031C69.48922,-11.23101,70.0588,-11.232427,70.554688,-11.460938C70.739883,-11.562706,70.870193,-11.741718,70.910156,-11.949219L71.621094,-11.859375C71.551849,-11.392851,71.227638,-11.003804,70.78125,-10.851563C70.100983,-10.624228,69.36364,-10.63663,68.691406,-10.886719C68.124481,-11.12975,67.831245,-11.761735,68.011719,-12.351563C68.132607,-12.703376,68.402817,-12.983591,68.75,-13.117188C69.265739,-13.298223,69.789742,-13.45464,70.320313,-13.585938C70.562584,-13.639565,70.769821,-13.796749,70.886719,-14.015625C71.009766,-14.305854,70.913795,-14.642443,70.65625,-14.824219C70.298866,-14.994406,69.899742,-15.055491,69.507813,-15C69.233421,-14.990718,68.968643,-14.896519,68.75,-14.730469C68.616898,-14.608144,68.523125,-14.449107,68.480469,-14.273438L67.78125,-14.410156C67.907028,-15.002361,68.389,-15.453127,68.988281,-15.539063C69.32003,-15.60409,69.658539,-15.627703,69.996094,-15.609375M7.335938,-15.140625C7.671494,-13.908319,7.978912,-12.66823,8.257813,-11.421875L8.414063,-12.164063L9.246094,-15.523438L10.164063,-15.523438L11.527344,-10.769531L10.753906,-10.769531L9.851563,-14.257813L9.714844,-14.871094C9.384705,-13.50032,9.041016,-12.133415,8.683594,-10.769531L7.835938,-10.769531L6.839844,-14.542969L6.765625,-14.871094C6.710487,-14.57917,6.647976,-14.288754,6.578125,-14L5.773438,-10.769531L4.992188,-10.769531L6.324219,-15.523438L7.238281,-15.523438L7.335938,-15.140625M74.378906,-15.601563C74.929382,-15.554431,75.41188,-15.21385,75.640625,-14.710938L75.65625,-14.710938C75.660492,-14.982049,75.672218,-15.252972,75.691406,-15.523438L76.4375,-15.523438C76.416939,-15.251809,76.407822,-14.979434,76.410156,-14.707031L76.410156,-10.769531L75.621094,-10.769531L75.621094,-13.523438C75.634583,-13.826261,75.569962,-14.127719,75.433594,-14.398438C75.231606,-14.783838,74.825371,-15.01816,74.390625,-15C74.147118,-15.029425,73.9011,-14.965115,73.703125,-14.820313C73.536926,-14.657055,73.440384,-14.435996,73.433594,-14.203125C73.414368,-14.064677,73.406525,-13.924887,73.410156,-13.785156L73.410156,-10.769531L72.613281,-10.769531L72.613281,-13.9375C72.596809,-14.301387,72.666428,-14.664143,72.816406,-14.996094C73.010254,-15.339697,73.36422,-15.562976,73.757813,-15.589844C73.96376,-15.617073,74.172081,-15.621004,74.378906,-15.601563M35.910156,-10.769531L35.117188,-10.769531L35.117188,-15.523438L35.910156,-15.523438L35.910156,-10.769531M47.238281,-12.707031C47.235203,-12.324251,47.363407,-11.95203,47.601563,-11.652344C47.831261,-11.393038,48.165619,-11.250962,48.511719,-11.265625C48.851181,-11.243528,49.18359,-11.3705,49.421875,-11.613281C49.59697,-11.828562,49.7127,-12.085571,49.757813,-12.359375L49.804688,-12.707031L47.238281,-12.707031M64.839844,-15.019531C64.407906,-14.991737,64.037132,-14.701633,63.90625,-14.289063C63.670437,-13.537258,63.670433,-12.732271,63.90625,-11.980469C64.054817,-11.567864,64.44059,-11.287432,64.878906,-11.273438C65.225487,-11.217695,65.580193,-11.306733,65.859375,-11.519531C66.108856,-11.780249,66.258171,-12.120357,66.28125,-12.480469C66.377083,-13.093291,66.331657,-13.719906,66.148438,-14.3125C66.005539,-14.731006,65.614075,-15.014406,65.171875,-15.019531C65.061447,-15.029964,64.950272,-15.029963,64.839844,-15.019531M81.253906,-12.707031C81.247002,-12.323703,81.375687,-11.950114,81.617188,-11.652344C81.920502,-11.328948,82.372353,-11.190723,82.804688,-11.289063C83.226746,-11.346901,83.57473,-11.648879,83.691406,-12.058594C83.757858,-12.269402,83.801079,-12.486837,83.820313,-12.707031L81.253906,-12.707031M2.316406,-15.019531C1.82568,-14.98243,1.420139,-14.620168,1.328125,-14.136719C1.14187,-13.427145,1.160827,-12.679688,1.382813,-11.980469C1.531089,-11.5676,1.916994,-11.287083,2.355469,-11.273438C2.700877,-11.216557,3.05483,-11.305752,3.332031,-11.519531C3.585616,-11.7775,3.735629,-12.119195,3.753906,-12.480469C3.852592,-13.0929,3.808474,-13.719918,3.625,-14.3125C3.481052,-14.731839,3.087871,-15.015369,2.644531,-15.019531C2.535405,-15.029972,2.425532,-15.029972,2.316406,-15.019531M21.515625,-15.023438C21.032778,-15.00149,20.624838,-14.656184,20.523438,-14.183594C20.332588,-13.434896,20.366531,-12.647471,20.621094,-11.917969C20.763184,-11.572537,21.088469,-11.336519,21.460938,-11.308594C21.787123,-11.242464,22.126127,-11.327208,22.382813,-11.539063C22.582497,-11.743344,22.707731,-12.008942,22.738281,-12.292969C22.857496,-12.974883,22.828194,-13.674196,22.652344,-14.34375C22.529755,-14.77366,22.121683,-15.059319,21.675781,-15.027344L21.515625,-15.023438M38.332031,-15.007813C38.009712,-14.972754,37.755642,-14.717072,37.722656,-14.394531C37.657642,-14.087215,37.741688,-13.767048,37.949219,-13.53125C38.144226,-13.351681,38.395485,-13.245373,38.660156,-13.230469C39.110668,-13.18803,39.563202,-13.171076,40.015625,-13.179688C40.041328,-13.430511,40.025486,-13.684016,39.96875,-13.929688C39.771641,-14.649197,39.070915,-15.110757,38.332031,-15.007813M25.832031,-15.007813C25.509716,-14.972746,25.255667,-14.717064,25.222656,-14.394531C25.157682,-14.087212,25.241703,-13.767055,25.449219,-13.53125C25.644228,-13.351687,25.895489,-13.245388,26.160156,-13.230469C26.610668,-13.18803,27.063196,-13.171078,27.515625,-13.179688C27.541348,-13.43051,27.525503,-13.684019,27.46875,-13.929688C27.27162,-14.649187,26.570911,-15.110748,25.832031,-15.007813M86.714844,-14.5625L85.855469,-14.5625L85.855469,-15.523438L86.714844,-15.523438L86.714844,-14.5625M6.910156,-23.070313C6.893697,-22.694897,7.012973,-22.325975,7.246094,-22.03125C7.518494,-21.733469,7.921368,-21.591364,8.320313,-21.652344C8.685381,-21.637093,9.005967,-21.89423,9.070313,-22.253906C9.109171,-22.453287,9.1262,-22.656305,9.121094,-22.859375L9.121094,-25.875L9.917969,-25.875L9.917969,-22.707031C9.951629,-22.29163,9.85312,-21.875708,9.636719,-21.519531C9.381197,-21.210072,8.998934,-21.033314,8.597656,-21.039063C8.220092,-20.993486,7.837442,-21.067284,7.503906,-21.25C7.243505,-21.420677,7.032149,-21.656265,6.890625,-21.933594L6.875,-21.933594C6.900003,-21.640011,6.911734,-21.345423,6.910156,-21.050781L6.910156,-19.351563L6.121094,-19.351563L6.121094,-25.875L6.910156,-25.875L6.910156,-23.070313M29.894531,-19.351563L29.101563,-19.351563L29.101563,-20.109375L29.894531,-20.109375L29.894531,-19.351563M20.894531,-19.351563L20.101563,-19.351563L20.101563,-20.109375L20.894531,-20.109375L20.894531,-19.351563M11.894531,-19.351563L11.105469,-19.351563L11.105469,-20.109375L11.894531,-20.109375L11.894531,-19.351563M3.164063,-20.367188L5.292969,-20.367188L5.292969,-19.683594L0.203125,-19.683594L0.203125,-20.367188L2.328125,-20.367188L2.328125,-25.875L3.164063,-25.875L3.164063,-20.367188M32.335938,-25.9375C32.536766,-25.92622,32.735828,-25.893486,32.929688,-25.839844L32.929688,-25.253906C32.705338,-25.321976,32.467308,-25.331383,32.238281,-25.28125C32.070419,-25.208614,31.967043,-25.03788,31.980469,-24.855469L31.972656,-24.695313L31.972656,-21.695313L32.851563,-21.695313L32.851563,-21.121094L31.972656,-21.121094L31.972656,-20.054688L31.445313,-20.054688L31.214844,-21.121094L30.632813,-21.121094L30.632813,-21.695313L31.183594,-21.695313L31.183594,-24.867188C31.160597,-25.156841,31.245485,-25.44488,31.421875,-25.675781C31.60684,-25.86705,31.867537,-25.965914,32.132813,-25.945313L32.335938,-25.9375M14.96875,-25.957031C15.446477,-25.961178,15.911199,-25.801218,16.285156,-25.503906C16.789066,-25.01576,16.81328,-24.216974,16.339844,-23.699219C16.034946,-23.447803,15.674996,-23.272514,15.289063,-23.1875C14.89415,-23.102682,14.505238,-22.991753,14.125,-22.855469C13.974326,-22.803606,13.846782,-22.699635,13.765625,-22.5625C13.632633,-22.295746,13.717863,-21.971556,13.964844,-21.804688C14.462819,-21.581272,15.031627,-21.584118,15.527344,-21.8125C15.70907,-21.915514,15.837288,-22.092169,15.878906,-22.296875L16.589844,-22.210938C16.522827,-21.744797,16.199631,-21.355137,15.753906,-21.203125C15.073152,-20.970766,14.332726,-20.983196,13.660156,-21.238281C13.147337,-21.455248,12.852168,-21.998568,12.949219,-22.546875C13.022175,-22.970182,13.317865,-23.321125,13.722656,-23.464844C14.165787,-23.64045,14.623231,-23.777679,15.089844,-23.875C15.362086,-23.918343,15.611773,-24.05353,15.796875,-24.257813C15.997618,-24.559294,15.923392,-24.964909,15.628906,-25.175781C15.356847,-25.316309,15.051623,-25.379791,14.746094,-25.359375C14.443011,-25.375614,14.140709,-25.315159,13.867188,-25.183594C13.655711,-25.062317,13.504319,-24.858568,13.449219,-24.621094L12.75,-24.757813C12.87743,-25.35117,13.360413,-25.802992,13.960938,-25.890625C14.292512,-25.956844,14.631356,-25.97917,14.96875,-25.957031M23.964844,-25.957031C24.44368,-25.960552,24.909395,-25.80072,25.285156,-25.503906C25.789787,-25.015614,25.812305,-24.21512,25.335938,-23.699219C25.032221,-23.448206,24.673702,-23.272959,24.289063,-23.1875C23.89415,-23.102682,23.505238,-22.991753,23.125,-22.855469C22.973974,-22.804182,22.846317,-22.700079,22.765625,-22.5625C22.633575,-22.296474,22.716764,-21.973763,22.960938,-21.804688C23.458908,-21.581242,24.027733,-21.584076,24.523438,-21.8125C24.707256,-21.91394,24.837276,-22.091093,24.878906,-22.296875L25.589844,-22.210938C25.523325,-21.743313,25.19796,-21.352886,24.75,-21.203125C24.07056,-20.970804,23.331396,-20.983236,22.660156,-21.238281C22.093699,-21.479788,21.800341,-22.110361,21.980469,-22.699219C22.100159,-23.051874,22.370684,-23.332399,22.71875,-23.464844C23.233715,-23.649351,23.75782,-23.807104,24.289063,-23.9375C24.486641,-23.990877,24.663597,-24.102495,24.796875,-24.257813C24.998392,-24.559875,24.922134,-24.967064,24.625,-25.175781C24.267859,-25.342201,23.870737,-25.401846,23.480469,-25.347656C23.205732,-25.343784,22.939688,-25.250532,22.722656,-25.082031C22.585491,-24.960785,22.489916,-24.799583,22.449219,-24.621094L21.75,-24.757813C21.875074,-25.350964,22.357145,-25.8034,22.957031,-25.890625C23.288624,-25.95668,23.627455,-25.979006,23.964844,-25.957031M11.894531,-21.121094L11.105469,-21.121094L11.105469,-25.875L11.894531,-25.875L11.894531,-21.121094M20.894531,-21.121094L20.101563,-21.121094L20.101563,-25.875L20.894531,-25.875L20.894531,-21.121094M29.894531,-21.121094L29.101563,-21.121094L29.101563,-25.875L29.894531,-25.875L29.894531,-21.121094M34.675781,-24.914063L33.820313,-24.914063L33.820313,-25.875L34.675781,-25.875L34.675781,-24.914063"/>
</svg>
